<svg width="53" height="53" viewBox="0 0 53 53" fill="none" xmlns="http://www.w3.org/2000/svg">
<path d="M26.2236 52.2067C40.3222 52.2067 51.7534 40.8007 51.7534 26.7282C51.7534 12.6557 40.3222 1.24978 26.2236 1.24978C12.1251 1.24978 0.693868 12.6557 0.693868 26.7282C0.693868 40.8007 12.1251 52.2067 26.2236 52.2067Z" fill="#1C202B" stroke="#526480" stroke-width="1.16695"/>
<path d="M21.8398 2.05668C21.8398 2.05668 24.6431 1.73608 26.3224 1.73608C28.0017 1.73608 30.7075 2.05668 30.7075 2.05668L29.3554 7.57084H28.3444H26.3224H24.3004H23.2894L21.8398 2.05668Z" fill="#526480"/>
<path d="M39.6926 5.66797C39.6926 5.66797 41.9799 7.31677 43.2204 8.44634C44.4609 9.57592 46.2431 11.6328 46.2431 11.6328L41.5199 14.7966L40.7731 14.1166L39.2794 12.7565L37.7858 11.3963L37.039 10.7163L39.6926 5.66797Z" fill="#1E84F0"/>
<path d="M50.8965 22.2549C50.8965 22.2549 51.2178 25.0524 51.2178 26.7282C51.2178 28.404 50.8965 31.1043 50.8965 31.1043L45.371 29.755L45.371 28.7461L45.371 26.7282L45.371 24.7103L45.371 23.7014L50.8965 22.2549Z" fill="#526480"/>
<path d="M47.3489 40.1266C47.3489 40.1266 45.6838 42.3998 44.545 43.6314C43.4061 44.863 41.335 46.6299 41.335 46.6299L38.1913 41.8987L38.8769 41.1573L40.2482 39.6744L41.6195 38.1915L42.3052 37.45L47.3489 40.1266Z" fill="#1E84F0"/>
<path d="M30.6116 51.4155C30.6116 51.4155 27.8071 51.7249 26.1279 51.7181C24.4486 51.7114 21.7441 51.38 21.7441 51.38L23.1183 45.8713L24.1293 45.8753L26.1513 45.8834L28.1733 45.8915L29.1843 45.8956L30.6116 51.4155Z" fill="#526480"/>
<path d="M12.0688 47.3852C12.0688 47.3852 9.85787 45.6357 8.66939 44.4517C7.48092 43.2678 5.79291 41.1332 5.79291 41.1332L10.6535 38.1839L11.369 38.8967L12.8001 40.3223L14.2311 41.7479L14.9466 42.4607L12.0688 47.3852Z" fill="#1E84F0"/>
<path d="M1.53903 31.1045C1.53903 31.1045 1.21777 28.307 1.21777 26.6312C1.21777 24.9553 1.53903 22.2551 1.53903 22.2551L7.06456 23.6044L7.06456 24.6133L7.06456 26.6312L7.06456 28.649L7.06456 29.658L1.53903 31.1045Z" fill="#526480"/>
<path d="M6.13356 11.7452C6.13356 11.7452 7.93379 9.57701 9.14546 8.41671C10.3571 7.25641 12.5319 5.61815 12.5319 5.61815L15.3821 10.5311L14.6526 11.2296L13.1936 12.6267L11.7347 14.0238L11.0052 14.7224L6.13356 11.7452Z" fill="#1E84F0"/>
<path d="M42.9017 26.728C42.9017 35.896 35.4539 43.3306 26.2634 43.3306C17.073 43.3306 9.62513 35.896 9.62513 26.728C9.62513 17.56 17.073 10.1254 26.2634 10.1254C35.4539 10.1254 42.9017 17.56 42.9017 26.728Z" fill="#1C202B" stroke="#526480" stroke-width="1.41433"/>
<rect width="35.2047" height="8.22754" transform="translate(8.61523 22.6411)" fill="#1C202B"/>
<path d="M17.0173 28.623H15.5151V30.3659H13.2041V23.1439H16.844C18.5002 23.1439 19.3283 24.033 19.3283 25.8112C19.3283 26.2028 19.2898 26.5687 19.2128 26.909C19.1357 27.2492 19.0041 27.5477 18.818 27.8045C18.6382 28.0549 18.4007 28.2539 18.1054 28.4015C17.8165 28.5492 17.4538 28.623 17.0173 28.623ZM16.0447 24.9927H15.5151V26.7742H16.0447C16.3272 26.7742 16.5294 26.7453 16.6514 26.6875C16.7798 26.6297 16.844 26.4949 16.844 26.2831V25.4742C16.844 25.2688 16.7798 25.1372 16.6514 25.0794C16.5294 25.0216 16.3272 24.9927 16.0447 24.9927Z" fill="#1E84F0"/>
<path d="M20.1309 23.1439H22.3877V28.4381H23.187C23.4754 28.4381 23.6697 28.4005 23.77 28.3253C23.8766 28.2501 23.9299 28.0871 23.9299 27.8363V23.1439H26.1868V27.1028C26.1868 27.7047 26.146 28.2125 26.0645 28.6262C25.9893 29.04 25.8388 29.3785 25.6132 29.6418C25.3937 29.8988 25.0865 30.0838 24.6916 30.1966C24.2966 30.3095 23.7857 30.3659 23.1588 30.3659C22.5319 30.3659 22.021 30.3095 21.626 30.1966C21.2311 30.0838 20.9208 29.8988 20.6951 29.6418C20.4757 29.3848 20.3252 29.0494 20.2437 28.6356C20.1685 28.2156 20.1309 27.7047 20.1309 27.1028V23.1439Z" fill="#1E84F0"/>
<path d="M32.035 27.9586L33.2868 30.3659H30.7447L29.801 28.2186H29.3003V30.3659H26.9893V23.1439H30.6291C32.2854 23.1439 33.1135 23.9881 33.1135 25.6764C33.1135 26.8319 32.754 27.5926 32.035 27.9586ZM29.8299 24.9927H29.3003V26.4371H29.8299C30.1124 26.4371 30.3146 26.4082 30.4365 26.3505C30.5649 26.2927 30.6291 26.1611 30.6291 25.9557V25.4742C30.6291 25.2688 30.5649 25.1372 30.4365 25.0794C30.3146 25.0216 30.1124 24.9927 29.8299 24.9927Z" fill="#1E84F0"/>
<path d="M38.7109 25.9653V27.6408H36.3999V28.5171H39.2309V30.3659H34.0889V23.1439H39.1731L38.8842 24.9927H36.3999V25.9653H38.7109Z" fill="#1E84F0"/>
</svg>
