<svg width="867" height="205" viewBox="0 0 867 205" fill="none" xmlns="http://www.w3.org/2000/svg">
<g clip-path="url(#clip0_1076_8266)">
<rect y="0.5" width="867" height="204.478" rx="20" fill="#466DF5"/>
<path d="M-131.033 -17.1768L1.50619 -76.1103C154.004 -143.918 332.985 -76.1257 401.269 75.3103L460.617 206.926L328.077 265.859C175.58 333.667 -3.40193 265.873 -71.6858 114.439L-131.033 -17.1768Z" fill="#1A3EBD" fill-opacity="0.7"/>
<path d="M-34.5322 -17.7422L65.679 -45.0183C180.98 -76.4018 300.073 -9.02399 331.677 105.475L359.144 204.988L258.933 232.264C143.631 263.647 24.539 196.269 -7.06468 81.7707L-34.5322 -17.7422Z" fill="#1A3EBD"/>
<g clip-path="url(#clip1_1076_8266)">
<path fill-rule="evenodd" clip-rule="evenodd" d="M908.086 236.567C983.012 193.499 1008.84 97.8456 965.772 22.9188C922.704 -52.0079 827.05 -77.8348 752.123 -34.7671C677.197 8.30059 651.37 103.954 694.437 178.881C737.505 253.808 833.159 279.635 908.086 236.567ZM860.807 156.424L860.774 156.443C860.435 155.801 860.083 155.164 859.72 154.532C843.157 125.717 806.775 115.412 777.656 130.928C805.414 112.773 814.315 75.5388 797.579 46.4235C814.922 76.5948 853.654 87.3639 883.825 70.0216C853.654 87.3639 843.465 126.253 860.807 156.424ZM883.825 70.0216C884.434 69.6717 885.036 69.3108 885.629 68.9458L885.662 69.0045C885.049 69.3328 884.434 69.6717 883.825 70.0216Z" fill="#1A3EBD"/>
<g filter="url(#filter0_d_1076_8266)">
<path d="M821.147 -25.0054C825.563 -31.0996 834.644 -31.0996 839.06 -25.0054L845.668 -15.8867C849.062 -11.2041 855.489 -9.92564 860.416 -12.9532L870.011 -18.849C876.423 -22.7893 884.813 -19.3141 886.561 -11.9939L889.176 -1.04052C890.519 4.58419 895.968 8.22508 901.678 7.31342L912.799 5.53808C920.231 4.3516 926.652 10.7728 925.466 18.2048L923.69 29.3252C922.779 35.0357 926.42 40.4847 932.044 41.8278L942.998 44.4432C950.318 46.1911 953.793 54.5808 949.853 60.993L943.957 70.5876C940.929 75.5145 942.208 81.942 946.89 85.3354L956.009 91.9433C962.103 96.3595 962.103 105.441 956.009 109.857L946.89 116.465C942.208 119.858 940.929 126.286 943.957 131.213L949.853 140.807C953.793 147.219 950.318 155.609 942.998 157.357L932.044 159.972C926.42 161.315 922.779 166.764 923.69 172.475L925.466 183.595C926.652 191.027 920.231 197.448 912.799 196.262L901.678 194.487C895.968 193.575 890.519 197.216 889.176 202.841L886.561 213.794C884.813 221.114 876.423 224.589 870.011 220.649L860.416 214.753C855.489 211.726 849.062 213.004 845.668 217.687L839.06 226.806C834.644 232.9 825.563 232.9 821.147 226.806L814.539 217.687C811.146 213.004 804.718 211.726 799.791 214.753L790.197 220.649C783.784 224.589 775.395 221.114 773.647 213.794L771.031 202.841C769.688 197.216 764.239 193.575 758.529 194.487L747.408 196.262C739.976 197.448 733.555 191.027 734.742 183.595L736.517 172.475C737.429 166.764 733.788 161.315 728.163 159.972L717.21 157.357C709.889 155.609 706.414 147.219 710.355 140.807L716.25 131.213C719.278 126.286 717.999 119.858 713.317 116.465L704.198 109.857C698.104 105.441 698.104 96.3595 704.198 91.9433L713.317 85.3354C717.999 81.942 719.278 75.5145 716.25 70.5876L710.355 60.993C706.414 54.5808 709.889 46.1911 717.21 44.4432L728.163 41.8278C733.788 40.4847 737.429 35.0357 736.517 29.3252L734.742 18.2048C733.555 10.7728 739.976 4.3516 747.408 5.53808L758.529 7.31342C764.239 8.22508 769.688 4.58418 771.031 -1.04053L773.647 -11.9939C775.395 -19.3141 783.784 -22.7893 790.197 -18.849L799.791 -12.9532C804.718 -9.92564 811.146 -11.2042 814.539 -15.8867L821.147 -25.0054Z" fill="#466DF5"/>
</g>
<path d="M867.328 218.387C851.106 218.387 835.85 215.298 821.56 209.119C807.27 202.931 794.839 194.55 784.265 183.977C773.682 173.394 765.302 160.958 759.123 146.668C752.935 132.378 749.841 117.122 749.841 100.901C749.841 84.6787 752.931 69.4229 759.11 55.133C765.289 40.8432 773.674 28.4114 784.265 17.8376C794.856 7.26381 807.288 -1.12124 821.56 -7.31756C835.859 -13.4965 851.115 -16.5859 867.328 -16.5859C883.541 -16.5859 898.797 -13.4965 913.095 -7.31756C927.385 -1.12994 939.817 7.25511 950.391 17.8376C960.973 28.4114 969.354 40.8432 975.533 55.133C981.72 69.4316 984.814 84.6874 984.814 100.901C984.814 117.114 981.725 132.369 975.546 146.668C969.358 160.958 960.978 173.39 950.404 183.963C939.821 194.546 927.385 202.927 913.095 209.106C898.805 215.293 883.55 218.387 867.328 218.387ZM860.801 205.111V181C852.011 180.417 843.787 178.476 836.129 175.178C828.47 171.88 821.517 167.554 815.268 162.202L798.089 179.199C806.609 186.692 816.169 192.74 826.769 197.344C837.369 201.948 848.713 204.537 860.801 205.111ZM873.855 205.111C885.943 204.519 897.243 201.926 907.756 197.331C918.278 192.736 927.798 186.692 936.318 179.199L919.4 162.202C913.134 167.554 906.172 171.88 898.514 175.178C890.856 178.485 882.636 180.426 873.855 181V205.111ZM867.328 168.429C886.056 168.429 901.995 161.859 915.145 148.717C928.295 135.576 934.865 119.637 934.856 100.901C934.848 82.1636 928.277 66.229 915.145 53.0966C902.012 39.9642 886.073 33.3893 867.328 33.3719C848.582 33.3545 832.648 39.925 819.524 53.0835C806.4 66.242 799.825 82.181 799.799 100.901C799.773 119.62 806.344 135.559 819.511 148.717C832.678 161.876 848.617 168.447 867.328 168.429ZM945.626 170.126C953.128 161.615 959.176 152.059 963.771 141.459C968.366 130.86 970.955 119.516 971.538 107.428H947.427C946.844 116.217 944.904 124.441 941.605 132.1C938.307 139.758 933.982 146.712 928.63 152.96L945.626 170.126ZM789.03 170.126L806.026 152.895C800.674 146.629 796.349 139.68 793.05 132.047C789.743 124.415 787.802 116.209 787.228 107.428H763.117C763.709 119.507 766.302 130.851 770.897 141.459C775.493 152.068 781.537 161.628 789.03 170.139M867.328 145.585L833.687 100.901L867.328 56.2165L900.72 100.901L867.328 145.585ZM763.117 94.3735H787.215C787.807 85.5838 789.748 77.3771 793.037 69.7536C796.344 62.1126 800.674 55.1635 806.026 48.9062L789.03 31.9229C781.537 40.4342 775.488 49.9506 770.884 60.4721C766.281 70.9937 763.683 82.2941 763.117 94.3735ZM947.454 94.3735H971.551C970.968 82.2941 968.366 70.9937 963.745 60.4721C959.124 49.9506 953.062 40.4342 945.561 31.9229L928.643 48.841C934.004 55.0982 938.333 62.056 941.631 69.7144C944.921 77.3728 946.862 85.5925 947.454 94.3735ZM815.333 39.5987C821.599 34.2378 828.549 29.9082 836.181 26.6099C843.804 23.3203 852.011 21.3796 860.801 20.7878V-3.29691C848.721 -2.70513 837.377 -0.111729 826.769 4.4833C816.16 9.07832 806.6 15.118 798.089 22.6023L815.333 39.5987ZM919.4 39.5987L936.318 22.6806C927.79 15.1789 918.269 9.11749 907.756 4.49635C897.243 -0.116079 885.943 -2.71818 873.855 -3.30997V20.7878C882.645 21.3796 890.869 23.3203 898.527 26.6099C906.185 29.9169 913.143 34.2465 919.4 39.5987Z" fill="#1A3EBD" fill-opacity="0.51"/>
<g clip-path="url(#clip2_1076_8266)">
<path d="M679.472 10.2486C681.116 11.2083 681.712 13.4729 680.794 15.0458C680.461 15.5949 679.99 16.0474 679.429 16.3585C678.867 16.6697 678.234 16.8287 677.592 16.8198C678.516 16.8795 679.56 17.4888 679.56 17.4888C681.347 18.5319 682.026 20.6535 680.983 22.4409C679.94 24.2284 677.8 24.6094 676.013 23.5662C676.013 23.5662 674.94 22.9403 673.928 21.3907C673.928 21.3907 672.879 22.6955 673.271 25.8002L668.981 23.2966C671.878 22.1113 672.498 20.5562 672.498 20.5562C670.65 20.4366 669.578 19.8107 669.578 19.8107C667.79 18.7675 667.07 16.7175 668.113 14.93C669.156 13.1426 671.337 12.6901 673.125 13.7333C673.125 13.7333 674.169 14.3425 674.675 15.1173C674.531 14.8706 673.637 13.3324 674.645 11.4573C675.563 9.88432 677.827 9.28889 679.472 10.2486Z" fill="#1A3EBD"/>
</g>
</g>
<path d="M47.9026 152.291L48.5951 155.126C49.3918 158.388 47.375 161.673 44.0904 162.464L41.2357 163.152L40.5432 160.317C39.7464 157.055 41.7633 153.77 45.0479 152.979L47.9026 152.291Z" fill="#1A3EBD"/>
<path d="M230.944 136.427L229.414 138.917C227.653 141.782 223.887 142.687 221.002 140.939L218.495 139.419L220.025 136.929C221.785 134.064 225.551 133.159 228.437 134.907L230.944 136.427Z" fill="#1A3EBD"/>
<path d="M651.778 86.8853L650.577 85.7925C646.314 81.9265 643.499 79.3685 643.499 76.2475C643.499 73.6894 645.503 71.6943 648.052 71.6943C649.493 71.6943 650.875 72.3649 651.778 73.4163C652.68 72.3649 654.063 71.6943 655.503 71.6943C658.053 71.6943 660.056 73.6894 660.056 76.2475C660.056 79.3685 657.241 81.9265 652.978 85.7925L651.778 86.8853Z" fill="#1B3EBD"/>
<g clip-path="url(#clip3_1076_8266)">
<path d="M653.476 137.49C652.336 142.181 648.876 144.993 650.107 148.945C650.6 150.525 652.673 151.614 654.254 151.121C655.044 150.875 655.834 150.629 656.379 149.592C656.379 149.592 657.124 151.094 656.029 154.037L660.771 152.559C658.452 150.681 657.959 149.1 657.959 149.1C658.996 149.644 659.786 149.398 660.577 149.152C662.158 148.659 663.246 146.586 662.753 145.005C661.522 141.053 657.078 140.704 653.476 137.49Z" fill="#1B3EBD"/>
</g>
<path d="M682.394 188.57L680.424 198.482L671.786 193.238L673.756 183.327" fill="#1B3EBD"/>
</g>
<defs>
<filter id="filter0_d_1076_8266" x="699.628" y="-29.5762" width="283.075" height="283.075" filterUnits="userSpaceOnUse" color-interpolation-filters="sRGB">
<feFlood flood-opacity="0" result="BackgroundImageFix"/>
<feColorMatrix in="SourceAlpha" type="matrix" values="0 0 0 0 0 0 0 0 0 0 0 0 0 0 0 0 0 0 127 0" result="hardAlpha"/>
<feOffset dx="11.0612" dy="11.0612"/>
<feGaussianBlur stdDeviation="5.53061"/>
<feComposite in2="hardAlpha" operator="out"/>
<feColorMatrix type="matrix" values="0 0 0 0 0 0 0 0 0 0 0 0 0 0 0 0 0 0 0.1 0"/>
<feBlend mode="normal" in2="BackgroundImageFix" result="effect1_dropShadow_1076_8266"/>
<feBlend mode="normal" in="SourceGraphic" in2="effect1_dropShadow_1076_8266" result="shape"/>
</filter>
<clipPath id="clip0_1076_8266">
<rect y="0.5" width="867" height="204.478" rx="20" fill="white"/>
</clipPath>
<clipPath id="clip1_1076_8266">
<rect width="401.594" height="311.93" fill="white" transform="translate(596.048 -73.376)"/>
</clipPath>
<clipPath id="clip2_1076_8266">
<rect width="19.8683" height="19.8683" fill="white" transform="translate(671.727 3.81152) rotate(30.2681)"/>
</clipPath>
<clipPath id="clip3_1076_8266">
<rect width="19.8683" height="19.8683" fill="white" transform="translate(643.499 138.864) rotate(-17.3019)"/>
</clipPath>
</defs>
</svg>
