<svg width="18" height="4" viewBox="0 0 18 4" fill="none" xmlns="http://www.w3.org/2000/svg">
<path d="M15.6067 3.86719C15.3614 3.86727 15.1185 3.81904 14.8919 3.72524C14.6652 3.63145 14.4593 3.49394 14.2858 3.32055C14.1123 3.14716 13.9746 2.9413 13.8807 2.71472C13.7867 2.48814 13.7384 2.24528 13.7383 1.99999C13.7382 1.75471 13.7864 1.51181 13.8802 1.28517C13.974 1.05853 14.1115 0.852579 14.2849 0.679082C14.4583 0.505585 14.6642 0.367938 14.8908 0.274C15.1173 0.180061 15.3602 0.131671 15.6055 0.131592C16.1009 0.131433 16.576 0.328066 16.9264 0.678234C17.2768 1.0284 17.4737 1.50342 17.4739 1.99879C17.474 2.49416 17.2774 2.96931 16.9272 3.3197C16.5771 3.67009 16.1021 3.86703 15.6067 3.86719Z" fill="white" fill-opacity="0.7"/>
<path d="M9.19728 3.86718C10.2285 3.86718 11.0645 3.03121 11.0645 1.99998C11.0645 0.968756 10.2285 0.132782 9.19728 0.132782C8.16605 0.132782 7.33008 0.968756 7.33008 1.99998C7.33008 3.03121 8.16605 3.86718 9.19728 3.86718Z" fill="white" fill-opacity="0.7"/>
<path d="M2.78517 3.86718C3.81639 3.86718 4.65237 3.03121 4.65237 1.99998C4.65237 0.968756 3.81639 0.132782 2.78517 0.132782C1.75394 0.132782 0.917969 0.968756 0.917969 1.99998C0.917969 3.03121 1.75394 3.86718 2.78517 3.86718Z" fill="white" fill-opacity="0.7"/>
</svg>
