<svg width="14" height="14" viewBox="0 0 14 14" fill="none" xmlns="http://www.w3.org/2000/svg">
<path d="M0 1.33332C0 0.689323 0.522667 0.166656 1.16667 0.166656H12.8333C13.4773 0.166656 14 0.689323 14 1.33332V9.66666C14 9.97608 13.8771 10.2728 13.6583 10.4916C13.4395 10.7104 13.1428 10.8333 12.8333 10.8333H6.37333L3.99133 13.2153C3.85537 13.3508 3.68235 13.4429 3.49408 13.4802C3.30581 13.5175 3.11072 13.4982 2.93341 13.4247C2.75609 13.3513 2.60449 13.227 2.4977 13.0676C2.39091 12.9081 2.33372 12.7206 2.33333 12.5287V10.8333H1.16667C0.857247 10.8333 0.560501 10.7104 0.341709 10.4916C0.122916 10.2728 0 9.97608 0 9.66666V1.33332ZM1.16667 1.16666C1.12246 1.16666 1.08007 1.18422 1.04882 1.21547C1.01756 1.24673 1 1.28912 1 1.33332V9.66666C1 9.75866 1.07467 9.83332 1.16667 9.83332H2.83333C2.96594 9.83332 3.09312 9.886 3.18689 9.97977C3.28066 10.0735 3.33333 10.2007 3.33333 10.3333V12.46L5.81333 9.97999C5.90701 9.88619 6.0341 9.83344 6.16667 9.83332H12.8333C12.8775 9.83332 12.9199 9.81576 12.9512 9.78451C12.9824 9.75325 13 9.71086 13 9.66666V1.33332C13 1.28912 12.9824 1.24673 12.9512 1.21547C12.9199 1.18422 12.8775 1.16666 12.8333 1.16666H1.16667Z" fill="white" fill-opacity="0.5"/>
</svg>
