<svg width="25" height="24" viewBox="0 0 25 24" fill="none" xmlns="http://www.w3.org/2000/svg">
<path d="M19.1079 13.8672C18.8626 13.8673 18.6197 13.819 18.3931 13.7252C18.1664 13.6315 17.9605 13.4939 17.787 13.3205C17.6135 13.1472 17.4758 12.9413 17.3819 12.7147C17.288 12.4881 17.2396 12.2453 17.2395 12C17.2394 11.7547 17.2877 11.5118 17.3814 11.2852C17.4752 11.0585 17.6128 10.8526 17.7861 10.6791C17.9595 10.5056 18.1654 10.3679 18.392 10.274C18.6186 10.1801 18.8614 10.1317 19.1067 10.1316C19.6021 10.1314 20.0772 10.3281 20.4276 10.6782C20.778 11.0284 20.9749 11.5034 20.9751 11.9988C20.9753 12.4942 20.7786 12.9693 20.4285 13.3197C20.0783 13.6701 19.6033 13.867 19.1079 13.8672Z" fill="white" fill-opacity="0.7"/>
<path d="M12.6975 13.8672C13.7287 13.8672 14.5647 13.0312 14.5647 12C14.5647 10.9688 13.7287 10.1328 12.6975 10.1328C11.6663 10.1328 10.8303 10.9688 10.8303 12C10.8303 13.0312 11.6663 13.8672 12.6975 13.8672Z" fill="white" fill-opacity="0.7"/>
<path d="M6.2859 13.8672C7.31713 13.8672 8.1531 13.0312 8.1531 12C8.1531 10.9688 7.31713 10.1328 6.2859 10.1328C5.25467 10.1328 4.4187 10.9688 4.4187 12C4.4187 13.0312 5.25467 13.8672 6.2859 13.8672Z" fill="white" fill-opacity="0.7"/>
</svg>
