<svg width="16" height="17" viewBox="0 0 16 17" fill="none" xmlns="http://www.w3.org/2000/svg">
<path d="M13.6895 2.71326C14.1899 3.38821 14.6899 4.06317 15.1903 4.73833C15.3069 4.8955 15.4113 5.06126 15.5035 5.23483L14.0026 3.20976C13.9105 3.03619 13.806 2.87043 13.6895 2.71326Z" fill="url(#paint0_linear_485_5383)"/>
<path d="M2.31067 14.288C1.81026 13.613 1.31004 12.9379 0.809814 12.2629C1.27587 12.8918 1.93287 13.3834 2.75545 13.6882L4.25631 15.7133C3.43373 15.4087 2.77673 14.9171 2.31067 14.288Z" fill="url(#paint1_linear_485_5383)"/>
<path d="M14.0029 3.20972L15.5038 5.23479C15.7264 5.65417 15.8798 6.12568 15.9529 6.64601C16.0261 7.16653 16.012 7.70442 15.924 8.24623L14.4233 6.22116C14.5112 5.67936 14.5252 5.14146 14.452 4.62094C14.3788 4.10061 14.2253 3.6291 14.0029 3.20972Z" fill="url(#paint2_linear_485_5383)"/>
<path d="M6.15393 13.9251L7.65479 15.9501C7.0507 16.0526 6.44719 16.0889 5.86009 16.0479C5.27298 16.0071 4.73664 15.8914 4.25672 15.7133L2.75586 13.6882C3.23578 13.8665 3.77212 13.9819 4.35923 14.0229C4.94653 14.0639 5.55003 14.0276 6.15393 13.9251Z" fill="url(#paint3_linear_485_5383)"/>
<path d="M13.5429 6.42553C13.506 6.43392 13.4646 6.43665 13.4216 6.43373C13.3587 6.42943 13.2928 6.41264 13.2344 6.38394C13.1414 6.33845 13.0674 6.26269 13.053 6.15824L12.7931 4.3001C12.783 4.2263 12.8033 4.14293 12.841 4.06132C12.913 3.90532 13.0493 3.75576 13.1617 3.69094L14.0031 3.20986C13.5415 2.34122 12.7711 1.66821 11.7435 1.28729L11.2409 2.05694C11.1388 2.21373 10.8164 2.42908 10.5745 2.41229L8.47778 2.26625C8.23763 2.24945 8.11794 2.00345 8.15621 1.84218L8.36278 1.04773C7.064 1.26543 5.75526 1.79571 4.57031 2.55364L4.94792 3.11907C4.9981 3.19522 4.9979 3.35434 4.93171 3.51073C4.89715 3.59254 4.84463 3.67376 4.77161 3.7419L2.93454 5.4538C2.88826 5.49714 2.83535 5.53307 2.7799 5.56255C2.71156 5.59867 2.63952 5.62483 2.56981 5.64143C2.49015 5.66056 2.41381 5.66739 2.29178 5.6547C2.27382 5.6506 2.258 5.64553 2.24453 5.63889L1.59163 5.32806C1.20016 5.86322 0.863162 6.43177 0.600946 7.02473C0.338534 7.61788 0.166131 8.19795 0.0749512 8.7542L0.957076 8.54978C0.989292 8.54236 1.02502 8.53943 1.07774 8.54158C1.12499 8.5449 1.1738 8.55505 1.22007 8.57203C1.33351 8.61362 1.43055 8.69562 1.44773 8.8157L1.70526 10.675C1.7158 10.7484 1.6955 10.8316 1.65801 10.9132C1.58596 11.069 1.44949 11.219 1.33722 11.2828L0.500394 11.7723C0.961957 12.6374 1.73045 13.3081 2.75627 13.6882L3.25747 12.9184C3.35998 12.7616 3.6835 12.5464 3.92443 12.5616L6.02119 12.7077C6.2631 12.7245 6.38064 12.972 6.34237 13.1331L6.15376 13.9264C7.44668 13.7064 8.74878 13.1769 9.93002 12.4219L9.55144 11.8551C9.50087 11.7799 9.50126 11.6204 9.56726 11.4642C9.60181 11.3824 9.65434 11.3013 9.72697 11.2338L11.5662 9.52053C11.6843 9.40983 11.846 9.34579 11.9883 9.32197C12.0463 9.3122 12.1012 9.30928 12.1718 9.31474C12.2048 9.31884 12.2332 9.32607 12.2558 9.33661L12.9097 9.64802C13.3012 9.11267 13.6354 8.54372 13.8978 7.95077C14.1602 7.35762 14.3326 6.77755 14.4238 6.2213L13.5429 6.42553Z" fill="url(#paint4_linear_485_5383)"/>
<path d="M14.4236 6.22119L15.9242 8.24626C15.8328 8.80251 15.6604 9.38258 15.3982 9.97573C15.1358 10.5689 14.8016 11.1376 14.4101 11.673L12.9094 9.64791C13.3009 9.11256 13.6352 8.54362 13.8976 7.95066C14.1598 7.3577 14.3322 6.77764 14.4236 6.22119Z" fill="url(#paint5_linear_485_5383)"/>
<path d="M9.92929 12.4219L11.43 14.4469C10.2487 15.202 8.94661 15.7316 7.65369 15.9515L6.15283 13.9264C7.44615 13.7064 8.74824 13.1769 9.92929 12.4219Z" fill="url(#paint6_linear_485_5383)"/>
<path d="M2.93426 5.45352L4.77134 3.74162C4.84436 3.67348 4.89708 3.59246 4.93144 3.51045C4.99763 3.35406 4.99782 3.19494 4.94765 3.11879L4.56906 2.552C4.00051 2.91691 3.45167 3.33942 2.93778 3.81914C2.42233 4.29846 1.97404 4.80629 1.59155 5.32798L2.24446 5.63881C2.25793 5.64525 2.27374 5.65052 2.29171 5.65462C2.30069 5.65677 2.31006 5.65833 2.32002 5.6597C2.32978 5.66106 2.33993 5.66224 2.35087 5.66302C2.41374 5.66731 2.49008 5.66048 2.56974 5.64154C2.63944 5.62475 2.71168 5.59878 2.77982 5.56266C2.83508 5.53279 2.88799 5.49686 2.93426 5.45352Z" fill="url(#paint7_linear_485_5383)"/>
<path d="M11.2415 2.05683L11.7442 1.28718C11.7302 1.28191 11.7163 1.27683 11.7023 1.27156C11.6417 1.2495 11.58 1.22841 11.5176 1.2083C11.0976 1.07378 10.637 0.986896 10.1407 0.952338C9.66017 0.918756 9.16932 0.935938 8.67554 1.00037C8.58339 1.01247 8.49104 1.02595 8.39868 1.04137C8.38092 1.0443 8.36354 1.04723 8.34597 1.05016L8.15638 1.84167C8.11831 2.00295 8.2378 2.24895 8.47795 2.26574L10.5747 2.41179C10.817 2.42897 11.1394 2.21361 11.2415 2.05683Z" fill="url(#paint8_linear_485_5383)"/>
<path d="M1.44728 8.81576C1.43029 8.69568 1.33286 8.61368 1.21962 8.57209C1.17354 8.5551 1.12473 8.54495 1.07728 8.54163C1.07201 8.54124 1.06674 8.54085 1.06147 8.54085C1.02457 8.53949 0.988839 8.54241 0.956623 8.54983L0.0744981 8.75425C-0.0118009 9.29606 -0.0260538 9.83415 0.0471637 10.3545C0.118819 10.8748 0.272285 11.3463 0.496428 11.7635L1.33677 11.2831C1.44884 11.2192 1.58532 11.0693 1.65756 10.9135C1.69505 10.8318 1.71535 10.7485 1.70481 10.6753L1.44728 8.81576Z" fill="url(#paint9_linear_485_5383)"/>
<path d="M14.4514 4.62113C14.3784 4.10061 14.2249 3.6291 14.0023 3.20972L13.161 3.6908C13.0486 3.75562 12.9123 3.90537 12.8402 4.06118C12.8025 4.14279 12.7822 4.22616 12.7924 4.29996L13.0523 6.15809C13.0665 6.26255 13.1407 6.3383 13.2337 6.3838C13.292 6.4125 13.358 6.42929 13.4211 6.43358C13.4639 6.43651 13.5052 6.43397 13.5421 6.42538L14.4227 6.22096C14.5106 5.67955 14.5246 5.14146 14.4514 4.62113Z" fill="url(#paint10_linear_485_5383)"/>
<path d="M6.02077 12.708L3.92402 12.5619C3.68309 12.5465 3.35937 12.7617 3.25706 12.9187L2.75586 13.6885C3.23578 13.8668 3.77212 13.9821 4.35922 14.0231C4.94652 14.064 5.55003 14.0278 6.15393 13.9253L6.34176 13.1336C6.38022 12.9721 6.26268 12.7248 6.02077 12.708Z" fill="url(#paint11_linear_485_5383)"/>
<path d="M12.1716 9.31486C12.1639 9.31408 12.1563 9.3133 12.1481 9.31271C12.1009 9.30939 12.0458 9.31232 11.988 9.32208C11.8457 9.3459 11.684 9.40994 11.5659 9.52065L9.72668 11.2339C9.65405 11.3015 9.60133 11.3825 9.56697 11.4643C9.50097 11.6205 9.50058 11.78 9.55115 11.8552L9.92973 12.422C10.4975 12.0584 11.0465 11.6359 11.5618 11.1566C12.073 10.681 12.5181 10.1778 12.8983 9.66122C12.9016 9.65693 12.9047 9.65244 12.908 9.64814L12.2555 9.33692C12.2329 9.32619 12.2046 9.31896 12.1716 9.31486Z" fill="url(#paint12_linear_485_5383)"/>
<path d="M12.9075 9.64783L14.4084 11.6729C14.4051 11.6772 14.402 11.6817 14.3986 11.6858C14.0187 12.2024 13.5733 12.7057 13.0622 13.1813C12.5467 13.6607 11.9979 14.0832 11.4301 14.4467L9.92944 12.4217C10.4972 12.0581 11.0463 11.6356 11.5615 11.1563C12.0727 10.6807 12.5178 10.1775 12.898 9.66091C12.9011 9.65661 12.9044 9.65212 12.9075 9.64783Z" fill="url(#paint13_linear_485_5383)"/>
<path d="M9.21491 3.10582C6.71888 2.93186 3.81478 4.78081 2.7294 7.23464C1.64383 9.68866 2.78798 11.8194 5.28401 11.9933C7.78024 12.1673 10.6828 10.3181 11.7681 7.8643C12.8535 5.41047 11.7109 3.27978 9.21491 3.10582Z" fill="white"/>
<path d="M9.21491 3.04393C6.71888 2.86997 3.81478 4.71892 2.7294 7.17275C1.64383 9.62677 2.78798 11.7575 5.28401 11.9314C7.78024 12.1054 10.6828 10.2562 11.7681 7.80241C12.8535 5.34839 11.7109 3.2177 9.21491 3.04393Z" fill="#FF9F05"/>
<path d="M8.99826 5.38665L8.42794 4.85559L7.45171 5.30563C7.40251 5.32906 6.96086 5.53309 6.47782 5.80604C5.77123 6.20687 4.91858 6.77074 4.57807 7.59291C4.25806 8.36627 4.63665 9.02522 5.42271 9.06641C5.80969 9.08672 6.22303 8.95415 6.58208 8.72161C6.29937 9.14139 5.87178 9.66738 5.31474 10.0192L7.22679 10.1194C6.97863 9.72517 6.99347 9.1777 7.06454 8.7468C7.21976 9.00628 7.50697 9.17556 7.89336 9.19567C8.68118 9.23706 9.57736 8.64488 9.89718 7.87152C10.2377 7.04915 9.87726 6.42203 9.52426 5.96536C9.28391 5.65472 9.02638 5.41418 8.99826 5.38665Z" fill="url(#paint14_linear_485_5383)"/>
<path d="M2.87587 7.65193C3.96124 5.1981 6.86534 3.34914 9.36137 3.52311C10.7357 3.61878 11.6987 4.30857 12.1063 5.31837C11.8346 4.05144 10.7974 3.15429 9.21494 3.04417C6.71891 2.87021 3.81481 4.71917 2.72943 7.17299C2.2417 8.27554 2.20519 9.31189 2.53809 10.1358C2.38111 9.40404 2.47873 8.54985 2.87587 7.65193Z" fill="#E87500"/>
<path d="M15.953 6.64595C15.8799 6.12543 15.7265 5.65411 15.5039 5.23473C15.4115 5.06116 15.3071 4.89539 15.1907 4.73822C15.1665 4.70562 15.1421 4.67282 15.1179 4.64001C15.1929 4.76146 15.2641 4.89208 15.3252 5.00707C15.5478 5.42646 15.7013 5.89797 15.7743 6.4183C15.8475 6.93882 15.8335 7.47671 15.7456 8.01851C15.6542 8.57476 15.4818 9.15483 15.2196 9.74798C14.9572 10.3411 14.6229 10.9099 14.2317 11.4452L14.2283 11.4427L14.2303 11.445C14.227 11.4493 14.2238 11.4538 14.2205 11.4579C13.8406 11.9745 13.3952 12.4779 12.8841 12.9535C12.3686 13.4328 11.8198 13.8553 11.252 14.2189C10.0708 14.9739 8.76866 15.5036 7.47573 15.7234L7.47476 15.7222C6.87125 15.8248 6.26833 15.8609 5.68142 15.8201C5.09431 15.7793 4.55797 15.6635 4.07805 15.4854C3.33104 15.2086 2.72226 14.7763 2.26733 14.2282C2.28198 14.2482 2.29662 14.2679 2.31146 14.2878C2.77751 14.9167 3.43452 15.4083 4.25709 15.7131C4.73701 15.8911 5.27335 16.0067 5.86046 16.0477C6.44737 16.0887 7.05029 16.0524 7.6538 15.9499L7.65477 15.9511C8.9477 15.7312 10.2498 15.2015 11.431 14.4465C11.9988 14.083 12.5478 13.6605 13.0631 13.1812C13.5743 12.7055 14.0194 12.2022 14.3996 11.6856C14.4029 11.6813 14.406 11.677 14.4093 11.6727L14.4074 11.6704L14.4107 11.6729C14.8022 11.1375 15.1364 10.5686 15.3988 9.97564C15.6612 9.38249 15.8337 8.80242 15.9248 8.24617C16.0121 7.70456 16.0262 7.16647 15.953 6.64595Z" fill="#B0AAAA"/>
<path d="M13.9949 8.07465C14.2573 7.4815 14.4297 6.90143 14.5209 6.34518C14.6087 5.80338 14.6228 5.26548 14.5496 4.74496C14.4766 4.22444 14.3231 3.75313 14.1005 3.33374C14.0281 3.19746 13.9459 3.06762 13.8586 2.9413C13.8024 2.86535 13.746 2.7894 13.6897 2.71326C13.8063 2.87043 13.9107 3.03619 14.0029 3.20976C14.2255 3.62915 14.3789 4.10066 14.452 4.62118C14.5252 5.1417 14.5111 5.6796 14.4233 6.2214C14.3319 6.77765 14.1595 7.35772 13.8973 7.95087C13.6349 8.54402 13.3006 9.11276 12.9091 9.64812L12.9107 9.65203L12.9078 9.64812C12.9044 9.65242 12.9013 9.65671 12.898 9.6612C12.518 10.1778 12.0727 10.6812 11.5615 11.1566C11.0461 11.6361 10.4972 12.0586 9.92947 12.422C8.74862 13.1768 7.4471 13.7063 6.15476 13.9263L6.15379 13.9251C5.5497 14.0276 4.94619 14.064 4.35908 14.023C3.77198 13.9821 3.23563 13.8666 2.75572 13.6883C1.97746 13.3999 1.34955 12.9427 0.88916 12.3618C0.895213 12.37 0.901656 12.3784 0.907709 12.3868C1.37376 13.0157 2.03077 13.5073 2.85334 13.8121C3.33326 13.9901 3.8696 14.1057 4.45671 14.1467C5.04362 14.1877 5.64654 14.1514 6.25005 14.0491L6.25102 14.0503C7.54395 13.8302 8.84604 13.3007 10.0273 12.5457C10.5951 12.1822 11.1441 11.7597 11.6594 11.2804C12.1705 10.8047 12.6157 10.3014 12.9958 9.78479C12.9991 9.7805 13.0023 9.7762 13.0056 9.77191L13.0036 9.76956L13.0069 9.7721C13.3982 9.23655 13.7325 8.66761 13.9949 8.07465Z" fill="white"/>
<defs>
<linearGradient id="paint0_linear_485_5383" x1="19.3081" y1="-1.05866" x2="4.99134" y2="14.2343" gradientUnits="userSpaceOnUse">
<stop stop-color="#FFEA05"/>
<stop offset="0.1856" stop-color="#FFDA05"/>
<stop offset="0.7245" stop-color="#FFAF05"/>
<stop offset="1" stop-color="#FF9F05"/>
</linearGradient>
<linearGradient id="paint1_linear_485_5383" x1="17.8771" y1="-2.4015" x2="3.55807" y2="12.8938" gradientUnits="userSpaceOnUse">
<stop stop-color="#FFEA05"/>
<stop offset="0.1856" stop-color="#FFDA05"/>
<stop offset="0.7245" stop-color="#FFAF05"/>
<stop offset="1" stop-color="#FF9F05"/>
</linearGradient>
<linearGradient id="paint2_linear_485_5383" x1="14.8731" y1="3.25384" x2="15.8168" y2="17.4739" gradientUnits="userSpaceOnUse">
<stop stop-color="#38393B"/>
<stop offset="0.3263" stop-color="#2F3031"/>
<stop offset="1" stop-color="#1F2021"/>
</linearGradient>
<linearGradient id="paint3_linear_485_5383" x1="4.4835" y1="3.94344" x2="5.42729" y2="18.1637" gradientUnits="userSpaceOnUse">
<stop stop-color="#38393B"/>
<stop offset="0.3263" stop-color="#2F3031"/>
<stop offset="1" stop-color="#1F2021"/>
</linearGradient>
<linearGradient id="paint4_linear_485_5383" x1="2.70406" y1="6.72493" x2="21.7082" y2="9.91398" gradientUnits="userSpaceOnUse">
<stop stop-color="#FFEA05"/>
<stop offset="0.1856" stop-color="#FFDA05"/>
<stop offset="0.7245" stop-color="#FFAF05"/>
<stop offset="1" stop-color="#FF9F05"/>
</linearGradient>
<linearGradient id="paint5_linear_485_5383" x1="21.6942" y1="1.17398" x2="7.37643" y2="16.4679" gradientUnits="userSpaceOnUse">
<stop stop-color="#FFEA05"/>
<stop offset="0.1856" stop-color="#FFDA05"/>
<stop offset="0.7245" stop-color="#FFAF05"/>
<stop offset="1" stop-color="#FF9F05"/>
</linearGradient>
<linearGradient id="paint6_linear_485_5383" x1="21.3104" y1="0.814769" x2="6.99234" y2="16.109" gradientUnits="userSpaceOnUse">
<stop stop-color="#FFEA05"/>
<stop offset="0.1856" stop-color="#FFDA05"/>
<stop offset="0.7245" stop-color="#FFAF05"/>
<stop offset="1" stop-color="#FF9F05"/>
</linearGradient>
<linearGradient id="paint7_linear_485_5383" x1="2.12553" y1="3.85854" x2="16.866" y2="6.62441" gradientUnits="userSpaceOnUse">
<stop stop-color="#38393B"/>
<stop offset="0.3263" stop-color="#2F3031"/>
<stop offset="1" stop-color="#1F2021"/>
</linearGradient>
<linearGradient id="paint8_linear_485_5383" x1="2.78153" y1="0.363561" x2="17.5235" y2="3.12972" gradientUnits="userSpaceOnUse">
<stop stop-color="#38393B"/>
<stop offset="0.3263" stop-color="#2F3031"/>
<stop offset="1" stop-color="#1F2021"/>
</linearGradient>
<linearGradient id="paint9_linear_485_5383" x1="0.93948" y1="10.1794" x2="15.6822" y2="12.9457" gradientUnits="userSpaceOnUse">
<stop stop-color="#38393B"/>
<stop offset="0.3263" stop-color="#2F3031"/>
<stop offset="1" stop-color="#1F2021"/>
</linearGradient>
<linearGradient id="paint10_linear_485_5383" x1="2.34415" y1="2.69058" x2="17.0851" y2="5.45656" gradientUnits="userSpaceOnUse">
<stop stop-color="#38393B"/>
<stop offset="0.3263" stop-color="#2F3031"/>
<stop offset="1" stop-color="#1F2021"/>
</linearGradient>
<linearGradient id="paint11_linear_485_5383" x1="0.502636" y1="12.5065" x2="15.2438" y2="15.2725" gradientUnits="userSpaceOnUse">
<stop stop-color="#38393B"/>
<stop offset="0.3263" stop-color="#2F3031"/>
<stop offset="1" stop-color="#1F2021"/>
</linearGradient>
<linearGradient id="paint12_linear_485_5383" x1="1.15787" y1="9.01178" x2="15.9" y2="11.778" gradientUnits="userSpaceOnUse">
<stop stop-color="#38393B"/>
<stop offset="0.3263" stop-color="#2F3031"/>
<stop offset="1" stop-color="#1F2021"/>
</linearGradient>
<linearGradient id="paint13_linear_485_5383" x1="11.5996" y1="3.47103" x2="12.5434" y2="17.6913" gradientUnits="userSpaceOnUse">
<stop stop-color="#38393B"/>
<stop offset="0.3263" stop-color="#2F3031"/>
<stop offset="1" stop-color="#1F2021"/>
</linearGradient>
<linearGradient id="paint14_linear_485_5383" x1="4.46422" y1="7.48763" x2="10.0336" y2="7.48763" gradientUnits="userSpaceOnUse">
<stop stop-color="#38393B"/>
<stop offset="0.3263" stop-color="#2F3031"/>
<stop offset="1" stop-color="#1F2021"/>
</linearGradient>
</defs>
</svg>
