<svg width="24" height="25" viewBox="0 0 24 25" fill="none" xmlns="http://www.w3.org/2000/svg">
<rect y="0.5" width="23.4117" height="24" rx="4.71123" fill="#37DD4A"/>
<path d="M16.15 12.0865C16.0885 12.1482 16.0154 12.1972 15.9348 12.2307C15.8543 12.2641 15.768 12.2813 15.6808 12.2813C15.5936 12.2813 15.5072 12.2641 15.4267 12.2307C15.3462 12.1972 15.273 12.1482 15.2115 12.0865L12.3687 9.24372V17.3595C12.3687 17.5353 12.2989 17.7038 12.1747 17.828C12.0504 17.9523 11.8819 18.0221 11.7062 18.0221C11.5305 18.0221 11.362 17.9523 11.2377 17.828C11.1135 17.7038 11.0437 17.5353 11.0437 17.3595V9.24372L8.19984 12.0865C8.07538 12.2109 7.90658 12.2808 7.73056 12.2808C7.55455 12.2808 7.38574 12.2109 7.26128 12.0865C7.13682 11.962 7.06689 11.7932 7.06689 11.6172C7.06689 11.4412 7.13682 11.2724 7.26128 11.1479L11.2364 7.1728C11.2979 7.11104 11.3711 7.06203 11.4516 7.02859C11.5321 6.99515 11.6185 6.97794 11.7057 6.97794C11.7929 6.97794 11.8792 6.99515 11.9597 7.02859C12.0403 7.06203 12.1134 7.11104 12.1749 7.1728L16.15 11.1479C16.2118 11.2094 16.2608 11.2826 16.2943 11.3631C16.3277 11.4436 16.3449 11.53 16.3449 11.6172C16.3449 11.7044 16.3277 11.7907 16.2943 11.8712C16.2608 11.9518 16.2118 12.0249 16.15 12.0865Z" fill="#0C4913"/>
</svg>
