<svg width="41" height="41" viewBox="0 0 41 41" fill="none" xmlns="http://www.w3.org/2000/svg">
<rect x="0.5" y="0.477539" width="40" height="40" rx="20" fill="white" fill-opacity="0.1"/>
<path fill-rule="evenodd" clip-rule="evenodd" d="M21.5 21.4775C22.5609 21.4775 23.5783 21.899 24.3284 22.6491C25.0786 23.3993 25.5 24.4167 25.5 25.4775V27.4775C25.5 27.7428 25.3946 27.9971 25.2071 28.1846C25.0196 28.3722 24.7652 28.4775 24.5 28.4775C24.2348 28.4775 23.9804 28.3722 23.7929 28.1846C23.6054 27.9971 23.5 27.7428 23.5 27.4775V25.4775C23.5 24.9471 23.2893 24.4384 22.9142 24.0633C22.5391 23.6883 22.0304 23.4775 21.5 23.4775H14.5C13.9696 23.4775 13.4609 23.6883 13.0858 24.0633C12.7107 24.4384 12.5 24.9471 12.5 25.4775V27.4775C12.5 27.7428 12.3946 27.9971 12.2071 28.1846C12.0196 28.3722 11.7652 28.4775 11.5 28.4775C11.2348 28.4775 10.9804 28.3722 10.7929 28.1846C10.6054 27.9971 10.5 27.7428 10.5 27.4775V25.4775C10.5 24.4167 10.9214 23.3993 11.6716 22.6491C12.4217 21.899 13.4391 21.4775 14.5 21.4775H21.5ZM27.5 21.4775C28.2956 21.4775 29.0587 21.7936 29.6213 22.3562C30.1839 22.9188 30.5 23.6819 30.5 24.4775V26.4775C30.5 26.7428 30.3946 26.9971 30.2071 27.1846C30.0196 27.3722 29.7652 27.4775 29.5 27.4775C29.2348 27.4775 28.9804 27.3722 28.7929 27.1846C28.6054 26.9971 28.5 26.7428 28.5 26.4775V24.4775C28.5 24.2123 28.3946 23.958 28.2071 23.7704C28.0196 23.5829 27.7652 23.4775 27.5 23.4775H26.084C25.7373 22.6857 25.1921 21.9968 24.501 21.4775H27.5ZM18 11.4775C19.1935 11.4775 20.3381 11.9516 21.182 12.7956C22.0259 13.6395 22.5 14.7841 22.5 15.9775C22.5 17.171 22.0259 18.3156 21.182 19.1595C20.3381 20.0034 19.1935 20.4775 18 20.4775C16.8065 20.4775 15.6619 20.0034 14.818 19.1595C13.9741 18.3156 13.5 17.171 13.5 15.9775C13.5 14.7841 13.9741 13.6395 14.818 12.7956C15.6619 11.9516 16.8065 11.4775 18 11.4775ZM26.5 14.4775C27.2956 14.4775 28.0587 14.7936 28.6213 15.3562C29.1839 15.9188 29.5 16.6819 29.5 17.4775C29.5 18.2732 29.1839 19.0363 28.6213 19.5989C28.0587 20.1615 27.2956 20.4775 26.5 20.4775C25.7044 20.4775 24.9413 20.1615 24.3787 19.5989C23.8161 19.0363 23.5 18.2732 23.5 17.4775C23.5 16.6819 23.8161 15.9188 24.3787 15.3562C24.9413 14.7936 25.7044 14.4775 26.5 14.4775ZM18 13.4775C17.337 13.4775 16.7011 13.7409 16.2322 14.2098C15.7634 14.6786 15.5 15.3145 15.5 15.9775C15.5 16.6406 15.7634 17.2765 16.2322 17.7453C16.7011 18.2141 17.337 18.4775 18 18.4775C18.663 18.4775 19.2989 18.2141 19.7678 17.7453C20.2366 17.2765 20.5 16.6406 20.5 15.9775C20.5 15.3145 20.2366 14.6786 19.7678 14.2098C19.2989 13.7409 18.663 13.4775 18 13.4775ZM26.5 16.4775C26.2348 16.4775 25.9804 16.5829 25.7929 16.7704C25.6054 16.958 25.5 17.2123 25.5 17.4775C25.5 17.7428 25.6054 17.9971 25.7929 18.1846C25.9804 18.3722 26.2348 18.4775 26.5 18.4775C26.7652 18.4775 27.0196 18.3722 27.2071 18.1846C27.3946 17.9971 27.5 17.7428 27.5 17.4775C27.5 17.2123 27.3946 16.958 27.2071 16.7704C27.0196 16.5829 26.7652 16.4775 26.5 16.4775Z" fill="white"/>
</svg>
