<svg width="269" height="240" viewBox="0 0 269 240" fill="none" xmlns="http://www.w3.org/2000/svg">
<path d="M132.157 0H136.194C149.411 0.5613 162.088 8.0575 168.84 19.4448C173.886 28.236 178.845 37.071 183.859 45.878C182.591 46.737 181.301 47.573 179.925 48.242C165.067 55.479 150.463 63.256 135.444 70.159C122.368 76.684 109.329 83.289 96.2253 89.76C90.2943 92.329 84.5903 95.373 78.7943 98.233C70.6233 102.259 62.5222 106.426 54.3512 110.446C51.8262 111.666 49.3753 113.204 46.5312 113.528C64.2652 82.28 81.9723 51.022 99.7223 19.7848C106.339 8.2949 118.962 0.7663 132.157 0Z" fill="#1BA6DF"/>
<path d="M183.856 45.8779C189.274 55.4149 194.676 64.9669 200.095 74.5029C198.799 75.3399 197.488 76.1549 196.101 76.8349C184.687 82.4849 173.315 88.2329 161.917 93.9099C155.835 96.4899 150.023 99.6249 144.102 102.545C134.48 107.294 124.928 112.189 115.289 116.906C110.928 118.719 106.783 120.992 102.541 123.053C93.41 127.586 84.311 132.195 75.185 136.734C72.443 138.202 69.588 139.443 66.75 140.701C53.053 147.463 39.431 154.382 25.75 161.171C23.1433 162.299 20.6715 163.961 17.7734 164.215C27.353 147.317 36.932 130.414 46.528 113.528C49.372 113.204 51.822 111.666 54.348 110.446C62.519 106.425 70.619 102.259 78.79 98.2329C84.586 95.3729 90.291 92.3289 96.222 89.7599C109.325 83.2889 122.364 76.6839 135.441 70.1589C150.46 63.2559 165.064 55.4789 179.921 48.2419C181.297 47.5729 182.587 46.7369 183.856 45.8779Z" fill="#199ED9"/>
<path d="M200.093 74.5029C210.261 92.4149 220.412 110.333 230.58 128.245C230.337 128.612 229.851 129.34 229.608 129.707C227.072 125.449 224.551 121.186 222.026 116.922C216.348 106.76 206.024 99.3289 194.545 97.3209C186.358 95.9929 177.712 96.9219 170.232 100.624C163.351 103.911 157.496 109.27 153.572 115.805C148.003 125.147 142.482 134.516 136.912 143.858C134.71 143.869 132.859 145.132 130.97 146.081C122.206 150.474 113.436 154.835 104.672 159.217C99.48 161.77 94.38 164.512 89.058 166.784C75.858 173.341 62.684 179.957 49.5 186.558C47.314 187.653 45.031 188.549 42.824 189.596C29.278 196.391 15.7156 203.158 2.1695 209.953C1.673 210.185 1.1603 210.374 0.631401 210.52C0.410201 209.235 0.5505 207.859 0 206.65V203.04C0.3184 197.74 1.7486 192.5 4.3552 187.864C8.8184 179.973 13.287 172.089 17.7718 164.215C20.6699 163.961 23.1416 162.299 25.748 161.171C39.429 154.382 53.051 147.463 66.748 140.701C69.587 139.443 72.442 138.202 75.183 136.734C84.309 132.195 93.408 127.586 102.54 123.053C106.782 120.992 110.926 118.719 115.287 116.906C124.926 112.189 134.478 107.294 144.101 102.545C150.021 99.6249 155.833 96.4899 161.916 93.9099C173.314 88.2329 184.685 82.4849 196.099 76.8349C197.486 76.1549 198.798 75.3399 200.093 74.5029Z" fill="#1996D3"/>
<path d="M170.237 100.624C177.717 96.9216 186.363 95.9926 194.55 97.3206C206.029 99.3286 216.353 106.76 222.031 116.922C224.556 121.186 227.077 125.449 229.613 129.707C234.157 137.333 238.637 144.991 243.192 152.612C240.256 153.669 237.455 155.461 234.233 155.342C228.831 155.299 223.429 155.364 218.032 155.288C214.923 155.175 211.998 156.573 208.884 156.443C205.193 156.341 201.361 156.066 197.902 157.631C198.009 157.247 198.117 156.864 198.225 156.487C189.542 156.303 180.853 156.487 172.169 156.389C169.978 156.287 167.933 157.199 165.785 157.393C164.344 156.918 162.946 155.952 161.36 156.416C158.661 157.005 155.957 157.766 153.156 157.571C153.243 157.156 153.335 156.746 153.421 156.335C150.199 156.314 147.204 157.976 143.949 157.587C144.057 157.215 144.171 156.843 144.284 156.476C140.566 158.025 136.496 157.382 132.589 157.555C132.681 157.274 132.864 156.713 132.956 156.433C131.995 157.107 130.954 157.663 129.885 158.133C129.756 157.744 129.497 156.972 129.367 156.584C131.914 152.358 134.408 148.1 136.917 143.858C142.487 134.516 148.008 125.147 153.577 115.805C157.501 109.27 163.356 103.911 170.237 100.624Z" fill="#9ACDE9"/>
<path d="M230.589 128.245C240.503 145.79 250.535 163.27 260.363 180.864C258.193 178.819 257.222 175.834 255.517 173.422C251.372 166.508 247.346 159.525 243.196 152.612C238.641 144.991 234.161 137.333 229.617 129.707C229.86 129.34 230.346 128.612 230.589 128.245Z" fill="#1B8CCB"/>
<path d="M130.976 146.081C132.865 145.132 134.716 143.869 136.918 143.858C134.409 148.1 131.915 152.358 129.368 156.584C125.336 163.276 121.429 170.043 117.409 176.741C114.494 181.544 111.715 186.423 108.811 191.226C106.189 195.489 103.765 199.872 101.153 204.141C99.124 207.4 97.295 210.779 95.287 214.055C93.619 216.694 92.162 219.457 90.554 222.134C89.809 223.364 89.097 224.611 88.395 225.874C74.989 228.248 61.794 231.767 48.95 236.262C44.195 238.108 39.154 239.355 34.038 239.43C29.429 239.074 24.7989 238.205 20.5678 236.289C12.1865 232.62 5.38111 225.48 2.22941 216.872C1.49541 214.821 0.356711 212.775 0.637311 210.52C1.16621 210.374 1.67891 210.185 2.17541 209.953C15.7215 203.158 29.284 196.391 42.83 189.596C45.037 188.549 47.32 187.653 49.506 186.558C62.69 179.957 75.864 173.341 89.064 166.784C94.386 164.512 99.486 161.77 104.677 159.217C113.442 154.835 122.212 150.474 130.976 146.081Z" fill="#1B8CCB"/>
<path d="M243.182 152.612C247.333 159.525 251.359 166.508 255.503 173.422C250.954 174.274 246.34 173.427 241.763 173.805C237.974 174.15 234.224 173.341 230.44 173.298C231.153 173.605 231.865 173.918 232.583 174.226C228.962 174.685 225.33 174.064 221.714 174.285C216.695 176.034 211.26 175.629 206.052 175.154C208.098 174.971 210.143 174.793 212.178 174.544C209.819 174.215 207.445 174.22 205.07 174.285C202.436 174.35 199.668 173.978 197.18 175.073C195.232 175.915 193.197 176.773 191.022 176.563C184.082 176.169 177.141 176.784 170.223 177.264C168.355 177.41 166.483 177.297 164.621 177.086C162.214 176.779 159.812 177.243 157.432 177.561C157.518 177.221 157.599 176.887 157.686 176.552C155.678 176.547 153.671 176.379 151.663 176.455C149.283 176.541 147.043 177.761 144.636 177.464C141.776 177.167 138.899 176.66 136.034 177.189C132.596 177.815 129.164 176.59 125.726 177.113C122.946 177.513 120.151 177.156 117.398 176.741C121.419 170.043 125.326 163.276 129.358 156.584C129.487 156.972 129.746 157.744 129.876 158.133C130.944 157.663 131.986 157.107 132.947 156.433C132.855 156.713 132.671 157.274 132.58 157.555C136.487 157.382 140.556 158.025 144.275 156.476C144.161 156.843 144.048 157.215 143.94 157.587C147.194 157.976 150.19 156.314 153.411 156.335C153.325 156.746 153.233 157.156 153.147 157.571C155.948 157.766 158.652 157.005 161.35 156.416C162.937 155.952 164.335 156.918 165.776 157.393C167.924 157.199 169.969 156.287 172.16 156.389C180.844 156.487 189.532 156.303 198.216 156.487C198.108 156.864 198 157.247 197.892 157.631C201.352 156.066 205.183 156.341 208.875 156.443C211.989 156.573 214.914 155.175 218.022 155.288C223.419 155.364 228.821 155.299 234.224 155.342C237.446 155.461 240.246 153.669 243.182 152.612Z" fill="#8BC1E6"/>
<path d="M230.444 173.298C234.227 173.341 237.978 174.15 241.766 173.805C246.343 173.427 250.957 174.274 255.507 173.422C257.212 175.834 258.184 178.819 260.353 180.864C261.799 183.411 263.273 185.942 264.703 188.501C259.56 189.132 254.314 187.615 249.203 188.862C244.891 189.968 240.412 188.851 236.057 189.672C232.419 190.362 228.728 189.709 225.074 190.12C219.823 190.735 214.475 190.924 209.256 189.963C209.337 190.303 209.418 190.654 209.51 190.999C202.272 190.951 195.046 191.172 187.814 191.118C184.582 190.886 181.354 190.476 178.105 190.573C173.928 190.713 169.735 190.325 165.574 190.832C168.148 191.08 170.728 191.102 173.308 191.269C171.678 191.571 170.016 191.668 168.364 191.555C164.57 191.328 160.83 192.37 157.031 192.143C153.825 191.955 150.609 192.381 147.419 191.949C138.244 190.864 129.021 192.003 119.82 191.609C116.15 191.366 112.437 192.052 108.805 191.226C111.708 186.423 114.488 181.544 117.402 176.741C120.154 177.156 122.95 177.513 125.729 177.113C129.167 176.59 132.599 177.815 136.037 177.189C138.903 176.66 141.779 177.167 144.64 177.464C147.047 177.761 149.286 176.541 151.666 176.455C153.674 176.379 155.682 176.547 157.689 176.552C157.603 176.887 157.522 177.221 157.436 177.561C159.816 177.243 162.217 176.779 164.624 177.086C166.486 177.297 168.359 177.41 170.226 177.264C177.145 176.784 184.085 176.169 191.025 176.563C193.2 176.773 195.235 175.915 197.183 175.073C199.671 173.978 202.44 174.35 205.073 174.285C207.448 174.221 209.823 174.215 212.181 174.544C210.146 174.793 208.101 174.971 206.056 175.154C211.264 175.629 216.698 176.034 221.717 174.285C225.333 174.064 228.965 174.685 232.586 174.226C231.869 173.918 231.156 173.605 230.444 173.298Z" fill="#7BBAE4"/>
<path d="M249.197 188.862C254.308 187.615 259.554 189.132 264.697 188.501C267.007 192.586 268.264 197.2 268.701 201.858C267.255 203.185 265.199 202.942 263.391 203.018C257.805 203.094 252.225 202.802 246.639 202.791C243.514 202.662 240.579 204.076 237.454 203.925C230.071 203.703 222.672 204.232 215.316 203.434C208.991 203.595 202.623 202.91 196.325 203.671C199.579 204.497 202.952 203.86 206.26 204.232C202.65 204.669 199.007 204.394 195.38 204.427C172.519 204.421 149.658 204.427 126.797 204.459C119.976 204.891 113.149 204.243 106.327 204.572C104.584 204.68 102.846 204.481 101.141 204.141C103.753 199.872 106.176 195.489 108.799 191.226C112.431 192.052 116.144 191.366 119.814 191.609C129.015 192.003 138.238 190.864 147.413 191.949C150.603 192.381 153.819 191.954 157.025 192.143C160.824 192.37 164.564 191.328 168.358 191.555C170.01 191.668 171.672 191.571 173.302 191.269C170.722 191.102 168.142 191.08 165.568 190.832C169.729 190.325 173.922 190.713 178.099 190.573C181.348 190.476 184.576 190.886 187.808 191.118C195.04 191.172 202.266 190.951 209.504 190.999C209.412 190.654 209.331 190.303 209.25 189.963C214.469 190.924 219.817 190.735 225.068 190.12C228.722 189.709 232.413 190.362 236.051 189.672C240.406 188.851 244.885 189.968 249.197 188.862Z" fill="#69B3E2"/>
<path d="M268.708 201.858C268.967 206.073 268.617 210.331 267.413 214.389C261.218 213.909 255.011 214.367 248.81 214.2C242.329 214.34 235.842 214.06 229.355 214.324C220.542 213.855 211.723 214.47 202.916 214.189C192.851 214.108 182.791 214.243 172.737 214.378C163.173 214.481 153.626 214.017 144.074 214.373C130.765 214.367 117.457 214.367 104.154 214.367C101.191 214.432 98.2332 214.308 95.2812 214.054C97.2892 210.779 99.1182 207.4 101.148 204.14C102.853 204.48 104.591 204.68 106.334 204.572C113.156 204.243 119.983 204.891 126.804 204.459C149.665 204.427 172.526 204.421 195.387 204.427C199.014 204.394 202.657 204.669 206.267 204.232C202.959 203.86 199.586 204.497 196.332 203.671C202.63 202.91 208.998 203.595 215.323 203.433C222.679 204.232 230.078 203.703 237.461 203.925C240.586 204.076 243.521 202.662 246.646 202.791C252.232 202.802 257.812 203.093 263.398 203.018C265.206 202.942 267.262 203.185 268.708 201.858Z" fill="#54AEE1"/>
<path d="M90.5469 222.134C92.1549 219.457 93.6119 216.694 95.2799 214.055C98.2319 214.308 101.189 214.432 104.152 214.368C117.455 214.368 130.764 214.368 144.073 214.373C153.625 214.017 163.172 214.481 172.735 214.378C182.79 214.243 192.849 214.108 202.914 214.189C211.722 214.47 220.54 213.855 229.353 214.324C235.84 214.06 242.327 214.341 248.809 214.2C255.01 214.368 261.216 213.909 267.412 214.389C266.64 217.012 265.561 219.543 264.206 221.918C260.169 221.513 256.105 221.723 252.052 221.669C221.819 221.669 191.586 221.68 161.359 221.659C157.646 221.75 153.879 221.27 150.247 222.247C137.51 221.454 124.725 221.653 112.015 222.716C110.483 222.425 108.95 222.09 107.385 222.117C101.772 222.198 96.1599 222.182 90.5469 222.134Z" fill="#3CAADF"/>
<path d="M150.25 222.247C153.882 221.27 157.649 221.75 161.362 221.659C191.59 221.68 221.823 221.669 252.056 221.669C256.109 221.723 260.173 221.513 264.209 221.918C263.476 223.191 262.666 224.422 261.786 225.604C236.955 225.453 212.119 225.625 187.288 225.512C185.038 225.42 182.798 225.636 180.569 225.917C170.542 224.125 160.418 222.884 150.25 222.247Z" fill="#26A6DE"/>
<path d="M88.3906 225.874C89.0916 224.611 89.8046 223.364 90.5486 222.134C96.1616 222.182 101.775 222.198 107.387 222.117C108.953 222.09 110.485 222.425 112.018 222.716C104.101 223.44 96.2206 224.497 88.3906 225.874Z" fill="#26A6E0"/>
<path d="M180.562 225.917C182.791 225.636 185.031 225.42 187.282 225.512C212.112 225.625 236.949 225.453 261.779 225.604C255.179 234.503 244.137 239.49 233.165 239.506C228.897 239.02 224.644 238.216 220.645 236.602C207.601 231.967 194.179 228.426 180.562 225.917Z" fill="#1AA5DE"/>
</svg>
