<svg width="48" height="48" viewBox="0 0 48 48" fill="none" xmlns="http://www.w3.org/2000/svg">
<circle cx="24" cy="24" r="24" fill="#1B1F28"/>
<rect width="24" height="24" transform="translate(12 12)" fill="#1B1F28"/>
<path fill-rule="evenodd" clip-rule="evenodd" d="M27.0001 31C27.0003 31.5046 26.8097 31.9906 26.4666 32.3605C26.1235 32.7305 25.6532 32.9572 25.1501 32.995L25.0001 33H23.0001C22.4955 33.0002 22.0095 32.8096 21.6395 32.4665C21.2696 32.1234 21.0429 31.6532 21.0051 31.15L21.0001 31H27.0001ZM24.0001 14C25.8151 14 27.5591 14.7049 28.8643 15.9661C30.1695 17.2273 30.9339 18.9461 30.9961 20.76L31.0001 21V24.764L32.8221 28.408C32.9016 28.567 32.9414 28.7429 32.9381 28.9206C32.9347 29.0984 32.8884 29.2727 32.8029 29.4286C32.7175 29.5845 32.5956 29.7174 32.4476 29.8158C32.2996 29.9143 32.1299 29.9754 31.9531 29.994L31.8381 30H16.1621C15.9843 30.0001 15.8091 29.957 15.6515 29.8745C15.494 29.792 15.3588 29.6725 15.2575 29.5264C15.1562 29.3802 15.0919 29.2116 15.0701 29.0351C15.0483 28.8586 15.0695 28.6795 15.1321 28.513L15.1781 28.408L17.0001 24.764V21C17.0001 19.1435 17.7376 17.363 19.0503 16.0503C20.3631 14.7375 22.1436 14 24.0001 14ZM24.0001 16C22.7116 16.0001 21.4729 16.4975 20.5423 17.3887C19.6117 18.2798 19.061 19.4958 19.0051 20.783L19.0001 21V24.764C19.0001 25.012 18.954 25.2579 18.8641 25.489L18.7891 25.659L17.6191 28H30.3821L29.2121 25.658C29.1011 25.4363 29.0323 25.1959 29.0091 24.949L29.0001 24.764V21C29.0001 19.6739 28.4733 18.4021 27.5356 17.4645C26.5979 16.5268 25.3262 16 24.0001 16Z" fill="white" fill-opacity="0.5"/>
</svg>
