<svg width="24" height="25" viewBox="0 0 24 25" fill="none" xmlns="http://www.w3.org/2000/svg">
<rect y="0.5" width="23.4117" height="24" rx="4.71123" fill="#318CEC"/>
<path d="M7.26158 12.9135C7.32313 12.8518 7.39627 12.8028 7.4768 12.7693C7.55733 12.7359 7.64367 12.7187 7.73086 12.7187C7.81806 12.7187 7.9044 12.7359 7.98493 12.7693C8.06546 12.8028 8.13859 12.8518 8.20014 12.9135L11.0429 15.7563V7.64046C11.0429 7.46475 11.1127 7.29624 11.2369 7.17199C11.3612 7.04774 11.5297 6.97794 11.7054 6.97794C11.8811 6.97794 12.0496 7.04774 12.1739 7.17199C12.2981 7.29624 12.3679 7.46475 12.3679 7.64046L12.3679 15.7563L15.2118 12.9135C15.3362 12.7891 15.505 12.7192 15.6811 12.7192C15.8571 12.7192 16.0259 12.7891 16.1503 12.9135C16.2748 13.038 16.3447 13.2068 16.3447 13.3828C16.3447 13.5588 16.2748 13.7276 16.1503 13.8521L12.1752 17.8272C12.1137 17.889 12.0406 17.938 11.96 17.9714C11.8795 18.0049 11.7932 18.0221 11.706 18.0221C11.6188 18.0221 11.5324 18.0049 11.4519 17.9714C11.3714 17.938 11.2982 17.889 11.2367 17.8272L7.26158 13.8521C7.19981 13.7906 7.15081 13.7174 7.11737 13.6369C7.08393 13.5564 7.06672 13.47 7.06672 13.3828C7.06672 13.2956 7.08393 13.2093 7.11737 13.1288C7.15081 13.0482 7.19981 12.9751 7.26158 12.9135Z" fill="#0A163E"/>
</svg>
