<svg width="25" height="24" viewBox="0 0 25 24" fill="none" xmlns="http://www.w3.org/2000/svg">
<path d="M14.3674 5.589C14.3675 5.83428 14.3193 6.07718 14.2255 6.30382C14.1317 6.53047 13.9942 6.73641 13.8208 6.90991C13.6474 7.08341 13.4415 7.22106 13.215 7.31499C12.9884 7.40893 12.7455 7.45732 12.5002 7.4574C12.255 7.45748 12.0121 7.40925 11.7854 7.31545C11.5588 7.22166 11.3528 7.08415 11.1793 6.91076C11.0058 6.73737 10.8682 6.53151 10.7742 6.30493C10.6803 6.07835 10.6319 5.83549 10.6318 5.5902C10.6317 5.09483 10.8283 4.61969 11.1785 4.26929C11.5286 3.9189 12.0037 3.72196 12.499 3.7218C12.9944 3.72164 13.4696 3.91828 13.8199 4.26844C14.1703 4.61861 14.3673 5.09363 14.3674 5.589Z" fill="white"/>
<path d="M12.5 13.8666C13.5312 13.8666 14.3672 13.0306 14.3672 11.9994C14.3672 10.9682 13.5312 10.1322 12.5 10.1322C11.4688 10.1322 10.6328 10.9682 10.6328 11.9994C10.6328 13.0306 11.4688 13.8666 12.5 13.8666Z" fill="white"/>
<path d="M12.5 20.2782C13.5312 20.2782 14.3672 19.4422 14.3672 18.411C14.3672 17.3798 13.5312 16.5438 12.5 16.5438C11.4688 16.5438 10.6328 17.3798 10.6328 18.411C10.6328 19.4422 11.4688 20.2782 12.5 20.2782Z" fill="white"/>
</svg>
