<svg width="89" height="43" viewBox="0 0 89 43" fill="none" xmlns="http://www.w3.org/2000/svg">
<rect x="0.458008" y="3.72583" width="88.083" height="38.8756" rx="12" fill="url(#paint0_linear_1507_27639)"/>
<g filter="url(#filter0_i_1507_27639)">
<rect x="0.458008" y="0.398621" width="88.083" height="38.8756" rx="12" fill="url(#paint1_linear_1507_27639)"/>
</g>
<rect x="0.458008" y="0.398621" width="88.083" height="21.8894" rx="10.9447" fill="url(#paint2_linear_1507_27639)"/>
<g filter="url(#filter1_d_1507_27639)">
<mask id="path-4-outside-1_1507_27639" maskUnits="userSpaceOnUse" x="22.3838" y="11.529" width="46" height="20" fill="black">
<rect fill="white" x="22.3838" y="11.529" width="46" height="20"/>
<path d="M30.3273 23.9791H27.2677V27.529H22.5606V12.8193H29.9742C33.3477 12.8193 35.0344 14.6302 35.0344 18.2521C35.0344 19.0497 34.9559 19.795 34.799 20.488C34.6421 21.1809 34.3741 21.7889 33.9949 22.312C33.6288 22.8219 33.145 23.2272 32.5435 23.528C31.9552 23.8287 31.2164 23.9791 30.3273 23.9791ZM28.3464 16.585H27.2677V20.2134H28.3464C28.9217 20.2134 29.3336 20.1545 29.582 20.0369C29.8435 19.9192 29.9742 19.6446 29.9742 19.2131V17.5656C29.9742 17.1472 29.8435 16.8792 29.582 16.7615C29.3336 16.6438 28.9217 16.585 28.3464 16.585ZM36.4467 12.2309L41.1538 11.8779V24.1556C41.4022 24.2079 41.6245 24.2471 41.8206 24.2732C42.0167 24.2994 42.1802 24.319 42.3109 24.3321L42.0952 27.784C40.0947 27.784 38.7675 27.6663 38.1138 27.4309C37.5646 27.2348 37.1462 26.9798 36.8585 26.666C36.584 26.3522 36.4467 25.9011 36.4467 25.3127V12.2309ZM49.295 15.4082C53.0606 15.4082 54.9435 16.7027 54.9435 19.2916V27.529H52.5899L51.2563 26.1953C51.0209 26.4568 50.7398 26.6922 50.4129 26.9014C50.0991 27.1106 49.7591 27.2871 49.393 27.4309C49.0269 27.5748 48.6543 27.6859 48.2751 27.7643C47.8959 27.8428 47.5298 27.882 47.1768 27.882C46.5099 27.882 45.9085 27.8101 45.3724 27.6663C44.8494 27.5355 44.4048 27.3198 44.0387 27.0191C43.6726 26.7183 43.3915 26.3195 43.1953 25.8227C42.9992 25.3258 42.9012 24.7178 42.9012 23.9987C42.9012 21.1744 45.0324 19.7623 49.295 19.7623H50.2364V18.9189C49.988 18.9058 49.7591 18.8928 49.5499 18.8797C49.3538 18.8666 49.1707 18.8601 49.0008 18.8601C47.2356 18.8601 45.7123 19.0758 44.431 19.5073L43.8622 16.1339C45.4312 15.6501 47.2421 15.4082 49.295 15.4082ZM47.6475 23.4887V24.4498H48.6281C49.308 24.4498 49.7526 24.3713 49.9618 24.2144C50.1449 24.0444 50.2364 23.8418 50.2364 23.6064V22.4885H49.2754C48.7131 22.4885 48.3012 22.5473 48.0397 22.665C47.7782 22.7827 47.6475 23.0572 47.6475 23.4887ZM60.9781 26.313H58.5069L55.8788 15.7612H60.5859L61.8803 23.4103H62.1157L63.4101 15.7612H68.1172L65.1753 27.529C64.9661 28.3004 64.7242 28.9346 64.4496 29.4314C64.1881 29.9283 63.8808 30.3206 63.5278 30.6082C63.1748 30.909 62.7629 31.1182 62.2922 31.2358C61.8346 31.3535 61.2985 31.4123 60.6839 31.4123H56.1141V28.3527L58.3304 27.9213C59.4679 27.6597 60.2067 27.3786 60.5467 27.0779C60.6382 26.9994 60.7232 26.9079 60.8016 26.8033C60.8801 26.6987 60.952 26.581 61.0174 26.4503L60.9781 26.313Z"/>
</mask>
<path d="M30.3273 23.9791H27.2677V27.529H22.5606V12.8193H29.9742C33.3477 12.8193 35.0344 14.6302 35.0344 18.2521C35.0344 19.0497 34.9559 19.795 34.799 20.488C34.6421 21.1809 34.3741 21.7889 33.9949 22.312C33.6288 22.8219 33.145 23.2272 32.5435 23.528C31.9552 23.8287 31.2164 23.9791 30.3273 23.9791ZM28.3464 16.585H27.2677V20.2134H28.3464C28.9217 20.2134 29.3336 20.1545 29.582 20.0369C29.8435 19.9192 29.9742 19.6446 29.9742 19.2131V17.5656C29.9742 17.1472 29.8435 16.8792 29.582 16.7615C29.3336 16.6438 28.9217 16.585 28.3464 16.585ZM36.4467 12.2309L41.1538 11.8779V24.1556C41.4022 24.2079 41.6245 24.2471 41.8206 24.2732C42.0167 24.2994 42.1802 24.319 42.3109 24.3321L42.0952 27.784C40.0947 27.784 38.7675 27.6663 38.1138 27.4309C37.5646 27.2348 37.1462 26.9798 36.8585 26.666C36.584 26.3522 36.4467 25.9011 36.4467 25.3127V12.2309ZM49.295 15.4082C53.0606 15.4082 54.9435 16.7027 54.9435 19.2916V27.529H52.5899L51.2563 26.1953C51.0209 26.4568 50.7398 26.6922 50.4129 26.9014C50.0991 27.1106 49.7591 27.2871 49.393 27.4309C49.0269 27.5748 48.6543 27.6859 48.2751 27.7643C47.8959 27.8428 47.5298 27.882 47.1768 27.882C46.5099 27.882 45.9085 27.8101 45.3724 27.6663C44.8494 27.5355 44.4048 27.3198 44.0387 27.0191C43.6726 26.7183 43.3915 26.3195 43.1953 25.8227C42.9992 25.3258 42.9012 24.7178 42.9012 23.9987C42.9012 21.1744 45.0324 19.7623 49.295 19.7623H50.2364V18.9189C49.988 18.9058 49.7591 18.8928 49.5499 18.8797C49.3538 18.8666 49.1707 18.8601 49.0008 18.8601C47.2356 18.8601 45.7123 19.0758 44.431 19.5073L43.8622 16.1339C45.4312 15.6501 47.2421 15.4082 49.295 15.4082ZM47.6475 23.4887V24.4498H48.6281C49.308 24.4498 49.7526 24.3713 49.9618 24.2144C50.1449 24.0444 50.2364 23.8418 50.2364 23.6064V22.4885H49.2754C48.7131 22.4885 48.3012 22.5473 48.0397 22.665C47.7782 22.7827 47.6475 23.0572 47.6475 23.4887ZM60.9781 26.313H58.5069L55.8788 15.7612H60.5859L61.8803 23.4103H62.1157L63.4101 15.7612H68.1172L65.1753 27.529C64.9661 28.3004 64.7242 28.9346 64.4496 29.4314C64.1881 29.9283 63.8808 30.3206 63.5278 30.6082C63.1748 30.909 62.7629 31.1182 62.2922 31.2358C61.8346 31.3535 61.2985 31.4123 60.6839 31.4123H56.1141V28.3527L58.3304 27.9213C59.4679 27.6597 60.2067 27.3786 60.5467 27.0779C60.6382 26.9994 60.7232 26.9079 60.8016 26.8033C60.8801 26.6987 60.952 26.581 61.0174 26.4503L60.9781 26.313Z" fill="url(#paint3_linear_1507_27639)"/>
<path d="M27.2677 23.9791V23.8768H27.1655V23.9791H27.2677ZM27.2677 27.529V27.6312H27.3699V27.529H27.2677ZM22.5606 27.529H22.4583V27.6312H22.5606V27.529ZM22.5606 12.8193V12.7171H22.4583V12.8193H22.5606ZM34.799 20.488L34.6993 20.4654L34.799 20.488ZM33.9949 22.312L33.9121 22.252L33.9119 22.2523L33.9949 22.312ZM32.5435 23.528L32.4978 23.4365L32.497 23.4369L32.5435 23.528ZM27.2677 16.585V16.4828H27.1655V16.585H27.2677ZM27.2677 20.2134H27.1655V20.3156H27.2677V20.2134ZM29.582 20.0369L29.54 19.9436L29.5382 19.9445L29.582 20.0369ZM29.582 16.7615L29.5382 16.8539L29.54 16.8547L29.582 16.7615ZM30.3273 23.8768H27.2677V24.0813H30.3273V23.8768ZM27.1655 23.9791V27.529H27.3699V23.9791H27.1655ZM27.2677 27.4268H22.5606V27.6312H27.2677V27.4268ZM22.6628 27.529V12.8193H22.4583V27.529H22.6628ZM22.5606 12.9215H29.9742V12.7171H22.5606V12.9215ZM29.9742 12.9215C31.6433 12.9215 32.8768 13.3692 33.6946 14.2472C34.5136 15.1265 34.9322 16.4552 34.9322 18.2521H35.1366C35.1366 16.4271 34.7118 15.0394 33.8441 14.1078C32.9752 13.1749 31.6786 12.7171 29.9742 12.7171V12.9215ZM34.9322 18.2521C34.9322 19.043 34.8544 19.7806 34.6993 20.4654L34.8987 20.5105C35.0575 19.8093 35.1366 19.0564 35.1366 18.2521H34.9322ZM34.6993 20.4654C34.5452 21.1462 34.2824 21.7412 33.9121 22.252L34.0777 22.372C34.4657 21.8367 34.7391 21.2157 34.8987 20.5105L34.6993 20.4654ZM33.9119 22.2523C33.5561 22.7479 33.0855 23.1427 32.4978 23.4365L32.5893 23.6194C33.2045 23.3118 33.7015 22.8959 34.0779 22.3716L33.9119 22.2523ZM32.497 23.4369C31.9271 23.7282 31.2056 23.8768 30.3273 23.8768V24.0813C31.2272 24.0813 31.9832 23.9292 32.5901 23.619L32.497 23.4369ZM28.3464 16.4828H27.2677V16.6872H28.3464V16.4828ZM27.1655 16.585V20.2134H27.3699V16.585H27.1655ZM27.2677 20.3156H28.3464V20.1112H27.2677V20.3156ZM28.3464 20.3156C28.9238 20.3156 29.3554 20.2573 29.6257 20.1292L29.5382 19.9445C29.3117 20.0518 28.9196 20.1112 28.3464 20.1112V20.3156ZM29.6239 20.1301C29.9393 19.9881 30.0765 19.6617 30.0765 19.2131H29.872C29.872 19.6274 29.7477 19.8502 29.54 19.9436L29.6239 20.1301ZM30.0765 19.2131V17.5656H29.872V19.2131H30.0765ZM30.0765 17.5656C30.0765 17.1283 29.9382 16.8097 29.6239 16.6683L29.54 16.8547C29.7488 16.9486 29.872 17.1662 29.872 17.5656H30.0765ZM29.6257 16.6691C29.3554 16.5411 28.9238 16.4828 28.3464 16.4828V16.6872C28.9196 16.6872 29.3117 16.7466 29.5382 16.8539L29.6257 16.6691ZM36.4467 12.2309L36.439 12.129L36.3444 12.1361V12.2309H36.4467ZM41.1538 11.8779H41.256V11.7677L41.1461 11.776L41.1538 11.8779ZM41.1538 24.1556H41.0515V24.2385L41.1327 24.2556L41.1538 24.1556ZM41.8206 24.2732L41.8341 24.1719L41.8206 24.2732ZM42.3109 24.3321L42.4129 24.3385L42.4191 24.2402L42.3211 24.2304L42.3109 24.3321ZM42.0952 27.784V27.8862H42.1912L42.1972 27.7903L42.0952 27.784ZM38.1138 27.4309L38.1484 27.3348L38.1481 27.3347L38.1138 27.4309ZM36.8585 26.666L36.7816 26.7334L36.7832 26.7351L36.8585 26.666ZM36.4543 12.3328L41.1614 11.9798L41.1461 11.776L36.439 12.129L36.4543 12.3328ZM41.0515 11.8779V24.1556H41.256V11.8779H41.0515ZM41.1327 24.2556C41.383 24.3083 41.6078 24.348 41.8071 24.3746L41.8341 24.1719C41.6411 24.1462 41.4214 24.1075 41.1748 24.0555L41.1327 24.2556ZM41.8071 24.3746C42.0038 24.4008 42.1685 24.4206 42.3008 24.4338L42.3211 24.2304C42.1919 24.2175 42.0296 24.198 41.8341 24.1719L41.8071 24.3746ZM42.2089 24.3257L41.9932 27.7776L42.1972 27.7903L42.4129 24.3385L42.2089 24.3257ZM42.0952 27.6817C41.0966 27.6817 40.268 27.6524 39.6085 27.5939C38.9472 27.5353 38.4626 27.4479 38.1484 27.3348L38.0791 27.5271C38.4187 27.6493 38.9245 27.7385 39.5904 27.7975C40.2581 27.8567 41.0932 27.8862 42.0952 27.8862V27.6817ZM38.1481 27.3347C37.6091 27.1422 37.2069 26.8948 36.9339 26.597L36.7832 26.7351C37.0855 27.0648 37.5201 27.3274 38.0794 27.5272L38.1481 27.3347ZM36.9355 26.5987C36.6828 26.3099 36.5489 25.8865 36.5489 25.3127H36.3444C36.3444 25.9158 36.4851 26.3945 36.7816 26.7333L36.9355 26.5987ZM36.5489 25.3127V12.2309H36.3444V25.3127H36.5489ZM54.9435 27.529V27.6312H55.0457V27.529H54.9435ZM52.5899 27.529L52.5177 27.6013L52.5476 27.6312H52.5899V27.529ZM51.2563 26.1953L51.3285 26.123L51.2524 26.0469L51.1803 26.1269L51.2563 26.1953ZM50.4129 26.9014L50.3578 26.8153L50.3562 26.8163L50.4129 26.9014ZM48.2751 27.7643L48.2958 27.8644L48.2751 27.7643ZM45.3724 27.6663L45.3989 27.5675L45.3972 27.5671L45.3724 27.6663ZM44.0387 27.0191L44.1036 26.9401L44.0387 27.0191ZM43.1953 25.8227L43.2904 25.7851L43.1953 25.8227ZM50.2364 19.7623V19.8645H50.3386V19.7623H50.2364ZM50.2364 18.9189H50.3386V18.8219L50.2418 18.8168L50.2364 18.9189ZM49.5499 18.8797L49.5431 18.9817L49.5436 18.9817L49.5499 18.8797ZM44.431 19.5073L44.3302 19.5243L44.3501 19.6424L44.4636 19.6042L44.431 19.5073ZM43.8622 16.1339L43.8321 16.0362L43.7465 16.0626L43.7614 16.1509L43.8622 16.1339ZM47.6475 24.4498H47.5453V24.552H47.6475V24.4498ZM49.9618 24.2144L50.0235 24.2966L50.0314 24.2893L49.9618 24.2144ZM50.2364 22.4885H50.3386V22.3863H50.2364V22.4885ZM48.0397 22.665L47.9978 22.5718L48.0397 22.665ZM49.295 15.5104C51.1693 15.5104 52.5569 15.8331 53.4734 16.4633C54.3831 17.0887 54.8413 18.0256 54.8413 19.2916H55.0457C55.0457 17.9687 54.5625 16.9639 53.5893 16.2948C52.623 15.6305 51.1863 15.306 49.295 15.306V15.5104ZM54.8413 19.2916V27.529H55.0457V19.2916H54.8413ZM54.9435 27.4268H52.5899V27.6312H54.9435V27.4268ZM52.6622 27.4567L51.3285 26.123L51.184 26.2676L52.5177 27.6013L52.6622 27.4567ZM51.1803 26.1269C50.9517 26.381 50.6777 26.6105 50.3578 26.8153L50.468 26.9875C50.8018 26.7738 51.0902 26.5327 51.3322 26.2637L51.1803 26.1269ZM50.3562 26.8163C50.0487 27.0213 49.7153 27.1945 49.3557 27.3358L49.4304 27.5261C49.803 27.3797 50.1495 27.1998 50.4696 26.9864L50.3562 26.8163ZM49.3557 27.3358C48.9949 27.4775 48.6278 27.587 48.2544 27.6643L48.2958 27.8644C48.6808 27.7848 49.059 27.672 49.4304 27.5261L49.3557 27.3358ZM48.2544 27.6643C47.8814 27.7414 47.5222 27.7798 47.1768 27.7798V27.9842C47.5374 27.9842 47.9105 27.9442 48.2958 27.8644L48.2544 27.6643ZM47.1768 27.7798C46.5171 27.7798 45.9248 27.7087 45.3989 27.5676L45.3459 27.765C45.8921 27.9116 46.5027 27.9842 47.1768 27.9842V27.7798ZM45.3972 27.5671C44.8868 27.4395 44.4565 27.2299 44.1036 26.9401L43.9738 27.098C44.3531 27.4096 44.8119 27.6315 45.3476 27.7654L45.3972 27.5671ZM44.1036 26.9401C43.7525 26.6517 43.481 26.2679 43.2904 25.7851L43.1003 25.8602C43.302 26.3711 43.5927 26.7849 43.9738 27.098L44.1036 26.9401ZM43.2904 25.7851C43.1003 25.3036 43.0034 24.7091 43.0034 23.9987H42.7989C42.7989 24.7265 42.8981 25.348 43.1003 25.8602L43.2904 25.7851ZM43.0034 23.9987C43.0034 22.6166 43.5224 21.5915 44.5561 20.9066C45.5972 20.2168 47.1717 19.8645 49.295 19.8645V19.6601C47.1556 19.6601 45.5333 20.0138 44.4431 20.7362C43.3456 21.4634 42.7989 22.5565 42.7989 23.9987H43.0034ZM49.295 19.8645H50.2364V19.6601H49.295V19.8645ZM50.3386 19.7623V18.9189H50.1342V19.7623H50.3386ZM50.2418 18.8168C49.9936 18.8038 49.7651 18.7907 49.5563 18.7777L49.5436 18.9817C49.7532 18.9948 49.9823 19.0079 50.231 19.021L50.2418 18.8168ZM49.5567 18.7777C49.3587 18.7645 49.1733 18.7579 49.0008 18.7579V18.9623C49.1682 18.9623 49.3489 18.9687 49.5431 18.9817L49.5567 18.7777ZM49.0008 18.7579C47.2277 18.7579 45.6929 18.9745 44.3983 19.4104L44.4636 19.6042C45.7318 19.1771 47.2435 18.9623 49.0008 18.9623V18.7579ZM44.5318 19.4903L43.963 16.1169L43.7614 16.1509L44.3302 19.5243L44.5318 19.4903ZM43.8923 16.2316C45.4495 15.7514 47.2499 15.5104 49.295 15.5104V15.306C47.2344 15.306 45.4129 15.5488 43.8321 16.0362L43.8923 16.2316ZM47.5453 23.4887V24.4498H47.7497V23.4887H47.5453ZM47.6475 24.552H48.6281V24.3475H47.6475V24.552ZM48.6281 24.552C48.9714 24.552 49.259 24.5322 49.4892 24.4916C49.7174 24.4513 49.8995 24.3889 50.0231 24.2962L49.9005 24.1326C49.8149 24.1968 49.6701 24.2521 49.4537 24.2903C49.2394 24.3281 48.9648 24.3475 48.6281 24.3475V24.552ZM50.0314 24.2893C50.2338 24.1013 50.3386 23.8721 50.3386 23.6064H50.1342C50.1342 23.8114 50.0559 23.9875 49.8923 24.1395L50.0314 24.2893ZM50.3386 23.6064V22.4885H50.1342V23.6064H50.3386ZM50.2364 22.3863H49.2754V22.5907H50.2364V22.3863ZM49.2754 22.3863C48.7099 22.3863 48.2799 22.4448 47.9978 22.5718L48.0817 22.7582C48.3226 22.6498 48.7163 22.5907 49.2754 22.5907V22.3863ZM47.9978 22.5718C47.6824 22.7137 47.5453 23.0401 47.5453 23.4887H47.7497C47.7497 23.0744 47.8741 22.8516 48.0817 22.7582L47.9978 22.5718ZM60.9781 26.313L61.0764 26.2849L61.0552 26.2108H60.9781V26.313ZM58.5069 26.313L58.4077 26.3377L58.427 26.4152H58.5069V26.313ZM55.8788 15.7612V15.659H55.748L55.7796 15.7859L55.8788 15.7612ZM60.5859 15.7612L60.6867 15.7442L60.6722 15.659H60.5859V15.7612ZM61.8803 23.4103L61.7795 23.4273L61.794 23.5125H61.8803V23.4103ZM62.1157 23.4103V23.5125H62.2021L62.2165 23.4273L62.1157 23.4103ZM63.4101 15.7612V15.659H63.3238L63.3094 15.7442L63.4101 15.7612ZM68.1172 15.7612L68.2164 15.786L68.2482 15.659H68.1172V15.7612ZM65.1753 27.529L65.274 27.5557L65.2745 27.5538L65.1753 27.529ZM64.4496 29.4314L64.3601 29.382L64.3592 29.3838L64.4496 29.4314ZM63.5278 30.6082L63.4632 30.529L63.4615 30.5304L63.5278 30.6082ZM62.2922 31.2358L62.2674 31.1367L62.2667 31.1368L62.2922 31.2358ZM56.1141 31.4123H56.0119V31.5146H56.1141V31.4123ZM56.1141 28.3527L56.0946 28.2524L56.0119 28.2685V28.3527H56.1141ZM58.3304 27.9212L58.3499 28.0216L58.3533 28.0209L58.3304 27.9212ZM60.5466 27.0779L60.4801 27.0003L60.4789 27.0013L60.5466 27.0779ZM60.8016 26.8033L60.8834 26.8646L60.8016 26.8033ZM61.0174 26.4503L61.1088 26.496L61.1266 26.4604L61.1156 26.4222L61.0174 26.4503ZM60.9781 26.2108H58.5069V26.4152H60.9781V26.2108ZM58.6061 26.2883L55.978 15.7365L55.7796 15.7859L58.4077 26.3377L58.6061 26.2883ZM55.8788 15.8635H60.5859V15.659H55.8788V15.8635ZM60.4851 15.7783L61.7795 23.4273L61.9811 23.3932L60.6867 15.7442L60.4851 15.7783ZM61.8803 23.5125H62.1157V23.3081H61.8803V23.5125ZM62.2165 23.4273L63.5109 15.7783L63.3094 15.7442L62.0149 23.3932L62.2165 23.4273ZM63.4101 15.8635H68.1172V15.659H63.4101V15.8635ZM68.0181 15.7364L65.0761 27.5042L65.2745 27.5538L68.2164 15.786L68.0181 15.7364ZM65.0766 27.5022C64.8688 28.2687 64.6295 28.8946 64.3602 29.382L64.5391 29.4809C64.8189 28.9746 65.0634 28.3322 65.274 27.5557L65.0766 27.5022ZM64.3592 29.3838C64.1026 29.8713 63.8034 30.2518 63.4632 30.529L63.5924 30.6875C63.9583 30.3893 64.2736 29.9853 64.5401 29.4791L64.3592 29.3838ZM63.4615 30.5304C63.1211 30.8204 62.7236 31.0226 62.2674 31.1367L62.317 31.335C62.8023 31.2137 63.2285 30.9975 63.5941 30.686L63.4615 30.5304ZM62.2667 31.1368C61.8195 31.2519 61.2923 31.3101 60.6839 31.3101V31.5146C61.3046 31.5146 61.8497 31.4552 62.3177 31.3348L62.2667 31.1368ZM60.6839 31.3101H56.1141V31.5146H60.6839V31.3101ZM56.2163 31.4123V28.3527H56.0119V31.4123H56.2163ZM56.1337 28.4531L58.3499 28.0216L58.3109 27.8209L56.0946 28.2524L56.1337 28.4531ZM58.3533 28.0209C58.9247 27.8895 59.3987 27.7526 59.774 27.6098C60.1476 27.4676 60.4308 27.3169 60.6144 27.1545L60.4789 27.0013C60.3226 27.1396 60.0664 27.2798 59.7013 27.4188C59.3378 27.5571 58.8736 27.6915 58.3075 27.8216L58.3533 28.0209ZM60.6132 27.1555C60.7108 27.0718 60.8008 26.9747 60.8834 26.8646L60.7198 26.742C60.6455 26.8411 60.5655 26.9271 60.4801 27.0003L60.6132 27.1555ZM60.8834 26.8646C60.9659 26.7546 61.041 26.6316 61.1088 26.496L60.9259 26.4046C60.863 26.5305 60.7942 26.6428 60.7198 26.742L60.8834 26.8646ZM61.1156 26.4222L61.0764 26.2849L60.8799 26.3411L60.9191 26.4784L61.1156 26.4222Z" fill="url(#paint4_linear_1507_27639)" mask="url(#path-4-outside-1_1507_27639)"/>
</g>
<defs>
<filter id="filter0_i_1507_27639" x="0.458008" y="0.398621" width="88.083" height="39.0332" filterUnits="userSpaceOnUse" color-interpolation-filters="sRGB">
<feFlood flood-opacity="0" result="BackgroundImageFix"/>
<feBlend mode="normal" in="SourceGraphic" in2="BackgroundImageFix" result="shape"/>
<feColorMatrix in="SourceAlpha" type="matrix" values="0 0 0 0 0 0 0 0 0 0 0 0 0 0 0 0 0 0 127 0" result="hardAlpha"/>
<feOffset dy="0.700461"/>
<feGaussianBlur stdDeviation="0.0788019"/>
<feComposite in2="hardAlpha" operator="arithmetic" k2="-1" k3="1"/>
<feColorMatrix type="matrix" values="0 0 0 0 1 0 0 0 0 1 0 0 0 0 1 0 0 0 0.5 0"/>
<feBlend mode="normal" in2="shape" result="effect1_innerShadow_1507_27639"/>
</filter>
<filter id="filter1_d_1507_27639" x="22.5605" y="11.8779" width="45.5566" height="21.1699" filterUnits="userSpaceOnUse" color-interpolation-filters="sRGB">
<feFlood flood-opacity="0" result="BackgroundImageFix"/>
<feColorMatrix in="SourceAlpha" type="matrix" values="0 0 0 0 0 0 0 0 0 0 0 0 0 0 0 0 0 0 127 0" result="hardAlpha"/>
<feOffset dy="1.63544"/>
<feComposite in2="hardAlpha" operator="out"/>
<feColorMatrix type="matrix" values="0 0 0 0 0.854902 0 0 0 0 0.262745 0 0 0 0 0.32549 0 0 0 1 0"/>
<feBlend mode="normal" in2="BackgroundImageFix" result="effect1_dropShadow_1507_27639"/>
<feBlend mode="normal" in="SourceGraphic" in2="effect1_dropShadow_1507_27639" result="shape"/>
</filter>
<linearGradient id="paint0_linear_1507_27639" x1="44.4995" y1="25.4401" x2="44.4995" y2="42.6014" gradientUnits="userSpaceOnUse">
<stop stop-color="#FC6E51"/>
<stop offset="1" stop-color="#DA4353"/>
</linearGradient>
<linearGradient id="paint1_linear_1507_27639" x1="44.4995" y1="0.398621" x2="44.4995" y2="39.2742" gradientUnits="userSpaceOnUse">
<stop stop-color="#FFA800"/>
<stop offset="1" stop-color="#FF6B00"/>
</linearGradient>
<linearGradient id="paint2_linear_1507_27639" x1="60.6977" y1="0.398621" x2="60.9443" y2="23.0518" gradientUnits="userSpaceOnUse">
<stop stop-color="white" stop-opacity="0"/>
<stop offset="1" stop-color="white" stop-opacity="0.27"/>
</linearGradient>
<linearGradient id="paint3_linear_1507_27639" x1="44.8838" y1="17.2345" x2="44.8838" y2="31.2756" gradientUnits="userSpaceOnUse">
<stop stop-color="white"/>
<stop offset="1" stop-color="#FFB672"/>
</linearGradient>
<linearGradient id="paint4_linear_1507_27639" x1="44.8838" y1="9.52899" x2="44.8838" y2="34.529" gradientUnits="userSpaceOnUse">
<stop stop-color="#723400"/>
<stop offset="1" stop-color="#FF9C00"/>
</linearGradient>
</defs>
</svg>
