<svg width="41" height="41" viewBox="0 0 41 41" fill="none" xmlns="http://www.w3.org/2000/svg">
<rect x="0.833252" y="0.477539" width="40" height="40" rx="20" fill="white" fill-opacity="0.1"/>
<path d="M21.4695 11.2503C21.4695 10.9971 21.369 10.7543 21.19 10.5753C21.011 10.3963 20.7682 10.2957 20.515 10.2957C20.2618 10.2957 20.0191 10.3963 19.84 10.5753C19.661 10.7543 19.5605 10.9971 19.5605 11.2503V19.2048H11.6059C11.3528 19.2048 11.11 19.3054 10.9309 19.4844C10.7519 19.6634 10.6514 19.9062 10.6514 20.1594C10.6514 20.4125 10.7519 20.6553 10.9309 20.8343C11.11 21.0133 11.3528 21.1139 11.6059 21.1139H19.5605V29.0684C19.5605 29.3216 19.661 29.5644 19.84 29.7434C20.0191 29.9224 20.2618 30.023 20.515 30.023C20.7682 30.023 21.011 29.9224 21.19 29.7434C21.369 29.5644 21.4695 29.3216 21.4695 29.0684V21.1139H29.4241C29.6773 21.1139 29.92 21.0133 30.0991 20.8343C30.2781 20.6553 30.3786 20.4125 30.3786 20.1594C30.3786 19.9062 30.2781 19.6634 30.0991 19.4844C29.92 19.3054 29.6773 19.2048 29.4241 19.2048H21.4695V11.2503Z" fill="#1E84F0"/>
</svg>
