<?xml version="1.0" encoding="UTF-8"?>
<svg xmlns="http://www.w3.org/2000/svg" xmlns:xlink="http://www.w3.org/1999/xlink" width="214px" height="249px" viewBox="0 0 54 62" version="1.1">
<g id="surface1">
<path style=" stroke:none;fill-rule:nonzero;fill:rgb(9.411765%,21.960784%,38.82353%);fill-opacity:1;" d="M 49.054688 17.628906 C 49.054688 17.628906 50.246094 17.320312 52.621094 18.679688 C 52.621094 18.679688 51.117188 12.875 47.925781 10.960938 C 47.765625 10.863281 49.304688 10.835938 51.558594 7.441406 C 51.558594 7.441406 49.105469 6.414062 47.988281 5.773438 C 46.175781 4.722656 44.421875 3.796875 43.421875 3.734375 C 42.980469 3.710938 41.082031 3.261719 40.042969 4.292969 C 39.855469 4.476562 38.625 3.796875 38.121094 3.796875 C 38.121094 3.796875 38.308594 3.460938 40.375 2.972656 C 40.558594 2.929688 36.890625 0.785156 32.871094 1.988281 C 32.871094 1.988281 33.285156 1 34.625 0.753906 C 34.625 0.753906 30.460938 -0.683594 27.0625 2.019531 C 23.652344 -0.71875 19.328125 0.585938 19.328125 0.585938 C 20.660156 0.832031 21.078125 1.820312 21.078125 1.820312 C 17.054688 0.628906 13.386719 2.765625 13.574219 2.8125 C 15.640625 3.304688 15.828125 3.632812 15.828125 3.632812 C 15.328125 3.632812 14.097656 4.304688 13.910156 4.125 C 12.863281 3.09375 10.96875 3.542969 10.527344 3.570312 C 9.523438 3.632812 7.773438 4.558594 5.960938 5.609375 C 4.84375 6.253906 2.390625 7.273438 2.390625 7.273438 C 4.644531 10.671875 6.179688 10.699219 6.023438 10.796875 C 2.828125 12.710938 1.324219 18.515625 1.324219 18.515625 C 3.714844 17.15625 4.894531 17.464844 4.894531 17.464844 C -1.179688 22.097656 0.394531 33.609375 0.449219 32.472656 C 0.503906 31.335938 2.792969 29.976562 3.277344 29.835938 C 3.035156 31.554688 3.007812 33.789062 3.578125 36.738281 C 5.082031 44.480469 10.421875 48.269531 10.421875 48.269531 C 9.808594 46.363281 9.683594 44.335938 10.070312 42.375 C 10.121094 42.46875 10.15625 42.570312 10.171875 42.671875 C 10.480469 46.039062 11.550781 48.914062 12.238281 49.839844 C 14.199219 52.472656 13.164062 51.773438 17.210938 54.863281 L 17.039062 50.785156 C 17.191406 51.121094 17.796875 52.765625 17.980469 53.109375 C 21.488281 59.75 28.601562 61.820312 28.601562 61.820312 C 27.996094 57.910156 29.324219 57.964844 31.0625 56.570312 C 32.28125 55.628906 33.328125 54.484375 34.148438 53.1875 L 34.167969 53.152344 C 34.507812 52.65625 34.839844 52.140625 35.308594 51.566406 C 34.992188 53.417969 34.710938 54.597656 33.355469 55.605469 C 33.132812 55.773438 43.152344 50.835938 42.695312 42.761719 C 42.65625 42.019531 43.753906 46.589844 43.519531 48.441406 C 43.519531 48.441406 48.859375 44.65625 50.363281 36.914062 C 50.933594 33.96875 50.90625 31.734375 50.660156 30.011719 C 51.148438 30.152344 53.425781 31.539062 53.492188 32.648438 C 53.558594 33.777344 55.125 22.261719 49.050781 17.628906 Z M 49.054688 17.628906 "/>
<path style=" stroke:none;fill-rule:nonzero;fill:rgb(60.000002%,79.215688%,91.764706%);fill-opacity:1;" d="M 23.605469 3.53125 C 23.488281 3.523438 23.375 3.53125 23.257812 3.550781 C 23.257812 3.550781 23.800781 4 23.609375 5.425781 C 23.609375 5.425781 20.753906 3.257812 18.332031 4.125 C 18.332031 4.125 19.644531 4.703125 20.085938 5.691406 C 20.085938 5.691406 17.289062 6.117188 15.175781 6.917969 C 14.039062 7.710938 11.722656 9.953125 10.25 13.371094 C 10.519531 13.324219 10.785156 13.289062 11.03125 13.261719 C 11.492188 13.21875 11.34375 17.664062 10.152344 19.390625 C 9.320312 21.550781 8.886719 22.132812 9.058594 24.101562 C 9.390625 27.953125 12.503906 30.734375 14.296875 33.152344 C 16.085938 35.566406 16.75 40.078125 17.417969 42.167969 C 18.089844 44.261719 19.089844 47.007812 23.105469 47.890625 C 25.941406 48.503906 28.332031 48.136719 31.171875 48 C 35.730469 47.777344 36.4375 44.367188 37.109375 42.277344 C 37.777344 40.1875 38.445312 35.679688 40.230469 33.257812 C 42.015625 30.839844 44.574219 27.382812 44.972656 24.214844 C 45.101562 23.132812 44.824219 20.992188 43.644531 19.195312 C 42.417969 16.664062 42.21875 13.363281 42.917969 13.429688 C 43.195312 13.457031 43.503906 13.503906 43.808594 13.558594 C 42.4375 10.332031 40.292969 8.140625 39.101562 7.210938 C 36.960938 6.320312 33.863281 5.855469 33.863281 5.855469 C 34.300781 4.867188 35.613281 4.289062 35.613281 4.289062 C 33.191406 3.417969 30.335938 5.585938 30.335938 5.585938 C 30.148438 4.167969 30.691406 3.714844 30.691406 3.714844 C 28.835938 3.410156 27.054688 6.371094 27.054688 6.371094 L 26.976562 6.1875 C 26.976562 6.1875 25.339844 3.601562 23.605469 3.53125 Z M 11.15625 6.097656 C 11 6.09375 10.832031 6.09375 10.65625 6.105469 L 10.652344 6.105469 C 8.902344 6.1875 7.898438 7.832031 6.273438 8.015625 C 6.273438 8.015625 7.335938 9.347656 10.476562 9.429688 L 13.28125 6.816406 C 12.910156 6.472656 12.261719 6.132812 11.15625 6.097656 Z M 42.816406 6.261719 C 41.765625 6.292969 41.125 6.59375 40.738281 6.917969 L 43.601562 9.589844 C 46.640625 9.476562 47.671875 8.183594 47.671875 8.183594 C 46.046875 7.996094 45.046875 6.351562 43.292969 6.265625 C 43.125 6.257812 42.96875 6.257812 42.816406 6.261719 Z M 42.816406 6.261719 "/>
<path style=" stroke:none;fill-rule:nonzero;fill:rgb(9.411765%,21.960784%,38.82353%);fill-opacity:1;" d="M 16.679688 8.308594 C 17.316406 9.957031 18.460938 11.160156 21.410156 11.921875 L 22.558594 14.105469 L 23.84375 15.691406 L 23.578125 11.285156 C 23.578125 11.285156 20.660156 10.203125 16.679688 8.308594 Z M 37.496094 8.308594 C 33.519531 10.203125 30.601562 11.285156 30.601562 11.285156 L 30.335938 15.691406 L 31.621094 14.105469 L 32.769531 11.921875 C 35.71875 11.160156 36.863281 9.957031 37.5 8.308594 Z M 17.679688 13.492188 C 15.4375 13.535156 15.714844 13.554688 13.300781 14.144531 C 13.300781 14.144531 12.320312 14.808594 16.066406 15.34375 C 16.007812 15.519531 15.972656 15.703125 15.972656 15.898438 C 15.972656 16.886719 16.726562 17.523438 17.898438 17.523438 C 19.066406 17.523438 19.824219 16.886719 19.824219 15.898438 C 19.824219 15.441406 19.652344 15.027344 19.378906 14.699219 C 20.101562 14.984375 20.675781 15.636719 20.558594 16.957031 C 21.261719 17.773438 21.234375 18.199219 21.460938 18.65625 C 20.902344 20.96875 19.308594 25.519531 20.984375 26.746094 L 21.128906 26.535156 C 21.140625 26.605469 21.152344 26.675781 21.171875 26.753906 C 21.492188 28.125 24.910156 28.546875 25.660156 29.074219 C 25.644531 28.992188 25.628906 28.90625 25.605469 28.824219 C 25.691406 28.898438 25.769531 28.980469 25.847656 29.066406 L 25.480469 30.886719 C 24.695312 31.507812 21.878906 31.683594 20.3125 31.121094 C 20.160156 31.066406 20.027344 31.011719 19.90625 30.949219 C 19.964844 30.953125 20.027344 30.953125 20.089844 30.957031 C 20.722656 31.003906 20.269531 30.300781 20.269531 30.300781 C 13.984375 29.957031 8.972656 35.191406 8.976562 35.191406 C 11.597656 32.871094 15.167969 31.3125 18.269531 30.996094 C 18.457031 31.269531 18.664062 31.578125 18.746094 31.738281 C 18.890625 32.023438 19.453125 32.339844 20.203125 32.496094 C 19.871094 32.914062 18.699219 34.953125 19.78125 37.023438 C 20.359375 38.125 21.191406 39.210938 20.996094 40.792969 C 20.761719 42.671875 20.402344 43.679688 21.308594 44.679688 C 22.011719 45.457031 23.183594 45.375 24.832031 44.914062 C 27.179688 44.253906 29.804688 44.835938 30.550781 44.992188 C 31.292969 45.144531 32.742188 45.300781 33.410156 44.5625 C 34.074219 43.824219 34.121094 41.980469 34.074219 40.753906 C 33.996094 38.714844 34.585938 37.800781 35.015625 37.023438 C 36.050781 35.160156 35.09375 33.035156 34.574219 32.414062 C 35.449219 32.320312 35.863281 31.9375 35.964844 31.738281 C 36.050781 31.570312 36.171875 31.351562 36.320312 31.085938 C 39.246094 31.550781 42.484375 33.042969 44.910156 35.195312 C 44.914062 35.191406 40.933594 31.039062 35.621094 30.375 L 35.496094 30.34375 C 35.492188 30.347656 35.488281 30.355469 35.484375 30.359375 C 34.878906 30.289062 34.253906 30.265625 33.613281 30.300781 C 33.613281 30.300781 33.160156 31.003906 33.796875 30.957031 C 34.121094 30.933594 34.457031 30.929688 34.796875 30.941406 C 34.675781 31.003906 34.546875 31.0625 34.398438 31.121094 C 33.117188 31.644531 29.546875 31.511719 28.769531 30.890625 L 28.414062 29.121094 C 28.542969 28.980469 28.679688 28.847656 28.832031 28.722656 C 28.796875 28.839844 28.769531 28.957031 28.75 29.074219 C 29.5 28.546875 32.917969 28.128906 33.238281 26.753906 C 33.242188 26.746094 33.242188 26.742188 33.242188 26.734375 C 34.820312 25.496094 33.324219 21.019531 32.777344 18.699219 C 33.03125 18.226562 32.980469 17.800781 33.703125 16.957031 C 33.585938 15.640625 34.160156 14.988281 34.878906 14.703125 C 34.605469 15.03125 34.4375 15.445312 34.4375 15.902344 C 34.4375 16.886719 35.191406 17.523438 36.363281 17.523438 C 37.535156 17.523438 38.289062 16.886719 38.289062 15.902344 C 38.289062 15.664062 38.238281 15.441406 38.160156 15.234375 C 41.800781 15.121094 40.957031 14.144531 40.957031 14.144531 C 38.820312 13.355469 38.820312 13.539062 36.578125 13.492188 C 31.363281 13.378906 31.988281 16.945312 30.707031 17.480469 L 30.816406 17.589844 C 30.765625 17.628906 30.667969 17.703125 30.667969 17.703125 C 31.199219 18.949219 32.25 25.164062 32.265625 25.257812 C 31.234375 25.300781 30.101562 25.890625 28.859375 26.113281 C 28.210938 26.230469 26.609375 26.515625 25.554688 26.113281 C 24.308594 25.640625 23.070312 25.1875 21.980469 25.246094 C 22 25.121094 23.074219 18.945312 23.625 17.703125 C 23.625 17.703125 23.519531 17.625 23.453125 17.578125 L 23.554688 17.476562 C 22.269531 16.945312 23.132812 13.378906 17.679688 13.492188 Z M 16.089844 15.261719 C 16.085938 15.269531 16.085938 15.28125 16.082031 15.289062 L 16.0625 15.265625 C 16.074219 15.265625 16.082031 15.261719 16.089844 15.261719 Z M 27.152344 15.289062 C 25.78125 15.292969 24.925781 16.167969 24.925781 16.167969 L 25.675781 16.355469 C 27.113281 15.515625 28.492188 16.355469 28.492188 16.355469 L 29.308594 15.984375 C 28.503906 15.464844 27.777344 15.285156 27.152344 15.289062 Z M 17.371094 19.03125 L 12.988281 20.695312 C 12.773438 20.824219 9.917969 23.476562 10.796875 25.328125 C 11.46875 26.75 12.828125 27.4375 14.191406 27.757812 C 9.699219 28.609375 6.316406 31.613281 6.3125 31.613281 C 9.6875 29.082031 14.34375 27.753906 17.742188 28.273438 C 18.371094 28.371094 17.976562 27.632812 17.976562 27.632812 C 17.859375 27.617188 17.746094 27.609375 17.628906 27.597656 C 11.804688 23.59375 17.371094 19.03125 17.371094 19.03125 Z M 36.851562 19.03125 C 36.851562 19.03125 42.394531 23.566406 36.65625 27.5625 C 36.40625 27.578125 36.15625 27.597656 35.902344 27.632812 C 35.902344 27.632812 35.507812 28.371094 36.136719 28.273438 C 39.535156 27.753906 44.191406 29.082031 47.566406 31.613281 C 47.566406 31.613281 44.277344 28.691406 39.875 27.792969 C 41.292969 27.488281 42.726562 26.804688 43.425781 25.328125 C 44.300781 23.476562 41.449219 20.824219 41.234375 20.695312 Z M 18.277344 27.664062 C 18.277344 27.664062 18.519531 28.125 18.300781 28.308594 C 18.21875 28.378906 18.695312 28.367188 18.695312 28.367188 C 18.695312 28.367188 18.820312 27.832031 18.652344 27.746094 C 18.535156 27.695312 18.410156 27.667969 18.277344 27.664062 Z M 35.601562 27.664062 C 35.472656 27.667969 35.347656 27.695312 35.226562 27.746094 C 35.0625 27.832031 35.183594 28.367188 35.183594 28.367188 C 35.183594 28.367188 35.664062 28.378906 35.582031 28.308594 C 35.363281 28.125 35.601562 27.664062 35.601562 27.664062 Z M 18 28.867188 C 12.269531 28.832031 7.601562 33.183594 7.597656 33.183594 C 10.90625 30.570312 15.527344 29.136719 18.9375 29.582031 C 19.570312 29.660156 19.15625 28.933594 19.15625 28.933594 C 18.765625 28.890625 18.378906 28.867188 18 28.867188 Z M 35.875 28.867188 C 35.492188 28.867188 35.105469 28.890625 34.714844 28.933594 C 34.714844 28.933594 34.304688 29.660156 34.933594 29.582031 C 38.347656 29.136719 42.964844 30.570312 46.277344 33.183594 C 46.277344 33.183594 41.613281 28.832031 35.875 28.867188 Z M 19.453125 28.964844 C 19.453125 28.964844 19.695312 29.421875 19.476562 29.605469 C 19.390625 29.675781 19.871094 29.660156 19.871094 29.660156 C 19.871094 29.660156 19.996094 29.125 19.828125 29.046875 C 19.710938 28.992188 19.582031 28.964844 19.453125 28.964844 Z M 34.429688 28.964844 C 34.300781 28.964844 34.171875 28.992188 34.054688 29.046875 C 33.886719 29.125 34.011719 29.660156 34.011719 29.660156 C 34.011719 29.660156 34.492188 29.675781 34.410156 29.605469 C 34.191406 29.421875 34.429688 28.964844 34.429688 28.964844 Z M 20.5625 30.320312 C 20.5625 30.320312 20.804688 30.777344 20.585938 30.964844 C 20.5 31.035156 20.980469 31.019531 20.980469 31.019531 C 20.980469 31.019531 21.105469 30.484375 20.9375 30.402344 C 20.820312 30.351562 20.691406 30.324219 20.5625 30.320312 Z M 33.316406 30.320312 C 33.1875 30.324219 33.058594 30.351562 32.941406 30.402344 C 32.773438 30.484375 32.898438 31.019531 32.898438 31.019531 C 32.898438 31.019531 33.378906 31.035156 33.296875 30.964844 C 33.078125 30.777344 33.316406 30.320312 33.316406 30.320312 Z M 27.042969 32.285156 L 27.191406 32.285156 C 27.269531 32.828125 28.355469 33.09375 29.230469 33.140625 C 30.96875 33.238281 30.765625 33.355469 32.746094 32.988281 C 32.90625 33.152344 33.132812 33.335938 33.351562 33.570312 L 33.289062 36.078125 L 33.890625 35.984375 C 33.832031 36.277344 33.738281 36.597656 33.601562 36.953125 C 33.050781 38.402344 32.796875 39.554688 32.765625 40.277344 C 32.476562 40.796875 32.148438 41.242188 32.148438 41.242188 L 32.148438 43.292969 C 32.136719 43.300781 32.128906 43.316406 32.113281 43.324219 C 31.644531 43.675781 31.019531 43.402344 30.511719 43.363281 C 30.398438 43.355469 30.109375 43.335938 29.773438 43.3125 L 30.6875 39.859375 L 28.902344 41.398438 L 29.703125 43.308594 C 28.460938 43.230469 26.15625 43.152344 24.558594 43.558594 C 23.875 43.734375 23.34375 43.796875 22.957031 43.75 C 22.695312 43.058594 22.367188 41.925781 22.660156 41.0625 C 22.660156 41.0625 22.261719 40.324219 21.964844 39.570312 C 21.921875 38.8125 21.800781 38.238281 21.230469 37.222656 C 21.011719 36.835938 20.839844 36.449219 20.734375 36.074219 L 21.433594 36.117188 L 21.179688 33.753906 C 21.386719 33.507812 21.652344 33.273438 21.992188 33.046875 C 23.015625 33.179688 23.527344 33.320312 25.007812 33.152344 C 25.945312 33.050781 26.964844 32.835938 27.042969 32.289062 Z M 31.019531 33.238281 L 29.800781 36.117188 L 29.796875 36.121094 L 29.53125 35.792969 L 29.59375 35.773438 L 28.546875 33.53125 L 27.625 35.570312 L 27.101562 36.246094 L 26.558594 35.390625 L 26.675781 35.347656 L 25.792969 33.648438 L 24.609375 36.113281 L 24.601562 36.121094 L 24.484375 36.023438 L 23.570312 33.351562 L 23.125 34.917969 L 23.105469 34.902344 L 23.074219 35.097656 L 22.9375 35.574219 L 22.980469 35.601562 L 22.769531 36.777344 C 25.113281 36.558594 26.339844 37.988281 27.007812 38.210938 C 27.675781 38.433594 28.601562 35.789062 31.953125 36.890625 L 31.648438 35.574219 L 31.652344 35.574219 L 31.636719 35.507812 L 31.597656 35.347656 L 31.59375 35.351562 Z M 23.773438 39.636719 L 24.777344 43.160156 L 25.445312 41.617188 Z M 23.773438 39.636719 "/>
<path style=" stroke:none;fill-rule:nonzero;fill:rgb(100%,100%,100%);fill-opacity:1;" d="M 17.898438 14.691406 C 17.222656 14.695312 16.675781 15.234375 16.675781 15.898438 C 16.675781 16.761719 17.609375 16.828125 17.898438 16.828125 C 18.183594 16.828125 19.121094 16.761719 19.121094 15.898438 C 19.121094 15.234375 18.574219 14.695312 17.898438 14.691406 Z M 36.359375 14.691406 C 35.6875 14.695312 35.136719 15.234375 35.136719 15.898438 C 35.136719 16.761719 36.074219 16.828125 36.359375 16.828125 C 36.648438 16.828125 37.582031 16.765625 37.582031 15.902344 C 37.582031 15.234375 37.035156 14.695312 36.359375 14.691406 Z M 36.359375 14.691406 "/>
<path style=" stroke:none;fill-rule:nonzero;fill:rgb(9.411765%,21.960784%,38.82353%);fill-opacity:1;" d="M 25.832031 2.894531 C 25.832031 2.894531 26.273438 6.566406 26.664062 11.382812 L 27.6875 11.503906 C 27.6875 11.503906 28 7.453125 28.511719 2.894531 Z M 17.964844 14.507812 C 17.519531 14.507812 17.160156 14.855469 17.148438 15.292969 C 17.136719 15.730469 17.480469 16.09375 17.925781 16.117188 C 18.367188 16.136719 18.746094 15.808594 18.777344 15.371094 C 18.789062 14.914062 18.429688 14.527344 17.964844 14.507812 Z M 36.449219 14.507812 C 36.007812 14.507812 35.648438 14.855469 35.636719 15.289062 C 35.625 15.726562 35.96875 16.089844 36.410156 16.113281 C 36.847656 16.132812 37.226562 15.804688 37.261719 15.371094 C 37.273438 14.914062 36.914062 14.53125 36.449219 14.507812 Z M 11.820312 17.636719 L 8.21875 18.859375 L 9.8125 20.367188 Z M 42.230469 17.902344 L 44.683594 20.769531 L 45.832031 19.121094 Z M 27.167969 31.71875 C 26.421875 31.71875 24.53125 32.375 23.722656 32.777344 C 23.707031 32.742188 23.683594 32.710938 23.65625 32.683594 C 23.417969 32.46875 22.875 32.492188 22.242188 32.542969 C 22.089844 32.554688 21.957031 32.566406 21.871094 32.566406 L 21.808594 32.566406 L 21.765625 32.605469 C 21.683594 32.683594 19.828125 34.488281 22.367188 38.679688 L 22.644531 38.597656 C 22.640625 37.589844 22.789062 36.585938 23.078125 35.617188 C 23.164062 35.324219 23.25 35.035156 23.332031 34.757812 C 23.433594 34.429688 23.519531 34.136719 23.597656 33.859375 L 24.582031 36.515625 L 25.800781 33.984375 L 27.136719 36.476562 L 28.539062 33.863281 L 29.8125 36.496094 L 30.96875 33.789062 C 31.050781 34.085938 31.148438 34.414062 31.257812 34.773438 C 31.335938 35.050781 31.425781 35.332031 31.507812 35.617188 C 31.792969 36.585938 31.941406 37.589844 31.9375 38.597656 L 32.21875 38.679688 C 34.753906 34.488281 32.898438 32.683594 32.820312 32.601562 L 32.773438 32.5625 L 32.714844 32.5625 C 32.628906 32.5625 32.496094 32.550781 32.34375 32.539062 C 31.710938 32.488281 31.167969 32.464844 30.929688 32.679688 C 30.851562 32.746094 30.8125 32.84375 30.8125 32.945312 C 30.8125 32.964844 30.816406 32.992188 30.820312 33.011719 C 30.164062 32.710938 27.957031 31.71875 27.167969 31.71875 Z M 23.617188 38.292969 C 21.082031 42.488281 22.9375 44.292969 23.015625 44.367188 L 23.058594 44.40625 L 23.121094 44.40625 C 23.207031 44.40625 23.339844 44.417969 23.492188 44.429688 C 23.734375 44.449219 23.960938 44.464844 24.164062 44.464844 C 24.496094 44.464844 24.761719 44.421875 24.90625 44.289062 C 24.984375 44.222656 25.027344 44.125 25.027344 44.023438 C 25.027344 43.917969 25.003906 43.773438 24.972656 43.617188 C 25.230469 43.679688 26.460938 43.941406 27.042969 43.941406 C 27.671875 43.941406 29.5 43.464844 29.660156 43.425781 C 29.601562 43.667969 29.5625 43.878906 29.5625 44.03125 C 29.558594 44.128906 29.597656 44.226562 29.667969 44.296875 C 29.816406 44.421875 30.082031 44.464844 30.414062 44.464844 C 30.625 44.464844 30.851562 44.449219 31.097656 44.433594 C 31.246094 44.421875 31.378906 44.410156 31.464844 44.410156 L 31.527344 44.410156 L 31.570312 44.371094 C 31.652344 44.296875 33.507812 42.492188 30.96875 38.296875 L 30.6875 38.382812 C 30.691406 39.390625 30.546875 40.398438 30.253906 41.367188 C 30.171875 41.65625 30.085938 41.945312 30 42.21875 C 29.90625 42.527344 29.832031 42.796875 29.757812 43.058594 L 28.785156 40.589844 L 27.171875 42.453125 L 25.609375 40.632812 L 24.828125 43.042969 C 24.753906 42.785156 24.675781 42.519531 24.585938 42.214844 C 24.5 41.9375 24.414062 41.652344 24.332031 41.363281 C 24.039062 40.394531 23.894531 39.386719 23.898438 38.375 Z M 23.617188 38.292969 "/>
<path style=" stroke:none;fill-rule:nonzero;fill:rgb(100%,100%,100%);fill-opacity:1;" d="M 27.160156 32.023438 C 26.371094 32.023438 24.109375 32.867188 23.648438 33.152344 L 24.617188 35.738281 L 25.777344 33.316406 L 27.132812 35.839844 L 28.546875 33.203125 L 29.78125 35.765625 L 30.816406 33.347656 C 30.234375 33.082031 27.894531 32.023438 27.160156 32.023438 Z M 22.933594 32.804688 C 22.703125 32.800781 22.441406 32.824219 22.257812 32.835938 C 22.144531 32.851562 22.03125 32.859375 21.941406 32.863281 C 21.710938 33.128906 20.535156 34.734375 22.355469 38.054688 C 22.40625 37.199219 22.550781 36.351562 22.789062 35.53125 C 22.871094 35.238281 22.960938 34.945312 23.046875 34.667969 C 23.265625 33.949219 23.472656 33.265625 23.472656 32.945312 C 23.472656 32.925781 23.464844 32.910156 23.453125 32.898438 C 23.375 32.828125 23.167969 32.804688 22.933594 32.800781 Z M 31.671875 32.808594 C 31.433594 32.808594 31.21875 32.828125 31.136719 32.902344 C 31.121094 32.914062 31.113281 32.933594 31.117188 32.949219 C 31.117188 33.273438 31.324219 33.960938 31.546875 34.695312 C 31.632812 34.964844 31.71875 35.25 31.796875 35.535156 C 32.035156 36.359375 32.183594 37.203125 32.234375 38.058594 C 34.058594 34.726562 32.882812 33.132812 32.648438 32.871094 C 32.558594 32.871094 32.445312 32.859375 32.320312 32.847656 C 32.148438 32.828125 31.898438 32.808594 31.671875 32.808594 Z M 23.613281 38.917969 C 21.789062 42.238281 22.960938 43.84375 23.191406 44.109375 C 23.28125 44.109375 23.390625 44.121094 23.515625 44.128906 C 23.875 44.160156 24.539062 44.214844 24.710938 44.070312 C 24.722656 44.058594 24.730469 44.039062 24.730469 44.023438 C 24.730469 43.703125 24.523438 43.023438 24.304688 42.300781 C 24.21875 42.023438 24.132812 41.734375 24.046875 41.441406 C 23.808594 40.621094 23.664062 39.773438 23.613281 38.917969 Z M 30.972656 38.921875 C 30.921875 39.773438 30.777344 40.621094 30.539062 41.445312 C 30.453125 41.734375 30.367188 42.023438 30.28125 42.300781 C 30.0625 43.023438 29.855469 43.707031 29.855469 44.027344 C 29.855469 44.042969 29.859375 44.0625 29.875 44.070312 C 30.035156 44.214844 30.703125 44.164062 31.070312 44.132812 C 31.195312 44.125 31.304688 44.117188 31.398438 44.113281 C 31.628906 43.84375 32.804688 42.238281 30.980469 38.921875 Z M 28.683594 41.167969 L 27.175781 42.917969 L 25.734375 41.234375 L 25.050781 43.332031 C 25.460938 43.417969 26.558594 43.644531 27.042969 43.644531 C 27.527344 43.644531 28.980469 43.289062 29.472656 43.167969 Z M 28.683594 41.167969 "/>
</g>
</svg>
