<svg width="97" height="84" viewBox="0 0 97 84" fill="none" xmlns="http://www.w3.org/2000/svg">
<path d="M10.0837 44.5974H55.5657C57.0173 44.5974 58.1907 43.4214 58.1907 41.9724C58.1907 40.5234 57.0173 39.3474 55.5657 39.3474H10.2477L19.7437 29.8515C20.7687 28.8264 20.7687 27.1648 19.7437 26.1398C18.7186 25.1147 17.057 25.1147 16.0319 26.1398L0.527344 42.0538L16.0319 57.9679C16.5451 58.4811 17.2158 58.737 17.8878 58.737C18.5598 58.737 19.2305 58.4811 19.7437 57.9679C20.7687 56.9428 20.7687 55.2812 19.7437 54.2561L10.0837 44.5974ZM79.2222 0H34.5971C31.6965 0 29.3471 2.35069 29.3471 5.25V28.875H34.6313V8.45119C34.6313 6.69769 36.054 5.27494 37.8075 5.27494H75.9291C77.6838 5.27494 79.1053 6.69769 79.1053 8.45119L79.1879 75.5764C79.1879 77.3299 77.7665 78.7526 76.0117 78.7526H37.8089C36.0554 78.7526 34.6327 77.3299 34.6327 75.5764V55.0384L29.3485 55.0449V78.75C29.3485 81.6493 31.6979 84 34.5985 84H79.2222C82.1228 84 84.4735 81.6493 84.4735 78.75V5.25C84.4723 2.35069 82.1215 0 79.2222 0Z" fill="white"/>
</svg>
