<svg width="831" height="831" viewBox="0 0 831 831" fill="none" xmlns="http://www.w3.org/2000/svg">
<path d="M415.504 820.767C639.398 820.767 820.899 639.265 820.899 415.372C820.899 191.478 639.398 9.97614 415.504 9.97614C191.61 9.97614 10.1087 191.478 10.1087 415.372C10.1087 639.265 191.61 820.767 415.504 820.767Z" fill="#1C202B" stroke="#526480" stroke-width="18.5677"/>
<path d="M345.905 22.8144C345.905 22.8144 390.417 17.7134 417.082 17.7134C443.746 17.7134 486.71 22.8144 486.71 22.8144L465.242 110.552H449.188H417.082H384.975H368.922L345.905 22.8144Z" fill="#526480"/>
<path d="M629.37 80.2745C629.37 80.2745 665.689 106.509 685.386 124.482C705.083 142.455 733.383 175.183 733.383 175.183L658.385 225.523L646.526 214.703L622.809 193.061L599.092 171.42L587.234 160.6L629.37 80.2745Z" fill="#1E84F0"/>
<path d="M807.275 344.195C807.275 344.195 812.376 388.707 812.376 415.372C812.376 442.036 807.275 485.001 807.275 485.001L719.537 463.532L719.537 447.478L719.537 415.372L719.537 383.265L719.537 367.212L807.275 344.195Z" fill="#526480"/>
<path d="M750.944 628.556C750.944 628.556 724.505 664.727 706.422 684.323C688.338 703.919 655.452 732.033 655.452 732.033L605.534 656.754L616.421 644.956L638.195 621.361L659.97 597.766L670.857 585.969L750.944 628.556Z" fill="#1E84F0"/>
<path d="M485.189 808.178C485.189 808.178 440.658 813.1 413.993 812.993C387.329 812.886 344.385 807.613 344.385 807.613L366.206 719.962L382.259 720.027L414.366 720.155L446.472 720.284L462.525 720.349L485.189 808.178Z" fill="#526480"/>
<path d="M190.754 744.051C190.754 744.051 155.648 716.214 136.777 697.376C117.906 678.538 91.1027 644.574 91.1027 644.574L168.282 597.647L179.644 608.989L202.366 631.672L225.089 654.355L236.451 665.696L190.754 744.051Z" fill="#1E84F0"/>
<path d="M23.5483 485.002C23.5483 485.002 18.4473 440.491 18.4473 413.826C18.4473 387.161 23.5483 344.197 23.5483 344.197L111.286 365.666L111.286 381.719L111.286 413.826L111.286 445.933L111.286 461.986L23.5483 485.002Z" fill="#526480"/>
<path d="M96.5074 176.972C96.5074 176.972 125.092 142.473 144.332 124.011C163.572 105.549 198.104 79.4819 198.104 79.4819L243.36 157.653L231.777 168.768L208.611 190.997L185.445 213.227L173.862 224.342L96.5074 176.972Z" fill="#1E84F0"/>
<path d="M680.3 415.369C680.3 561.265 562.027 679.538 416.13 679.538C270.234 679.538 151.961 561.265 151.961 415.369C151.961 269.472 270.234 151.199 416.13 151.199C562.027 151.199 680.3 269.472 680.3 415.369Z" fill="#1C202B" stroke="#526480" stroke-width="22.5039"/>
<rect width="559" height="130.911" transform="translate(135.911 350.338)" fill="#1C202B"/>
<path d="M269.022 445.517H245.121V473.249H208.35V358.338H266.265C292.618 358.338 305.794 372.485 305.794 400.778C305.794 407.009 305.181 412.831 303.955 418.245C302.73 423.658 300.636 428.408 297.674 432.494C294.814 436.477 291.034 439.644 286.336 441.993C281.739 444.342 275.968 445.517 269.022 445.517ZM253.548 387.755H245.121V416.1H253.548C258.042 416.1 261.26 415.64 263.2 414.721C265.243 413.802 266.265 411.657 266.265 408.286V395.416C266.265 392.147 265.243 390.053 263.2 389.134C261.26 388.215 258.042 387.755 253.548 387.755Z" fill="#1E84F0"/>
<path d="M318.562 358.338H354.472V442.576H367.19C371.779 442.576 374.871 441.977 376.467 440.78C378.162 439.583 379.01 436.99 379.01 433V358.338H414.92V421.329C414.92 430.905 414.272 438.985 412.975 445.568C411.778 452.152 409.384 457.538 405.793 461.727C402.302 465.817 397.414 468.76 391.13 470.555C384.846 472.351 376.716 473.248 366.741 473.248C356.766 473.248 348.637 472.351 342.353 470.555C336.068 468.76 331.131 465.817 327.54 461.727C324.049 457.638 321.655 452.301 320.358 445.718C319.161 439.035 318.562 430.905 318.562 421.329V358.338Z" fill="#1E84F0"/>
<path d="M507.972 434.945L527.89 473.248H487.441L472.426 439.082H464.459V473.248H427.688V358.338H485.603C511.955 358.338 525.132 371.769 525.132 398.633C525.132 417.019 519.412 429.123 507.972 434.945ZM472.886 387.755H464.459V410.737H472.886C477.38 410.737 480.598 410.277 482.538 409.358C484.581 408.439 485.603 406.345 485.603 403.076V395.416C485.603 392.147 484.581 390.053 482.538 389.134C480.598 388.214 477.38 387.755 472.886 387.755Z" fill="#1E84F0"/>
<path d="M614.2 403.229V429.889H577.429V443.831H622.474V473.248H540.657V358.338H621.554L616.958 387.755H577.429V403.229H614.2Z" fill="#1E84F0"/>
</svg>
