<svg width="65" height="65" viewBox="0 0 65 65" fill="none" xmlns="http://www.w3.org/2000/svg">
<rect x="0.5" y="0.934204" width="64" height="64" rx="32" fill="#212530" fill-opacity="0.7"/>
<path d="M39.7682 26.2621C38.4382 25.6421 36.9982 25.1921 35.4982 24.9321C35.485 24.9317 35.4719 24.9342 35.4598 24.9394C35.4477 24.9446 35.4369 24.9523 35.4282 24.9621C35.2482 25.2921 35.0382 25.7221 34.8982 26.0521C33.3072 25.8121 31.6892 25.8121 30.0982 26.0521C29.9582 25.7121 29.7482 25.2921 29.5582 24.9621C29.5482 24.9421 29.5182 24.9321 29.4882 24.9321C27.9882 25.1921 26.5582 25.6421 25.2182 26.2621C25.2082 26.2621 25.1982 26.2721 25.1882 26.2821C22.4682 30.3521 21.7182 34.3121 22.0882 38.2321C22.0882 38.2521 22.0982 38.2721 22.1182 38.2821C23.9182 39.6021 25.6482 40.4021 27.3582 40.9321C27.3882 40.9421 27.4182 40.9321 27.4282 40.9121C27.8282 40.3621 28.1882 39.7821 28.4982 39.1721C28.5182 39.1321 28.4982 39.0921 28.4582 39.0821C27.8882 38.8621 27.3482 38.6021 26.8182 38.3021C26.7782 38.2821 26.7782 38.2221 26.8082 38.1921C26.9182 38.1121 27.0282 38.0221 27.1382 37.9421C27.1582 37.9221 27.1882 37.9221 27.2082 37.9321C30.6482 39.5021 34.3582 39.5021 37.7582 37.9321C37.7782 37.9221 37.8082 37.9221 37.8282 37.9421C37.9382 38.0321 38.0482 38.1121 38.1582 38.2021C38.1982 38.2321 38.1982 38.2921 38.1482 38.3121C37.6282 38.6221 37.0782 38.8721 36.5082 39.0921C36.4682 39.1021 36.4582 39.1521 36.4682 39.1821C36.7882 39.7921 37.1482 40.3721 37.5382 40.9221C37.5682 40.9321 37.5982 40.9421 37.6282 40.9321C39.3482 40.4021 41.0782 39.6021 42.8782 38.2821C42.8982 38.2721 42.9082 38.2521 42.9082 38.2321C43.3482 33.7021 42.1782 29.7721 39.8082 26.2821C39.7982 26.2721 39.7882 26.2621 39.7682 26.2621ZM29.0182 35.8421C27.9882 35.8421 27.1282 34.8921 27.1282 33.7221C27.1282 32.5521 27.9682 31.6021 29.0182 31.6021C30.0782 31.6021 30.9182 32.5621 30.9082 33.7221C30.9082 34.8921 30.0682 35.8421 29.0182 35.8421ZM35.9882 35.8421C34.9582 35.8421 34.0982 34.8921 34.0982 33.7221C34.0982 32.5521 34.9382 31.6021 35.9882 31.6021C37.0482 31.6021 37.8882 32.5621 37.8782 33.7221C37.8782 34.8921 37.0482 35.8421 35.9882 35.8421Z" fill="#1E84F0"/>
</svg>
