<svg width="46" height="87" viewBox="0 0 46 87" fill="none" xmlns="http://www.w3.org/2000/svg">
<g filter="url(#filter0_f_656_39536)">
<path d="M30.2344 13.2377C32.85 16.7657 35.4637 20.2937 38.0793 23.8228C38.2491 24.0517 38.0572 24.1795 37.8876 23.9506L31.9152 15.8921C31.886 15.8527 31.8598 15.8111 31.8367 15.7679C31.3635 14.8842 30.8291 14.0396 30.2344 13.2377Z" fill="url(#paint0_linear_656_39536)"/>
<path d="M34.2223 23.2093C34.1214 22.4922 36.0764 21.5018 36.5076 22.0836L39.6759 26.3585C39.7052 26.3981 39.7316 26.4397 39.7545 26.4833C40.8993 28.6591 41.6893 31.1017 42.0672 33.7944C42.5038 36.8981 38.7834 37.9304 36.9172 35.4124L35.2579 33.1735C34.4998 32.1507 34.2055 30.8666 34.3294 29.5995C34.541 27.4372 34.5158 25.2965 34.2223 23.2093Z" fill="url(#paint1_linear_656_39536)"/>
<path d="M29.4685 32.642C29.2756 32.6859 29.0592 32.7002 28.8347 32.6849C28.5061 32.6625 28.1611 32.5747 27.856 32.4247C27.3702 32.1869 26.9834 31.7909 26.9079 31.2449L25.5496 21.5324C25.4965 21.1466 25.6026 20.7108 25.7996 20.2842C26.1762 19.4688 26.8885 18.6871 27.4774 18.3483C29.9278 16.947 30.8672 13.7902 28.9738 11.6966C27.6588 10.2427 26.122 8.96178 24.3784 7.88172C21.9893 6.40182 18.9737 7.45422 17.4372 9.80731C16.9035 10.6268 15.2186 11.7525 13.9541 11.6647L2.99446 10.9013C1.73919 10.8136 1.1136 9.52768 1.31363 8.68471C1.82085 6.73397 0.149963 4.92353 -1.79875 5.43848C-6.08815 6.57196 -10.3406 8.3228 -14.38 10.5786C-16.0838 11.5301 -16.5391 13.7365 -15.455 15.3591C-15.1927 15.7571 -15.1937 16.5888 -15.5397 17.4063C-15.7203 17.8339 -15.9948 18.2585 -16.3765 18.6146L-25.9789 27.5628C-26.2207 27.7893 -26.4973 27.9771 -26.7871 28.1312C-27.1443 28.32 -27.5209 28.4568 -27.8852 28.5435C-28.3016 28.6435 -28.7007 28.6793 -29.3385 28.6129C-29.4324 28.5915 -29.515 28.565 -29.5855 28.5303C-31.5651 27.5878 -33.9561 28.1745 -35.1185 30.0336C-36.2777 31.8876 -37.3064 33.8051 -38.1764 35.7741C-38.8388 37.2712 -39.3911 38.7524 -39.8391 40.2114C-40.5014 42.3682 -38.5129 44.2549 -36.315 43.7456C-36.1466 43.7068 -35.9598 43.6915 -35.6843 43.7027C-35.4373 43.7201 -35.1821 43.7731 -34.9403 43.8619C-34.3473 44.0793 -33.8401 44.5079 -33.7503 45.1356L-32.4042 54.8542C-32.3491 55.238 -32.4552 55.6727 -32.6512 56.0993C-33.0278 56.9137 -33.7411 57.6975 -34.3279 58.0312C-36.7709 59.4602 -37.695 62.6274 -35.7928 64.723C-34.4839 66.165 -32.9557 67.4362 -31.2226 68.5092C-28.8353 69.9872 -25.8228 68.9334 -24.2909 66.5803C-23.7561 65.7608 -22.064 64.6362 -20.8047 64.7158L-9.84503 65.4792C-8.58057 65.5669 -7.96621 66.861 -8.16623 67.7029C-8.63359 69.6686 -6.94234 71.4599 -4.9898 70.9403C-0.722961 69.805 3.50728 68.0592 7.52918 65.8137C9.23697 64.8602 9.69384 62.6489 8.60747 61.0224C8.34315 60.6295 8.34519 59.7957 8.69013 58.9793C8.87077 58.5517 9.1453 58.1282 9.52494 57.775L19.1385 48.8197C19.7559 48.2411 20.6009 47.9064 21.3449 47.7818C21.648 47.7308 21.9348 47.7155 22.3042 47.7441C22.4767 47.7655 22.6247 47.8033 22.7431 47.8584C24.7255 48.8026 27.1202 48.2148 28.2805 46.3506C29.4338 44.4976 30.4555 42.5814 31.3259 40.6145C31.9888 39.1161 32.5418 37.6335 32.9901 36.1733C33.6518 34.018 31.6648 32.1331 29.4685 32.642Z" fill="url(#paint2_linear_656_39536)"/>
<path d="M31.3212 40.6138C32.7538 37.3743 37.6027 36.3397 39.7118 39.1854L40.7242 40.5515C41.4857 41.579 41.8141 42.8748 41.5323 44.1223C41.0126 46.4224 40.2311 48.79 39.1662 51.199C38.9319 51.7286 38.6866 52.2545 38.4307 52.7765C36.5644 56.584 31.4383 56.6125 28.9135 53.2057C27.2735 50.993 27.3015 47.9918 28.7162 45.6287C29.6906 44.001 30.5633 42.3266 31.3212 40.6138Z" fill="url(#paint3_linear_656_39536)"/>
<path d="M5.26 67.018C8.34643 65.4683 12.1835 66.1384 14.2399 68.913C16.5073 71.9724 15.719 76.3496 12.2894 78.0044C9.00997 79.5867 5.62588 80.8341 2.22393 81.6901C0.0773773 82.2302 -2.13593 81.3144 -3.45389 79.5361C-6.06327 76.0153 -4.03837 70.8683 0.0576324 69.3102C1.81419 68.6421 3.55247 67.8753 5.26 67.018Z" fill="url(#paint4_linear_656_39536)"/>
<path d="M17.4453 9.80631L19.9451 5.97932C20.0108 5.87878 19.9662 5.74384 19.8538 5.70168C19.5364 5.58635 19.2149 5.47613 18.8883 5.37102C16.6931 4.66786 14.2857 4.21372 11.6914 4.03308C9.17986 3.85755 6.61421 3.94736 4.03325 4.28414C3.55155 4.34741 3.06883 4.41783 2.58611 4.49845C2.41904 4.52599 2.28494 4.65137 2.2455 4.81603L1.31962 8.68167C1.12061 9.52464 1.74518 10.8105 3.00045 10.8983L13.9601 11.6617C15.2266 11.7515 16.9115 10.6258 17.4453 9.80631Z" fill="url(#paint5_linear_656_39536)"/>
<path d="M34.2331 23.21C34.1045 22.2932 33.9281 21.4054 33.7062 20.5473C33.0124 17.864 29.8942 16.9714 27.4883 18.3471C26.9005 18.686 26.1881 19.4687 25.8105 20.2831C25.6135 20.7097 25.5074 21.1455 25.5605 21.5313L26.9188 31.2438C26.9933 31.7898 27.3811 32.1858 27.8669 32.4235C28.1721 32.5736 28.517 32.6613 28.8466 32.6838C29.0701 32.6991 29.2865 32.6858 29.4794 32.6409C32.2638 31.9945 34.4715 29.7274 34.4792 26.869C34.4825 25.6355 34.4024 24.4137 34.2331 23.21Z" fill="url(#paint6_linear_656_39536)"/>
<path d="M22.3147 47.7442C22.2749 47.7401 22.2351 47.7361 22.1922 47.733C21.9453 47.7156 21.6585 47.7309 21.3554 47.782C20.6114 47.9065 19.7664 48.2412 19.149 48.8199L9.53541 57.7752C9.15577 58.1283 8.88022 58.5518 8.7006 58.9794C8.35566 59.7958 8.35362 60.6296 8.61794 61.0225C9.71696 62.668 11.9381 63.14 13.5382 61.9759C15.4641 60.5747 17.3349 59.0387 19.1275 57.371C21.7993 54.885 24.1262 52.255 26.1132 49.5547C26.14 49.5199 26.1268 49.4684 26.0872 49.4496L22.7535 47.8595C22.6351 47.8034 22.4872 47.7656 22.3147 47.7442Z" fill="url(#paint7_linear_656_39536)"/>
<path d="M26.0965 49.5535C26.1223 49.5201 26.1731 49.5197 26.1983 49.5537L33.9421 60.0024C33.9719 60.0425 33.9729 60.0988 33.9414 60.1376C31.9554 62.838 29.6276 65.469 26.9558 67.955C25.8056 69.0246 24.6237 70.04 23.4158 71.0004C20.711 73.1512 16.8278 72.4141 14.7701 69.6377C12.5038 66.5797 13.3268 62.2639 16.2704 59.8509C17.236 59.0594 18.1839 58.2322 19.1108 57.3699C21.7826 54.8839 24.1095 52.2539 26.0965 49.5535Z" fill="url(#paint8_linear_656_39536)"/>
<path d="M6.84716 15.2899C-6.19951 14.3806 -21.3791 24.0452 -27.0523 36.8714C-32.7256 49.6987 -26.7462 60.8359 -13.6995 61.7452C-0.651817 62.6545 14.5196 52.9889 20.1928 40.1627C25.8661 27.3364 19.8938 16.1992 6.84716 15.2899Z" fill="#FF4545"/>
<path d="M6.84716 14.9664C-6.19951 14.057 -21.3791 23.7216 -27.0523 36.5479C-32.7256 49.3751 -26.7462 60.5123 -13.6995 61.4216C-0.651817 62.3309 14.5196 52.6654 20.1928 39.8391C25.8661 27.0119 19.8938 15.8746 6.84716 14.9664Z" fill="#A10400"/>
<path d="M-26.2828 39.0522C-20.6096 26.2259 -5.42996 16.5614 7.6167 17.4707C9.52686 17.6036 11.3339 15.6555 9.45258 15.2992C8.62033 15.1416 7.75274 15.03 6.8513 14.9673C-6.19538 14.058 -21.375 23.7225 -27.0482 36.5488C-27.4119 37.3711 -27.7277 38.1863 -27.9966 38.9923C-28.4423 40.3281 -26.8524 40.34 -26.2828 39.0522Z" fill="#780300"/>
<path d="M42.0636 33.7943C41.6819 31.0735 40.8797 28.6099 39.7163 26.4178C39.2336 25.5105 38.6876 24.6441 38.0794 23.8225C37.9528 23.6521 37.8253 23.4807 37.6987 23.3092C38.0906 23.944 38.4631 24.6267 38.7825 25.2278C39.9459 27.42 40.7481 29.8846 41.1298 32.6043C41.5125 35.3251 41.439 38.1367 40.9787 40.9687C40.5011 43.8763 39.601 46.9083 38.2294 50.0088C36.8581 53.1085 35.1114 56.0807 33.0657 58.8786C33.065 58.8795 33.0636 58.8798 33.0626 58.879L33.0587 58.876C33.0571 58.8748 33.0552 58.8768 33.0564 58.8783C33.0569 58.8789 33.0569 58.8798 33.0565 58.8804C33.0394 58.9025 33.0233 58.9256 33.0062 58.9467C31.0202 61.6471 28.6924 64.278 26.0206 66.7641C23.3263 69.2695 20.4576 71.478 17.4898 73.3783C11.3167 77.3239 4.51215 80.0924 -2.24463 81.2419C-2.24706 81.2423 -2.24952 81.2414 -2.2511 81.2395C-2.25269 81.2376 -2.25516 81.2367 -2.25759 81.2371C-5.41079 81.7724 -8.56089 81.961 -11.6274 81.7478C-14.6962 81.5345 -17.4996 80.9293 -20.0081 79.9985C-23.9127 78.5514 -27.0948 76.2919 -29.4727 73.4272C-29.3961 73.5313 -29.3196 73.6344 -29.242 73.7385C-26.806 77.0257 -23.3718 79.5954 -19.0723 81.1885C-16.5638 82.1192 -13.7603 82.7234 -10.6915 82.9377C-7.62505 83.1519 -4.47495 82.9624 -1.32175 82.4271C-1.31932 82.4267 -1.31684 82.4276 -1.31526 82.4295C-1.31368 82.4314 -1.31122 82.4323 -1.30879 82.4319C5.44799 81.2823 12.2526 78.5139 18.4257 74.5682C21.3934 72.668 24.2632 70.4595 26.9564 67.954C29.6282 65.468 31.9551 62.837 33.9421 60.1367C33.9592 60.1146 33.9753 60.0924 33.9923 60.0703C33.9928 60.0697 33.9928 60.0689 33.9923 60.0683C33.991 60.0668 33.993 60.0648 33.9945 60.0659L33.9985 60.069C33.9994 60.0697 34.0008 60.0695 34.0016 60.0685C36.0472 57.2707 37.7939 54.2974 39.1652 51.1987C40.5368 48.0983 41.438 45.0662 41.9146 42.1587C42.3728 39.3277 42.4463 36.5151 42.0636 33.7943Z" fill="#B0AAAA"/>
<path d="M31.8313 41.2619C33.2029 38.1615 34.1041 35.1294 34.5807 32.2219C35.0399 29.3899 35.1134 26.5783 34.7307 23.8575C34.349 21.1367 33.5468 18.6731 32.3834 16.481C32.0048 15.7686 31.5751 15.09 31.119 14.4297C30.825 14.0327 30.5301 13.6357 30.2362 13.2377C30.8455 14.0592 31.3914 14.9257 31.8731 15.8329C33.0366 18.0251 33.8387 20.4897 34.2204 23.2104C34.6031 25.9312 34.5296 28.7428 34.0704 31.5749C33.5928 34.4824 32.6916 37.5144 31.321 40.6148C29.9496 43.7148 28.2027 46.6873 26.1569 49.4852C26.1564 49.486 26.1563 49.487 26.1566 49.4879C26.1578 49.4908 26.1538 49.493 26.1519 49.4905L26.1512 49.4895C26.15 49.488 26.1477 49.4879 26.1466 49.4895C26.1301 49.5109 26.1144 49.5324 26.0979 49.5548C24.1119 52.2552 21.784 54.8862 19.1122 57.3712C16.418 59.8777 13.5492 62.0861 10.5815 63.9854C4.41041 67.93 -2.39112 70.6975 -9.14482 71.848C-9.14726 71.8484 -9.14972 71.8475 -9.1513 71.8456C-9.15289 71.8437 -9.15536 71.8428 -9.15779 71.8432C-12.314 72.3785 -15.4672 72.5681 -18.5347 72.3539C-21.6035 72.1406 -24.4069 71.5364 -26.9154 70.6046C-30.9833 69.0973 -34.2654 66.7072 -36.6719 63.671C-36.6402 63.7139 -36.6076 63.7578 -36.5749 63.8017C-34.1389 67.0888 -30.7047 69.6586 -26.4052 71.2517C-23.8967 72.1824 -21.0932 72.7866 -18.0244 73.0009C-14.958 73.2151 -11.8079 73.0255 -8.65466 72.4913C-8.65222 72.4909 -8.64975 72.4918 -8.64817 72.4937C-8.6466 72.4956 -8.64413 72.4965 -8.6417 72.4961C-1.88493 71.3455 4.91966 68.5781 11.0928 64.6324C14.0605 62.7321 16.9303 60.5237 19.6235 58.0182C22.2953 55.5322 24.6222 52.9012 26.6092 50.2008C26.6262 50.1787 26.6423 50.1566 26.6594 50.1345C26.6599 50.1339 26.6598 50.1331 26.6593 50.1325C26.6581 50.131 26.66 50.1289 26.6616 50.1301L26.6656 50.1331C26.6665 50.1339 26.6679 50.1337 26.6687 50.1327C28.7133 47.3339 30.46 44.3606 31.8313 41.2619Z" fill="white"/>
<path d="M4.20913 36.4055L5.8518 39.2516L2.51591 40.0833L1.27759 37.488L0.620517 37.6518V40.5559L-2.41211 41.312L-2.41211 31.5449L2.36428 30.354C4.53766 29.8121 5.62435 30.6829 5.62435 32.9662C5.62435 34.5289 5.15261 35.6754 4.20913 36.4055ZM1.31549 33.1159L0.620517 33.2892L0.620517 35.2426L1.31549 35.0693C1.68615 34.9769 1.9515 34.8717 2.11156 34.7536C2.28004 34.6335 2.36428 34.4345 2.36428 34.1567V33.5056C2.36428 33.2277 2.28004 33.0708 2.11156 33.0346C1.9515 32.9964 1.68615 33.0235 1.31549 33.1159Z" fill="#CBD5E4"/>
<path d="M12.9696 31.5254V33.7914L9.93692 34.5475V35.7326L13.6519 34.8063V37.3067L6.9043 38.9891L6.9043 29.222L13.5761 27.5585L13.197 30.1534L9.93692 30.9662V32.2815L12.9696 31.5254Z" fill="#CBD5E4"/>
</g>
<defs>
<filter id="filter0_f_656_39536" x="-44.5707" y="0.687131" width="90.1394" height="85.5951" filterUnits="userSpaceOnUse" color-interpolation-filters="sRGB">
<feFlood flood-opacity="0" result="BackgroundImageFix"/>
<feBlend mode="normal" in="SourceGraphic" in2="BackgroundImageFix" result="shape"/>
<feGaussianBlur stdDeviation="1.62909" result="effect1_foregroundBlur_656_39536"/>
</filter>
<linearGradient id="paint0_linear_656_39536" x1="59.6036" y1="-6.47878" x2="-15.2326" y2="73.4587" gradientUnits="userSpaceOnUse">
<stop stop-color="#FF3936"/>
<stop offset="0.2601" stop-color="#E62926"/>
<stop offset="0.7497" stop-color="#BB0E0B"/>
<stop offset="1" stop-color="#AB0400"/>
</linearGradient>
<linearGradient id="paint1_linear_656_39536" x1="36.4232" y1="16.0635" x2="41.3565" y2="90.3923" gradientUnits="userSpaceOnUse">
<stop stop-color="white"/>
<stop offset="0.147" stop-color="#F3F5F8"/>
<stop offset="0.7114" stop-color="#C8D2E2"/>
<stop offset="1" stop-color="#B8C4D9"/>
</linearGradient>
<linearGradient id="paint2_linear_656_39536" x1="-27.1854" y1="34.207" x2="72.1482" y2="50.8758" gradientUnits="userSpaceOnUse">
<stop stop-color="#FF3936"/>
<stop offset="0.2601" stop-color="#E62926"/>
<stop offset="0.7497" stop-color="#BB0E0B"/>
<stop offset="1" stop-color="#AB0400"/>
</linearGradient>
<linearGradient id="paint3_linear_656_39536" x1="72.0736" y1="5.19201" x2="-2.76545" y2="85.1326" gradientUnits="userSpaceOnUse">
<stop stop-color="#FF3936"/>
<stop offset="0.2601" stop-color="#E62926"/>
<stop offset="0.7497" stop-color="#BB0E0B"/>
<stop offset="1" stop-color="#AB0400"/>
</linearGradient>
<linearGradient id="paint4_linear_656_39536" x1="70.0766" y1="3.31477" x2="-4.76448" y2="83.2575" gradientUnits="userSpaceOnUse">
<stop stop-color="#FF3936"/>
<stop offset="0.2601" stop-color="#E62926"/>
<stop offset="0.7497" stop-color="#BB0E0B"/>
<stop offset="1" stop-color="#AB0400"/>
</linearGradient>
<linearGradient id="paint5_linear_656_39536" x1="-26.7745" y1="0.95552" x2="50.2811" y2="15.4139" gradientUnits="userSpaceOnUse">
<stop stop-color="white"/>
<stop offset="0.147" stop-color="#F3F5F8"/>
<stop offset="0.7114" stop-color="#C8D2E2"/>
<stop offset="1" stop-color="#B8C4D9"/>
</linearGradient>
<linearGradient id="paint6_linear_656_39536" x1="-29.0506" y1="13.1191" x2="47.9991" y2="27.5763" gradientUnits="userSpaceOnUse">
<stop stop-color="white"/>
<stop offset="0.147" stop-color="#F3F5F8"/>
<stop offset="0.7114" stop-color="#C8D2E2"/>
<stop offset="1" stop-color="#B8C4D9"/>
</linearGradient>
<linearGradient id="paint7_linear_656_39536" x1="-35.2533" y1="46.16" x2="41.8029" y2="60.6186" gradientUnits="userSpaceOnUse">
<stop stop-color="white"/>
<stop offset="0.147" stop-color="#F3F5F8"/>
<stop offset="0.7114" stop-color="#C8D2E2"/>
<stop offset="1" stop-color="#B8C4D9"/>
</linearGradient>
<linearGradient id="paint8_linear_656_39536" x1="19.3111" y1="17.1988" x2="24.2444" y2="91.5288" gradientUnits="userSpaceOnUse">
<stop stop-color="white"/>
<stop offset="0.147" stop-color="#F3F5F8"/>
<stop offset="0.7114" stop-color="#C8D2E2"/>
<stop offset="1" stop-color="#B8C4D9"/>
</linearGradient>
</defs>
</svg>
