<svg width="24" height="25" viewBox="0 0 24 25" fill="none" xmlns="http://www.w3.org/2000/svg">
<path d="M11 17.934H7C5.61667 17.934 4.43767 17.4463 3.463 16.471C2.48833 15.4956 2.00067 14.3166 2 12.934C1.99933 11.5513 2.487 10.3723 3.463 9.39696C4.439 8.42163 5.618 7.93396 7 7.93396H11V9.93396H7C6.16667 9.93396 5.45833 10.2256 4.875 10.809C4.29167 11.3923 4 12.1006 4 12.934C4 13.7673 4.29167 14.4756 4.875 15.059C5.45833 15.6423 6.16667 15.934 7 15.934H11V17.934ZM8 13.934V11.934H16V13.934H8ZM13 17.934V15.934H17C17.8333 15.934 18.5417 15.6423 19.125 15.059C19.7083 14.4756 20 13.7673 20 12.934C20 12.1006 19.7083 11.3923 19.125 10.809C18.5417 10.2256 17.8333 9.93396 17 9.93396H13V7.93396H17C18.3833 7.93396 19.5627 8.42163 20.538 9.39696C21.5133 10.3723 22.0007 11.5513 22 12.934C21.9993 14.3166 21.5117 15.496 20.537 16.472C19.5623 17.448 18.3833 17.9353 17 17.934H13Z" fill="#1E84F0"/>
</svg>
