<svg width="73" height="73" viewBox="0 0 73 73" fill="none" xmlns="http://www.w3.org/2000/svg">
<rect x="0.443359" y="0.311401" width="72" height="72" rx="36" fill="#212530" fill-opacity="0.7"/>
<path fill-rule="evenodd" clip-rule="evenodd" d="M31.11 29.6447C31.11 28.2302 31.6719 26.8737 32.6721 25.8735C33.6723 24.8733 35.0289 24.3114 36.4434 24.3114C37.8578 24.3114 39.2144 24.8733 40.2146 25.8735C41.2148 26.8737 41.7767 28.2302 41.7767 29.6447C41.7767 31.0592 41.2148 32.4158 40.2146 33.416C39.2144 34.4162 37.8578 34.9781 36.4434 34.9781C35.0289 34.9781 33.6723 34.4162 32.6721 33.416C31.6719 32.4158 31.11 31.0592 31.11 29.6447ZM31.11 37.6447C29.3419 37.6447 27.6462 38.3471 26.396 39.5974C25.1457 40.8476 24.4434 42.5433 24.4434 44.3114C24.4434 45.3723 24.8648 46.3897 25.6149 47.1398C26.3651 47.89 27.3825 48.3114 28.4434 48.3114H44.4434C45.5042 48.3114 46.5216 47.89 47.2718 47.1398C48.0219 46.3897 48.4434 45.3723 48.4434 44.3114C48.4434 42.5433 47.741 40.8476 46.4907 39.5974C45.2405 38.3471 43.5448 37.6447 41.7767 37.6447H31.11Z" fill="#1E84F0"/>
</svg>
