<svg width="10" height="19" viewBox="0 0 10 19" fill="none" xmlns="http://www.w3.org/2000/svg">
<path d="M1.56043 0.28961C1.75963 0.288933 1.95644 0.332896 2.13641 0.418267C2.31638 0.503639 2.47494 0.62825 2.60043 0.782944L9.04043 8.78294C9.23654 9.02152 9.34375 9.32078 9.34375 9.62961C9.34375 9.93844 9.23654 10.2377 9.04043 10.4763L2.37377 18.4763C2.14745 18.7486 1.82223 18.9198 1.46966 18.9523C1.1171 18.9848 0.766055 18.8759 0.493766 18.6496C0.221477 18.4233 0.050245 18.0981 0.0177387 17.7455C-0.0147676 17.3929 0.0941143 17.0419 0.320432 16.7696L6.28043 9.62294L0.520433 2.47628C0.357389 2.28056 0.25382 2.04224 0.22198 1.78951C0.190141 1.53678 0.231363 1.28021 0.340771 1.05018C0.450179 0.82014 0.623192 0.626258 0.839339 0.491471C1.05549 0.356684 1.30572 0.286634 1.56043 0.28961Z" fill="white"/>
</svg>
