<svg width="69" height="103" viewBox="0 0 69 103" fill="none" xmlns="http://www.w3.org/2000/svg">
<g filter="url(#filter0_f_656_39565)">
<path d="M15.6777 59.0663C15.0731 55.2845 14.47 51.5035 13.8658 47.7209C13.8265 47.4756 14.0264 47.4538 14.0656 47.6992L15.445 56.3364C15.4517 56.3787 15.4553 56.4213 15.4558 56.4641C15.4664 57.3381 15.5402 58.2066 15.6777 59.0663Z" fill="url(#paint0_linear_656_39565)"/>
<path d="M16.6081 49.7499C16.3977 50.3453 14.4866 50.3252 14.387 49.7016L13.6553 45.1197C13.6485 45.0773 13.6449 45.0344 13.6447 44.9914C13.6341 42.8476 14.0054 40.6399 14.7961 38.4045C15.707 35.8269 19.0009 36.5252 19.4319 39.2248L19.8149 41.6236C19.9899 42.7201 19.701 43.8323 19.0953 44.763C18.062 46.3508 17.2204 48.017 16.6081 49.7499Z" fill="url(#paint1_linear_656_39565)"/>
<path d="M72.6747 30.6524C70.8942 29.9099 69.5327 28.3668 69.2285 26.4618L69.2075 26.3306C68.6144 22.6171 72.1685 19.6365 75.3762 21.5994C77.3626 22.8141 79.0756 24.1768 80.5176 25.6462C80.9435 26.0801 81.2079 26.6435 81.3037 27.2439L81.7873 30.2719C82.1364 32.4575 79.076 34.1001 77.1881 32.9448C75.7648 32.0739 74.2533 31.3107 72.6747 30.6524Z" fill="url(#paint2_linear_656_39565)"/>
<path d="M24.079 44.3636C24.2458 44.4072 24.419 44.4832 24.5866 44.5853C24.8318 44.7349 25.0634 44.9415 25.2391 45.1804C25.5193 45.5597 25.6593 46.0217 25.4981 46.4745L22.6423 54.5356C22.5282 54.8554 22.2708 55.1499 21.9468 55.4007C21.3274 55.8801 20.4618 56.1984 19.8707 56.2241C17.4112 56.3226 15.4145 58.3872 16.0373 60.7687C16.4698 62.4225 17.1435 64.0318 18.0582 65.5689C19.3115 67.6748 22.068 68.0735 24.2034 66.8709C24.946 66.4515 26.7024 66.2583 27.6454 66.8349L35.8179 71.8339C36.7539 72.4067 36.7206 73.6533 36.2268 74.225C35.0497 75.5303 35.6142 77.6032 37.3291 77.9886C41.104 78.8371 45.0989 79.1931 49.1314 79.0725C50.8323 79.0216 52.0721 77.4979 51.8863 75.8064C51.8435 75.393 52.1789 74.7499 52.7753 74.2566C53.0871 73.9984 53.4703 73.7803 53.9089 73.6583L64.9376 70.5974C65.2158 70.5194 65.5054 70.4854 65.7916 70.4828C66.1439 70.4804 66.4903 70.526 66.8071 70.6055C67.1695 70.6956 67.4926 70.8284 67.9594 71.1363C68.0234 71.1907 68.0767 71.2445 68.1172 71.2996C69.2698 72.8251 71.3557 73.3329 73.0028 72.362C74.6452 71.3937 76.2122 70.3238 77.6779 69.1506C78.7925 68.2587 79.8159 67.335 80.7494 66.3865C82.1297 64.984 81.3499 62.7244 79.4441 62.2343C79.2982 62.1965 79.1476 62.1333 78.9389 62.0137C78.7548 61.901 78.5787 61.7573 78.4273 61.5913C78.056 61.1846 77.836 60.6489 78.0189 60.1272L80.8867 52.0663C80.9984 51.7473 81.2554 51.4536 81.5786 51.2024C82.1975 50.7237 83.0647 50.4043 83.653 50.3821C86.1179 50.2592 88.1069 48.1803 87.4781 45.7938C87.0454 44.1516 86.3744 42.5534 85.4651 41.0261C84.2125 38.9223 81.4578 38.5258 79.326 39.7302C78.5818 40.1488 76.8211 40.3387 75.8787 39.7706L67.7062 34.7715C66.7632 34.195 66.8084 32.9466 67.3018 32.3757C68.4541 31.0428 67.866 28.9766 66.1464 28.5932C62.3884 27.7553 58.4132 27.4045 54.3982 27.524C52.6933 27.5748 51.4503 29.102 51.6366 30.7974C51.6831 31.2077 51.3461 31.852 50.7509 32.3449C50.4391 32.6031 50.0563 32.8204 49.6206 32.9409L38.5803 36.0027C37.8698 36.202 37.0814 36.1211 36.4557 35.9182C36.2006 35.8358 35.9726 35.7323 35.6982 35.5616C35.5734 35.4756 35.4741 35.3869 35.4047 35.2966C34.2506 33.7687 32.1614 33.2602 30.5138 34.2358C28.8761 35.2055 27.3149 36.2772 25.8503 37.4489C24.7342 38.342 23.7095 39.267 22.775 40.2169C21.3968 41.6177 22.1757 43.8743 24.079 44.3636Z" fill="url(#paint3_linear_656_39565)"/>
<path d="M25.8529 37.4513C23.4416 39.3814 19.274 38.2314 18.7871 35.1814L18.5533 33.7173C18.3775 32.6162 18.6447 31.4818 19.3644 30.6302C20.6917 29.0595 22.2488 27.5419 24.0418 26.1063C24.4361 25.7908 24.8375 25.4825 25.2454 25.1816C28.2208 22.9865 32.1983 25.0265 32.7812 28.6778C33.1598 31.0492 31.931 33.3597 29.8861 34.6188C28.4773 35.4863 27.1285 36.4309 25.8529 37.4513Z" fill="url(#paint4_linear_656_39565)"/>
<path d="M56.6439 27.5073C53.6325 27.4647 50.9333 25.4028 50.4585 22.4288C49.935 19.1499 52.3055 16.0806 55.6244 16.1798C58.7984 16.2746 61.9187 16.6708 64.8954 17.3769C66.7734 17.8224 68.1174 19.4213 68.4218 21.3273C69.0245 25.1009 65.3875 28.2686 61.5917 27.8264C59.9636 27.6368 58.31 27.5308 56.6439 27.5073Z" fill="url(#paint5_linear_656_39565)"/>
<path d="M64.6874 70.9935L53.7352 73.2134C53.2997 73.302 52.9257 73.4874 52.6273 73.7196C52.0554 74.161 51.7568 74.7676 51.8259 75.1759C52.133 76.9243 53.6243 78.2157 55.3099 78.0899C57.4161 77.9326 59.5242 77.6467 61.6136 77.2212C63.4968 76.8416 65.2936 76.3619 66.9989 75.7955C68.5688 75.2742 69.0226 73.2561 67.9435 71.9056C67.8988 71.8494 67.8419 71.7921 67.7738 71.7343C67.74 71.7051 67.7034 71.6771 67.6639 71.6485C67.6253 71.6204 67.5847 71.5921 67.54 71.5634C67.2829 71.3995 66.9481 71.2464 66.5767 71.1317C66.2513 71.0321 65.898 70.9617 65.543 70.9395C65.2541 70.9238 64.9637 70.9367 64.6874 70.9935Z" fill="url(#paint6_linear_656_39565)"/>
<path d="M23.9843 66.7927L20.6856 68.3931C20.5956 68.4367 20.5761 68.5598 20.6469 68.6349C20.8565 68.8534 21.0728 69.0711 21.294 69.2869C22.7824 70.7353 24.5254 72.1007 26.5116 73.3547C28.4343 74.5693 30.4925 75.6206 32.6491 76.5048C33.0518 76.6695 33.4577 76.8296 33.8672 76.9826C34.0091 77.0359 34.1662 76.9973 34.2672 76.8849L36.33 74.5891C36.7818 74.0823 36.7379 72.9061 35.777 72.2991L27.386 67.0011C26.4169 66.3877 24.6924 66.4479 23.9843 66.7927Z" fill="url(#paint7_linear_656_39565)"/>
<path d="M16.4025 49.4732C16.21 50.0956 16.0526 50.7182 15.9293 51.3401C15.4092 53.9641 17.6279 56.1404 20.2112 56.2224C20.8237 56.2398 21.7028 55.9824 22.315 55.5465C22.6354 55.318 22.8838 55.0408 22.9816 54.7276L25.4274 46.8319C25.5664 46.3889 25.3902 45.9137 25.0745 45.5118C24.8765 45.2588 24.6225 45.0341 24.3572 44.8653C24.1773 44.7508 23.9929 44.661 23.8163 44.6057C21.2703 43.8066 18.4545 44.6389 17.3188 47.0917C16.9605 47.8657 16.6536 48.6599 16.4025 49.4732Z" fill="url(#paint8_linear_656_39565)"/>
<path d="M67.7437 34.3068L76.1349 39.6051C77.1016 40.2089 78.8314 40.1525 79.5407 39.8074C81.2447 38.9771 81.6033 36.6435 80.0837 35.4276C79.1345 34.668 78.109 33.9376 77.0077 33.2419C75.5792 32.3402 74.074 31.5294 72.5112 30.8089C70.6605 29.9557 68.546 30.5021 67.196 32.0122C66.7422 32.5188 66.7755 33.6957 67.7437 34.3068Z" fill="url(#paint9_linear_656_39565)"/>
<path d="M35.8908 34.9723C35.9215 34.9932 35.9521 35.014 35.9856 35.0355C36.1787 35.1591 36.4164 35.2771 36.6784 35.3755C37.3233 35.6187 38.125 35.7538 38.8303 35.6087L49.7938 33.3887C50.2266 33.3014 50.6005 33.116 50.8986 32.8846C51.4692 32.4435 51.7694 31.8358 51.6968 31.4303C51.3897 29.6816 49.8989 28.3894 48.2128 28.5142C46.1092 28.67 44.0009 28.9546 41.9094 29.3766C38.8635 29.9915 36.0443 30.8664 33.4742 31.9452C33.4417 31.9579 33.432 32.0017 33.4548 32.0302L35.578 34.6911C35.6535 34.7852 35.7593 34.8793 35.8908 34.9723Z" fill="url(#paint10_linear_656_39565)"/>
<path d="M33.493 32.6357C33.4603 32.652 33.421 32.6317 33.4152 32.5955L31.6265 21.3959C31.6196 21.3529 31.6415 21.3089 31.6815 21.2915C34.3042 20.0011 37.1636 18.9018 40.2308 18.0531C41.5508 17.6882 42.8737 17.378 44.1945 17.1207C47.1525 16.5447 49.8604 18.6771 50.3355 21.6529C50.8587 24.9303 48.486 27.9381 45.2382 28.6209C44.1725 28.8449 43.1062 29.1036 42.0419 29.398C38.9748 30.2468 36.1166 31.3457 33.493 32.6357Z" fill="url(#paint11_linear_656_39565)"/>
<path d="M34.6019 66.8884C44.3305 72.8398 59.9626 71.4681 69.5113 63.8263C79.0611 56.1842 78.9139 45.1616 69.1853 39.2102C59.4559 33.2583 43.8297 34.6341 34.2811 42.2759C24.7324 49.9177 24.8734 60.9369 34.6019 66.8884Z" fill="white"/>
<path d="M34.473 67.1387C44.2016 73.0902 59.8337 71.7185 69.3824 64.0767C78.9322 56.4345 78.785 45.412 69.0564 39.4605C59.327 33.5087 43.7008 34.8845 34.1522 42.5262C24.6031 50.1688 24.744 61.1881 34.473 67.1387Z" fill="#FF9F05"/>
<path d="M69.8 61.8327C60.2513 69.4745 44.6192 70.8462 34.8906 64.8947C33.4662 64.0235 31.2845 64.8039 32.5968 65.8364C33.1773 66.2931 33.8036 66.7284 34.4759 67.1395C44.2044 73.091 59.8366 71.7193 69.3852 64.0775C69.9974 63.5876 70.5697 63.0838 71.102 62.5683C71.9852 61.7132 70.7597 61.0645 69.8 61.8327Z" fill="#E87500"/>
<path d="M14.7947 38.4044C13.9956 40.663 13.6252 42.8918 13.6436 45.0558C13.6522 45.9519 13.7261 46.8419 13.8663 47.7222C13.8956 47.905 13.9253 48.089 13.9543 48.2725C13.9064 47.6238 13.8928 46.9457 13.8875 46.3521C13.8691 44.1881 14.2398 41.9585 15.0385 39.7007C15.8368 37.4416 17.0246 35.2958 18.5191 33.2894C20.0582 31.2319 21.975 29.2485 24.2826 27.401C26.5904 25.5543 29.1374 23.9572 31.8447 22.6149C31.8457 22.6145 31.8469 22.6149 31.8473 22.6158L31.8492 22.6198C31.8499 22.6213 31.8522 22.6205 31.8519 22.6189C31.8517 22.6182 31.852 22.6175 31.8527 22.6172C31.8747 22.607 31.8965 22.5956 31.9182 22.5861C34.5409 21.2957 37.4003 20.1964 40.4675 19.3477C43.5599 18.4929 46.6678 17.9381 49.7283 17.6616C56.0916 17.0919 62.47 17.687 68.1601 19.5155C68.1622 19.5161 68.1637 19.5178 68.1642 19.5199C68.1647 19.522 68.1662 19.5237 68.1682 19.5244C70.8232 20.3786 73.3363 21.4998 75.6231 22.8982C77.9117 24.2976 79.8373 25.8935 81.4038 27.6227C83.8427 30.3129 85.3959 33.3411 86.0833 36.514C86.066 36.4026 86.0482 36.2921 86.0301 36.1804C85.4676 32.6572 83.8442 29.2876 81.1584 26.3255C79.5919 24.5964 77.6659 23.0013 75.3777 21.6011C73.0913 20.2019 70.5778 19.0815 67.9228 18.2273C67.9208 18.2266 67.9192 18.2249 67.9188 18.2228C67.9183 18.2207 67.9168 18.219 67.9147 18.2183C62.2246 16.3899 55.8462 15.7948 49.4829 16.3645C46.4224 16.641 43.3137 17.1954 40.2221 18.0506C37.1549 18.8993 34.2963 19.999 31.6728 21.289C31.6507 21.2993 31.6293 21.3099 31.6072 21.3201C31.6066 21.3204 31.6063 21.3211 31.6064 21.3217C31.6068 21.3234 31.6045 21.3242 31.6037 21.3226L31.6019 21.3187C31.6014 21.3177 31.6003 21.3173 31.5993 21.3178C28.8912 22.6597 26.3438 24.2575 24.0363 26.1034C21.728 27.9505 19.8112 29.934 18.2729 31.9919C16.7812 33.9987 15.593 36.1453 14.7947 38.4044Z" fill="#B0AAAA"/>
<path d="M25.7201 36.7449C23.4118 38.592 21.495 40.5755 19.9567 42.6334C18.4622 44.6398 17.2744 46.7856 16.4761 49.0446C15.677 51.3032 15.3067 53.532 15.3251 55.6961C15.3315 56.3995 15.3909 57.0974 15.4783 57.7918C15.546 58.2172 15.6145 58.643 15.6818 59.0691C15.5409 58.1884 15.4669 57.2984 15.4592 56.4027C15.4408 54.2387 15.8116 52.0091 16.6106 49.7505C17.409 47.4915 18.5967 45.3456 20.0912 43.3392C21.6303 41.2817 23.5471 39.2983 25.8547 37.4508C28.1627 35.6039 30.7099 34.0068 33.4182 32.6649C33.419 32.6645 33.4195 32.6638 33.4195 32.663C33.4198 32.6603 33.4238 32.6601 33.4242 32.6628L33.4244 32.6639C33.4247 32.6656 33.4264 32.6665 33.4279 32.6658C33.4493 32.6558 33.4701 32.6455 33.4919 32.6348C36.1147 31.3443 38.9741 30.2451 42.0408 29.3971C45.1336 28.5416 48.2415 27.9868 51.3016 27.7111C57.663 27.1413 64.0386 27.736 69.7268 29.5624C69.7288 29.5631 69.7304 29.5648 69.7308 29.5669C69.7313 29.569 69.7328 29.5707 69.7349 29.5713C72.3922 30.4267 74.9081 31.5484 77.1953 32.948C79.4838 34.3474 81.4099 35.9426 82.9759 37.6725C85.517 40.475 87.0949 43.6445 87.7356 46.9615C87.7283 46.9156 87.7199 46.8681 87.7131 46.8214C87.1506 43.2982 85.5272 39.9287 82.8414 36.9666C81.2749 35.2375 79.3489 33.6424 77.0607 32.2422C74.7743 30.843 72.2608 29.7225 69.6063 28.8676C69.6042 28.8669 69.6027 28.8652 69.6022 28.8631C69.6017 28.861 69.6002 28.8593 69.5981 28.8586C63.9076 27.031 57.5296 26.4351 51.1663 27.0048C48.1058 27.2813 44.9971 27.8357 41.9055 28.6908C38.8383 29.5396 35.9797 30.6393 33.3562 31.9293C33.3341 31.9395 33.3127 31.9502 33.2906 31.9604C33.29 31.9607 33.2897 31.9614 33.2898 31.962C33.2902 31.9637 33.2879 31.9645 33.2872 31.9629L33.2853 31.959C33.2849 31.958 33.2837 31.9576 33.2827 31.9581C30.575 33.3012 28.0276 34.899 25.7201 36.7449Z" fill="white"/>
<path d="M40.3641 56.9858L38.6062 57.1087L38.1463 59.1009L35.4419 59.29L37.3477 51.0352L41.6071 50.7373C43.5453 50.6018 44.2798 51.5503 43.8105 53.5828C43.7072 54.0304 43.5655 54.4518 43.3856 54.847C43.2057 55.2422 42.9729 55.5942 42.6873 55.9029C42.4109 56.2038 42.0804 56.4507 41.6959 56.6436C41.3189 56.836 40.8749 56.9501 40.3641 56.9858ZM40.184 52.9159L39.5642 52.9593L39.0941 54.9955L39.7139 54.9521C40.0444 54.929 40.2887 54.8795 40.4467 54.8034C40.6121 54.7269 40.7228 54.5675 40.7787 54.3254L40.9922 53.4009C41.0464 53.1661 41.006 53.0209 40.871 52.9654C40.7435 52.9093 40.5145 52.8928 40.184 52.9159Z" fill="#2B2C2D"/>
<path d="M45.4531 50.4683L48.0942 50.2836L46.6971 56.335L47.6325 56.2696C47.9699 56.246 48.2073 56.1871 48.3445 56.0929C48.4891 55.9982 48.5944 55.8076 48.6606 55.5209L49.8989 50.1574L52.5399 49.9728L51.4952 54.4979C51.3364 55.1858 51.1547 55.7695 50.9502 56.2491C50.7529 56.7282 50.4875 57.1275 50.1539 57.4469C49.8293 57.7587 49.4211 57.9952 48.9291 58.1565C48.4372 58.3178 47.8244 58.4241 47.0907 58.4754C46.3571 58.5267 45.7741 58.504 45.3417 58.4073C44.9093 58.3107 44.595 58.1247 44.3987 57.8494C44.2097 57.5735 44.1222 57.2025 44.136 56.7362C44.1588 56.2623 44.2496 55.6813 44.4084 54.9934L45.4531 50.4683Z" fill="#2B2C2D"/>
<path d="M58.1127 54.9974L58.9423 57.6466L55.9674 57.8546L55.4298 55.4774L54.8438 55.5184L54.2772 57.9728L51.5727 58.1619L53.4785 49.9071L57.738 49.6093C59.6762 49.4737 60.4225 50.3709 59.9769 52.3007C59.672 53.6214 59.0506 54.5204 58.1127 54.9974ZM56.3148 51.7879L55.6951 51.8312L55.3139 53.4822L55.9337 53.4389C56.2642 53.4157 56.5085 53.3662 56.6664 53.2902C56.8319 53.2136 56.9418 53.0579 56.996 52.8231L57.1231 52.2728C57.1773 52.038 57.1369 51.8928 57.0019 51.8373C56.8744 51.7813 56.6454 51.7648 56.3148 51.7879Z" fill="#2B2C2D"/>
<path d="M66.4514 52.1728L66.0093 54.0879L63.3049 54.277L63.0736 55.2786L66.3866 55.0469L65.8987 57.1602L59.8813 57.5809L61.7871 49.3261L67.7368 48.9101L66.9109 51.0469L64.0037 51.2502L63.747 52.3619L66.4514 52.1728Z" fill="#2B2C2D"/>
</g>
<defs>
<filter id="filter0_f_656_39565" x="10.3844" y="12.8983" width="80.7195" height="69.4552" filterUnits="userSpaceOnUse" color-interpolation-filters="sRGB">
<feFlood flood-opacity="0" result="BackgroundImageFix"/>
<feBlend mode="normal" in="SourceGraphic" in2="BackgroundImageFix" result="shape"/>
<feGaussianBlur stdDeviation="1.62909" result="effect1_foregroundBlur_656_39565"/>
</filter>
<linearGradient id="paint0_linear_656_39565" x1="-14.9756" y1="62.5075" x2="75.078" y2="30.7618" gradientUnits="userSpaceOnUse">
<stop stop-color="#FFEA05"/>
<stop offset="0.1856" stop-color="#FFDA05"/>
<stop offset="0.7245" stop-color="#FFAF05"/>
<stop offset="1" stop-color="#FF9F05"/>
</linearGradient>
<linearGradient id="paint1_linear_656_39565" x1="12.0308" y1="54.3934" x2="38.1121" y2="-5.09989" gradientUnits="userSpaceOnUse">
<stop stop-color="#38393B"/>
<stop offset="0.3263" stop-color="#2F3031"/>
<stop offset="1" stop-color="#1F2021"/>
</linearGradient>
<linearGradient id="paint2_linear_656_39565" x1="55.4932" y1="73.4469" x2="81.5749" y2="13.9526" gradientUnits="userSpaceOnUse">
<stop stop-color="#38393B"/>
<stop offset="0.3263" stop-color="#2F3031"/>
<stop offset="1" stop-color="#1F2021"/>
</linearGradient>
<linearGradient id="paint3_linear_656_39565" x1="68.5422" y1="65.9413" x2="-1.60849" y2="13.0883" gradientUnits="userSpaceOnUse">
<stop stop-color="#FFEA05"/>
<stop offset="0.1856" stop-color="#FFDA05"/>
<stop offset="0.7245" stop-color="#FFAF05"/>
<stop offset="1" stop-color="#FF9F05"/>
</linearGradient>
<linearGradient id="paint4_linear_656_39565" x1="-19.9258" y1="48.4653" x2="70.1336" y2="16.7177" gradientUnits="userSpaceOnUse">
<stop stop-color="#FFEA05"/>
<stop offset="0.1856" stop-color="#FFDA05"/>
<stop offset="0.7245" stop-color="#FFAF05"/>
<stop offset="1" stop-color="#FF9F05"/>
</linearGradient>
<linearGradient id="paint5_linear_656_39565" x1="-19.1294" y1="50.7232" x2="70.932" y2="18.9749" gradientUnits="userSpaceOnUse">
<stop stop-color="#FFEA05"/>
<stop offset="0.1856" stop-color="#FFDA05"/>
<stop offset="0.7245" stop-color="#FFAF05"/>
<stop offset="1" stop-color="#FF9F05"/>
</linearGradient>
<linearGradient id="paint6_linear_656_39565" x1="65.1131" y1="78.9773" x2="8.03111" y2="33.9384" gradientUnits="userSpaceOnUse">
<stop stop-color="#38393B"/>
<stop offset="0.3263" stop-color="#2F3031"/>
<stop offset="1" stop-color="#1F2021"/>
</linearGradient>
<linearGradient id="paint7_linear_656_39565" x1="55.8227" y1="92.2299" x2="0.49785" y2="47.9673" gradientUnits="userSpaceOnUse">
<stop stop-color="#38393B"/>
<stop offset="0.3263" stop-color="#2F3031"/>
<stop offset="1" stop-color="#1F2021"/>
</linearGradient>
<linearGradient id="paint8_linear_656_39565" x1="65.2111" y1="86.202" x2="6.59891" y2="39.8396" gradientUnits="userSpaceOnUse">
<stop stop-color="#38393B"/>
<stop offset="0.3263" stop-color="#2F3031"/>
<stop offset="1" stop-color="#1F2021"/>
</linearGradient>
<linearGradient id="paint9_linear_656_39565" x1="90.1613" y1="47.5779" x2="34.8365" y2="3.31683" gradientUnits="userSpaceOnUse">
<stop stop-color="#38393B"/>
<stop offset="0.3263" stop-color="#2F3031"/>
<stop offset="1" stop-color="#1F2021"/>
</linearGradient>
<linearGradient id="paint10_linear_656_39565" x1="81.7742" y1="61.9783" x2="24.6879" y2="16.9357" gradientUnits="userSpaceOnUse">
<stop stop-color="#38393B"/>
<stop offset="0.3263" stop-color="#2F3031"/>
<stop offset="1" stop-color="#1F2021"/>
</linearGradient>
<linearGradient id="paint11_linear_656_39565" x1="25.7294" y1="60.3986" x2="51.811" y2="0.90441" gradientUnits="userSpaceOnUse">
<stop stop-color="#38393B"/>
<stop offset="0.3263" stop-color="#2F3031"/>
<stop offset="1" stop-color="#1F2021"/>
</linearGradient>
</defs>
</svg>
