<svg width="73" height="73" viewBox="0 0 73 73" fill="none" xmlns="http://www.w3.org/2000/svg">
<rect x="0.5" y="0.311401" width="72" height="72" rx="36" fill="#212530" fill-opacity="0.7"/>
<path d="M27.6828 48.6348C27.4832 48.8083 27.2383 48.9213 26.9768 48.9605C26.7153 48.9997 26.448 48.9635 26.2063 48.8561C25.9647 48.7487 25.7587 48.5745 25.6125 48.3542C25.4664 48.1338 25.3861 47.8763 25.3812 47.6119V44.4945C24.644 44.4945 23.937 44.2016 23.4157 43.6803C22.8944 43.1591 22.6016 42.452 22.6016 41.7148V31.986C22.6016 31.2488 22.8944 30.5418 23.4157 30.0205C23.937 29.4992 24.644 29.2064 25.3812 29.2064H40.6694C41.4066 29.2064 42.1136 29.4992 42.6349 30.0205C43.1562 30.5418 43.449 31.2488 43.449 31.986V41.7148C43.449 42.452 43.1562 43.1591 42.6349 43.6803C42.1136 44.2016 41.4066 44.4945 40.6694 44.4945H33.7244L27.6828 48.6348ZM44.8388 37.569C44.8344 37.7399 44.8344 37.9109 44.8388 38.0818V37.569ZM44.8388 37.569C44.8458 37.4203 44.8472 35.5579 44.8444 31.9832C44.8433 30.8781 44.4035 29.8187 43.6217 29.0377C42.8399 28.2566 41.78 27.8179 40.6749 27.8179H29.5507V26.4267C29.5507 25.6895 29.8436 24.9825 30.3649 24.4612C30.8861 23.9399 31.5932 23.647 32.3304 23.647H47.6185C48.3557 23.647 49.0627 23.9399 49.584 24.4612C50.1053 24.9825 50.3982 25.6895 50.3982 26.4267V36.1555C50.3982 36.8927 50.1053 37.5997 49.584 38.121C49.0627 38.6423 48.3557 38.9352 47.6185 38.9352V42.0526C47.6136 42.317 47.5333 42.5745 47.3872 42.7948C47.241 43.0152 47.035 43.1893 46.7934 43.2967C46.5517 43.4041 46.2845 43.4404 46.0229 43.4012C45.7614 43.362 45.5165 43.249 45.3169 43.0755L44.8388 42.7475V37.569Z" fill="#1E84F0"/>
</svg>
