<svg width="91" height="56" viewBox="0 0 91 56" fill="none" xmlns="http://www.w3.org/2000/svg">
<path d="M13.1236 44.422C10.2965 40.109 7.47053 35.7948 4.64453 31.4818C7.0451 35.1457 10.3424 38.0804 14.4278 40.046C15.206 40.4204 15.8892 40.9753 16.3625 41.6977C18.7028 45.2697 15.7029 48.2492 13.3145 44.7092C13.2503 44.6139 13.1867 44.5182 13.1236 44.422Z" fill="url(#paint0_linear_656_39598)"/>
<path d="M81.7147 -17.3505C81.6124 -18.1728 83.8786 -19.193 84.3328 -18.4999L87.6557 -13.428C88.9132 -10.7482 89.7802 -7.7352 90.1927 -4.41034C90.6334 -0.866627 86.3666 0.22258 84.4096 -2.76443L82.6114 -5.50902C81.929 -6.5505 81.6628 -7.80394 81.7847 -9.04306C82.0615 -11.8549 82.0519 -14.6396 81.7147 -17.3505Z" fill="url(#paint1_linear_656_39598)"/>
<path d="M30.09 42.7348C32.9815 42.5246 35.874 43.6855 37.463 46.1104L37.7317 46.5206C40.3938 50.5833 38.0189 56.0504 33.1768 55.6679C30.3533 55.4459 27.7376 54.8768 25.3495 54.0105C24.5397 53.7168 23.8664 53.1445 23.3943 52.4239L20.7629 48.4076C19.2185 46.0504 21.8895 42.5058 24.6988 42.7278C26.474 42.868 28.2756 42.8667 30.09 42.7348Z" fill="url(#paint2_linear_656_39598)"/>
<path d="M76.5827 -5.81887C76.3742 -5.76522 76.1404 -5.74775 75.8977 -5.76647C75.5425 -5.79391 75.1697 -5.90121 74.8399 -6.0846C74.3148 -6.3753 73.8968 -6.85938 73.8152 -7.52684L72.347 -19.4003C72.2897 -19.8719 72.4044 -20.4046 72.6173 -20.9261C73.0243 -21.9229 73.7942 -22.8786 74.4307 -23.2928C77.1532 -25.0537 78.2294 -28.6285 76.2363 -31.1859C74.8446 -32.9714 73.2152 -34.5496 71.3642 -35.8867C68.7329 -37.7874 65.2018 -36.5451 63.5789 -33.734C63.002 -32.7322 61.1809 -31.3561 59.8142 -31.4634L47.9686 -32.3966C46.6119 -32.5039 45.9357 -34.0758 46.1519 -35.1064C46.7021 -37.4996 44.6142 -39.6463 42.2695 -38.9167C37.8737 -37.5488 33.5202 -35.5062 29.3722 -32.9062C27.3573 -31.6432 26.8183 -28.9944 28.0278 -26.947C28.3113 -26.4605 28.3102 -25.4437 27.9363 -24.4443C27.741 -23.9216 27.4443 -23.4026 27.0318 -22.9672L16.6532 -12.0282C16.3918 -11.7512 16.0929 -11.5217 15.7796 -11.3333C15.3936 -11.1025 14.9865 -10.9353 14.5928 -10.8292C14.1427 -10.707 13.7114 -10.6633 13.022 -10.7444C12.9205 -10.7706 12.8312 -10.803 12.7551 -10.8455C10.6718 -11.9672 8.05939 -11.3091 6.90594 -9.24328C5.59969 -6.90376 4.4434 -4.48056 3.46965 -1.98997C2.67596 0.0392189 2.02802 2.04445 1.51822 4.01519C0.906185 6.3811 3.11659 8.3748 5.48049 7.75506C5.6625 7.70765 5.86437 7.68893 6.16219 7.70266C6.42912 7.72387 6.70488 7.78874 6.9652 7.89728C7.60607 8.16302 8.1543 8.68702 8.25137 9.45429L9.70628 21.3352C9.76584 21.8043 9.65112 22.3358 9.43934 22.8573C9.03232 23.8529 8.26128 24.8111 7.62703 25.219C4.9131 27.0145 3.85396 30.6049 5.85967 33.1673C7.24377 34.9357 8.86215 36.4997 10.6997 37.8265C13.3294 39.7252 16.8574 38.4813 18.4755 35.6702C19.0535 34.6684 20.8823 33.2935 22.2435 33.3908L34.089 34.324C35.4557 34.4313 36.1198 36.0133 35.9036 37.0425C35.3973 39.451 37.5079 41.5764 39.8564 40.8407C44.2269 39.4714 48.5556 37.4355 52.6841 34.8485C54.7039 33.5829 55.2446 30.9278 54.0321 28.8757C53.7464 28.3954 53.7486 27.3761 54.1214 26.378C54.3167 25.8553 54.6134 25.3375 55.0237 24.9059L65.4144 13.9581C66.0817 13.2508 66.995 12.8415 67.7992 12.6893C68.1268 12.6269 68.4367 12.6082 68.836 12.6432C69.0224 12.6694 69.1824 12.7155 69.3103 12.7829C71.3965 13.9067 74.0129 13.2474 75.1644 11.1764C76.4647 8.83781 77.6133 6.4157 78.5869 3.92741C79.3815 1.89598 80.03 -0.111435 80.54 -2.08427C81.1509 -4.44707 78.9434 -6.43799 76.5827 -5.81887Z" fill="url(#paint3_linear_656_39598)"/>
<path d="M78.5766 3.92627C80.0331 0.201016 85.6414 -0.877603 87.8334 2.46812L88.9624 4.19133C89.6479 5.23759 89.9384 6.5005 89.7064 7.7296C89.1467 10.6934 88.272 13.7517 87.0546 16.8664C86.8906 17.2859 86.7216 17.7034 86.5477 18.1189C84.5735 22.8366 78.3193 22.8996 75.5167 18.6219C73.9831 16.2811 74.007 13.2736 75.3508 10.8189C76.5705 8.59088 77.6524 6.28839 78.5766 3.92627Z" fill="url(#paint4_linear_656_39598)"/>
<path d="M49.321 36.8049C53.1976 34.7091 58.1819 35.5789 60.5969 39.265C62.86 42.7191 62.0309 47.396 58.4223 49.4035C55.0147 51.2991 51.4984 52.8169 47.9577 53.8951C45.1826 54.7401 42.2693 53.4679 40.6795 51.0416C37.8893 46.7835 40.3243 40.9473 44.9921 38.9156C46.449 38.2814 47.894 37.5763 49.321 36.8049Z" fill="url(#paint5_linear_656_39598)"/>
<path d="M8.24253 9.45401C8.14656 8.68674 7.59616 8.16274 6.9564 7.897C6.69608 7.78846 6.42029 7.72359 6.15335 7.70238C6.12357 7.69988 6.09379 7.69739 6.06401 7.69739C5.85554 7.68866 5.65369 7.70737 5.47169 7.75478C2.45373 8.546 0.130967 11.0725 0.0746643 14.192C0.0436336 15.9112 0.126643 17.6132 0.334803 19.2864C0.489805 20.5595 0.712564 21.7868 0.999551 22.9664C1.70769 25.8772 5.10496 26.8468 7.62042 25.22C8.25356 24.812 9.0246 23.8539 9.43272 22.8583C9.64451 22.3368 9.75923 21.804 9.69967 21.3362L8.24253 9.45401Z" fill="url(#paint6_linear_656_39598)"/>
<path d="M34.0857 34.3252L22.2401 33.392C20.879 33.2934 19.0501 34.6683 18.4721 35.6713C16.9687 38.2833 18.107 41.6492 21.0638 42.2325C22.2334 42.4632 23.4456 42.6301 24.6988 42.729C26.3516 42.8589 28.0271 42.8668 29.7143 42.7611C32.8393 42.5653 35.2564 40.1094 35.8991 37.045C36.1164 36.0132 35.4524 34.4325 34.0857 34.3252Z" fill="url(#paint7_linear_656_39598)"/>
<path d="M68.8316 12.6431C68.7886 12.6381 68.7456 12.6331 68.6993 12.6294C68.4323 12.6081 68.1224 12.6269 67.7948 12.6892C66.9906 12.8414 66.0773 13.2507 65.41 13.958L55.0193 24.9058C54.609 25.3374 54.3112 25.8552 54.117 26.3779C53.7442 27.376 53.742 28.3953 54.0277 28.8756C55.1759 30.819 57.7533 31.3604 59.4921 29.9211C61.5225 28.2406 63.4955 26.4029 65.3879 24.4117C68.2757 21.3726 70.7906 18.1575 72.9382 14.8563C72.9684 14.8121 72.9524 14.7506 72.9053 14.7252L69.307 12.7841C69.178 12.7154 69.018 12.6693 68.8316 12.6431Z" fill="url(#paint8_linear_656_39598)"/>
<path d="M72.9308 14.8551C72.9561 14.8157 73.0138 14.8156 73.0394 14.8548L81.4097 27.6287C81.4425 27.6789 81.4437 27.7452 81.4088 27.794C79.2623 31.0951 76.7462 34.3115 73.8585 37.3506C72.8873 38.3721 71.8952 39.3531 70.8852 40.2933C67.6577 43.2974 62.6172 42.3517 60.2009 38.6636C57.9393 35.2117 58.8244 30.6227 61.875 27.8436C63.0694 26.7556 64.2396 25.6109 65.3805 24.4105C68.2683 21.3713 70.7832 18.1562 72.9308 14.8551Z" fill="url(#paint9_linear_656_39598)"/>
<path d="M52.1264 -27.0319C38.0251 -28.1436 21.6184 -16.3287 15.4866 -0.648865C9.35367 15.0323 15.8175 28.6474 29.9188 29.759C44.0212 30.8706 60.4191 19.0545 66.5509 3.37465C72.6827 -12.3052 66.2277 -25.9203 52.1264 -27.0319Z" fill="white"/>
<path d="M52.1264 -27.4273C38.0251 -28.5389 21.6184 -16.7241 15.4866 -1.04425C9.35367 14.6369 15.8175 28.252 29.9188 29.3636C44.0212 30.4752 60.4191 18.6592 66.5509 2.97928C72.6827 -12.7019 66.2277 -26.317 52.1264 -27.4273Z" fill="#44A1FF"/>
<path d="M16.3099 2.0171C22.4417 -13.6628 38.8484 -25.4776 52.9497 -24.366C54.9099 -24.2116 57.1741 -26.5044 55.2586 -26.9482C54.2607 -27.1794 53.2145 -27.3404 52.1224 -27.4263C38.0211 -28.538 21.6144 -16.7231 15.4826 -1.04326C15.0875 -0.0329666 14.7448 0.968634 14.4531 1.95878C14.013 3.45304 15.7426 3.46787 16.3099 2.0171Z" fill="#1E84F0"/>
<path d="M90.1948 -4.41027C89.7823 -7.73638 88.9152 -10.7481 87.6578 -13.4279C87.136 -14.5371 86.5459 -15.5963 85.8885 -16.6006C85.7517 -16.8089 85.6138 -17.0186 85.4771 -17.2281C85.9006 -16.4521 86.3033 -15.6175 86.6485 -14.8826C87.906 -12.2028 88.773 -9.18984 89.1855 -5.86497C89.5991 -2.53886 89.5197 0.898287 89.0233 4.36039C88.5071 7.91481 87.5331 11.6214 86.0518 15.4117C84.5696 19.201 82.6817 22.8345 80.4708 26.2547C80.47 26.256 80.4682 26.2562 80.4671 26.2552L80.4635 26.2521C80.4618 26.2506 80.4594 26.2529 80.4607 26.2547C80.4612 26.2554 80.4612 26.2563 80.4608 26.257C80.4423 26.2841 80.4249 26.3123 80.4064 26.3382C78.2599 29.6393 75.7438 32.8557 72.8561 35.8948C69.944 38.9577 66.8434 41.6575 63.6357 43.9805C56.9637 48.804 49.6092 52.1884 42.3063 53.5937C42.3035 53.5942 42.3007 53.5931 42.299 53.5908C42.2973 53.5885 42.2944 53.5874 42.2916 53.588C38.8837 54.2423 35.479 54.4728 32.1648 54.2122C28.8479 53.9514 25.8178 53.2116 23.1066 52.0738C18.8863 50.3046 15.447 47.5424 12.877 44.0404C12.9597 44.1677 13.0424 44.2937 13.1262 44.4209C15.7592 48.4395 19.471 51.5809 24.1181 53.5285C26.8294 54.6663 29.8594 55.4049 33.1762 55.6669C36.4905 55.9287 39.8951 55.697 43.3031 55.0427C43.3059 55.0421 43.3088 55.0433 43.3105 55.0455C43.3121 55.0478 43.315 55.0489 43.3178 55.0484C50.6206 53.6431 57.9752 50.2587 64.6472 45.4353C67.8548 43.1122 70.9566 40.4124 73.8675 37.3495C76.7553 34.3104 79.2702 31.094 81.4179 27.7929C81.4364 27.7658 81.4538 27.7387 81.4722 27.7117C81.4727 27.711 81.4727 27.7101 81.4722 27.7094C81.4708 27.7076 81.4733 27.7053 81.475 27.7068L81.4786 27.7099C81.4797 27.7109 81.4815 27.7107 81.4823 27.7094C83.6932 24.2892 85.5811 20.6545 87.0632 16.8664C88.5457 13.0761 89.5197 9.36952 90.0348 5.81509C90.529 2.35424 90.6084 -1.08415 90.1948 -4.41027Z" fill="#B0AAAA"/>
<path d="M79.1266 4.71843C80.6091 0.928207 81.5831 -2.77843 82.0982 -6.33285C82.5946 -9.79495 82.674 -13.2321 82.2604 -16.5582C81.8478 -19.8843 80.9809 -22.896 79.7234 -25.5759C79.3142 -26.4467 78.8498 -27.2764 78.3567 -28.0836C78.039 -28.5689 77.7203 -29.0542 77.4026 -29.5408C78.0611 -28.5365 78.6512 -27.4772 79.1719 -26.3681C80.4293 -23.6883 81.2963 -20.6753 81.7089 -17.3492C82.1225 -14.0231 82.0431 -10.5859 81.5467 -7.12382C81.0305 -3.5694 80.0565 0.137222 78.5751 3.92744C77.0928 7.71719 75.2047 11.351 72.9934 14.7716C72.9929 14.7724 72.9928 14.7734 72.9931 14.7743C72.9943 14.7777 72.9897 14.78 72.9876 14.777L72.9875 14.7767C72.9862 14.7749 72.9835 14.7749 72.9823 14.7767C72.9645 14.8029 72.9476 14.8291 72.9298 14.8565C70.7832 18.1576 68.2672 21.3739 65.3794 24.4119C62.4674 27.476 59.3667 30.1758 56.1591 32.4976C49.4892 37.3198 42.138 40.7029 34.8385 42.1095C34.8357 42.11 34.8328 42.1089 34.8312 42.1066C34.8295 42.1043 34.8266 42.1032 34.8238 42.1038C31.4125 42.7581 28.0046 42.9898 24.6892 42.7279C21.3724 42.4672 18.3423 41.7286 15.631 40.5895C11.2343 38.7468 7.68691 35.8249 5.08594 32.1133C5.12013 32.1657 5.15653 32.2194 5.19073 32.273C7.82369 36.2915 11.5354 39.433 16.1826 41.3805C18.8938 42.5183 21.9239 43.2569 25.2408 43.5189C28.555 43.7808 31.9597 43.549 35.3676 42.896C35.3704 42.8954 35.3733 42.8966 35.375 42.8988C35.3767 42.9011 35.3795 42.9023 35.3823 42.9017C42.6851 41.4951 50.0397 38.112 56.7117 33.2886C59.9194 30.9655 63.0211 28.2657 65.9321 25.2028C68.8198 22.1637 71.3347 18.9473 73.4824 15.6462C73.5008 15.6191 73.5183 15.592 73.5368 15.565C73.5372 15.5643 73.5372 15.5634 73.5367 15.5627C73.5354 15.5609 73.5378 15.5587 73.5395 15.5602L73.5431 15.5632C73.5442 15.5642 73.546 15.564 73.5468 15.5627C75.7566 12.1412 77.6445 8.50653 79.1266 4.71843Z" fill="white"/>
<path d="M30.0263 10.3758L28.1572 11.4982L28.4649 14.0091L25.5894 15.7359L24.3145 5.33191L28.8434 2.6121C30.9042 1.37452 32.0915 2.03658 32.4054 4.59829C32.4746 5.16242 32.4913 5.71834 32.4555 6.26604C32.4197 6.81375 32.3086 7.34212 32.1223 7.85115C31.9429 8.34613 31.6825 8.81031 31.3411 9.24367C31.0077 9.67223 30.5695 10.0496 30.0263 10.3758ZM28.1753 5.87274L27.5164 6.26848L27.8308 8.83481L28.4898 8.43907C28.8413 8.22801 29.0878 8.0353 29.2293 7.86092C29.3789 7.68176 29.435 7.43958 29.3976 7.13439L29.2548 5.96914C29.2185 5.6732 29.1154 5.53159 28.9455 5.54429C28.7835 5.5522 28.5268 5.66168 28.1753 5.87274Z" fill="#11141D"/>
<path d="M32.9336 0.156128L35.7417 -1.53026L36.6764 6.09666L37.6709 5.4994C38.0297 5.28391 38.2649 5.08451 38.3764 4.90118C38.4957 4.71317 38.5333 4.43854 38.489 4.07729L37.6606 -2.68262L40.4687 -4.36901L41.1676 1.33424C41.2739 2.20125 41.3128 2.96323 41.2844 3.62019C41.2639 4.27247 41.1364 4.87258 40.9021 5.42054C40.6745 5.95477 40.3249 6.45073 39.8534 6.90841C39.3819 7.36609 38.7562 7.82916 37.9761 8.2976C37.1961 8.76604 36.5504 9.06653 36.0391 9.19909C35.5277 9.33164 35.1089 9.2971 34.7828 9.09546C34.4644 8.88913 34.218 8.51838 34.0435 7.98321C33.8757 7.43433 33.7387 6.72639 33.6325 5.85938L32.9336 0.156128Z" fill="#11141D"/>
<path d="M48.595 -1.80291L50.5775 0.729716L47.4145 2.62926L45.8612 0.240929L45.2382 0.615083L45.6173 3.70855L42.7418 5.43541L41.4668 -4.96863L45.9957 -7.68843C48.0565 -8.92602 49.2359 -8.32869 49.534 -5.89646C49.738 -4.23181 49.425 -2.8673 48.595 -1.80291ZM45.3277 -4.42779L44.6687 -4.03205L44.9237 -1.95125L45.5827 -2.34699C45.9341 -2.55805 46.1806 -2.75076 46.3222 -2.92514C46.4717 -3.1043 46.5284 -3.34186 46.4921 -3.63779L46.4071 -4.3314C46.3709 -4.62733 46.2677 -4.76895 46.0978 -4.75625C45.9358 -4.74834 45.6791 -4.63885 45.3277 -4.42779Z" fill="#11141D"/>
<path d="M56.5499 -9.66314L56.8457 -7.2494L53.9702 -5.52254L54.1249 -4.26018L57.6474 -6.37559L57.9738 -3.71215L51.5757 0.130112L50.3008 -10.2739L56.6269 -14.073L56.5939 -11.1937L53.5027 -9.33735L53.6744 -7.93627L56.5499 -9.66314Z" fill="#11141D"/>
<defs>
<linearGradient id="paint0_linear_656_39598" x1="101.065" y1="-62.2232" x2="9.51829" y2="24.2338" gradientUnits="userSpaceOnUse">
<stop stop-color="#29DFFF"/>
<stop offset="0.147" stop-color="#22D3FC"/>
<stop offset="0.7114" stop-color="#09A8F1"/>
<stop offset="1" stop-color="#0098ED"/>
</linearGradient>
<linearGradient id="paint1_linear_656_39598" x1="84.0934" y1="-26.0862" x2="90.9063" y2="64.6686" gradientUnits="userSpaceOnUse">
<stop stop-color="#38393B"/>
<stop offset="0.3263" stop-color="#2F3031"/>
<stop offset="1" stop-color="#1F2021"/>
</linearGradient>
<linearGradient id="paint2_linear_656_39598" x1="25.3997" y1="-21.6797" x2="32.2126" y2="69.0766" gradientUnits="userSpaceOnUse">
<stop stop-color="#38393B"/>
<stop offset="0.3263" stop-color="#2F3031"/>
<stop offset="1" stop-color="#1F2021"/>
</linearGradient>
<linearGradient id="paint3_linear_656_39598" x1="15.349" y1="-3.90567" x2="123.358" y2="12.1188" gradientUnits="userSpaceOnUse">
<stop stop-color="#29DFFF"/>
<stop offset="0.147" stop-color="#22D3FC"/>
<stop offset="0.7114" stop-color="#09A8F1"/>
<stop offset="1" stop-color="#0098ED"/>
</linearGradient>
<linearGradient id="paint4_linear_656_39598" x1="122.623" y1="-39.3766" x2="31.0842" y2="47.0729" gradientUnits="userSpaceOnUse">
<stop stop-color="#29DFFF"/>
<stop offset="0.147" stop-color="#22D3FC"/>
<stop offset="0.7114" stop-color="#09A8F1"/>
<stop offset="1" stop-color="#0098ED"/>
</linearGradient>
<linearGradient id="paint5_linear_656_39598" x1="120.46" y1="-41.6715" x2="28.9192" y2="44.7801" gradientUnits="userSpaceOnUse">
<stop stop-color="#29DFFF"/>
<stop offset="0.147" stop-color="#22D3FC"/>
<stop offset="0.7114" stop-color="#09A8F1"/>
<stop offset="1" stop-color="#0098ED"/>
</linearGradient>
<linearGradient id="paint6_linear_656_39598" x1="5.37374" y1="18.1675" x2="89.2853" y2="32.088" gradientUnits="userSpaceOnUse">
<stop stop-color="#38393B"/>
<stop offset="0.3263" stop-color="#2F3031"/>
<stop offset="1" stop-color="#1F2021"/>
</linearGradient>
<linearGradient id="paint7_linear_656_39598" x1="2.91084" y1="33.0378" x2="86.814" y2="46.9569" gradientUnits="userSpaceOnUse">
<stop stop-color="#38393B"/>
<stop offset="0.3263" stop-color="#2F3031"/>
<stop offset="1" stop-color="#1F2021"/>
</linearGradient>
<linearGradient id="paint8_linear_656_39598" x1="6.60993" y1="10.7064" x2="90.5181" y2="24.6264" gradientUnits="userSpaceOnUse">
<stop stop-color="#38393B"/>
<stop offset="0.3263" stop-color="#2F3031"/>
<stop offset="1" stop-color="#1F2021"/>
</linearGradient>
<linearGradient id="paint9_linear_656_39598" x1="65.5957" y1="-24.6981" x2="72.4087" y2="66.0581" gradientUnits="userSpaceOnUse">
<stop stop-color="#38393B"/>
<stop offset="0.3263" stop-color="#2F3031"/>
<stop offset="1" stop-color="#1F2021"/>
</linearGradient>
</defs>
</svg>
