<svg width="65" height="65" viewBox="0 0 65 65" fill="none" xmlns="http://www.w3.org/2000/svg">
<rect x="0.5" y="0.934204" width="64" height="64" rx="32" fill="#212530" fill-opacity="0.7"/>
<path d="M40.9481 40.5805L35.2293 31.5992L40.8281 25.4408C41.0245 25.2193 41.1258 24.9294 41.1099 24.6338C41.094 24.3381 40.9622 24.0607 40.7431 23.8616C40.524 23.6625 40.2353 23.5578 39.9395 23.5702C39.6437 23.5825 39.3648 23.711 39.1631 23.9276L33.9815 29.6314L30.4481 24.0805C30.3465 23.9208 30.2063 23.7893 30.0405 23.6982C29.8747 23.6071 29.6885 23.5593 29.4993 23.5592H24.9993C24.7978 23.5593 24.6 23.6135 24.4266 23.7162C24.2532 23.8189 24.1105 23.9663 24.0136 24.1429C23.9166 24.3196 23.8689 24.5191 23.8754 24.7205C23.8819 24.9219 23.9424 25.1179 24.0506 25.288L29.7693 34.2692L24.1668 40.4276C24.0654 40.5366 23.9866 40.6646 23.935 40.8043C23.8834 40.9439 23.86 41.0924 23.8662 41.2411C23.8724 41.3899 23.9081 41.5359 23.9712 41.6708C24.0342 41.8056 24.1234 41.9266 24.2336 42.0267C24.3438 42.1269 24.4727 42.2041 24.613 42.2541C24.7532 42.304 24.902 42.3256 25.0507 42.3176C25.1993 42.3096 25.3449 42.2721 25.479 42.2075C25.6131 42.1428 25.733 42.0521 25.8318 41.9408L31.0171 36.237L34.5506 41.788C34.6521 41.9476 34.7923 42.0791 34.9581 42.1702C35.124 42.2613 35.3101 42.3091 35.4993 42.3092H39.9993C40.2008 42.3091 40.3986 42.2549 40.572 42.1522C40.7454 42.0495 40.8881 41.9021 40.985 41.7255C41.082 41.5488 41.1297 41.3493 41.1232 41.1479C41.1167 40.9465 41.0562 40.7505 40.9481 40.5805ZM36.1171 40.0592L27.0487 25.8092H28.8815L37.9499 40.0592H36.1171Z" fill="#1E84F0"/>
</svg>
