<svg width="17" height="16" viewBox="0 0 17 16" fill="none" xmlns="http://www.w3.org/2000/svg">
<path d="M13.9072 2.44934C14.4076 3.1243 14.9077 3.79926 15.4081 4.47441C15.5246 4.63158 15.6291 4.79734 15.7213 4.97091L14.2204 2.94585C14.1282 2.77227 14.0238 2.60651 13.9072 2.44934Z" fill="url(#paint0_linear_1517_8016)"/>
<path d="M2.5282 14.0241C2.02779 13.3491 1.52757 12.674 1.02734 11.999C1.4934 12.6279 2.1504 13.1195 2.97298 13.4243L4.47383 15.4494C3.65126 15.1448 2.99426 14.6532 2.5282 14.0241Z" fill="url(#paint1_linear_1517_8016)"/>
<path d="M14.2207 2.9458L15.7216 4.97087C15.9441 5.39025 16.0976 5.86177 16.1706 6.38209C16.2438 6.90261 16.2298 7.44051 16.1417 7.98231L14.6411 5.95724C14.7289 5.41544 14.743 4.87754 14.6698 4.35702C14.5966 3.8367 14.4431 3.36518 14.2207 2.9458Z" fill="url(#paint2_linear_1517_8016)"/>
<path d="M6.37171 13.6611L7.87257 15.6862C7.26847 15.7887 6.66496 15.825 6.07786 15.784C5.49075 15.7432 4.95441 15.6274 4.47449 15.4494L2.97363 13.4243C3.45355 13.6026 3.98989 13.718 4.577 13.759C5.1643 13.8 5.76781 13.7637 6.37171 13.6611Z" fill="url(#paint3_linear_1517_8016)"/>
<path d="M13.7609 6.16161C13.724 6.17 13.6826 6.17274 13.6396 6.16981C13.5768 6.16551 13.5108 6.14872 13.4524 6.12002C13.3595 6.07453 13.2855 5.99878 13.271 5.89432L13.0111 4.03618C13.001 3.96238 13.0213 3.87901 13.059 3.7974C13.131 3.6414 13.2673 3.49184 13.3798 3.42702L14.2211 2.94594C13.7595 2.0773 12.9891 1.4043 11.9615 1.02338L11.4589 1.79303C11.3568 1.94981 11.0345 2.16516 10.7926 2.14837L8.6958 2.00233C8.45564 1.98554 8.33596 1.73953 8.37422 1.57826L8.5808 0.783813C7.28202 1.00151 5.97328 1.53179 4.78833 2.28973L5.16593 2.85516C5.21611 2.9313 5.21592 3.09042 5.14973 3.24681C5.11517 3.32862 5.06265 3.40984 4.98963 3.47798L3.15255 5.18988C3.10628 5.23323 3.05337 5.26915 2.99792 5.29863C2.92958 5.33475 2.85753 5.36091 2.78783 5.37751C2.70817 5.39664 2.63183 5.40348 2.5098 5.39079C2.49184 5.38669 2.47602 5.38161 2.46255 5.37497L1.80965 5.06414C1.41818 5.59931 1.08118 6.16786 0.818963 6.76081C0.556552 7.35396 0.384149 7.93403 0.292969 8.49028L1.17509 8.28586C1.20731 8.27844 1.24304 8.27551 1.29576 8.27766C1.34301 8.28098 1.39182 8.29113 1.43809 8.30812C1.55153 8.34971 1.64857 8.43171 1.66575 8.55178L1.92328 10.4111C1.93382 10.4845 1.91352 10.5677 1.87603 10.6493C1.80398 10.8051 1.66751 10.955 1.55524 11.0189L0.718411 11.5084C1.17997 12.3735 1.94846 13.0441 2.97429 13.4243L3.47549 12.6544C3.57799 12.4977 3.90152 12.2825 4.14245 12.2977L6.2392 12.4438C6.48111 12.4606 6.59865 12.7081 6.56039 12.8692L6.37178 13.6625C7.6647 13.4424 8.9668 12.9129 10.148 12.1579L9.76946 11.5911C9.71889 11.516 9.71928 11.3565 9.78527 11.2003C9.81983 11.1185 9.87235 11.0374 9.94499 10.9699L11.7842 9.25661C11.9023 9.14591 12.064 9.08187 12.2063 9.05805C12.2643 9.04829 12.3192 9.04536 12.3899 9.05083C12.4229 9.05493 12.4512 9.06215 12.4738 9.07269L13.1277 9.38411C13.5192 8.84875 13.8534 8.27981 14.1158 7.68685C14.3783 7.0937 14.5507 6.51363 14.6418 5.95738L13.7609 6.16161Z" fill="url(#paint4_linear_1517_8016)"/>
<path d="M14.6411 5.95728L16.1418 7.98234C16.0504 8.53859 15.878 9.11866 15.6158 9.71181C15.3533 10.305 15.0191 10.8737 14.6276 11.4091L13.127 9.384C13.5184 8.84864 13.8527 8.2797 14.1151 7.68674C14.3773 7.09379 14.5497 6.51372 14.6411 5.95728Z" fill="url(#paint5_linear_1517_8016)"/>
<path d="M10.1466 12.158L11.6472 14.183C10.466 14.938 9.1639 15.4677 7.87098 15.6876L6.37012 13.6625C7.66343 13.4425 8.96553 12.913 10.1466 12.158Z" fill="url(#paint6_linear_1517_8016)"/>
<path d="M3.15228 5.1896L4.98936 3.47771C5.06238 3.40957 5.1151 3.32854 5.14946 3.24654C5.21565 3.09015 5.21584 2.93102 5.16566 2.85488L4.78708 2.28809C4.21852 2.653 3.66969 3.07551 3.1558 3.55522C2.64035 4.03454 2.19206 4.54237 1.80957 5.06406L2.46247 5.37489C2.47595 5.38133 2.49176 5.38661 2.50972 5.39071C2.51871 5.39285 2.52808 5.39441 2.53804 5.39578C2.5478 5.39715 2.55795 5.39832 2.56889 5.3991C2.63176 5.4034 2.70809 5.39656 2.78775 5.37762C2.85746 5.36083 2.9297 5.33487 2.99784 5.29875C3.0531 5.26887 3.10601 5.23295 3.15228 5.1896Z" fill="url(#paint7_linear_1517_8016)"/>
<path d="M11.4592 1.79292L11.962 1.02327C11.9479 1.01799 11.9341 1.01292 11.92 1.00765C11.8595 0.985583 11.7978 0.964497 11.7353 0.944387C11.3154 0.809864 10.8548 0.72298 10.3584 0.688422C9.87794 0.65484 9.3871 0.672022 8.89332 0.736452C8.80116 0.748558 8.70881 0.762029 8.61646 0.777453C8.59869 0.780382 8.58131 0.78331 8.56374 0.786239L8.37415 1.57776C8.33608 1.73903 8.45557 1.98504 8.69573 2.00183L10.7925 2.14787C11.0348 2.16505 11.3571 1.9497 11.4592 1.79292Z" fill="url(#paint8_linear_1517_8016)"/>
<path d="M1.66505 8.55184C1.64806 8.43176 1.55064 8.34976 1.43739 8.30817C1.39132 8.29119 1.3425 8.28104 1.29506 8.27772C1.28979 8.27733 1.28452 8.27694 1.27924 8.27694C1.24234 8.27557 1.20661 8.2785 1.1744 8.28592L0.292272 8.49034C0.205973 9.03214 0.19172 9.57023 0.264937 10.0906C0.336593 10.6109 0.490058 11.0824 0.714202 11.4996L1.55454 11.0191C1.66661 10.9553 1.80309 10.8053 1.87533 10.6495C1.91282 10.5679 1.93313 10.4846 1.92258 10.4113L1.66505 8.55184Z" fill="url(#paint9_linear_1517_8016)"/>
<path d="M14.6694 4.35722C14.5964 3.8367 14.4429 3.36518 14.2204 2.9458L13.379 3.42688C13.2666 3.4917 13.1303 3.64145 13.0582 3.79726C13.0206 3.87887 13.0003 3.96224 13.0104 4.03604L13.2703 5.89418C13.2845 5.99863 13.3587 6.07439 13.4517 6.11988C13.51 6.14858 13.576 6.16537 13.6391 6.16967C13.6819 6.1726 13.7233 6.17006 13.7602 6.16147L14.6407 5.95705C14.7286 5.41563 14.7426 4.87754 14.6694 4.35722Z" fill="url(#paint10_linear_1517_8016)"/>
<path d="M6.23855 12.4441L4.14179 12.298C3.90086 12.2826 3.57714 12.4978 3.47483 12.6547L2.97363 13.4246C3.45355 13.6028 3.98989 13.7182 4.577 13.7592C5.1643 13.8 5.76781 13.7639 6.3717 13.6614L6.55953 12.8697C6.59799 12.7082 6.48046 12.4609 6.23855 12.4441Z" fill="url(#paint11_linear_1517_8016)"/>
<path d="M12.3888 9.05094C12.3812 9.05016 12.3736 9.04938 12.3654 9.0488C12.3182 9.04548 12.2631 9.04841 12.2053 9.05817C12.063 9.08199 11.9013 9.14603 11.7832 9.25673L9.94396 10.97C9.87133 11.0375 9.81862 11.1186 9.78425 11.2004C9.71826 11.3566 9.71787 11.5161 9.76844 11.5913L10.147 12.1581C10.7148 11.7945 11.2638 11.372 11.7791 10.8927C12.2902 10.4171 12.7354 9.91392 13.1155 9.39731C13.1189 9.39301 13.122 9.38852 13.1253 9.38423L12.4728 9.07301C12.4501 9.06227 12.4218 9.05504 12.3888 9.05094Z" fill="url(#paint12_linear_1517_8016)"/>
<path d="M13.1256 9.38391L14.6264 11.409C14.6231 11.4133 14.62 11.4178 14.6167 11.4219C14.2367 11.9385 13.7914 12.4418 13.2802 12.9174C12.7647 13.3968 12.2159 13.8193 11.6481 14.1828L10.1475 12.1577C10.7152 11.7942 11.2643 11.3717 11.7795 10.8924C12.2907 10.4168 12.7358 9.91361 13.116 9.39699C13.1191 9.3927 13.1224 9.38821 13.1256 9.38391Z" fill="url(#paint13_linear_1517_8016)"/>
<path d="M9.43268 2.8419C6.93665 2.66794 4.03255 4.5169 2.94718 6.97072C1.86161 9.42474 3.00575 11.5554 5.50178 11.7294C7.99801 11.9034 10.9005 10.0542 11.9859 7.60038C13.0713 5.14656 11.9287 3.01586 9.43268 2.8419Z" fill="white"/>
<path d="M9.43268 2.78001C6.93665 2.60605 4.03255 4.45501 2.94718 6.90883C1.86161 9.36285 3.00575 11.4935 5.50178 11.6675C7.99801 11.8415 10.9005 9.99232 11.9859 7.53849C13.0713 5.08448 11.9287 2.95378 9.43268 2.78001Z" fill="#FF9F05"/>
<path d="M9.21555 5.12274L8.64523 4.59167L7.669 5.04171C7.61979 5.06514 7.17815 5.26917 6.69511 5.54212C5.98851 5.94296 5.13587 6.50682 4.79536 7.32899C4.47535 8.10235 4.85393 8.7613 5.63999 8.8025C6.02697 8.8228 6.44031 8.69023 6.79937 8.4577C6.51665 8.87747 6.08906 9.40346 5.53202 9.75529L7.44407 9.85545C7.19592 9.46125 7.21075 8.91379 7.28182 8.48288C7.43704 8.74236 7.72425 8.91164 8.11065 8.93175C8.89847 8.97314 9.79465 8.38097 10.1145 7.60761C10.455 6.78524 10.0945 6.15812 9.74154 5.70144C9.50119 5.39081 9.24366 5.15027 9.21555 5.12274Z" fill="url(#paint14_linear_1517_8016)"/>
<path d="M3.09388 7.38801C4.17926 4.93419 7.08336 3.08523 9.57939 3.25919C10.9537 3.35486 11.9167 4.04466 12.3244 5.05446C12.0526 3.78752 11.0154 2.89037 9.43296 2.78026C6.93692 2.60629 4.03282 4.45525 2.94745 6.90908C2.45972 8.01162 2.42321 9.04797 2.75611 9.8719C2.59913 9.14013 2.69675 8.28594 3.09388 7.38801Z" fill="#E87500"/>
<path d="M16.171 6.38203C16.0979 5.86151 15.9445 5.3902 15.7219 4.97081C15.6295 4.79724 15.5251 4.63148 15.4087 4.47431C15.3845 4.4417 15.3601 4.4089 15.3359 4.3761C15.4109 4.49754 15.4821 4.62816 15.5432 4.74316C15.7658 5.16254 15.9193 5.63405 15.9923 6.15438C16.0655 6.6749 16.0515 7.2128 15.9636 7.7546C15.8722 8.31085 15.6998 8.89092 15.4376 9.48407C15.1752 10.0772 14.8409 10.646 14.4497 11.1813L14.4464 11.1788L14.4483 11.1811C14.445 11.1854 14.4419 11.1899 14.4385 11.194C14.0586 11.7106 13.6132 12.214 13.1021 12.6896C12.5866 13.1689 12.0378 13.5914 11.47 13.955C10.2888 14.71 8.98667 15.2397 7.69375 15.4595L7.69277 15.4583C7.08927 15.5608 6.48635 15.597 5.89944 15.5562C5.31233 15.5153 4.77599 15.3996 4.29607 15.2215C3.54906 14.9446 2.94028 14.5124 2.48535 13.9643C2.5 13.9842 2.51464 14.004 2.52948 14.0239C2.99553 14.6528 3.65254 15.1444 4.47511 15.4492C4.95503 15.6272 5.49137 15.7428 6.07847 15.7838C6.66539 15.8248 7.26831 15.7885 7.87181 15.686L7.87279 15.6872C9.16571 15.4673 10.4678 14.9376 11.6491 14.1826C12.2168 13.8191 12.7659 13.3966 13.2811 12.9172C13.7923 12.4416 14.2374 11.9383 14.6176 11.4217C14.6209 11.4174 14.624 11.4131 14.6273 11.4088L14.6254 11.4064L14.6287 11.409C15.0202 10.8736 15.3544 10.3047 15.6169 9.71172C15.8793 9.11857 16.0517 8.5385 16.1428 7.98225C16.2301 7.44065 16.2442 6.90255 16.171 6.38203Z" fill="#B0AAAA"/>
<path d="M14.2122 7.81074C14.4746 7.21759 14.647 6.63752 14.7382 6.08127C14.826 5.53946 14.8401 5.00157 14.7669 4.48105C14.6938 3.96053 14.5404 3.48921 14.3178 3.06983C14.2454 2.93355 14.1632 2.80371 14.0759 2.67739C14.0197 2.60144 13.9632 2.52549 13.907 2.44934C14.0236 2.60651 14.128 2.77227 14.2202 2.94585C14.4428 3.36523 14.5962 3.83674 14.6692 4.35726C14.7425 4.87778 14.7284 5.41568 14.6405 5.95748C14.5492 6.51373 14.3768 7.0938 14.1146 7.68695C13.8521 8.2801 13.5179 8.84885 13.1264 9.38421L13.128 9.38811L13.125 9.38421C13.1217 9.3885 13.1186 9.3928 13.1153 9.39729C12.7353 9.9139 12.29 10.4172 11.7788 10.8927C11.2634 11.3722 10.7145 11.7947 10.1468 12.158C8.9659 12.9128 7.66439 13.4423 6.37205 13.6624L6.37107 13.6612C5.76698 13.7637 5.16347 13.8 4.57637 13.759C3.98926 13.7182 3.45292 13.6026 2.973 13.4244C2.19475 13.136 1.56684 12.6788 1.10645 12.0979C1.1125 12.1061 1.11894 12.1145 1.12499 12.1229C1.59105 12.7518 2.24805 13.2434 3.07063 13.5482C3.55054 13.7262 4.08688 13.8418 4.67399 13.8828C5.2609 13.9238 5.86382 13.8875 6.46733 13.7852L6.46831 13.7864C7.76123 13.5663 9.06333 13.0368 10.2446 12.2818C10.8123 11.9183 11.3614 11.4958 11.8766 11.0164C12.3878 10.5408 12.833 10.0375 13.2131 9.52088C13.2164 9.51658 13.2195 9.51229 13.2229 9.50799L13.2209 9.50565L13.2242 9.50819C13.6155 8.97263 13.9498 8.40369 14.2122 7.81074Z" fill="white"/>
<defs>
<linearGradient id="paint0_linear_1517_8016" x1="19.5259" y1="-1.32257" x2="5.20911" y2="13.9704" gradientUnits="userSpaceOnUse">
<stop stop-color="#FFEA05"/>
<stop offset="0.1856" stop-color="#FFDA05"/>
<stop offset="0.7245" stop-color="#FFAF05"/>
<stop offset="1" stop-color="#FF9F05"/>
</linearGradient>
<linearGradient id="paint1_linear_1517_8016" x1="18.0946" y1="-2.66542" x2="3.7756" y2="12.6299" gradientUnits="userSpaceOnUse">
<stop stop-color="#FFEA05"/>
<stop offset="0.1856" stop-color="#FFDA05"/>
<stop offset="0.7245" stop-color="#FFAF05"/>
<stop offset="1" stop-color="#FF9F05"/>
</linearGradient>
<linearGradient id="paint2_linear_1517_8016" x1="15.0908" y1="2.98993" x2="16.0346" y2="17.21" gradientUnits="userSpaceOnUse">
<stop stop-color="#38393B"/>
<stop offset="0.3263" stop-color="#2F3031"/>
<stop offset="1" stop-color="#1F2021"/>
</linearGradient>
<linearGradient id="paint3_linear_1517_8016" x1="4.70127" y1="3.67952" x2="5.64507" y2="17.8998" gradientUnits="userSpaceOnUse">
<stop stop-color="#38393B"/>
<stop offset="0.3263" stop-color="#2F3031"/>
<stop offset="1" stop-color="#1F2021"/>
</linearGradient>
<linearGradient id="paint4_linear_1517_8016" x1="2.92208" y1="6.46102" x2="21.9262" y2="9.65006" gradientUnits="userSpaceOnUse">
<stop stop-color="#FFEA05"/>
<stop offset="0.1856" stop-color="#FFDA05"/>
<stop offset="0.7245" stop-color="#FFAF05"/>
<stop offset="1" stop-color="#FF9F05"/>
</linearGradient>
<linearGradient id="paint5_linear_1517_8016" x1="21.9117" y1="0.910067" x2="7.59396" y2="16.204" gradientUnits="userSpaceOnUse">
<stop stop-color="#FFEA05"/>
<stop offset="0.1856" stop-color="#FFDA05"/>
<stop offset="0.7245" stop-color="#FFAF05"/>
<stop offset="1" stop-color="#FF9F05"/>
</linearGradient>
<linearGradient id="paint6_linear_1517_8016" x1="21.5277" y1="0.550853" x2="7.20962" y2="15.8451" gradientUnits="userSpaceOnUse">
<stop stop-color="#FFEA05"/>
<stop offset="0.1856" stop-color="#FFDA05"/>
<stop offset="0.7245" stop-color="#FFAF05"/>
<stop offset="1" stop-color="#FF9F05"/>
</linearGradient>
<linearGradient id="paint7_linear_1517_8016" x1="2.34355" y1="3.59462" x2="17.084" y2="6.3605" gradientUnits="userSpaceOnUse">
<stop stop-color="#38393B"/>
<stop offset="0.3263" stop-color="#2F3031"/>
<stop offset="1" stop-color="#1F2021"/>
</linearGradient>
<linearGradient id="paint8_linear_1517_8016" x1="2.99931" y1="0.0996447" x2="17.7412" y2="2.8658" gradientUnits="userSpaceOnUse">
<stop stop-color="#38393B"/>
<stop offset="0.3263" stop-color="#2F3031"/>
<stop offset="1" stop-color="#1F2021"/>
</linearGradient>
<linearGradient id="paint9_linear_1517_8016" x1="1.15725" y1="9.91546" x2="15.9" y2="12.6818" gradientUnits="userSpaceOnUse">
<stop stop-color="#38393B"/>
<stop offset="0.3263" stop-color="#2F3031"/>
<stop offset="1" stop-color="#1F2021"/>
</linearGradient>
<linearGradient id="paint10_linear_1517_8016" x1="2.56217" y1="2.42667" x2="17.3031" y2="5.19264" gradientUnits="userSpaceOnUse">
<stop stop-color="#38393B"/>
<stop offset="0.3263" stop-color="#2F3031"/>
<stop offset="1" stop-color="#1F2021"/>
</linearGradient>
<linearGradient id="paint11_linear_1517_8016" x1="0.720409" y1="12.2426" x2="15.4616" y2="15.0086" gradientUnits="userSpaceOnUse">
<stop stop-color="#38393B"/>
<stop offset="0.3263" stop-color="#2F3031"/>
<stop offset="1" stop-color="#1F2021"/>
</linearGradient>
<linearGradient id="paint12_linear_1517_8016" x1="1.37516" y1="8.74787" x2="16.1172" y2="11.5141" gradientUnits="userSpaceOnUse">
<stop stop-color="#38393B"/>
<stop offset="0.3263" stop-color="#2F3031"/>
<stop offset="1" stop-color="#1F2021"/>
</linearGradient>
<linearGradient id="paint13_linear_1517_8016" x1="11.8176" y1="3.20712" x2="12.7614" y2="17.4274" gradientUnits="userSpaceOnUse">
<stop stop-color="#38393B"/>
<stop offset="0.3263" stop-color="#2F3031"/>
<stop offset="1" stop-color="#1F2021"/>
</linearGradient>
<linearGradient id="paint14_linear_1517_8016" x1="4.68151" y1="7.22372" x2="10.2509" y2="7.22372" gradientUnits="userSpaceOnUse">
<stop stop-color="#38393B"/>
<stop offset="0.3263" stop-color="#2F3031"/>
<stop offset="1" stop-color="#1F2021"/>
</linearGradient>
</defs>
</svg>
