<svg width="50" height="51" viewBox="0 0 50 51" fill="none" xmlns="http://www.w3.org/2000/svg">
<rect y="0.86792" width="50" height="50" rx="25" fill="white" fill-opacity="0.05"/>
<rect x="0.5" y="1.36792" width="49" height="49" rx="24.5" stroke="#A7A7A7" stroke-opacity="0.5"/>
<path d="M30.0502 34.1479C29.0702 35.0979 28.0002 34.9479 26.9702 34.4979C25.8802 34.0379 24.8802 34.0179 23.7302 34.4979C22.2902 35.1179 21.5302 34.9379 20.6702 34.1479C15.7902 29.1179 16.5102 21.4579 22.0502 21.1779C23.4002 21.2479 24.3402 21.9179 25.1302 21.9779C26.3102 21.7379 27.4402 21.0479 28.7002 21.1379C30.2102 21.2579 31.3502 21.8579 32.1002 22.9379C28.9802 24.8079 29.7202 28.9179 32.5802 30.0679C32.0102 31.5679 31.2702 33.0579 30.0402 34.1579L30.0502 34.1479ZM25.0302 21.1179C24.8802 18.8879 26.6902 17.0479 28.7702 16.8679C29.0602 19.4479 26.4302 21.3679 25.0302 21.1179Z" fill="white"/>
</svg>
