<svg width="221" height="230" viewBox="0 0 221 230" fill="none" xmlns="http://www.w3.org/2000/svg">
<rect width="107.34" height="100.763" rx="10.0473" transform="matrix(0.835813 0.549014 -0.549051 0.835789 104.631 34.4777)" fill="#686767"/>
<rect width="107.34" height="2.19049" transform="matrix(0.835813 0.549014 -0.549051 0.835789 89.5996 57.3621)" fill="#595959"/>
<rect width="107.34" height="2.19049" transform="matrix(0.835813 0.549015 -0.549051 0.835789 83.5859 66.5161)" fill="#595959"/>
<ellipse cx="2.19062" cy="2.19051" rx="2.19062" ry="2.19051" transform="matrix(0.835813 0.549015 -0.549051 0.835789 97.7578 50.9276)" fill="#7D7D7D"/>
<ellipse cx="2.19058" cy="2.19048" rx="2.19058" ry="2.19048" transform="matrix(0.835811 0.549017 -0.549049 0.835791 176.486 102.642)" fill="#7D7D7D"/>
<ellipse cx="2.1906" cy="2.19049" rx="2.1906" ry="2.19049" transform="matrix(0.835813 0.549015 -0.549051 0.835789 83.9258 71.9817)" fill="#7D7D7D"/>
<ellipse cx="2.19062" cy="2.19051" rx="2.19062" ry="2.19051" transform="matrix(0.835813 0.549015 -0.549051 0.835789 162.656 123.697)" fill="#7D7D7D"/>
<rect width="20.8107" height="55.8576" rx="6.69819" transform="matrix(0.999318 -0.0369264 0.0368827 0.99932 135.229 114.805)" fill="#D6D6D6"/>
<ellipse cx="7.11947" cy="7.11911" rx="7.11947" ry="7.11911" transform="matrix(0.999318 -0.0369266 0.0368825 0.99932 144.506 158.302)" fill="url(#paint0_radial_578_7284)"/>
<rect width="20.8107" height="55.8576" rx="6.69819" transform="matrix(-0.294269 -0.955723 -0.95571 0.29431 101.65 94.2355)" fill="#D6D6D6"/>
<ellipse cx="7.11947" cy="7.11911" rx="7.11947" ry="7.11911" transform="matrix(-0.294269 -0.955723 -0.95571 0.294311 58.1641 99.9534)" fill="url(#paint1_radial_578_7284)"/>
<path d="M116.062 160.585L69.373 129.917L42.9834 170.088C40.9522 173.18 41.8122 177.333 44.9041 179.364L51.5589 183.735C54.6508 185.766 58.8039 184.906 60.835 181.814L73.3184 162.811C75.1866 159.967 79.0066 159.176 81.8506 161.045C84.6946 162.913 85.4856 166.733 83.6174 169.576L71.134 188.579C69.1029 191.671 69.9629 195.824 73.0548 197.855L80.3961 202.677C83.4881 204.708 87.6411 203.848 89.6722 200.756L116.062 160.585Z" fill="#D6D6D6"/>
<rect width="71.1947" height="69.0005" transform="matrix(0.835813 0.549014 -0.549051 0.835789 99.6484 69.8682)" fill="#E1E1E1"/>
<rect width="66.8134" height="19.7144" transform="matrix(0.835813 0.549014 -0.549051 0.835789 69.6074 119.587)" fill="#E1E1E1"/>
<rect width="5.47651" height="69.0006" transform="matrix(0.835813 0.549015 -0.549051 0.835789 108.803 75.8817)" fill="url(#paint2_linear_578_7284)"/>
<rect width="5.47652" height="69.0006" transform="matrix(0.835813 0.549014 -0.549052 0.835788 143.59 98.7325)" fill="url(#paint3_linear_578_7284)"/>
<rect width="71.1946" height="2.19049" transform="matrix(0.835813 0.549014 -0.549051 0.835789 62.9648 125.707)" fill="#9A9A9A"/>
<rect width="7.66714" height="17.524" rx="3.83357" transform="matrix(0.835814 0.549014 -0.549052 0.835788 174.188 86.0705)" fill="#D6D6D6"/>
<rect width="7.66711" height="17.524" rx="3.83356" transform="matrix(0.835813 0.549015 -0.549051 0.835789 108.273 42.7739)" fill="#D6D6D6"/>
<path d="M171.981 95.1056C160.075 113.228 135.732 118.269 117.607 106.364C99.483 94.4585 94.4416 70.116 106.347 51.9932C118.252 33.8704 142.596 28.83 160.72 40.7352C178.845 52.6403 183.886 76.9828 171.981 95.1056Z" fill="#D6D6D6" stroke="#E1E1E1" stroke-width="0.33491"/>
<path fill-rule="evenodd" clip-rule="evenodd" d="M171.472 96.0761C159.126 112.804 135.705 117.141 118.116 105.588C100.531 94.0365 95.2095 70.8252 105.653 52.8531C105.223 53.4362 104.806 54.0343 104.403 54.6473C92.4472 72.8474 97.5101 97.2937 115.712 109.25C133.913 121.206 158.361 116.144 170.317 97.9436C170.721 97.328 171.106 96.7052 171.472 96.0761Z" fill="#DDDDDD"/>
<path fill-rule="evenodd" clip-rule="evenodd" d="M169.066 99.7378C156.72 116.465 133.299 120.803 115.71 109.25C98.1243 97.6982 92.8033 74.4869 103.247 56.5148C102.817 57.0979 102.4 57.696 101.997 58.309C90.041 76.5091 95.1039 100.955 113.305 112.911C131.507 124.867 155.955 119.805 167.911 101.605C168.315 100.99 168.7 100.367 169.066 99.7378Z" fill="#D6D6D6"/>
<path d="M175.9 81.9539C170.026 66.957 139.959 45.8967 120.788 41.1665C106.432 52.0478 98.8573 68.3853 105.444 85.4694C109.102 94.9557 114.172 99.5641 122.892 104.793C129.343 108.661 133.643 110.635 141.161 110.896C158.809 111.508 173.692 92.2971 175.9 81.9539Z" fill="black"/>
<rect x="127.891" y="116.426" width="2.19061" height="1.09525" rx="0.547627" transform="rotate(13.3007 127.891 116.426)" fill="#C4C4C4"/>
<rect width="1.09534" height="1.09521" rx="0.547603" transform="matrix(0.973176 0.230061 -0.230062 0.973176 132.756 117)" fill="#C4C4C4"/>
<mask id="mask0_578_7284" style="mask-type:alpha" maskUnits="userSpaceOnUse" x="103" y="41" width="73" height="70">
<path d="M175.9 81.9545C170.026 66.9576 139.959 45.8973 120.788 41.1671C106.432 52.0484 98.8573 68.386 105.444 85.47C109.102 94.9563 114.172 99.5648 122.892 104.793C129.343 108.661 133.643 110.636 141.161 110.897C158.809 111.508 173.692 92.2977 175.9 81.9545Z" fill="black"/>
</mask>
<g mask="url(#mask0_578_7284)">
<rect width="10.9526" height="60.6889" transform="matrix(0.369765 0.929126 -0.929149 0.369707 150.18 44.8063)" fill="#484848"/>
<rect width="6.18014" height="63.9783" transform="matrix(0.369764 0.929126 -0.929149 0.369707 161.508 59.6766)" fill="#484848"/>
</g>
<ellipse cx="7.11946" cy="7.1191" rx="7.11946" ry="7.1191" transform="matrix(0.835813 0.549015 -0.549051 0.835789 121.664 46.3285)" fill="#828282" fill-opacity="0.5"/>
<ellipse cx="3.83357" cy="3.83336" rx="3.83357" ry="3.83336" transform="matrix(0.835814 0.549013 -0.549053 0.835788 130.818 52.3419)" fill="#828282" fill-opacity="0.5"/>
<ellipse cx="2.73825" cy="2.73812" rx="2.73825" ry="2.73812" transform="matrix(0.835812 0.549016 -0.54905 0.83579 115.65 55.4824)" fill="#828282" fill-opacity="0.5"/>
<ellipse cx="2.73826" cy="2.73812" rx="2.73826" ry="2.73812" transform="matrix(0.835813 0.549015 -0.549051 0.835789 136.176 36.2056)" fill="#BC0D0D"/>
<ellipse cx="2.73828" cy="2.73812" rx="2.73828" ry="2.73812" transform="matrix(0.835814 0.549013 -0.549053 0.835788 148.654 39.1587)" fill="#BC0D0D"/>
<rect width="29.5732" height="15.3335" rx="3.3491" transform="matrix(0.835813 0.549015 -0.549051 0.835789 96.8828 109.985)" fill="#273AE7"/>
<path d="M111.244 122.038L103.905 122.951L107.942 124.784L97.9065 126.382" stroke="#D2CB15" stroke-width="0.669819"/>
<defs>
<radialGradient id="paint0_radial_578_7284" cx="0" cy="0" r="1" gradientUnits="userSpaceOnUse" gradientTransform="translate(8.76242 8.76198) rotate(-156.802) scale(4.17076 4.17061)">
<stop stop-color="white"/>
<stop offset="1" stop-color="#DDDDDD"/>
</radialGradient>
<radialGradient id="paint1_radial_578_7284" cx="0" cy="0" r="1" gradientUnits="userSpaceOnUse" gradientTransform="translate(8.76242 8.76198) rotate(-156.802) scale(4.17076 4.17061)">
<stop stop-color="white"/>
<stop offset="1" stop-color="#DDDDDD"/>
</radialGradient>
<linearGradient id="paint2_linear_578_7284" x1="2.73826" y1="0" x2="2.73826" y2="69.0006" gradientUnits="userSpaceOnUse">
<stop stop-color="#3BB094"/>
<stop offset="1" stop-color="#232030"/>
</linearGradient>
<linearGradient id="paint3_linear_578_7284" x1="2.73826" y1="0" x2="2.73826" y2="69.0006" gradientUnits="userSpaceOnUse">
<stop stop-color="#3BB094"/>
<stop offset="1" stop-color="#232030"/>
</linearGradient>
</defs>
</svg>
