<?xml version="1.0" encoding="utf-8"?>
<!-- Generator: Adobe Illustrator 26.3.1, SVG Export Plug-In . SVG Version: 6.00 Build 0)  -->
<svg version="1.1" xmlns="http://www.w3.org/2000/svg" xmlns:xlink="http://www.w3.org/1999/xlink" x="0px" y="0px"
	 viewBox="0 0 353.2 337.6" style="enable-background:new 0 0 353.2 337.6;" xml:space="preserve">
<style type="text/css">
	.st0{display:none;}
	.st1{display:inline;fill:#192958;}
	.st2{fill:#FFFFFF;}
</style>
<g id="BKGD" class="st0">
	<rect class="st1" width="353.2" height="337.6"/>
</g>
<g id="Layer_2">
	<g>
		<g>
			<circle class="st2" cx="14" cy="168.5" r="14"/>
			<circle class="st2" cx="77.1" cy="168.5" r="14"/>
			<circle class="st2" cx="51.3" cy="209.8" r="14"/>
			<circle class="st2" cx="96.6" cy="227.8" r="14"/>
			<circle class="st2" cx="99.4" cy="276.8" r="14"/>
			<circle class="st2" cx="51.3" cy="127.1" r="14"/>
			<circle class="st2" cx="45.5" cy="72.8" r="14"/>
			<circle class="st2" cx="96.6" cy="108.7" r="14"/>
			<circle class="st2" cx="98.4" cy="61.7" r="14"/>
			<circle class="st2" cx="145.9" cy="72.8" r="14"/>
			<circle class="st2" cx="207.1" cy="72.8" r="14"/>
			<circle class="st2" cx="253.3" cy="61.1" r="14"/>
			<circle class="st2" cx="256.5" cy="109.7" r="14"/>
			<circle class="st2" cx="301.9" cy="127.1" r="14"/>
			<circle class="st2" cx="301.9" cy="209.8" r="14"/>
			<circle class="st2" cx="256.5" cy="227.9" r="14"/>
			<circle class="st2" cx="308.1" cy="264.2" r="14"/>
			<circle class="st2" cx="207.1" cy="264.2" r="14"/>
			<circle class="st2" cx="145.9" cy="264.2" r="14"/>
			<circle class="st2" cx="45.1" cy="264.2" r="14"/>
			<circle class="st2" cx="253.3" cy="276.8" r="14"/>
			<circle class="st2" cx="176.3" cy="301.5" r="14"/>
			<circle class="st2" cx="226.7" cy="323.6" r="14"/>
			<circle class="st2" cx="126.6" cy="323.6" r="14"/>
			<circle class="st2" cx="276.5" cy="168.5" r="14"/>
			<circle class="st2" cx="339.2" cy="168.5" r="14"/>
			<circle class="st2" cx="308.1" cy="72.8" r="14"/>
			<circle class="st2" cx="176.3" cy="35.5" r="14"/>
			<circle class="st2" cx="126.2" cy="14" r="14"/>
			<circle class="st2" cx="226.8" cy="14" r="14"/>
		</g>
	</g>
</g>
</svg>
