<svg width="50" height="51" viewBox="0 0 50 51" fill="none" xmlns="http://www.w3.org/2000/svg">
<rect y="0.86792" width="50" height="50" rx="25" fill="white" fill-opacity="0.05"/>
<rect x="0.5" y="1.36792" width="49" height="49" rx="24.5" stroke="#A7A7A7" stroke-opacity="0.5"/>
<path d="M21.3606 14.6573C18.9626 15.4892 16.8946 17.0681 15.4603 19.1622C14.026 21.2562 13.301 23.7551 13.3919 26.2916C13.4827 28.8281 14.3846 31.2687 15.965 33.2548C17.5454 35.2409 19.7211 36.6678 22.1724 37.326C24.1598 37.8388 26.2419 37.8614 28.2399 37.3917C30.0499 36.9851 31.7233 36.1155 33.0962 34.8679C34.5251 33.5298 35.5622 31.8276 36.0962 29.9442C36.6763 27.896 36.7796 25.7422 36.3981 23.6479H25.2381V28.2773H31.7012C31.572 29.0156 31.2952 29.7203 30.8873 30.3492C30.4795 30.9781 29.9489 31.5182 29.3274 31.9373C28.5383 32.4595 27.6486 32.8108 26.7156 32.9685C25.7798 33.1426 24.82 33.1426 23.8843 32.9685C22.9358 32.7727 22.0386 32.3812 21.2499 31.8192C19.9827 30.9221 19.0312 29.6478 18.5312 28.1779C18.0228 26.6805 18.0228 25.0572 18.5312 23.5598C18.8871 22.5102 19.4755 21.5545 20.2524 20.7642C21.1415 19.8431 22.2672 19.1847 23.5058 18.8612C24.7445 18.5377 26.0484 18.5617 27.2743 18.9304C28.2321 19.2243 29.1079 19.7379 29.8318 20.4304C30.5606 19.7054 31.2881 18.9785 32.0143 18.2498C32.3893 17.8579 32.7981 17.4848 33.1674 17.0835C32.0622 16.0551 30.7649 15.2549 29.3499 14.7285C26.7731 13.7929 23.9536 13.7678 21.3606 14.6573Z" fill="#2486FD"/>
<path d="M21.3607 14.6573C23.9536 13.7671 26.7731 13.7916 29.3501 14.7267C30.7653 15.2566 32.062 16.0607 33.1657 17.0929C32.7907 17.4942 32.3951 17.8692 32.0126 18.2592C31.2851 18.9854 30.5582 19.7092 29.832 20.4304C29.108 19.7379 28.2322 19.2243 27.2745 18.9304C26.0489 18.5604 24.7451 18.535 23.5061 18.8572C22.2671 19.1793 21.1408 19.8365 20.2507 20.7567C19.4738 21.547 18.8854 22.5027 18.5295 23.5523L14.6426 20.5429C16.0338 17.784 18.4427 15.6736 21.3607 14.6573Z" fill="#E33629"/>
<path d="M13.6114 23.5242C13.8202 22.4887 14.167 21.486 14.6427 20.5429L18.5295 23.5598C18.0212 25.0572 18.0212 26.6805 18.5295 28.1779C17.2345 29.1779 15.9389 30.1829 14.6427 31.1929C13.4523 28.8235 13.0893 26.1238 13.6114 23.5242Z" fill="#F8BD00"/>
<path d="M25.2381 23.6461H36.3981C36.7797 25.7403 36.6764 27.8942 36.0963 29.9423C35.5623 31.8257 34.5252 33.528 33.0963 34.8661C31.8419 33.8873 30.5819 32.9161 29.3275 31.9373C29.9494 31.5178 30.4802 30.9771 30.8881 30.3476C31.296 29.718 31.5726 29.0126 31.7013 28.2736H25.2381C25.2363 26.7323 25.2381 25.1892 25.2381 23.6461Z" fill="#587DBD"/>
<path d="M14.6406 31.1929C15.9369 30.1929 17.2325 29.1879 18.5275 28.1779C19.0285 29.6483 19.9814 30.9227 21.25 31.8192C22.0412 32.3786 22.9403 32.7669 23.89 32.9592C24.8257 33.1332 25.7855 33.1332 26.7213 32.9592C27.6543 32.8015 28.544 32.4502 29.3331 31.9279C30.5875 32.9067 31.8475 33.8779 33.1019 34.8567C31.7292 36.1049 30.0558 36.9752 28.2456 37.3823C26.2476 37.852 24.1655 37.8295 22.1781 37.3167C20.6063 36.897 19.1381 36.1572 17.8656 35.1435C16.5189 34.0741 15.4188 32.7265 14.6406 31.1929Z" fill="#319F43"/>
</svg>
