<svg width="276" height="122" viewBox="0 0 276 122" fill="none" xmlns="http://www.w3.org/2000/svg">
<path d="M73.9095 29.9535C74.1982 29.887 73.9828 30.3196 73.9828 30.3196C73.2744 30.6519 60.8013 34.8899 60.8348 40.2468C60.8467 42.1454 60.8695 43.3358 62.5832 44.7688C65.6846 47.3624 71.1711 46.723 77.4107 47.1456C84.4804 47.6245 89.5821 46.0576 96.5393 46.6793C102.038 47.1707 106.631 46.8659 109.408 49.1883C111.543 50.9734 112.696 52.4211 111.35 54.8908C109.553 58.1889 105.379 60.0758 99.6087 62.1538C95.2859 63.7105 91.7107 64.4621 87.0354 65.2606C62.9677 69.3711 55.1299 55.0734 31.2647 60.3145C21.6962 62.4159 14.4392 63.2416 8.08926 68.1681C2.74056 72.3178 1.87675 75.0423 3.04327 79.1298C4.30225 83.5412 10.1979 84.3659 15.8459 87.177C22.981 90.7282 30.5258 90.719 36.5688 94.8174C40.0506 97.1787 42.7947 98.4266 43.5396 101.674C44.0544 103.919 43.4762 105.369 42.3677 107.804C39.9381 113.14 27.9749 121.89 27.9749 121.89L26.5213 120.909C26.5213 120.909 37.9278 113.253 40.4076 108C41.4838 105.72 42.1209 104.352 41.6552 102.248C40.9453 99.0403 37.8515 97.9483 34.3377 95.657C28.2034 91.6569 20.9762 91.5167 13.9993 87.9397C8.24617 84.9901 2.32373 84.0474 1.08438 79.4755C-0.0473041 75.3008 1.34693 72.0062 6.76745 67.7736C13.1008 62.8283 21.4603 61.4394 31.8444 59.216C55.7431 54.0989 63.5905 68.6532 87.6152 64.1621C92.1393 63.3163 94.9449 63.0475 99.0729 61.4751C104.071 59.5714 107.882 57.9864 109.39 55.0867C110.457 53.0343 109.927 51.8047 108.415 50.2195C105.915 47.5977 101.171 47.6377 95.3916 47.0824C89.0767 46.4756 84.41 47.9715 77.8756 47.6505C71.144 47.3198 65.1919 48.0961 61.8561 45.3476C59.9731 43.7961 60.0054 42.4772 60.0659 40.4008C60.2237 34.9934 71.7478 30.7671 73.9095 29.9535Z" fill="#DDDDDD"/>
<path d="M73.9095 29.9535C73.6298 30.0387 73.9828 30.3196 73.9828 30.3196C73.9828 30.3196 95.6108 21.9795 105.7 24.5511C109.276 25.4625 111.511 26.0442 113.396 27.8744C116.808 31.1866 112.983 34.5586 110.802 38.9405C108.331 43.9055 102.94 46.5782 100.792 51.5358C99.094 55.4538 96.3265 58.3866 99.3818 61.3526C101.73 63.6326 103.911 65.0936 109.212 65.3671C116.292 65.7323 121.844 63.8335 128.518 60.9561C133.518 58.8004 136.642 56.7625 140.38 54.0098C159.622 39.8392 136.392 27.7838 157.671 14.2869C166.202 8.8755 171.224 4.40592 183.548 2.49543C193.929 0.886198 199.481 1.60389 206.635 4.33054C214.356 7.27335 213.097 11.6162 215.704 16.7383C218.997 23.209 215.379 28.26 220.225 34.2594C223.018 37.7161 224.062 40.1486 229.833 42.1931C233.821 43.6061 236.833 43.9088 241.955 44.3246C253.181 45.2359 275.397 41.3836 275.397 41.3836L274.241 39.9429C274.241 39.9429 254.354 43.9426 243.26 43.1045C238.446 42.7408 235.562 42.5168 231.815 41.2035C226.103 39.2014 225.519 36.6088 222.874 33.1641C218.256 27.1502 221.442 22.2409 218.024 15.8639C215.206 10.6054 216.255 6.18851 208.222 3.18252C200.887 0.437689 194.006 -0.195899 183.435 1.42204C171.083 3.31243 164.473 8.25278 155.322 14.1527C134.261 27.731 157.971 39.9149 138.031 53.8755C134.276 56.5044 132.43 58.2564 127.493 60.2742C121.517 62.717 116.707 64.5168 110.518 64.147C106.137 63.8852 104.07 62.9452 101.801 61.1779C98.0489 58.255 100.389 55.0955 102.1 50.9586C103.969 46.4386 109.019 44.0234 111.532 39.4923C114.122 34.8245 118.427 31.2056 114.835 27.6626C112.807 25.6626 110.303 25.0566 106.357 24.1091C96.0816 21.6417 75.7359 29.3975 73.9095 29.9535Z" fill="#DDDDDD"/>
</svg>
