<svg width="101" height="94" viewBox="0 0 101 94" fill="none" xmlns="http://www.w3.org/2000/svg">
<path d="M24.0985 67.6731C24.0985 67.6731 29.2314 69.92 30.2051 77.8583C30.4662 80.1925 29.3111 81.9166 27.6569 83.5561C25.9642 85.3021 23.4577 85.308 21.943 87.0944C22.9898 85.4032 22.6844 83.3901 24.4742 82.0406C21.8021 82.9016 20.423 84.9779 20.0655 87.6897C19.7467 90.2951 18.5916 92.0193 15.7198 92.3021C17.1829 91.1231 16.6883 89.4989 16.6231 87.886C16.4661 89.7796 15.0106 90.6724 13.3535 91.0586C11.3348 91.5786 10.4611 92.1286 8.91707 93.6636C9.70575 90.8915 8.34874 89.388 11.7128 88.0797C13.5573 87.3761 15.5966 86.0689 14.1171 83.7745C13.6176 87.8073 10.2494 86.5376 7.53125 87.7912C5.60961 88.7076 5.99961 90.2216 4.92358 91.6614C3.84754 93.1012 1.97948 93.3387 0.296875 93.3305C3.11021 92.5448 2.4055 89.3756 3.07279 87.1373C3.82101 84.5432 7.23792 83.9524 8.6594 81.6265C7.38894 79.5524 6.14168 82.0618 5.61827 82.9074C4.76066 84.2097 3.65353 85.4697 1.80982 84.777C6.14279 83.3866 3.20062 78.1537 6.33392 76.0875C7.53622 75.2955 10.5833 76.521 11.1933 75.1048C12.1449 72.9456 8.39195 74.0647 7.5898 74.6166C7.79962 73.4405 8.72504 72.2832 9.88499 71.7407C11.3717 71.0277 12.4207 71.9861 13.7163 71.7336C15.4431 71.4208 15.6076 69.241 13.6755 69.1904C12.9599 69.1717 11.4601 70.3856 10.5939 70.6493C11.6538 68.4572 14.2495 66.4127 16.6259 65.902C19.5786 65.2633 21.6202 66.6057 24.0985 67.6731Z" fill="url(#paint0_linear_578_7085)"/>
<path d="M25.528 70.4474C26.0437 71.0273 26.0075 71.0617 26.4811 71.8151C27.4952 73.3923 27.696 75.6745 26.1781 76.9812C25.3118 77.7031 24.2926 77.5008 23.3653 78.0131C22.3852 78.5423 22.3401 79.621 21.8177 80.4509C21.7727 79.8586 21.775 79.3887 21.6422 78.8129C21.5871 78.4642 21.4987 78.0804 21.6344 77.7511C21.26 78.3738 21.1946 79.1041 20.7854 79.7263C20.2659 80.4866 19.4896 80.7221 18.6422 80.9916C17.7781 81.2435 16.938 81.3391 15.9978 81.3291C15.6147 81.325 15.1134 81.2327 14.7593 81.3682C14.2979 81.5722 14.123 82.0054 13.7617 82.3149C13.9686 81.1161 14.0463 80.5078 15.3145 80.1731C16.6174 79.8388 16.6821 78.7082 17.5346 77.8992C16.8011 78.3613 15.8689 78.5777 15.3691 77.6152C16.9158 78.1189 17.5558 76.9769 17.7685 75.639C17.9964 74.3534 17.9566 73.2217 19.0043 72.3277C18.3608 72.3035 18.0364 72.9788 17.6373 73.3575C17.1672 73.7703 16.6376 73.9387 16.0231 74.054C16.0956 73.9852 16.203 73.9167 16.2407 73.8475C16.4853 73.4149 16.9329 73.1238 17.1775 72.6913C17.4038 72.2759 17.5424 71.8771 17.7173 71.4438C18.0671 70.5773 18.9697 69.821 19.7561 69.342C21.0613 68.5378 23.454 68.8068 25.0078 69.972L25.1595 70.0954C25.2944 70.2013 25.4112 70.3244 25.528 70.4474Z" fill="#FFC929"/>
<path d="M25.9749 70.9202C26.5326 71.5834 26.6131 72.1213 26.5941 72.9885C26.5637 73.9569 25.6718 74.6406 25.0395 75.2768C25.1935 74.9861 25.1537 74.6987 25.1885 74.3766C24.8479 74.754 24.5281 74.6058 24.1449 74.8249C23.7428 75.0619 23.529 75.5539 23.1544 75.801C23.3297 75.3817 22.8594 74.9427 23.163 74.5642C22.7535 74.7179 22.8992 75.2301 22.6168 75.48C22.3722 75.6941 21.8348 75.7886 21.5638 75.9372C21.5937 75.8366 22.308 74.8336 21.7665 75.1126C21.6637 75.174 21.5723 75.5498 21.4219 75.6744C21.2908 75.7628 21.0957 75.8214 20.9379 75.8628C20.5759 75.9533 20.2086 75.8683 19.8819 76.0338C19.5085 76.2255 19.3254 76.58 19.1328 76.9434C19.3413 76.2758 19.2124 75.838 19.7944 75.3941C20.0764 75.1627 20.1915 74.9631 20.3915 74.683C20.5628 74.4481 20.7866 74.3442 21.0128 74.1295C20.297 73.9415 20.1599 74.7221 19.5655 74.8886C19.9036 74.622 19.8015 74.2311 19.9108 73.8744C20.0292 73.5272 20.3226 73.1945 20.6673 73.0481C20.919 72.9357 21.572 73.0387 21.535 72.6221C21.4996 72.1318 20.8016 72.3967 20.595 72.5566C20.7228 72.2005 21.0166 71.8494 21.4339 71.7605C21.7955 71.6884 22.1604 71.8842 22.3357 71.4648C22.0314 71.0309 21.5974 71.4608 21.1826 71.439C21.7744 70.9677 22.0459 69.9512 22.974 70.1364C23.222 70.1901 23.8187 70.7622 23.8558 70.3295C23.882 69.9794 23.26 69.7205 22.9915 69.7585C23.8941 69.4259 25.1823 70.0283 25.8577 70.7966L25.9749 70.9202Z" fill="#F9F079"/>
<path d="M20.8546 61.1689C20.1071 62.4243 19.4111 63.6384 18.7597 64.8026C18.1083 65.9669 20.5332 69.8246 23.0378 72.4575C25.5224 75.0694 30.1678 78.6778 31.3653 78.0876C32.5629 77.4974 33.8103 76.866 35.1039 76.1862L20.8546 61.1689Z" fill="url(#paint1_linear_578_7085)"/>
<path d="M57.5486 63.3936C72.8078 53.6142 88.1027 40.6131 95.2382 22.1895L77.9305 3.94897C59.1603 10.1093 45.3719 24.6998 34.8073 39.4268L24.6639 54.8871C23.7322 56.4078 22.8405 57.8769 21.9737 59.3165L37.0133 75.1666C38.4948 74.3748 40.0125 73.5623 41.5777 72.7123L57.5486 63.3936ZM76.4034 22.7311C78.3697 24.886 78.2962 28.1888 76.209 30.1692C74.1243 32.1474 70.8174 32.0521 68.7693 29.9748C66.8015 27.8198 66.8805 24.5133 68.9653 22.5351C71.0524 20.5547 74.3538 20.6537 76.4034 22.7311Z" fill="url(#paint2_linear_578_7085)"/>
<path d="M43.1084 76.8853L41.5768 72.7128L57.5477 63.3941C56.9765 66.43 56.0631 78.4925 56.0631 78.4925L37.9023 93.6773L34.5645 90.1596L43.1084 76.8853Z" fill="url(#paint3_linear_578_7085)"/>
<path d="M19.6515 40.1187C19.6515 40.1187 31.743 39.8368 34.8062 39.4271L24.6628 54.8874L20.5763 53.139L6.87227 60.9751L3.53516 57.4582L19.6515 40.1187Z" fill="url(#paint4_linear_578_7085)"/>
<path d="M96.0172 19.9756C97.9772 14.1057 100.28 0.419913 100.088 0.21747C99.8945 0.0134397 86.1474 1.63838 80.1836 3.28872L96.0172 19.9756Z" fill="url(#paint5_linear_578_7085)"/>
<path d="M20.8535 61.1688L35.1029 76.1861L37.0122 75.1665L21.9726 59.3164L20.8535 61.1688Z" fill="url(#paint6_linear_578_7085)"/>
<path d="M77.9297 3.94924L95.2375 22.1897L96.0186 19.9759L80.1851 3.28906L77.9297 3.94924Z" fill="url(#paint7_linear_578_7085)"/>
<path d="M76.2089 30.169C78.296 28.1886 78.3695 24.8858 76.4033 22.7309C74.3537 20.6535 71.0523 20.5545 68.9652 22.535C66.8804 24.5131 66.8014 27.8197 68.7692 29.9746C70.8172 32.0519 74.1241 32.1472 76.2089 30.169Z" fill="url(#paint8_linear_578_7085)"/>
<defs>
<linearGradient id="paint0_linear_578_7085" x1="0.296875" y1="93.3372" x2="30.1615" y2="65.4973" gradientUnits="userSpaceOnUse">
<stop stop-color="#F67C01"/>
<stop offset="1" stop-color="#BB5E00"/>
</linearGradient>
<linearGradient id="paint1_linear_578_7085" x1="50.1421" y1="20.7669" x2="78.8391" y2="51.0105" gradientUnits="userSpaceOnUse">
<stop offset="0.213542" stop-color="#D2CECE"/>
<stop offset="1" stop-color="#393535"/>
</linearGradient>
<linearGradient id="paint2_linear_578_7085" x1="50.1421" y1="20.7669" x2="78.8391" y2="51.0105" gradientUnits="userSpaceOnUse">
<stop offset="0.213542" stop-color="#D2CECE"/>
<stop offset="1" stop-color="#393535"/>
</linearGradient>
<linearGradient id="paint3_linear_578_7085" x1="39.6268" y1="70.2566" x2="53.3775" y2="84.7483" gradientUnits="userSpaceOnUse">
<stop stop-color="#404040"/>
<stop offset="1"/>
</linearGradient>
<linearGradient id="paint4_linear_578_7085" x1="27.0718" y1="57.0251" x2="12.1254" y2="41.2732" gradientUnits="userSpaceOnUse">
<stop/>
<stop offset="1" stop-color="#7A7A7A"/>
</linearGradient>
<linearGradient id="paint5_linear_578_7085" x1="81.3861" y1="0.69782" x2="99.9196" y2="20.2301" gradientUnits="userSpaceOnUse">
<stop stop-color="#8C8B8B"/>
<stop offset="1"/>
</linearGradient>
<linearGradient id="paint6_linear_578_7085" x1="17.3125" y1="54.3116" x2="42.4224" y2="80.7747" gradientUnits="userSpaceOnUse">
<stop offset="0.1875" stop-color="white"/>
<stop offset="1" stop-color="#393535"/>
</linearGradient>
<linearGradient id="paint7_linear_578_7085" x1="75.8777" y1="-0.0612524" x2="100.988" y2="26.4019" gradientUnits="userSpaceOnUse">
<stop offset="0.135417" stop-color="white"/>
<stop offset="1" stop-color="#393535"/>
</linearGradient>
<linearGradient id="paint8_linear_578_7085" x1="76.3003" y1="30.6694" x2="68.5282" y2="22.4784" gradientUnits="userSpaceOnUse">
<stop offset="0.0885417" stop-color="#212121"/>
<stop offset="1" stop-color="#606060"/>
</linearGradient>
</defs>
</svg>
