<svg xmlns="http://www.w3.org/2000/svg" xmlns:xlink="http://www.w3.org/1999/xlink" width="41" zoomAndPan="magnify" viewBox="0 0 30.75 30.750001" height="41" preserveAspectRatio="xMidYMid meet" version="1.0"><defs><g/><clipPath id="40b6ac6cb6"><path d="M 0 0 L 30.503906 0 L 30.503906 30.503906 L 0 30.503906 Z M 0 0 " clip-rule="nonzero"/></clipPath></defs><g clip-path="url(#40b6ac6cb6)"><path fill="#ffffff" d="M 0 0 L 30.503906 0 L 30.503906 30.503906 L 0 30.503906 Z M 0 0 " fill-opacity="1" fill-rule="nonzero"/></g><path fill="#032a65" d="M 24.945312 24.945312 C 30.339844 19.546875 30.339844 10.796875 24.945312 5.398438 C 19.546875 0.00390625 10.796875 0.00390625 5.398438 5.398438 C 0.00390625 10.796875 0.00390625 19.546875 5.398438 24.945312 C 10.796875 30.339844 19.546875 30.339844 24.945312 24.945312 " fill-opacity="1" fill-rule="nonzero"/><path fill="#032a65" d="M 15.171875 1.378906 C 11.636719 1.378906 8.105469 2.722656 5.414062 5.414062 C 2.808594 8.019531 1.371094 11.484375 1.371094 15.171875 C 1.371094 18.859375 2.808594 22.324219 5.414062 24.929688 C 8.019531 27.535156 11.484375 28.972656 15.171875 28.972656 C 18.859375 28.972656 22.324219 27.535156 24.929688 24.929688 C 27.535156 22.324219 28.972656 18.859375 28.972656 15.171875 C 28.972656 11.484375 27.535156 8.019531 24.929688 5.414062 C 22.238281 2.722656 18.707031 1.378906 15.171875 1.378906 Z M 15.171875 29.011719 C 11.472656 29.011719 8 27.574219 5.382812 24.960938 C 2.769531 22.34375 1.332031 18.867188 1.332031 15.171875 C 1.332031 11.476562 2.769531 8 5.382812 5.386719 C 8 2.769531 11.472656 1.332031 15.171875 1.332031 C 18.867188 1.332031 22.34375 2.769531 24.957031 5.386719 C 27.574219 8 29.011719 11.476562 29.011719 15.171875 C 29.011719 18.867188 27.574219 22.34375 24.957031 24.960938 L 24.945312 24.945312 L 24.957031 24.960938 C 22.34375 27.574219 18.867188 29.011719 15.171875 29.011719 " fill-opacity="1" fill-rule="nonzero"/><path fill="#ffffff" d="M 24.214844 24.21875 C 29.308594 19.125 29.390625 10.945312 24.394531 5.949219 C 19.398438 0.953125 11.21875 1.035156 6.125 6.128906 C 1.03125 11.222656 0.953125 19.398438 5.949219 24.394531 C 10.945312 29.390625 19.121094 29.3125 24.214844 24.21875 " fill-opacity="1" fill-rule="nonzero"/><path fill="#000000" d="M 21.203125 21.207031 C 24.535156 17.875 24.535156 12.472656 21.203125 9.140625 C 17.871094 5.804688 12.46875 5.804688 9.136719 9.140625 C 5.804688 12.472656 5.804688 17.875 9.136719 21.207031 C 12.46875 24.539062 17.871094 24.539062 21.203125 21.207031 " fill-opacity="1" fill-rule="nonzero"/><path fill="#032a65" d="M 10.84375 22.023438 L 8.277344 19.460938 L 4.117188 22.78125 L 7.5625 26.226562 L 10.84375 22.023438 " fill-opacity="1" fill-rule="nonzero"/><path fill="#032a65" d="M 22.023438 10.84375 L 19.457031 8.277344 L 22.78125 4.117188 L 26.226562 7.5625 L 22.023438 10.84375 " fill-opacity="1" fill-rule="nonzero"/><path fill="#032a65" d="M 8.320312 10.84375 L 10.882812 8.277344 L 7.5625 4.117188 L 4.117188 7.5625 L 8.320312 10.84375 " fill-opacity="1" fill-rule="nonzero"/><path fill="#032a65" d="M 19.5 22.023438 L 22.066406 19.460938 L 26.226562 22.78125 L 22.78125 26.226562 L 19.5 22.023438 " fill-opacity="1" fill-rule="nonzero"/><path fill="#032a65" d="M 7.265625 16.957031 L 7.265625 13.328125 L 1.976562 12.734375 L 1.976562 17.609375 L 7.265625 16.957031 " fill-opacity="1" fill-rule="nonzero"/><path fill="#032a65" d="M 23.078125 16.957031 L 23.078125 13.328125 L 28.367188 12.734375 L 28.367188 17.609375 L 23.078125 16.957031 " fill-opacity="1" fill-rule="nonzero"/><path fill="#032a65" d="M 13.386719 7.265625 L 17.015625 7.265625 L 17.609375 1.976562 L 12.734375 1.976562 L 13.386719 7.265625 " fill-opacity="1" fill-rule="nonzero"/><path fill="#032a65" d="M 13.386719 23.078125 L 17.015625 23.078125 L 17.609375 28.367188 L 12.734375 28.367188 L 13.386719 23.078125 " fill-opacity="1" fill-rule="nonzero"/><path fill="#ffffff" d="M 21.828125 21.828125 C 25.503906 18.152344 25.503906 12.191406 21.828125 8.515625 C 18.152344 4.839844 12.191406 4.839844 8.515625 8.515625 C 4.839844 12.191406 4.839844 18.152344 8.515625 21.828125 C 12.191406 25.503906 18.152344 25.503906 21.828125 21.828125 " fill-opacity="1" fill-rule="nonzero"/><path fill="#032a65" d="M 15.171875 6.117188 C 12.851562 6.117188 10.53125 7 8.765625 8.765625 C 5.234375 12.296875 5.234375 18.046875 8.765625 21.578125 C 12.296875 25.109375 18.046875 25.109375 21.578125 21.578125 C 25.109375 18.046875 25.109375 12.296875 21.578125 8.765625 C 19.8125 7 17.492188 6.117188 15.171875 6.117188 Z M 15.171875 24.933594 C 12.671875 24.933594 10.167969 23.984375 8.265625 22.078125 C 4.457031 18.269531 4.457031 12.074219 8.265625 8.265625 C 12.074219 4.457031 18.269531 4.457031 22.078125 8.265625 C 25.886719 12.074219 25.886719 18.269531 22.078125 22.078125 C 20.175781 23.984375 17.671875 24.933594 15.171875 24.933594 " fill-opacity="1" fill-rule="nonzero"/><g fill="#032a65" fill-opacity="1"><g transform="translate(11.13675, 19.763234)"><g><path d="M 1.4375 -9.46875 C 1.75 -9.789062 2.140625 -10.03125 2.609375 -10.1875 C 3.078125 -10.34375 3.554688 -10.421875 4.046875 -10.421875 C 4.785156 -10.421875 5.398438 -10.28125 5.890625 -10 C 6.390625 -9.71875 6.753906 -9.351562 6.984375 -8.90625 C 7.222656 -8.46875 7.34375 -8.007812 7.34375 -7.53125 C 7.34375 -6.96875 7.226562 -6.453125 7 -5.984375 C 6.769531 -5.515625 6.476562 -5.085938 6.125 -4.703125 C 5.78125 -4.316406 5.316406 -3.859375 4.734375 -3.328125 C 4.328125 -2.953125 4.03125 -2.660156 3.84375 -2.453125 C 3.65625 -2.253906 3.5 -2.054688 3.375 -1.859375 L 7.34375 -1.859375 L 7.34375 0 L 0.359375 0 C 0.441406 -0.738281 0.6875 -1.425781 1.09375 -2.0625 C 1.507812 -2.695312 2.21875 -3.484375 3.21875 -4.421875 C 3.820312 -4.984375 4.257812 -5.410156 4.53125 -5.703125 C 4.8125 -6.003906 5.015625 -6.285156 5.140625 -6.546875 C 5.273438 -6.804688 5.34375 -7.085938 5.34375 -7.390625 C 5.34375 -7.828125 5.222656 -8.164062 4.984375 -8.40625 C 4.753906 -8.644531 4.425781 -8.765625 4 -8.765625 C 3.5625 -8.765625 3.222656 -8.632812 2.984375 -8.375 C 2.753906 -8.125 2.617188 -7.71875 2.578125 -7.15625 L 0.59375 -7.34375 C 0.707031 -8.289062 0.988281 -9 1.4375 -9.46875 Z M 1.4375 -9.46875 "/></g></g></g></svg>