<svg xmlns="http://www.w3.org/2000/svg" xmlns:xlink="http://www.w3.org/1999/xlink" width="41" zoomAndPan="magnify" viewBox="0 0 30.75 31.5" height="42" preserveAspectRatio="xMidYMid meet" version="1.0"><defs><g/><clipPath id="f5d63ef22a"><path d="M 0.117188 0 L 30.386719 0 L 30.386719 31.007812 L 0.117188 31.007812 Z M 0.117188 0 " clip-rule="nonzero"/></clipPath></defs><g clip-path="url(#f5d63ef22a)"><path fill="#ffffff" d="M 0.117188 0 L 30.386719 0 L 30.386719 31.007812 L 0.117188 31.007812 Z M 0.117188 0 " fill-opacity="1" fill-rule="nonzero"/></g><path fill="#032a65" d="M 24.871094 24.753906 C 30.226562 19.398438 30.226562 10.714844 24.871094 5.359375 C 19.515625 0.00390625 10.832031 0.00390625 5.476562 5.359375 C 0.117188 10.714844 0.117188 19.398438 5.476562 24.753906 C 10.832031 30.109375 19.515625 30.109375 24.871094 24.753906 " fill-opacity="1" fill-rule="nonzero"/><path fill="#032a65" d="M 15.171875 1.367188 C 11.667969 1.367188 8.160156 2.703125 5.488281 5.375 C 2.902344 7.960938 1.480469 11.398438 1.480469 15.054688 C 1.480469 18.714844 2.902344 22.152344 5.488281 24.738281 C 8.074219 27.328125 11.515625 28.75 15.171875 28.75 C 18.832031 28.75 22.269531 27.328125 24.855469 24.738281 C 27.441406 22.152344 28.867188 18.714844 28.867188 15.054688 C 28.867188 11.398438 27.441406 7.960938 24.855469 5.375 C 22.1875 2.703125 18.679688 1.367188 15.171875 1.367188 Z M 15.171875 28.792969 C 11.503906 28.792969 8.054688 27.363281 5.460938 24.769531 C 2.867188 22.175781 1.4375 18.726562 1.4375 15.054688 C 1.4375 11.386719 2.867188 7.9375 5.460938 5.34375 C 8.054688 2.75 11.503906 1.320312 15.171875 1.320312 C 18.84375 1.320312 22.292969 2.75 24.886719 5.34375 C 27.480469 7.9375 28.910156 11.386719 28.910156 15.054688 C 28.910156 18.726562 27.480469 22.175781 24.886719 24.769531 L 24.871094 24.753906 L 24.886719 24.769531 C 22.292969 27.363281 18.84375 28.792969 15.171875 28.792969 " fill-opacity="1" fill-rule="nonzero"/><path fill="#ffffff" d="M 24.148438 24.03125 C 29.203125 18.976562 29.285156 10.859375 24.324219 5.902344 C 19.367188 0.945312 11.253906 1.027344 6.195312 6.082031 C 1.140625 11.136719 1.0625 19.253906 6.019531 24.210938 C 10.976562 29.167969 19.09375 29.085938 24.148438 24.03125 " fill-opacity="1" fill-rule="nonzero"/><path fill="#000000" d="M 21.160156 21.042969 C 24.46875 17.738281 24.46875 12.375 21.160156 9.070312 C 17.855469 5.761719 12.492188 5.761719 9.1875 9.070312 C 5.878906 12.375 5.878906 17.738281 9.1875 21.042969 C 12.492188 24.351562 17.855469 24.351562 21.160156 21.042969 " fill-opacity="1" fill-rule="nonzero"/><path fill="#032a65" d="M 10.875 21.855469 L 8.332031 19.3125 L 4.203125 22.605469 L 7.625 26.027344 L 10.875 21.855469 " fill-opacity="1" fill-rule="nonzero"/><path fill="#032a65" d="M 21.972656 10.761719 L 19.429688 8.214844 L 22.722656 4.085938 L 26.144531 7.507812 L 21.972656 10.761719 " fill-opacity="1" fill-rule="nonzero"/><path fill="#032a65" d="M 8.375 10.761719 L 10.917969 8.214844 L 7.625 4.085938 L 4.203125 7.507812 L 8.375 10.761719 " fill-opacity="1" fill-rule="nonzero"/><path fill="#032a65" d="M 19.46875 21.855469 L 22.015625 19.3125 L 26.144531 22.605469 L 22.722656 26.027344 L 19.46875 21.855469 " fill-opacity="1" fill-rule="nonzero"/><path fill="#032a65" d="M 7.328125 16.824219 L 7.328125 13.226562 L 2.078125 12.636719 L 2.078125 17.476562 L 7.328125 16.824219 " fill-opacity="1" fill-rule="nonzero"/><path fill="#032a65" d="M 23.019531 16.824219 L 23.019531 13.226562 L 28.269531 12.636719 L 28.269531 17.476562 L 23.019531 16.824219 " fill-opacity="1" fill-rule="nonzero"/><path fill="#032a65" d="M 13.402344 7.210938 L 17 7.210938 L 17.589844 1.960938 L 12.753906 1.960938 L 13.402344 7.210938 " fill-opacity="1" fill-rule="nonzero"/><path fill="#032a65" d="M 13.402344 22.902344 L 17 22.902344 L 17.589844 28.152344 L 12.753906 28.152344 L 13.402344 22.902344 " fill-opacity="1" fill-rule="nonzero"/><path fill="#ffffff" d="M 21.777344 21.664062 C 25.425781 18.015625 25.425781 12.097656 21.777344 8.449219 C 18.128906 4.800781 12.214844 4.800781 8.566406 8.449219 C 4.917969 12.097656 4.917969 18.015625 8.566406 21.664062 C 12.214844 25.308594 18.128906 25.308594 21.777344 21.664062 " fill-opacity="1" fill-rule="nonzero"/><path fill="#032a65" d="M 15.171875 6.070312 C 12.871094 6.070312 10.570312 6.945312 8.816406 8.699219 C 5.3125 12.203125 5.3125 17.910156 8.816406 21.414062 C 12.320312 24.917969 18.023438 24.917969 21.53125 21.414062 C 25.035156 17.910156 25.035156 12.203125 21.53125 8.699219 C 19.777344 6.945312 17.476562 6.070312 15.171875 6.070312 Z M 15.171875 24.746094 C 12.691406 24.746094 10.207031 23.800781 8.320312 21.910156 C 4.539062 18.132812 4.539062 11.980469 8.320312 8.203125 C 12.097656 4.421875 18.25 4.421875 22.027344 8.203125 C 25.808594 11.980469 25.808594 18.132812 22.027344 21.910156 C 20.136719 23.800781 17.65625 24.746094 15.171875 24.746094 " fill-opacity="1" fill-rule="nonzero"/><g fill="#032a65" fill-opacity="1"><g transform="translate(11.169054, 20.108639)"><g><path d="M 5.671875 0 L 3.6875 0 L 3.6875 -7.4375 C 2.957031 -6.769531 2.109375 -6.269531 1.140625 -5.9375 L 1.140625 -7.734375 C 1.660156 -7.921875 2.21875 -8.238281 2.8125 -8.6875 C 3.414062 -9.144531 3.832031 -9.695312 4.0625 -10.34375 L 5.671875 -10.34375 Z M 5.671875 0 "/></g></g></g></svg>