<svg xmlns="http://www.w3.org/2000/svg" xmlns:xlink="http://www.w3.org/1999/xlink" width="41" zoomAndPan="magnify" viewBox="0 0 30.75 31.5" height="42" preserveAspectRatio="xMidYMid meet" version="1.0"><defs><g/><clipPath id="c584e43e55"><path d="M 0.117188 0 L 30.386719 0 L 30.386719 31.007812 L 0.117188 31.007812 Z M 0.117188 0 " clip-rule="nonzero"/></clipPath></defs><g clip-path="url(#c584e43e55)"><path fill="#ffffff" d="M 0.117188 0 L 30.386719 0 L 30.386719 31.007812 L 0.117188 31.007812 Z M 0.117188 0 " fill-opacity="1" fill-rule="nonzero"/></g><path fill="#032a65" d="M 24.871094 24.667969 C 30.226562 19.308594 30.226562 10.625 24.871094 5.269531 C 19.515625 -0.0859375 10.832031 -0.0859375 5.476562 5.269531 C 0.117188 10.625 0.117188 19.308594 5.476562 24.667969 C 10.832031 30.023438 19.515625 30.023438 24.871094 24.667969 " fill-opacity="1" fill-rule="nonzero"/><path fill="#032a65" d="M 15.171875 1.28125 C 11.667969 1.28125 8.160156 2.613281 5.488281 5.285156 C 2.902344 7.871094 1.480469 11.308594 1.480469 14.96875 C 1.480469 18.625 2.902344 22.066406 5.488281 24.652344 C 8.074219 27.238281 11.515625 28.664062 15.171875 28.664062 C 18.832031 28.664062 22.269531 27.238281 24.855469 24.652344 C 27.441406 22.066406 28.867188 18.625 28.867188 14.96875 C 28.867188 11.308594 27.441406 7.871094 24.855469 5.285156 C 22.1875 2.613281 18.679688 1.28125 15.171875 1.28125 Z M 15.171875 28.703125 C 11.503906 28.703125 8.054688 27.273438 5.460938 24.679688 C 2.867188 22.085938 1.4375 18.636719 1.4375 14.96875 C 1.4375 11.300781 2.867188 7.851562 5.460938 5.257812 C 8.054688 2.660156 11.503906 1.234375 15.171875 1.234375 C 18.84375 1.234375 22.292969 2.660156 24.886719 5.257812 C 27.480469 7.851562 28.910156 11.300781 28.910156 14.96875 C 28.910156 18.636719 27.480469 22.085938 24.886719 24.679688 L 24.871094 24.667969 L 24.886719 24.679688 C 22.292969 27.273438 18.84375 28.703125 15.171875 28.703125 " fill-opacity="1" fill-rule="nonzero"/><path fill="#ffffff" d="M 24.148438 23.945312 C 29.203125 18.890625 29.285156 10.773438 24.324219 5.816406 C 19.367188 0.859375 11.253906 0.9375 6.195312 5.992188 C 1.140625 11.046875 1.0625 19.164062 6.019531 24.121094 C 10.976562 29.078125 19.09375 29 24.148438 23.945312 " fill-opacity="1" fill-rule="nonzero"/><path fill="#000000" d="M 21.160156 20.957031 C 24.46875 17.648438 24.46875 12.289062 21.160156 8.980469 C 17.855469 5.675781 12.492188 5.675781 9.1875 8.980469 C 5.878906 12.289062 5.878906 17.648438 9.1875 20.957031 C 12.492188 24.261719 17.855469 24.261719 21.160156 20.957031 " fill-opacity="1" fill-rule="nonzero"/><path fill="#032a65" d="M 10.875 21.765625 L 8.332031 19.222656 L 4.203125 22.519531 L 7.625 25.9375 L 10.875 21.765625 " fill-opacity="1" fill-rule="nonzero"/><path fill="#032a65" d="M 21.972656 10.671875 L 19.429688 8.128906 L 22.722656 4 L 26.144531 7.417969 L 21.972656 10.671875 " fill-opacity="1" fill-rule="nonzero"/><path fill="#032a65" d="M 8.375 10.671875 L 10.917969 8.128906 L 7.625 4 L 4.203125 7.417969 L 8.375 10.671875 " fill-opacity="1" fill-rule="nonzero"/><path fill="#032a65" d="M 19.46875 21.765625 L 22.015625 19.222656 L 26.144531 22.519531 L 22.722656 25.9375 L 19.46875 21.765625 " fill-opacity="1" fill-rule="nonzero"/><path fill="#032a65" d="M 7.328125 16.738281 L 7.328125 13.140625 L 2.078125 12.550781 L 2.078125 17.386719 L 7.328125 16.738281 " fill-opacity="1" fill-rule="nonzero"/><path fill="#032a65" d="M 23.019531 16.738281 L 23.019531 13.140625 L 28.269531 12.550781 L 28.269531 17.386719 L 23.019531 16.738281 " fill-opacity="1" fill-rule="nonzero"/><path fill="#032a65" d="M 13.402344 7.121094 L 17 7.121094 L 17.589844 1.871094 L 12.753906 1.871094 L 13.402344 7.121094 " fill-opacity="1" fill-rule="nonzero"/><path fill="#032a65" d="M 13.402344 22.8125 L 17 22.8125 L 17.589844 28.0625 L 12.753906 28.0625 L 13.402344 22.8125 " fill-opacity="1" fill-rule="nonzero"/><path fill="#ffffff" d="M 21.777344 21.574219 C 25.425781 17.925781 25.425781 12.011719 21.777344 8.363281 C 18.128906 4.714844 12.214844 4.714844 8.566406 8.363281 C 4.917969 12.011719 4.917969 17.925781 8.566406 21.574219 C 12.214844 25.222656 18.128906 25.222656 21.777344 21.574219 " fill-opacity="1" fill-rule="nonzero"/><path fill="#032a65" d="M 15.171875 5.984375 C 12.871094 5.984375 10.570312 6.859375 8.816406 8.609375 C 5.3125 12.117188 5.3125 17.820312 8.816406 21.324219 C 12.320312 24.832031 18.023438 24.832031 21.53125 21.324219 C 25.035156 17.820312 25.035156 12.117188 21.53125 8.609375 C 19.777344 6.859375 17.476562 5.984375 15.171875 5.984375 Z M 15.171875 24.65625 C 12.691406 24.65625 10.207031 23.710938 8.320312 21.824219 C 4.539062 18.042969 4.539062 11.894531 8.320312 8.113281 C 12.097656 4.335938 18.25 4.335938 22.027344 8.113281 C 25.808594 11.894531 25.808594 18.042969 22.027344 21.824219 C 20.136719 23.710938 17.65625 24.65625 15.171875 24.65625 " fill-opacity="1" fill-rule="nonzero"/><g fill="#032a65" fill-opacity="1"><g transform="translate(11.169054, 19.625394)"><g><path d="M 3.875 -10.34375 C 4.5 -10.34375 5.039062 -10.210938 5.5 -9.953125 C 5.96875 -9.691406 6.320312 -9.351562 6.5625 -8.9375 C 6.800781 -8.53125 6.921875 -8.117188 6.921875 -7.703125 C 6.921875 -7.242188 6.789062 -6.832031 6.53125 -6.46875 C 6.28125 -6.101562 5.921875 -5.789062 5.453125 -5.53125 C 6.046875 -5.40625 6.515625 -5.125 6.859375 -4.6875 C 7.210938 -4.25 7.390625 -3.71875 7.390625 -3.09375 C 7.390625 -2.476562 7.234375 -1.921875 6.921875 -1.421875 C 6.617188 -0.921875 6.203125 -0.53125 5.671875 -0.25 C 5.148438 0.03125 4.570312 0.171875 3.9375 0.171875 C 3.28125 0.171875 2.707031 0.0390625 2.21875 -0.21875 C 1.726562 -0.488281 1.34375 -0.84375 1.0625 -1.28125 C 0.78125 -1.71875 0.609375 -2.203125 0.546875 -2.734375 L 2.453125 -2.96875 C 2.492188 -2.5625 2.632812 -2.207031 2.875 -1.90625 C 3.125 -1.613281 3.472656 -1.46875 3.921875 -1.46875 C 4.398438 -1.46875 4.757812 -1.640625 5 -1.984375 C 5.25 -2.335938 5.375 -2.738281 5.375 -3.1875 C 5.375 -3.613281 5.25 -3.988281 5 -4.3125 C 4.757812 -4.632812 4.425781 -4.796875 4 -4.796875 C 3.707031 -4.796875 3.40625 -4.742188 3.09375 -4.640625 L 3.3125 -6.25 L 3.359375 -6.25 C 3.878906 -6.257812 4.273438 -6.382812 4.546875 -6.625 C 4.816406 -6.863281 4.953125 -7.179688 4.953125 -7.578125 C 4.953125 -7.929688 4.847656 -8.207031 4.640625 -8.40625 C 4.429688 -8.601562 4.15625 -8.703125 3.8125 -8.703125 C 3.476562 -8.703125 3.191406 -8.585938 2.953125 -8.359375 C 2.722656 -8.140625 2.578125 -7.800781 2.515625 -7.34375 L 0.6875 -7.65625 C 0.875 -8.582031 1.242188 -9.257812 1.796875 -9.6875 C 2.347656 -10.125 3.039062 -10.34375 3.875 -10.34375 Z M 3.875 -10.34375 "/></g></g></g></svg>