<svg version="1.0" preserveAspectRatio="xMidYMid meet" viewBox="353.0625 2.00999996 49.227 47.435999056" zoomAndPan="magnify" xmlns:xlink="http://www.w3.org/1999/xlink" xmlns="http://www.w3.org/2000/svg" style="max-height: 500px" width="49.227" height="47.435999056"><defs><filter id="9c819713d8" height="100%" width="100%" y="0%" x="0%"><feColorMatrix color-interpolation-filters="sRGB" values="0 0 0 0 1 0 0 0 0 1 0 0 0 0 1 0 0 0 1 0"/></filter><g/><clipPath id="eac68c49a4"><path clip-rule="nonzero" d="M 2.71875 0 L 400.285156 0 L 400.285156 49.511719 L 2.71875 49.511719 Z M 2.71875 0"/></clipPath><clipPath id="bc6f7e9c20"><path clip-rule="nonzero" d="M 6 15 L 164 15 L 164 49.511719 L 6 49.511719 Z M 6 15"/></clipPath><mask id="fc8471fc5d"><g filter="url(#9c819713d8)"><rect fill-opacity="0.2" height="60.299998" y="-5.025" fill="#000000" width="484.2" x="-40.35"/></g></mask><clipPath id="645a9b576a"><path clip-rule="nonzero" d="M 0.15625 0.140625 L 157.183594 0.140625 L 157.183594 34.234375 L 0.15625 34.234375 Z M 0.15625 0.140625"/></clipPath><clipPath id="e94446453c"><path clip-rule="nonzero" d="M 17.203125 0.140625 L 140.050781 0.140625 C 144.574219 0.140625 148.910156 1.9375 152.105469 5.132812 C 155.304688 8.332031 157.101562 12.667969 157.101562 17.1875 C 157.101562 21.710938 155.304688 26.046875 152.105469 29.242188 C 148.910156 32.441406 144.574219 34.234375 140.050781 34.234375 L 17.203125 34.234375 C 12.683594 34.234375 8.34375 32.441406 5.148438 29.242188 C 1.953125 26.046875 0.15625 21.710938 0.15625 17.1875 C 0.15625 12.667969 1.953125 8.332031 5.148438 5.132812 C 8.34375 1.9375 12.683594 0.140625 17.203125 0.140625 Z M 17.203125 0.140625"/></clipPath><clipPath id="1c32f38b59"><rect height="35" y="0" width="158" x="0"/></clipPath><clipPath id="52e391c157"><path clip-rule="nonzero" d="M 354.324219 3.433594 L 400.140625 3.433594 L 400.140625 49.25 L 354.324219 49.25 Z M 354.324219 3.433594"/></clipPath><clipPath id="1d5f9ec3c2"><path clip-rule="nonzero" d="M 180 15 L 338 15 L 338 49.511719 L 180 49.511719 Z M 180 15"/></clipPath><mask id="4914025f15"><g filter="url(#9c819713d8)"><rect fill-opacity="0.2" height="60.299998" y="-5.025" fill="#000000" width="484.2" x="-40.35"/></g></mask><clipPath id="3151ec4864"><path clip-rule="nonzero" d="M 0.382812 0.140625 L 157.410156 0.140625 L 157.410156 34.234375 L 0.382812 34.234375 Z M 0.382812 0.140625"/></clipPath><clipPath id="960f9ff183"><path clip-rule="nonzero" d="M 17.433594 0.140625 L 140.28125 0.140625 C 144.804688 0.140625 149.140625 1.9375 152.335938 5.132812 C 155.535156 8.332031 157.328125 12.667969 157.328125 17.1875 C 157.328125 21.710938 155.535156 26.046875 152.335938 29.242188 C 149.140625 32.441406 144.804688 34.234375 140.28125 34.234375 L 17.433594 34.234375 C 12.910156 34.234375 8.574219 32.441406 5.378906 29.242188 C 2.179688 26.046875 0.382812 21.710938 0.382812 17.1875 C 0.382812 12.667969 2.179688 8.332031 5.378906 5.132812 C 8.574219 1.9375 12.910156 0.140625 17.433594 0.140625 Z M 17.433594 0.140625"/></clipPath><clipPath id="59121bcc6e"><rect height="35" y="0" width="158" x="0"/></clipPath></defs><g clip-path="url(#eac68c49a4)"><path fill-rule="nonzero" fill-opacity="1" d="M 2.71875 0 L 400.285156 0 L 400.285156 49.511719 L 2.71875 49.511719 Z M 2.71875 0" fill="#ffffff"/></g><g fill-opacity="1" fill="#526480"><g transform="translate(6.917384, 11.255201)"><g><path d="M 6.328125 -6.234375 L 2.265625 -6.234375 L 2.265625 -4.5625 L 6.046875 -4.5625 L 6.046875 -3.296875 L 2.265625 -3.296875 L 2.265625 -1.265625 L 6.453125 -1.265625 L 6.453125 0 L 0.765625 0 L 0.765625 -7.5 L 6.328125 -7.5 Z M 6.328125 -6.234375"/></g></g></g><g fill-opacity="1" fill="#526480"><g transform="translate(13.894948, 11.255201)"><g><path d="M 3.65625 -5.546875 C 4.363281 -5.546875 4.878906 -5.257812 5.203125 -4.6875 C 5.671875 -5.257812 6.222656 -5.546875 6.859375 -5.546875 C 7.453125 -5.546875 7.894531 -5.378906 8.1875 -5.046875 C 8.488281 -4.722656 8.640625 -4.234375 8.640625 -3.578125 L 8.640625 0 L 7.203125 0 L 7.203125 -3.25 C 7.203125 -3.632812 7.148438 -3.929688 7.046875 -4.140625 C 6.953125 -4.347656 6.75 -4.453125 6.4375 -4.453125 C 6.144531 -4.453125 5.910156 -4.347656 5.734375 -4.140625 C 5.554688 -3.941406 5.445312 -3.679688 5.40625 -3.359375 C 5.375 -3.109375 5.359375 -2.882812 5.359375 -2.6875 L 5.359375 0 L 3.921875 0 L 3.921875 -3.1875 C 3.921875 -3.632812 3.875 -3.957031 3.78125 -4.15625 C 3.6875 -4.351562 3.488281 -4.453125 3.1875 -4.453125 C 2.957031 -4.453125 2.753906 -4.390625 2.578125 -4.265625 C 2.398438 -4.148438 2.273438 -3.988281 2.203125 -3.78125 C 2.117188 -3.53125 2.078125 -3.175781 2.078125 -2.71875 L 2.078125 0 L 0.65625 0 L 0.65625 -5.421875 L 1.984375 -5.421875 L 2 -4.6875 C 2.21875 -4.957031 2.453125 -5.164062 2.703125 -5.3125 C 2.953125 -5.46875 3.269531 -5.546875 3.65625 -5.546875 Z M 3.65625 -5.546875"/></g></g></g><g fill-opacity="1" fill="#526480"><g transform="translate(23.194886, 11.255201)"><g><path d="M 2.875 -5.546875 C 3.5625 -5.546875 4.070312 -5.457031 4.40625 -5.28125 C 4.738281 -5.101562 4.945312 -4.867188 5.03125 -4.578125 C 5.125 -4.285156 5.164062 -3.90625 5.15625 -3.4375 L 5.15625 -1.859375 C 5.144531 -1.359375 5.160156 -0.992188 5.203125 -0.765625 C 5.242188 -0.546875 5.332031 -0.289062 5.46875 0 L 4.046875 0 C 4.015625 -0.0703125 3.953125 -0.269531 3.859375 -0.59375 C 3.597656 -0.34375 3.332031 -0.160156 3.0625 -0.046875 C 2.789062 0.0664062 2.492188 0.125 2.171875 0.125 C 1.640625 0.125 1.207031 -0.0195312 0.875 -0.3125 C 0.539062 -0.613281 0.375 -1 0.375 -1.46875 C 0.375 -1.875 0.472656 -2.191406 0.671875 -2.421875 C 0.867188 -2.660156 1.109375 -2.832031 1.390625 -2.9375 C 1.679688 -3.039062 2.023438 -3.128906 2.421875 -3.203125 C 3.015625 -3.316406 3.457031 -3.425781 3.75 -3.53125 L 3.75 -3.765625 C 3.75 -4.003906 3.675781 -4.175781 3.53125 -4.28125 C 3.394531 -4.394531 3.144531 -4.453125 2.78125 -4.453125 C 2.488281 -4.453125 2.269531 -4.394531 2.125 -4.28125 C 1.988281 -4.164062 1.890625 -3.992188 1.828125 -3.765625 L 0.515625 -4.015625 C 0.660156 -4.546875 0.914062 -4.929688 1.28125 -5.171875 C 1.644531 -5.421875 2.175781 -5.546875 2.875 -5.546875 Z M 2.84375 -2.375 L 2.609375 -2.328125 C 2.078125 -2.210938 1.8125 -1.984375 1.8125 -1.640625 C 1.8125 -1.421875 1.882812 -1.238281 2.03125 -1.09375 C 2.1875 -0.957031 2.378906 -0.890625 2.609375 -0.890625 C 2.796875 -0.890625 2.984375 -0.9375 3.171875 -1.03125 C 3.359375 -1.132812 3.503906 -1.265625 3.609375 -1.421875 C 3.703125 -1.566406 3.75 -1.816406 3.75 -2.171875 L 3.75 -2.609375 C 3.476562 -2.523438 3.175781 -2.445312 2.84375 -2.375 Z M 2.84375 -2.375"/></g></g></g><g fill-opacity="1" fill="#526480"><g transform="translate(29.011268, 11.255201)"><g><path d="M 2.1875 -6.171875 L 0.75 -6.171875 L 0.75 -7.5 L 2.1875 -7.5 Z M 2.1875 0 L 0.75 0 L 0.75 -5.421875 L 2.1875 -5.421875 Z M 2.1875 0"/></g></g></g><g fill-opacity="1" fill="#526480"><g transform="translate(31.919465, 11.255201)"><g><path d="M 2.1875 0 L 0.75 0 L 0.75 -7.5 L 2.1875 -7.5 Z M 2.1875 0"/></g></g></g><g clip-path="url(#bc6f7e9c20)"><g mask="url(#fc8471fc5d)"><g transform="matrix(1, 0, 0, 1, 6, 15)"><g clip-path="url(#1c32f38b59)"><g clip-path="url(#645a9b576a)"><g clip-path="url(#e94446453c)"><path fill-rule="nonzero" fill-opacity="1" d="M 0.15625 0.140625 L 157.050781 0.140625 L 157.050781 34.234375 L 0.15625 34.234375 Z M 0.15625 0.140625" fill="#032a65"/></g></g></g></g></g></g><g fill-opacity="1" fill="#737373"><g transform="translate(21.743094, 35.73431)"><g><path d="M 1.328125 -5.671875 L 2.28125 -5.671875 L 0.890625 0.828125 C 0.859375 0.953125 0.8125 1.09375 0.75 1.25 C 0.695312 1.414062 0.609375 1.578125 0.484375 1.734375 C 0.367188 1.890625 0.203125 2.019531 -0.015625 2.125 C -0.234375 2.226562 -0.519531 2.28125 -0.875 2.28125 C -0.988281 2.28125 -1.117188 2.269531 -1.265625 2.25 L -1.09375 1.421875 L -0.90625 1.421875 C -0.707031 1.421875 -0.554688 1.40625 -0.453125 1.375 C -0.347656 1.34375 -0.265625 1.28125 -0.203125 1.1875 C -0.140625 1.09375 -0.0859375 0.9375 -0.046875 0.71875 Z M 2.484375 -6.703125 L 1.53125 -6.703125 L 1.765625 -7.796875 L 2.71875 -7.796875 Z M 2.484375 -6.703125"/></g></g></g><g fill-opacity="1" fill="#737373"><g transform="translate(24.092225, 35.73431)"><g><path d="M 5.09375 -4.0625 L 4.171875 -4.0625 C 4.191406 -4.101562 4.203125 -4.144531 4.203125 -4.1875 C 4.203125 -4.238281 4.203125 -4.273438 4.203125 -4.296875 C 4.203125 -4.410156 4.171875 -4.519531 4.109375 -4.625 C 4.054688 -4.726562 3.941406 -4.816406 3.765625 -4.890625 C 3.597656 -4.972656 3.351562 -5.015625 3.03125 -5.015625 C 2.96875 -5.015625 2.863281 -5 2.71875 -4.96875 C 2.570312 -4.945312 2.421875 -4.90625 2.265625 -4.84375 C 2.117188 -4.78125 1.988281 -4.6875 1.875 -4.5625 C 1.769531 -4.4375 1.71875 -4.269531 1.71875 -4.0625 C 1.71875 -3.957031 1.75 -3.867188 1.8125 -3.796875 C 1.875 -3.722656 2.003906 -3.648438 2.203125 -3.578125 C 2.398438 -3.515625 2.6875 -3.429688 3.0625 -3.328125 C 3.738281 -3.160156 4.203125 -2.976562 4.453125 -2.78125 C 4.703125 -2.582031 4.828125 -2.335938 4.828125 -2.046875 C 4.828125 -1.703125 4.75 -1.394531 4.59375 -1.125 C 4.445312 -0.851562 4.242188 -0.617188 3.984375 -0.421875 C 3.734375 -0.234375 3.445312 -0.09375 3.125 0 C 2.8125 0.101562 2.484375 0.15625 2.140625 0.15625 C 1.703125 0.15625 1.347656 0.113281 1.078125 0.03125 C 0.804688 -0.0507812 0.597656 -0.164062 0.453125 -0.3125 C 0.304688 -0.457031 0.207031 -0.613281 0.15625 -0.78125 C 0.101562 -0.957031 0.078125 -1.128906 0.078125 -1.296875 C 0.078125 -1.359375 0.0820312 -1.445312 0.09375 -1.5625 C 0.113281 -1.6875 0.125 -1.773438 0.125 -1.828125 L 1.046875 -1.828125 C 1.023438 -1.742188 1.015625 -1.644531 1.015625 -1.53125 C 1.015625 -1.394531 1.046875 -1.257812 1.109375 -1.125 C 1.179688 -1 1.304688 -0.890625 1.484375 -0.796875 C 1.671875 -0.710938 1.945312 -0.671875 2.3125 -0.671875 C 2.550781 -0.671875 2.785156 -0.707031 3.015625 -0.78125 C 3.242188 -0.851562 3.4375 -0.96875 3.59375 -1.125 C 3.75 -1.28125 3.828125 -1.484375 3.828125 -1.734375 C 3.828125 -1.816406 3.789062 -1.898438 3.71875 -1.984375 C 3.644531 -2.078125 3.5 -2.164062 3.28125 -2.25 C 3.070312 -2.34375 2.742188 -2.429688 2.296875 -2.515625 C 1.796875 -2.617188 1.410156 -2.757812 1.140625 -2.9375 C 0.867188 -3.113281 0.734375 -3.367188 0.734375 -3.703125 C 0.734375 -4.054688 0.8125 -4.367188 0.96875 -4.640625 C 1.132812 -4.910156 1.34375 -5.132812 1.59375 -5.3125 C 1.851562 -5.488281 2.132812 -5.617188 2.4375 -5.703125 C 2.738281 -5.796875 3.03125 -5.84375 3.3125 -5.84375 C 3.707031 -5.84375 4.023438 -5.789062 4.265625 -5.6875 C 4.503906 -5.59375 4.6875 -5.46875 4.8125 -5.3125 C 4.9375 -5.164062 5.019531 -5.007812 5.0625 -4.84375 C 5.101562 -4.675781 5.125 -4.523438 5.125 -4.390625 C 5.125 -4.335938 5.125 -4.28125 5.125 -4.21875 C 5.125 -4.15625 5.113281 -4.101562 5.09375 -4.0625 Z M 5.09375 -4.0625"/></g></g></g><g fill-opacity="1" fill="#737373"><g transform="translate(29.509174, 35.73431)"><g><path d="M 1.28125 -5.671875 L 2.171875 -5.671875 L 2 -4.875 L 2.03125 -4.875 C 2.125 -4.976562 2.253906 -5.101562 2.421875 -5.25 C 2.585938 -5.40625 2.800781 -5.539062 3.0625 -5.65625 C 3.320312 -5.78125 3.617188 -5.84375 3.953125 -5.84375 C 4.285156 -5.84375 4.539062 -5.785156 4.71875 -5.671875 C 4.894531 -5.554688 5.019531 -5.425781 5.09375 -5.28125 C 5.175781 -5.132812 5.234375 -5.015625 5.265625 -4.921875 C 5.460938 -5.097656 5.648438 -5.253906 5.828125 -5.390625 C 6.015625 -5.523438 6.210938 -5.632812 6.421875 -5.71875 C 6.640625 -5.800781 6.894531 -5.84375 7.1875 -5.84375 C 7.320312 -5.84375 7.472656 -5.820312 7.640625 -5.78125 C 7.804688 -5.738281 7.96875 -5.664062 8.125 -5.5625 C 8.28125 -5.457031 8.40625 -5.304688 8.5 -5.109375 C 8.601562 -4.910156 8.65625 -4.664062 8.65625 -4.375 C 8.65625 -4.300781 8.648438 -4.210938 8.640625 -4.109375 C 8.640625 -4.003906 8.632812 -3.941406 8.625 -3.921875 L 7.703125 0 L 6.75 0 L 7.53125 -3.671875 C 7.570312 -3.859375 7.59375 -4.023438 7.59375 -4.171875 C 7.59375 -4.421875 7.53125 -4.617188 7.40625 -4.765625 C 7.28125 -4.910156 7.0625 -4.984375 6.75 -4.984375 C 6.488281 -4.984375 6.242188 -4.910156 6.015625 -4.765625 C 5.785156 -4.617188 5.59375 -4.425781 5.4375 -4.1875 C 5.28125 -3.957031 5.171875 -3.71875 5.109375 -3.46875 L 4.375 0 L 3.40625 0 L 4.25 -3.921875 C 4.269531 -4.035156 4.28125 -4.144531 4.28125 -4.25 C 4.28125 -4.4375 4.226562 -4.601562 4.125 -4.75 C 4.03125 -4.90625 3.847656 -4.984375 3.578125 -4.984375 C 3.441406 -4.984375 3.28125 -4.957031 3.09375 -4.90625 C 2.914062 -4.851562 2.734375 -4.757812 2.546875 -4.625 C 2.367188 -4.488281 2.203125 -4.296875 2.046875 -4.046875 C 1.890625 -3.804688 1.773438 -3.492188 1.703125 -3.109375 L 1.046875 0 L 0.078125 0 Z M 1.28125 -5.671875"/></g></g></g><g fill-opacity="1" fill="#737373"><g transform="translate(38.530273, 35.73431)"><g><path d="M 2.25 -5.671875 L 1.046875 0 L 0.09375 0 L 1.296875 -5.671875 Z M 2.484375 -6.703125 L 1.53125 -6.703125 L 1.75 -7.796875 L 2.703125 -7.796875 Z M 2.484375 -6.703125"/></g></g></g><g fill-opacity="1" fill="#737373"><g transform="translate(40.879404, 35.73431)"><g><path d="M 1.78125 -7.25 L 2.734375 -7.25 L 2.390625 -5.671875 L 3.3125 -5.671875 L 3.140625 -4.875 L 2.234375 -4.875 C 2.179688 -4.625 2.117188 -4.335938 2.046875 -4.015625 C 1.984375 -3.703125 1.914062 -3.378906 1.84375 -3.046875 C 1.769531 -2.722656 1.703125 -2.414062 1.640625 -2.125 C 1.585938 -1.84375 1.539062 -1.609375 1.5 -1.421875 C 1.457031 -1.234375 1.4375 -1.117188 1.4375 -1.078125 C 1.4375 -0.921875 1.492188 -0.820312 1.609375 -0.78125 C 1.722656 -0.75 1.828125 -0.734375 1.921875 -0.734375 L 2.25 -0.734375 L 2.09375 0 C 1.945312 0.03125 1.800781 0.0507812 1.65625 0.0625 C 1.519531 0.0703125 1.425781 0.078125 1.375 0.078125 C 1.019531 0.078125 0.769531 0.0078125 0.625 -0.125 C 0.488281 -0.269531 0.421875 -0.453125 0.421875 -0.671875 C 0.421875 -0.742188 0.425781 -0.816406 0.4375 -0.890625 C 0.457031 -0.972656 0.472656 -1.054688 0.484375 -1.140625 L 1.28125 -4.875 L 0.515625 -4.875 L 0.671875 -5.671875 L 1.4375 -5.671875 Z M 1.78125 -7.25"/></g></g></g><g fill-opacity="1" fill="#737373"><g transform="translate(43.893582, 35.73431)"><g><path d="M 2.6875 -7.796875 L 2.078125 -4.921875 L 2.109375 -4.921875 C 2.222656 -5.035156 2.363281 -5.164062 2.53125 -5.3125 C 2.707031 -5.457031 2.910156 -5.582031 3.140625 -5.6875 C 3.378906 -5.789062 3.648438 -5.84375 3.953125 -5.84375 C 4.210938 -5.84375 4.46875 -5.800781 4.71875 -5.71875 C 4.96875 -5.644531 5.171875 -5.507812 5.328125 -5.3125 C 5.492188 -5.113281 5.578125 -4.828125 5.578125 -4.453125 C 5.578125 -4.273438 5.554688 -4.078125 5.515625 -3.859375 L 4.703125 0 L 3.75 0 L 4.53125 -3.71875 C 4.570312 -3.90625 4.59375 -4.078125 4.59375 -4.234375 C 4.59375 -4.460938 4.523438 -4.644531 4.390625 -4.78125 C 4.253906 -4.914062 4.015625 -4.984375 3.671875 -4.984375 C 3.410156 -4.984375 3.144531 -4.925781 2.875 -4.8125 C 2.613281 -4.695312 2.378906 -4.5 2.171875 -4.21875 C 1.960938 -3.945312 1.804688 -3.570312 1.703125 -3.09375 L 1.046875 0 L 0.078125 0 L 1.734375 -7.796875 Z M 2.6875 -7.796875"/></g></g></g><g fill-opacity="1" fill="#737373"><g transform="translate(49.900492, 35.73431)"><g><path d="M 6.046875 -5.421875 C 5.796875 -5.421875 5.546875 -5.335938 5.296875 -5.171875 C 5.046875 -5.015625 4.816406 -4.8125 4.609375 -4.5625 C 4.398438 -4.320312 4.234375 -4.0625 4.109375 -3.78125 C 3.992188 -3.507812 3.9375 -3.253906 3.9375 -3.015625 C 3.9375 -2.785156 4 -2.597656 4.125 -2.453125 C 4.25 -2.316406 4.425781 -2.25 4.65625 -2.25 C 4.90625 -2.25 5.148438 -2.332031 5.390625 -2.5 C 5.640625 -2.664062 5.863281 -2.875 6.0625 -3.125 C 6.269531 -3.375 6.4375 -3.632812 6.5625 -3.90625 C 6.6875 -4.1875 6.75 -4.429688 6.75 -4.640625 C 6.75 -4.859375 6.679688 -5.039062 6.546875 -5.1875 C 6.421875 -5.34375 6.253906 -5.421875 6.046875 -5.421875 Z M 7.265625 -5.359375 L 7.625 -6.03125 L 8.359375 -6.03125 C 8.179688 -5.65625 7.988281 -5.265625 7.78125 -4.859375 C 7.582031 -4.460938 7.390625 -4.09375 7.203125 -3.75 C 7.023438 -3.40625 6.878906 -3.109375 6.765625 -2.859375 C 6.660156 -2.609375 6.609375 -2.445312 6.609375 -2.375 C 6.609375 -2.34375 6.617188 -2.300781 6.640625 -2.25 C 6.660156 -2.195312 6.71875 -2.171875 6.8125 -2.171875 C 7.03125 -2.171875 7.257812 -2.257812 7.5 -2.4375 C 7.75 -2.613281 7.976562 -2.847656 8.1875 -3.140625 C 8.40625 -3.429688 8.578125 -3.75 8.703125 -4.09375 C 8.835938 -4.4375 8.90625 -4.785156 8.90625 -5.140625 C 8.90625 -5.597656 8.796875 -5.988281 8.578125 -6.3125 C 8.359375 -6.632812 8.0625 -6.882812 7.6875 -7.0625 C 7.3125 -7.238281 6.882812 -7.328125 6.40625 -7.328125 C 5.875 -7.328125 5.359375 -7.210938 4.859375 -6.984375 C 4.367188 -6.753906 3.929688 -6.441406 3.546875 -6.046875 C 3.160156 -5.648438 2.851562 -5.195312 2.625 -4.6875 C 2.394531 -4.1875 2.28125 -3.660156 2.28125 -3.109375 C 2.28125 -2.597656 2.394531 -2.144531 2.625 -1.75 C 2.851562 -1.351562 3.171875 -1.039062 3.578125 -0.8125 C 3.992188 -0.582031 4.476562 -0.46875 5.03125 -0.46875 C 5.53125 -0.46875 6.039062 -0.578125 6.5625 -0.796875 C 7.082031 -1.023438 7.539062 -1.328125 7.9375 -1.703125 L 8.65625 -1.703125 C 8.332031 -1.304688 7.960938 -0.960938 7.546875 -0.671875 C 7.140625 -0.390625 6.707031 -0.171875 6.25 -0.015625 C 5.789062 0.128906 5.328125 0.203125 4.859375 0.203125 C 4.191406 0.203125 3.601562 0.0625 3.09375 -0.21875 C 2.59375 -0.5 2.195312 -0.882812 1.90625 -1.375 C 1.625 -1.863281 1.484375 -2.421875 1.484375 -3.046875 C 1.484375 -3.578125 1.578125 -4.082031 1.765625 -4.5625 C 1.960938 -5.050781 2.222656 -5.503906 2.546875 -5.921875 C 2.878906 -6.335938 3.257812 -6.703125 3.6875 -7.015625 C 4.125 -7.328125 4.582031 -7.566406 5.0625 -7.734375 C 5.550781 -7.910156 6.046875 -8 6.546875 -8 C 7.140625 -8 7.664062 -7.882812 8.125 -7.65625 C 8.59375 -7.4375 8.960938 -7.117188 9.234375 -6.703125 C 9.503906 -6.296875 9.640625 -5.828125 9.640625 -5.296875 C 9.640625 -4.835938 9.554688 -4.410156 9.390625 -4.015625 C 9.234375 -3.617188 9.023438 -3.265625 8.765625 -2.953125 C 8.515625 -2.640625 8.238281 -2.375 7.9375 -2.15625 C 7.632812 -1.9375 7.335938 -1.769531 7.046875 -1.65625 C 6.753906 -1.539062 6.503906 -1.484375 6.296875 -1.484375 C 6.140625 -1.484375 6.007812 -1.523438 5.90625 -1.609375 C 5.800781 -1.691406 5.75 -1.816406 5.75 -1.984375 C 5.75 -2.015625 5.75 -2.039062 5.75 -2.0625 C 5.75 -2.09375 5.753906 -2.125 5.765625 -2.15625 L 5.734375 -2.140625 C 5.535156 -1.984375 5.304688 -1.832031 5.046875 -1.6875 C 4.796875 -1.550781 4.539062 -1.484375 4.28125 -1.484375 C 3.882812 -1.484375 3.570312 -1.609375 3.34375 -1.859375 C 3.125 -2.117188 3.015625 -2.4375 3.015625 -2.8125 C 3.015625 -3.050781 3.0625 -3.316406 3.15625 -3.609375 C 3.257812 -3.910156 3.40625 -4.210938 3.59375 -4.515625 C 3.789062 -4.816406 4.019531 -5.09375 4.28125 -5.34375 C 4.539062 -5.601562 4.832031 -5.8125 5.15625 -5.96875 C 5.476562 -6.125 5.828125 -6.203125 6.203125 -6.203125 C 6.472656 -6.203125 6.695312 -6.132812 6.875 -6 C 7.0625 -5.875 7.191406 -5.660156 7.265625 -5.359375 Z M 7.265625 -5.359375"/></g></g></g><g fill-opacity="1" fill="#737373"><g transform="translate(60.895283, 35.73431)"><g><path d="M 3.375 -4.984375 C 3.03125 -4.984375 2.738281 -4.910156 2.5 -4.765625 C 2.257812 -4.628906 2.054688 -4.445312 1.890625 -4.21875 C 1.734375 -4 1.609375 -3.753906 1.515625 -3.484375 C 1.429688 -3.222656 1.367188 -2.96875 1.328125 -2.71875 C 1.296875 -2.46875 1.28125 -2.25 1.28125 -2.0625 C 1.28125 -1.644531 1.367188 -1.304688 1.546875 -1.046875 C 1.734375 -0.796875 2.023438 -0.671875 2.421875 -0.671875 C 2.734375 -0.671875 3.046875 -0.78125 3.359375 -1 C 3.679688 -1.21875 3.945312 -1.550781 4.15625 -2 C 4.363281 -2.445312 4.46875 -3.015625 4.46875 -3.703125 C 4.46875 -3.929688 4.4375 -4.140625 4.375 -4.328125 C 4.320312 -4.523438 4.210938 -4.679688 4.046875 -4.796875 C 3.890625 -4.921875 3.664062 -4.984375 3.375 -4.984375 Z M 5.0625 -5.671875 L 5.953125 -5.671875 L 4.84375 -0.46875 C 4.800781 -0.300781 4.742188 -0.0976562 4.671875 0.140625 C 4.609375 0.378906 4.507812 0.628906 4.375 0.890625 C 4.238281 1.148438 4.050781 1.390625 3.8125 1.609375 C 3.582031 1.835938 3.285156 2.023438 2.921875 2.171875 C 2.566406 2.316406 2.125 2.390625 1.59375 2.390625 C 1.4375 2.390625 1.253906 2.367188 1.046875 2.328125 C 0.835938 2.296875 0.632812 2.226562 0.4375 2.125 C 0.25 2.03125 0.09375 1.882812 -0.03125 1.6875 C -0.15625 1.5 -0.21875 1.238281 -0.21875 0.90625 L -0.21875 0.6875 L 0.75 0.6875 C 0.75 0.894531 0.789062 1.054688 0.875 1.171875 C 0.96875 1.296875 1.078125 1.382812 1.203125 1.4375 C 1.328125 1.5 1.445312 1.539062 1.5625 1.5625 C 1.6875 1.582031 1.773438 1.59375 1.828125 1.59375 C 2.222656 1.59375 2.546875 1.523438 2.796875 1.390625 C 3.046875 1.253906 3.242188 1.070312 3.390625 0.84375 C 3.535156 0.625 3.648438 0.382812 3.734375 0.125 C 3.816406 -0.132812 3.878906 -0.390625 3.921875 -0.640625 C 3.742188 -0.421875 3.507812 -0.234375 3.21875 -0.078125 C 2.9375 0.078125 2.601562 0.15625 2.21875 0.15625 C 1.726562 0.15625 1.34375 0.0507812 1.0625 -0.15625 C 0.789062 -0.363281 0.597656 -0.628906 0.484375 -0.953125 C 0.367188 -1.285156 0.3125 -1.632812 0.3125 -2 C 0.3125 -2.507812 0.382812 -2.988281 0.53125 -3.4375 C 0.675781 -3.894531 0.882812 -4.304688 1.15625 -4.671875 C 1.425781 -5.035156 1.75 -5.320312 2.125 -5.53125 C 2.5 -5.738281 2.914062 -5.84375 3.375 -5.84375 C 3.707031 -5.84375 3.972656 -5.789062 4.171875 -5.6875 C 4.367188 -5.582031 4.519531 -5.457031 4.625 -5.3125 C 4.738281 -5.164062 4.828125 -5.019531 4.890625 -4.875 Z M 5.0625 -5.671875"/></g></g></g><g fill-opacity="1" fill="#737373"><g transform="translate(66.934374, 35.73431)"><g><path d="M 1.28125 -5.671875 L 2.171875 -5.671875 L 2 -4.875 L 2.03125 -4.875 C 2.125 -4.976562 2.253906 -5.101562 2.421875 -5.25 C 2.585938 -5.40625 2.800781 -5.539062 3.0625 -5.65625 C 3.320312 -5.78125 3.617188 -5.84375 3.953125 -5.84375 C 4.285156 -5.84375 4.539062 -5.785156 4.71875 -5.671875 C 4.894531 -5.554688 5.019531 -5.425781 5.09375 -5.28125 C 5.175781 -5.132812 5.234375 -5.015625 5.265625 -4.921875 C 5.460938 -5.097656 5.648438 -5.253906 5.828125 -5.390625 C 6.015625 -5.523438 6.210938 -5.632812 6.421875 -5.71875 C 6.640625 -5.800781 6.894531 -5.84375 7.1875 -5.84375 C 7.320312 -5.84375 7.472656 -5.820312 7.640625 -5.78125 C 7.804688 -5.738281 7.96875 -5.664062 8.125 -5.5625 C 8.28125 -5.457031 8.40625 -5.304688 8.5 -5.109375 C 8.601562 -4.910156 8.65625 -4.664062 8.65625 -4.375 C 8.65625 -4.300781 8.648438 -4.210938 8.640625 -4.109375 C 8.640625 -4.003906 8.632812 -3.941406 8.625 -3.921875 L 7.703125 0 L 6.75 0 L 7.53125 -3.671875 C 7.570312 -3.859375 7.59375 -4.023438 7.59375 -4.171875 C 7.59375 -4.421875 7.53125 -4.617188 7.40625 -4.765625 C 7.28125 -4.910156 7.0625 -4.984375 6.75 -4.984375 C 6.488281 -4.984375 6.242188 -4.910156 6.015625 -4.765625 C 5.785156 -4.617188 5.59375 -4.425781 5.4375 -4.1875 C 5.28125 -3.957031 5.171875 -3.71875 5.109375 -3.46875 L 4.375 0 L 3.40625 0 L 4.25 -3.921875 C 4.269531 -4.035156 4.28125 -4.144531 4.28125 -4.25 C 4.28125 -4.4375 4.226562 -4.601562 4.125 -4.75 C 4.03125 -4.90625 3.847656 -4.984375 3.578125 -4.984375 C 3.441406 -4.984375 3.28125 -4.957031 3.09375 -4.90625 C 2.914062 -4.851562 2.734375 -4.757812 2.546875 -4.625 C 2.367188 -4.488281 2.203125 -4.296875 2.046875 -4.046875 C 1.890625 -3.804688 1.773438 -3.492188 1.703125 -3.109375 L 1.046875 0 L 0.078125 0 Z M 1.28125 -5.671875"/></g></g></g><g fill-opacity="1" fill="#737373"><g transform="translate(75.955472, 35.73431)"><g><path d="M 1.78125 -3.953125 L 0.90625 -3.953125 C 1.050781 -4.640625 1.367188 -5.125 1.859375 -5.40625 C 2.359375 -5.695312 2.957031 -5.84375 3.65625 -5.84375 C 3.757812 -5.84375 3.910156 -5.828125 4.109375 -5.796875 C 4.304688 -5.773438 4.507812 -5.722656 4.71875 -5.640625 C 4.925781 -5.566406 5.097656 -5.445312 5.234375 -5.28125 C 5.378906 -5.113281 5.453125 -4.890625 5.453125 -4.609375 C 5.453125 -4.546875 5.429688 -4.414062 5.390625 -4.21875 C 5.359375 -4.019531 5.3125 -3.785156 5.25 -3.515625 C 5.195312 -3.253906 5.140625 -2.976562 5.078125 -2.6875 C 5.015625 -2.394531 4.953125 -2.117188 4.890625 -1.859375 C 4.835938 -1.609375 4.796875 -1.390625 4.765625 -1.203125 C 4.734375 -1.023438 4.71875 -0.921875 4.71875 -0.890625 C 4.71875 -0.734375 4.800781 -0.65625 4.96875 -0.65625 C 5.007812 -0.65625 5.0625 -0.660156 5.125 -0.671875 C 5.195312 -0.679688 5.25 -0.691406 5.28125 -0.703125 L 5.125 0 C 5.0625 0.0195312 4.976562 0.0390625 4.875 0.0625 C 4.769531 0.09375 4.679688 0.109375 4.609375 0.109375 C 4.347656 0.109375 4.140625 0.0664062 3.984375 -0.015625 C 3.828125 -0.109375 3.75 -0.28125 3.75 -0.53125 C 3.75 -0.5625 3.75 -0.597656 3.75 -0.640625 C 3.75 -0.679688 3.753906 -0.722656 3.765625 -0.765625 C 3.617188 -0.628906 3.441406 -0.488281 3.234375 -0.34375 C 3.023438 -0.207031 2.78125 -0.09375 2.5 0 C 2.226562 0.101562 1.90625 0.15625 1.53125 0.15625 C 1.082031 0.15625 0.722656 0.0390625 0.453125 -0.1875 C 0.179688 -0.414062 0.046875 -0.722656 0.046875 -1.109375 C 0.046875 -1.523438 0.144531 -1.878906 0.34375 -2.171875 C 0.550781 -2.472656 0.8125 -2.710938 1.125 -2.890625 C 1.4375 -3.078125 1.765625 -3.191406 2.109375 -3.234375 C 2.203125 -3.253906 2.332031 -3.269531 2.5 -3.28125 C 2.675781 -3.300781 2.851562 -3.320312 3.03125 -3.34375 C 3.21875 -3.363281 3.382812 -3.382812 3.53125 -3.40625 C 3.675781 -3.4375 3.773438 -3.453125 3.828125 -3.453125 C 4.078125 -3.515625 4.242188 -3.632812 4.328125 -3.8125 C 4.410156 -4 4.453125 -4.179688 4.453125 -4.359375 C 4.453125 -4.585938 4.359375 -4.757812 4.171875 -4.875 C 3.992188 -4.988281 3.707031 -5.046875 3.3125 -5.046875 C 2.957031 -5.046875 2.675781 -4.984375 2.46875 -4.859375 C 2.257812 -4.742188 2.101562 -4.597656 2 -4.421875 C 1.90625 -4.253906 1.832031 -4.097656 1.78125 -3.953125 Z M 4.171875 -2.890625 C 4.078125 -2.835938 3.878906 -2.773438 3.578125 -2.703125 C 3.285156 -2.628906 2.9375 -2.578125 2.53125 -2.546875 C 2.289062 -2.523438 2.054688 -2.472656 1.828125 -2.390625 C 1.597656 -2.304688 1.414062 -2.179688 1.28125 -2.015625 C 1.144531 -1.847656 1.078125 -1.617188 1.078125 -1.328125 C 1.078125 -1.109375 1.144531 -0.9375 1.28125 -0.8125 C 1.425781 -0.695312 1.644531 -0.640625 1.9375 -0.640625 C 2.238281 -0.640625 2.535156 -0.695312 2.828125 -0.8125 C 3.117188 -0.925781 3.367188 -1.082031 3.578125 -1.28125 C 3.785156 -1.488281 3.914062 -1.71875 3.96875 -1.96875 Z M 4.171875 -2.890625"/></g></g></g><g fill-opacity="1" fill="#737373"><g transform="translate(81.973116, 35.73431)"><g><path d="M 2.25 -5.671875 L 1.046875 0 L 0.09375 0 L 1.296875 -5.671875 Z M 2.484375 -6.703125 L 1.53125 -6.703125 L 1.75 -7.796875 L 2.703125 -7.796875 Z M 2.484375 -6.703125"/></g></g></g><g fill-opacity="1" fill="#737373"><g transform="translate(84.322248, 35.73431)"><g><path d="M 2.6875 -7.796875 L 1.046875 0 L 0.078125 0 L 1.734375 -7.796875 Z M 2.6875 -7.796875"/></g></g></g><g fill-opacity="1" fill="#737373"><g transform="translate(86.682103, 35.73431)"><g><path d="M 2.1875 -1.15625 L 1.953125 0 L 0.8125 0 L 1.046875 -1.15625 Z M 2.1875 -1.15625"/></g></g></g><g fill-opacity="1" fill="#737373"><g transform="translate(89.685558, 35.73431)"><g><path d="M 5.421875 -3.765625 L 4.5 -3.765625 C 4.5 -4.171875 4.421875 -4.472656 4.265625 -4.671875 C 4.109375 -4.878906 3.828125 -4.984375 3.421875 -4.984375 C 3.046875 -4.984375 2.722656 -4.882812 2.453125 -4.6875 C 2.179688 -4.488281 1.960938 -4.234375 1.796875 -3.921875 C 1.628906 -3.609375 1.503906 -3.28125 1.421875 -2.9375 C 1.335938 -2.59375 1.296875 -2.269531 1.296875 -1.96875 C 1.296875 -1.738281 1.332031 -1.519531 1.40625 -1.3125 C 1.476562 -1.113281 1.597656 -0.957031 1.765625 -0.84375 C 1.941406 -0.726562 2.179688 -0.671875 2.484375 -0.671875 C 2.804688 -0.671875 3.113281 -0.785156 3.40625 -1.015625 C 3.707031 -1.242188 3.945312 -1.570312 4.125 -2 L 5.0625 -2 C 4.988281 -1.78125 4.878906 -1.539062 4.734375 -1.28125 C 4.585938 -1.03125 4.40625 -0.796875 4.1875 -0.578125 C 3.96875 -0.359375 3.695312 -0.179688 3.375 -0.046875 C 3.0625 0.0859375 2.695312 0.15625 2.28125 0.15625 C 1.625 0.15625 1.125 -0.03125 0.78125 -0.40625 C 0.4375 -0.789062 0.265625 -1.289062 0.265625 -1.90625 C 0.265625 -2.414062 0.347656 -2.90625 0.515625 -3.375 C 0.679688 -3.851562 0.921875 -4.273438 1.234375 -4.640625 C 1.546875 -5.015625 1.910156 -5.304688 2.328125 -5.515625 C 2.753906 -5.734375 3.226562 -5.84375 3.75 -5.84375 C 4.175781 -5.84375 4.515625 -5.757812 4.765625 -5.59375 C 5.015625 -5.4375 5.191406 -5.234375 5.296875 -4.984375 C 5.398438 -4.734375 5.453125 -4.460938 5.453125 -4.171875 C 5.453125 -4.046875 5.441406 -3.910156 5.421875 -3.765625 Z M 5.421875 -3.765625"/></g></g></g><g fill-opacity="1" fill="#737373"><g transform="translate(95.156134, 35.73431)"><g><path d="M 2.390625 0.15625 C 1.890625 0.15625 1.484375 0.0507812 1.171875 -0.15625 C 0.867188 -0.363281 0.644531 -0.632812 0.5 -0.96875 C 0.363281 -1.300781 0.296875 -1.660156 0.296875 -2.046875 C 0.296875 -2.472656 0.367188 -2.90625 0.515625 -3.34375 C 0.671875 -3.789062 0.890625 -4.203125 1.171875 -4.578125 C 1.460938 -4.953125 1.816406 -5.253906 2.234375 -5.484375 C 2.648438 -5.722656 3.125 -5.84375 3.65625 -5.84375 C 4.144531 -5.84375 4.539062 -5.738281 4.84375 -5.53125 C 5.15625 -5.332031 5.378906 -5.066406 5.515625 -4.734375 C 5.660156 -4.398438 5.734375 -4.035156 5.734375 -3.640625 C 5.734375 -3.210938 5.65625 -2.773438 5.5 -2.328125 C 5.351562 -1.890625 5.132812 -1.476562 4.84375 -1.09375 C 4.5625 -0.71875 4.210938 -0.414062 3.796875 -0.1875 C 3.378906 0.0390625 2.910156 0.15625 2.390625 0.15625 Z M 2.5625 -0.671875 C 2.90625 -0.671875 3.203125 -0.742188 3.453125 -0.890625 C 3.703125 -1.035156 3.910156 -1.222656 4.078125 -1.453125 C 4.242188 -1.679688 4.375 -1.925781 4.46875 -2.1875 C 4.5625 -2.457031 4.628906 -2.710938 4.671875 -2.953125 C 4.722656 -3.191406 4.75 -3.382812 4.75 -3.53125 C 4.75 -3.769531 4.710938 -4.003906 4.640625 -4.234375 C 4.566406 -4.460938 4.4375 -4.648438 4.25 -4.796875 C 4.070312 -4.941406 3.816406 -5.015625 3.484375 -5.015625 C 3.140625 -5.015625 2.84375 -4.941406 2.59375 -4.796875 C 2.351562 -4.648438 2.148438 -4.460938 1.984375 -4.234375 C 1.816406 -4.003906 1.679688 -3.757812 1.578125 -3.5 C 1.472656 -3.238281 1.394531 -2.988281 1.34375 -2.75 C 1.300781 -2.507812 1.28125 -2.3125 1.28125 -2.15625 C 1.28125 -1.914062 1.316406 -1.679688 1.390625 -1.453125 C 1.460938 -1.222656 1.585938 -1.035156 1.765625 -0.890625 C 1.953125 -0.742188 2.21875 -0.671875 2.5625 -0.671875 Z M 2.5625 -0.671875"/></g></g></g><g fill-opacity="1" fill="#737373"><g transform="translate(101.184501, 35.73431)"><g><path d="M 1.28125 -5.671875 L 2.171875 -5.671875 L 2 -4.875 L 2.03125 -4.875 C 2.125 -4.976562 2.253906 -5.101562 2.421875 -5.25 C 2.585938 -5.40625 2.800781 -5.539062 3.0625 -5.65625 C 3.320312 -5.78125 3.617188 -5.84375 3.953125 -5.84375 C 4.285156 -5.84375 4.539062 -5.785156 4.71875 -5.671875 C 4.894531 -5.554688 5.019531 -5.425781 5.09375 -5.28125 C 5.175781 -5.132812 5.234375 -5.015625 5.265625 -4.921875 C 5.460938 -5.097656 5.648438 -5.253906 5.828125 -5.390625 C 6.015625 -5.523438 6.210938 -5.632812 6.421875 -5.71875 C 6.640625 -5.800781 6.894531 -5.84375 7.1875 -5.84375 C 7.320312 -5.84375 7.472656 -5.820312 7.640625 -5.78125 C 7.804688 -5.738281 7.96875 -5.664062 8.125 -5.5625 C 8.28125 -5.457031 8.40625 -5.304688 8.5 -5.109375 C 8.601562 -4.910156 8.65625 -4.664062 8.65625 -4.375 C 8.65625 -4.300781 8.648438 -4.210938 8.640625 -4.109375 C 8.640625 -4.003906 8.632812 -3.941406 8.625 -3.921875 L 7.703125 0 L 6.75 0 L 7.53125 -3.671875 C 7.570312 -3.859375 7.59375 -4.023438 7.59375 -4.171875 C 7.59375 -4.421875 7.53125 -4.617188 7.40625 -4.765625 C 7.28125 -4.910156 7.0625 -4.984375 6.75 -4.984375 C 6.488281 -4.984375 6.242188 -4.910156 6.015625 -4.765625 C 5.785156 -4.617188 5.59375 -4.425781 5.4375 -4.1875 C 5.28125 -3.957031 5.171875 -3.71875 5.109375 -3.46875 L 4.375 0 L 3.40625 0 L 4.25 -3.921875 C 4.269531 -4.035156 4.28125 -4.144531 4.28125 -4.25 C 4.28125 -4.4375 4.226562 -4.601562 4.125 -4.75 C 4.03125 -4.90625 3.847656 -4.984375 3.578125 -4.984375 C 3.441406 -4.984375 3.28125 -4.957031 3.09375 -4.90625 C 2.914062 -4.851562 2.734375 -4.757812 2.546875 -4.625 C 2.367188 -4.488281 2.203125 -4.296875 2.046875 -4.046875 C 1.890625 -3.804688 1.773438 -3.492188 1.703125 -3.109375 L 1.046875 0 L 0.078125 0 Z M 1.28125 -5.671875"/></g></g></g><g clip-path="url(#52e391c157)"><path fill-rule="evenodd" fill-opacity="1" d="M 377.238281 3.433594 C 389.886719 3.433594 400.152344 13.703125 400.152344 26.347656 C 400.152344 38.996094 389.886719 49.261719 377.238281 49.261719 C 364.59375 49.261719 354.324219 38.996094 354.324219 26.347656 C 354.324219 13.703125 364.59375 3.433594 377.238281 3.433594" fill="#737373"/></g><path fill-rule="evenodd" fill-opacity="1" d="M 377.238281 6.707031 C 388.078125 6.707031 396.878906 15.507812 396.878906 26.347656 C 396.878906 37.1875 388.078125 45.988281 377.238281 45.988281 C 366.398438 45.988281 357.597656 37.1875 357.597656 26.347656 C 357.597656 15.507812 366.398438 6.707031 377.238281 6.707031" fill="#dcdbdb"/><path fill-rule="evenodd" fill-opacity="1" d="M 387.359375 17.308594 C 387.496094 17 387.433594 16.636719 387.191406 16.398438 C 386.953125 16.15625 386.589844 16.089844 386.28125 16.226562 C 381.414062 18.402344 368.773438 24.050781 363.453125 26.429688 C 363.125 26.574219 362.929688 26.914062 362.972656 27.273438 C 363.019531 27.628906 363.285156 27.914062 363.640625 27.980469 C 366.699219 28.535156 371.570312 29.421875 373.210938 29.71875 C 373.542969 29.777344 373.808594 30.042969 373.871094 30.375 C 374.167969 32.015625 375.054688 36.886719 375.609375 39.949219 C 375.671875 40.300781 375.960938 40.570312 376.316406 40.617188 C 376.675781 40.65625 377.015625 40.460938 377.160156 40.136719 C 379.539062 34.816406 385.1875 22.171875 387.359375 17.308594" fill="#032a65"/><g clip-path="url(#1d5f9ec3c2)"><g mask="url(#4914025f15)"><g transform="matrix(1, 0, 0, 1, 180, 15)"><g clip-path="url(#59121bcc6e)"><g clip-path="url(#3151ec4864)"><g clip-path="url(#960f9ff183)"><path fill-rule="nonzero" fill-opacity="1" d="M 0.382812 0.140625 L 157.277344 0.140625 L 157.277344 34.234375 L 0.382812 34.234375 Z M 0.382812 0.140625" fill="#032a65"/></g></g></g></g></g></g></svg>