<svg width="52" height="53" viewBox="0 0 52 53" fill="none" xmlns="http://www.w3.org/2000/svg">
<rect x="2.16774" y="2.53566" width="47.6645" height="47.6645" rx="23.8323" fill="#466DF5"/>
<rect x="2.16774" y="2.53566" width="47.6645" height="47.6645" rx="23.8323" stroke="#1C202B" stroke-width="3.66453"/>
<path d="M17.8417 33.8679H14.66L14.6804 31.832H17.8417C18.7625 31.832 19.5332 31.6308 20.1538 31.2284C20.7813 30.826 21.2519 30.2497 21.5657 29.4994C21.8862 28.7492 22.0465 27.8557 22.0465 26.819V26.0108C22.0465 25.206 21.9544 24.4932 21.7703 23.8726C21.5929 23.2519 21.3269 22.7302 20.9723 22.3073C20.6244 21.8844 20.1948 21.5639 19.6832 21.3456C19.1785 21.1273 18.5954 21.0182 17.9338 21.0182H14.5986V18.9721H17.9338C18.9227 18.9721 19.8264 19.1392 20.6449 19.4734C21.4634 19.8008 22.1693 20.2748 22.7626 20.8955C23.3628 21.5161 23.8232 22.2595 24.1438 23.1257C24.4643 23.9919 24.6246 24.9604 24.6246 26.0312V26.819C24.6246 27.8898 24.4643 28.8583 24.1438 29.7245C23.8232 30.5907 23.3628 31.3341 22.7626 31.9548C22.1624 32.5686 21.4463 33.0426 20.6142 33.3768C19.7889 33.7042 18.8648 33.8679 17.8417 33.8679ZM16.082 18.9721V33.8679H13.5141V18.9721H16.082ZM33.2604 20.9568L28.81 33.8679H26.1194L31.7258 18.9721H33.4445L33.2604 20.9568ZM36.9843 33.8679L32.5238 20.9568L32.3294 18.9721H34.0584L39.6852 33.8679H36.9843ZM36.7695 28.3434V30.3793H28.6668V28.3434H36.7695Z" fill="#1B317E"/>
</svg>
