<svg width="26" height="27" viewBox="0 0 26 27" fill="none" xmlns="http://www.w3.org/2000/svg">
<g clip-path="url(#clip0_788_19843)">
<path d="M20.4205 4.97803C20.6905 4.97803 20.9205 5.07803 21.1105 5.25803C21.3005 5.45803 21.3905 5.67803 21.3905 5.95803V21.398C21.3905 21.668 21.2905 21.898 21.1105 22.088C21.0194 22.1805 20.9103 22.2531 20.7898 22.3013C20.6693 22.3495 20.5402 22.3722 20.4105 22.368H16.0205V15.668H18.2705L18.5805 13.018H16.0205V11.318C16.0205 10.918 16.1205 10.598 16.3005 10.388C16.4805 10.188 16.8005 10.068 17.3005 10.068H18.6705V7.71803C18.0705 7.65803 17.4005 7.61803 16.6605 7.61803C15.6505 7.61803 14.8305 7.91803 14.2105 8.51803C13.5905 9.11803 13.2805 9.95803 13.2805 11.048V13.018H11.0405V15.668H13.2805V22.368H4.98049C4.70049 22.368 4.48049 22.268 4.28049 22.088C4.18803 21.997 4.11542 21.8878 4.06723 21.7673C4.01904 21.6469 3.99632 21.5177 4.00049 21.388V5.95803C4.00049 5.68803 4.10049 5.45803 4.28049 5.26803C4.37152 5.17557 4.48071 5.10296 4.60118 5.05477C4.72166 5.00659 4.8508 4.98386 4.98049 4.98803H20.4205V4.97803Z" fill="white" fill-opacity="0.7"/>
</g>
<defs>
<clipPath id="clip0_788_19843">
<rect width="18" height="18" fill="white" transform="translate(4 4.36792)"/>
</clipPath>
</defs>
</svg>
