<svg width="26" height="27" viewBox="0 0 26 27" fill="none" xmlns="http://www.w3.org/2000/svg">
<g clip-path="url(#clip0_788_19846)">
<path d="M12.77 5.94788C15.11 5.94788 15.39 5.95788 16.31 5.99788C17.17 6.03788 17.63 6.17788 17.94 6.29788C18.35 6.46788 18.64 6.64788 18.95 6.95788C19.25 7.25788 19.45 7.55788 19.6 7.95788C19.72 8.27788 19.87 8.73788 19.9 9.59788C19.95 10.5179 19.96 10.7979 19.96 13.1379C19.96 15.4779 19.95 15.7579 19.91 16.6779C19.9055 17.2345 19.804 17.7861 19.61 18.3079C19.44 18.7179 19.26 19.0079 18.95 19.3179C18.65 19.6179 18.35 19.8179 17.94 19.9779C17.63 20.0979 17.17 20.2379 16.31 20.2779C15.39 20.3179 15.11 20.3279 12.77 20.3279C10.43 20.3279 10.15 20.3279 9.22 20.2779C8.66673 20.2722 8.11862 20.1707 7.6 19.9779C7.18 19.8179 6.9 19.6279 6.59 19.3179C6.28 19.0179 6.09 18.7179 5.93 18.3179C5.73647 17.7925 5.63499 17.2377 5.63 16.6779C5.59 15.7579 5.58 15.4779 5.58 13.1379C5.58 10.7979 5.58 10.5179 5.63 9.59788C5.67 8.73788 5.81 8.27788 5.93 7.96788C6.09 7.55788 6.28 7.26788 6.59 6.95788C6.89 6.65788 7.19 6.45788 7.59 6.30788C7.91 6.18788 8.37 6.03788 9.22 6.00788C10.15 5.95788 10.42 5.94788 12.77 5.94788ZM12.77 4.36788C10.39 4.36788 10.09 4.37788 9.15 4.41788C8.22 4.45788 7.58 4.61788 7.02 4.81788C6.45 5.04788 5.96 5.35788 5.47 5.83788C5 6.32788 4.7 6.81788 4.46 7.38788C4.24 7.94788 4.09 8.58788 4.06 9.51788C4 10.4679 4 10.7679 4 13.1379C4 15.5079 4.01 15.8179 4.05 16.7479C4.09 17.6879 4.25 18.3179 4.45 18.8779C4.68 19.4579 4.99 19.9479 5.47 20.4379C5.96 20.9179 6.45 21.2179 7.02 21.4479C7.58 21.6679 8.22 21.8179 9.15 21.8479C10.09 21.8979 10.39 21.9079 12.77 21.9079C15.16 21.9079 15.45 21.8979 16.39 21.8579C17.32 21.8179 17.96 21.6579 18.52 21.4479C19.1043 21.2285 19.6334 20.8838 20.07 20.4379C20.56 19.9479 20.86 19.4579 21.08 18.8779C21.3 18.3279 21.45 17.6879 21.49 16.7479C21.53 15.8179 21.54 15.5179 21.54 13.1379C21.54 10.7479 21.54 10.4579 21.49 9.51788C21.4774 8.79044 21.3421 8.07034 21.09 7.38788C20.8677 6.80269 20.5195 6.27353 20.07 5.83788C19.6317 5.39397 19.1031 5.04951 18.52 4.82788C17.8383 4.57158 17.1181 4.43294 16.39 4.41788C15.184 4.36955 13.9769 4.35288 12.77 4.36788Z" fill="white" fill-opacity="0.7"/>
<path d="M12.7998 8.36782C11.6063 8.36782 10.4617 8.84193 9.61782 9.68584C8.77391 10.5298 8.2998 11.6743 8.2998 12.8678C8.2998 14.0613 8.77391 15.2059 9.61782 16.0498C10.4617 16.8937 11.6063 17.3678 12.7998 17.3678C13.9933 17.3678 15.1379 16.8937 15.9818 16.0498C16.8257 15.2059 17.2998 14.0613 17.2998 12.8678C17.2998 11.6743 16.8257 10.5298 15.9818 9.68584C15.1379 8.84193 13.9933 8.36782 12.7998 8.36782ZM12.7998 15.7978C12.4157 15.7978 12.0353 15.7222 11.6805 15.5752C11.3256 15.4282 11.0031 15.2127 10.7315 14.9411C10.4599 14.6695 10.2445 14.347 10.0975 13.9922C9.95046 13.6373 9.8748 13.2569 9.8748 12.8728C9.8748 12.4887 9.95046 12.1084 10.0975 11.7535C10.2445 11.3986 10.4599 11.0761 10.7315 10.8045C11.0031 10.5329 11.3256 10.3175 11.6805 10.1705C12.0353 10.0235 12.4157 9.94782 12.7998 9.94782C13.5756 9.94782 14.3195 10.256 14.8681 10.8045C15.4166 11.3531 15.7248 12.0971 15.7248 12.8728C15.7248 13.6486 15.4166 14.3926 14.8681 14.9411C14.3195 15.4897 13.5756 15.7978 12.7998 15.7978ZM17.4298 9.36782C17.7083 9.36782 17.9754 9.2572 18.1723 9.06028C18.3692 8.86337 18.4798 8.5963 18.4798 8.31782C18.4798 8.03934 18.3692 7.77227 18.1723 7.57536C17.9754 7.37845 17.7083 7.26782 17.4298 7.26782C17.1513 7.26782 16.8843 7.37845 16.6873 7.57536C16.4904 7.77227 16.3798 8.03934 16.3798 8.31782C16.3798 8.5963 16.4904 8.86337 16.6873 9.06028C16.8843 9.2572 17.1513 9.36782 17.4298 9.36782Z" fill="white" fill-opacity="0.7"/>
</g>
<defs>
<clipPath id="clip0_788_19846">
<rect width="18" height="18" fill="white" transform="translate(4 4.36792)"/>
</clipPath>
</defs>
</svg>
