<svg width="70" height="98" viewBox="0 0 70 98" fill="none" xmlns="http://www.w3.org/2000/svg">
<path d="M54.8574 11.8378C58.0686 16.1691 61.2773 20.5003 64.4885 24.8329C64.6969 25.1139 64.4614 25.2708 64.2531 24.9898L56.921 15.0966C56.8851 15.0482 56.8529 14.9972 56.8245 14.9441C56.2436 13.8592 55.5875 12.8222 54.8574 11.8378Z" fill="url(#paint0_linear_788_19526)"/>
<path d="M59.7538 24.0798C59.6299 23.1994 62.0301 21.9835 62.5595 22.6977L66.449 27.9459C66.485 27.9945 66.5174 28.0457 66.5456 28.0992C67.951 30.7703 68.9209 33.7691 69.3848 37.0749C69.9208 40.8852 65.3533 42.1526 63.0622 39.0612L61.0251 36.3126C60.0945 35.0568 59.7331 33.4804 59.8853 31.9248C60.145 29.2702 60.1142 26.6422 59.7538 24.0798Z" fill="url(#paint1_linear_788_19526)"/>
<path d="M2.10962 84.3456C4.81574 84.1167 7.51838 85.1601 9.13544 87.342L9.24694 87.4925C12.3994 91.746 9.89545 97.7771 4.61397 97.4083C1.34392 97.181 -1.68072 96.5913 -4.43618 95.6923C-5.25006 95.4268 -5.94625 94.8946 -6.45594 94.2068L-9.02558 90.7392C-10.881 88.2354 -8.1246 84.1961 -5.01584 84.4132C-2.67364 84.5768 -0.290251 84.5486 2.10962 84.3456Z" fill="url(#paint2_linear_788_19526)"/>
<path d="M53.9156 35.6602C53.6788 35.7141 53.4132 35.7316 53.1376 35.7128C52.7342 35.6852 52.3107 35.5775 51.9361 35.3933C51.3397 35.1014 50.8648 34.6152 50.7721 33.9449L49.1045 22.0211C49.0393 21.5475 49.1696 21.0125 49.4115 20.4888C49.8738 19.4877 50.7483 18.528 51.4712 18.112C54.4796 16.3917 55.6329 12.5162 53.3083 9.94596C51.694 8.16104 49.8072 6.58842 47.6667 5.26246C44.7336 3.44561 41.0315 4.73763 39.1452 7.62646C38.4899 8.63254 36.4214 10.0145 34.869 9.90675L21.4141 8.96957C19.873 8.86182 19.105 7.28316 19.3506 6.24827C19.9733 3.85339 17.9219 1.63076 15.5296 2.26295C10.2635 3.65449 5.04286 5.80396 0.0838394 8.57336C-2.00788 9.74149 -2.56691 12.4502 -1.2359 14.4423C-0.913904 14.9309 -0.915157 15.952 -1.33989 16.9556C-1.56166 17.4805 -1.89869 18.0018 -2.36727 18.439L-14.1558 29.4245C-14.4528 29.7026 -14.7923 29.9332 -15.1481 30.1223C-15.5867 30.3541 -16.049 30.522 -16.4963 30.6285C-17.0074 30.7513 -17.4973 30.7952 -18.2804 30.7137C-18.3957 30.6874 -18.4971 30.6548 -18.5836 30.6122C-21.014 29.4552 -23.9493 30.1755 -25.3764 32.4578C-26.7995 34.7339 -28.0624 37.088 -29.1305 39.5053C-29.9437 41.3433 -30.6218 43.1618 -31.1718 44.9529C-31.9848 47.6008 -29.5436 49.9171 -26.8452 49.2918C-26.6385 49.2442 -26.4092 49.2254 -26.071 49.2391C-25.7677 49.2604 -25.4545 49.3256 -25.1576 49.4346C-24.4296 49.7015 -23.807 50.2277 -23.6967 50.9982L-22.0441 62.9296C-21.9765 63.4007 -22.1068 63.9344 -22.3473 64.4582C-22.8096 65.458 -23.6854 66.4202 -24.4058 66.8299C-27.405 68.5842 -28.5395 72.4726 -26.2042 75.0453C-24.5973 76.8156 -22.7212 78.3762 -20.5935 79.6935C-17.6627 81.5081 -13.9642 80.2143 -12.0835 77.3255C-11.427 76.3194 -9.34971 74.9387 -7.80363 75.0364L5.65131 75.9736C7.20366 76.0813 7.9579 77.67 7.71233 78.7037C7.13857 81.1169 9.21488 83.316 11.612 82.6782C16.8503 81.2844 22.0437 79.141 26.9813 76.3843C29.0779 75.2138 29.6388 72.499 28.305 70.5022C27.9805 70.0198 27.9831 68.9962 28.4065 67.9939C28.6283 67.4689 28.9653 66.9489 29.4314 66.5154L41.2338 55.5212C41.9918 54.8108 43.0292 54.3998 43.9425 54.247C44.3146 54.1843 44.6667 54.1656 45.1203 54.2006C45.332 54.2269 45.5137 54.2733 45.659 54.341C48.0928 55.5001 51.0327 54.7785 52.4572 52.4899C53.8731 50.215 55.1273 47.8625 56.1959 45.4479C57.0098 43.6082 57.6887 41.7881 58.2391 39.9955C59.0515 37.3494 56.6121 35.0353 53.9156 35.6602Z" fill="url(#paint3_linear_788_19526)"/>
<path d="M56.1905 45.447C57.9493 41.4698 63.9021 40.1996 66.4914 43.6933L67.7344 45.3705C68.6693 46.6319 69.0724 48.2227 68.7264 49.7542C68.0884 52.5779 67.129 55.4847 65.8216 58.4421C65.5339 59.0923 65.2328 59.738 64.9187 60.3788C62.6275 65.0532 56.3342 65.0881 53.2346 60.9058C51.2213 58.1892 51.2556 54.5047 52.9924 51.6036C54.1887 49.6053 55.26 47.5497 56.1905 45.447Z" fill="url(#paint4_linear_788_19526)"/>
<path d="M24.1962 77.8628C27.9854 75.9603 32.6961 76.7829 35.2206 80.1893C38.0043 83.9452 37.0366 89.3191 32.826 91.3506C28.8 93.2932 24.6454 94.8246 20.4689 95.8755C17.8336 96.5386 15.1164 95.4142 13.4984 93.231C10.2949 88.9086 12.7808 82.5898 17.8094 80.677C19.9659 79.8566 22.0999 78.9153 24.1962 77.8628Z" fill="url(#paint5_linear_788_19526)"/>
<path d="M39.1563 7.62524L42.2253 2.92692C42.306 2.80349 42.2512 2.63783 42.1131 2.58606C41.7235 2.44448 41.3288 2.30917 40.9279 2.18012C38.2329 1.31687 35.2773 0.759324 32.0924 0.53756C29.009 0.322061 25.8592 0.432319 22.6906 0.845777C22.0993 0.923457 21.5066 1.00991 20.914 1.10889C20.7089 1.14269 20.5443 1.29662 20.4958 1.49878L19.3592 6.24453C19.1148 7.27943 19.8816 8.85809 21.4227 8.96584L34.8776 9.90302C36.4325 10.0133 38.501 8.63132 39.1563 7.62524Z" fill="url(#paint6_linear_788_19526)"/>
<path d="M59.7654 24.0807C59.6075 22.9551 59.391 21.8652 59.1186 20.8117C58.2669 17.5175 54.4387 16.4216 51.485 18.1106C50.7633 18.5266 49.8888 19.4876 49.4252 20.4874C49.1834 21.0111 49.0531 21.5461 49.1183 22.0197L50.7859 33.9436C50.8773 34.6139 51.3534 35.1 51.9498 35.392C52.3244 35.5761 52.7479 35.6839 53.1526 35.7114C53.427 35.7302 53.6926 35.7139 53.9294 35.6588C57.3477 34.8652 60.0581 32.0819 60.0675 28.5727C60.0716 27.0584 59.9734 25.5584 59.7654 24.0807Z" fill="url(#paint7_linear_788_19526)"/>
<path d="M5.65807 75.9748L-7.79685 75.0376C-9.34293 74.9387 -11.4202 76.3193 -12.0768 77.3267C-13.7255 79.8592 -12.5862 83.2704 -9.61615 83.8282C-8.13917 84.1056 -6.60091 84.3028 -5.00413 84.4144C-2.91881 84.5592 -0.801666 84.553 1.33013 84.4071C4.48825 84.1909 6.98715 81.7862 7.71785 78.7061C7.96468 77.67 7.21042 76.0826 5.65807 75.9748Z" fill="url(#paint8_linear_788_19526)"/>
<path d="M45.1323 54.2008C45.0834 54.1958 45.0345 54.1908 44.9819 54.187C44.6787 54.1657 44.3266 54.1845 43.9545 54.2471C43.0412 54.4 42.0038 54.8109 41.2458 55.5213L29.4434 66.5156C28.9773 66.9491 28.639 67.469 28.4185 67.994C27.9951 68.9963 27.9925 70.0199 28.317 70.5023C29.6663 72.5224 32.3932 73.1019 34.3575 71.6727C36.7219 69.9525 39.0187 68.0667 41.2194 66.0194C44.4996 62.9674 47.3562 59.7386 49.7956 56.4234C49.8285 56.3808 49.8123 56.3176 49.7637 56.2944L45.671 54.3424C45.5257 54.2735 45.344 54.2271 45.1323 54.2008Z" fill="url(#paint9_linear_788_19526)"/>
<path d="M49.7777 56.4221C49.8094 56.381 49.8718 56.3806 49.9027 56.4223L59.4096 69.2499C59.4461 69.2992 59.4473 69.3682 59.4087 69.4159C56.9706 72.7311 54.1127 75.9611 50.8326 79.0132C49.4206 80.3262 47.9696 81.5728 46.4867 82.7519C43.166 85.3924 38.3987 84.4874 35.8726 81.0789C33.0902 77.3247 34.1006 72.0263 37.7144 69.0639C38.8999 68.0922 40.0635 67.0767 41.2015 66.0181C44.4816 62.966 47.3382 59.7373 49.7777 56.4221Z" fill="url(#paint10_linear_788_19526)"/>
<path d="M26.146 14.3573C10.1289 13.2409 -8.50677 25.1059 -15.4717 40.8524C-22.4366 56.6002 -15.0958 70.2731 0.921329 71.3894C16.9397 72.5058 35.5654 60.6395 42.5302 44.893C49.4951 29.1465 42.1631 15.4736 26.146 14.3573Z" fill="#FF4545"/>
<path d="M26.146 13.9601C10.1289 12.8437 -8.50677 24.7087 -15.4717 40.4552C-22.4366 56.2029 -15.0958 69.8759 0.921329 70.9922C16.9397 72.1086 35.5654 60.2423 42.5302 44.4958C49.4951 28.7481 42.1631 15.0752 26.146 13.9601Z" fill="#A10400"/>
<path d="M-14.5287 43.5298C-7.56379 27.7833 11.0719 15.9183 27.089 17.0347C29.4341 17.1979 31.6525 14.8063 29.3429 14.3688C28.3211 14.1753 27.256 14.0383 26.1493 13.9613C10.1322 12.845 -8.50347 24.71 -15.4684 40.4564C-15.9149 41.4659 -16.3025 42.4668 -16.6327 43.4563C-17.1798 45.0962 -15.2279 45.1109 -14.5287 43.5298Z" fill="#780300"/>
<path d="M69.3792 37.0747C68.9106 33.7345 67.9258 30.71 66.4975 28.0187C65.9049 26.9049 65.2346 25.8412 64.4878 24.8326C64.3325 24.6234 64.1759 24.4129 64.0205 24.2024C64.5016 24.9817 64.9589 25.8199 65.3511 26.5579C66.7794 29.2491 67.7642 32.2749 68.2328 35.6138C68.7026 38.9541 68.6124 42.4058 68.0473 45.8826C67.461 49.4522 66.3559 53.1745 64.672 56.9809C62.9885 60.7864 60.8441 64.4353 58.3327 67.8701C58.3318 67.8713 58.3301 67.8716 58.3289 67.8707L58.324 67.867C58.3221 67.8655 58.3197 67.868 58.3213 67.8699C58.3219 67.8706 58.3219 67.8716 58.3213 67.8724C58.3004 67.8995 58.2806 67.9279 58.2597 67.9538C55.8215 71.269 52.9636 74.4989 49.6835 77.551C46.3759 80.6269 42.854 83.3382 39.2105 85.6711C31.6319 90.5151 23.2781 93.9139 14.9829 95.3251C14.9799 95.3256 14.9769 95.3245 14.975 95.3222C14.973 95.3199 14.97 95.3188 14.967 95.3193C11.0959 95.9764 7.22859 96.2079 3.46393 95.9462C-0.303551 95.6843 -3.74527 94.9413 -6.82491 93.7987C-11.6185 92.0221 -15.5251 89.2481 -18.4443 85.7312C-18.3504 85.859 -18.2564 85.9856 -18.1612 86.1134C-15.1705 90.149 -10.9545 93.3038 -5.676 95.2596C-2.59636 96.4022 0.845362 97.1439 4.61284 97.407C8.3775 97.67 12.2448 97.4373 16.1159 96.7801C16.1189 96.7796 16.1219 96.7808 16.1239 96.7831C16.1258 96.7854 16.1289 96.7865 16.1318 96.786C24.427 95.3748 32.7808 91.976 40.3594 87.132C44.0029 84.7991 47.526 82.0878 50.8324 79.0119C54.1125 75.9598 56.9692 72.7299 59.4086 69.4147C59.4295 69.3875 59.4493 69.3604 59.4702 69.3333C59.4708 69.3325 59.4708 69.3315 59.4702 69.3307C59.4686 69.3289 59.471 69.3264 59.4729 69.3279L59.4778 69.3316C59.479 69.3325 59.4807 69.3322 59.4816 69.331C61.993 65.8962 64.1374 62.246 65.8209 58.4417C67.5048 54.6354 68.6111 50.913 69.1963 47.3435C69.7588 43.868 69.849 40.415 69.3792 37.0747Z" fill="#B0AAAA"/>
<path d="M56.8167 46.2425C58.5006 42.4362 59.6069 38.7138 60.192 35.1443C60.7558 31.6675 60.846 28.2157 60.3762 24.8755C59.9076 21.5352 58.9228 18.5107 57.4945 15.8195C57.0297 14.945 56.5022 14.1118 55.9421 13.3012C55.5813 12.8138 55.2192 12.3264 54.8584 11.8378C55.6064 12.8464 56.2767 13.9101 56.868 15.0239C58.2964 17.7151 59.2811 20.7409 59.7497 24.0811C60.2196 27.4214 60.1293 30.8731 59.5655 34.3499C58.9792 37.9195 57.8729 41.6418 56.1902 45.4481C54.5066 49.2539 52.362 52.9031 49.8504 56.3381C49.8497 56.3391 49.8495 56.3403 49.85 56.3413C49.8514 56.345 49.8465 56.3477 49.8442 56.3446L49.8433 56.3433C49.8419 56.3415 49.8391 56.3415 49.8377 56.3433C49.8174 56.3697 49.7982 56.396 49.7779 56.4236C47.3397 59.7388 44.4818 62.9688 41.2017 66.0196C37.8941 69.0967 34.3722 71.808 30.7287 74.1396C23.1526 78.9824 14.8025 82.3799 6.51117 83.7924C6.50817 83.7929 6.50515 83.7918 6.50321 83.7895C6.50127 83.7872 6.49824 83.786 6.49525 83.7866C2.62038 84.4437 -1.25069 84.6764 -5.0166 84.4134C-8.78408 84.1516 -12.2258 83.4099 -15.3054 82.266C-20.2995 80.4154 -24.3289 77.4811 -27.2832 73.7537C-27.2444 73.8064 -27.2043 73.8602 -27.1642 73.9141C-24.1735 77.9497 -19.9575 81.1045 -14.679 83.0603C-11.5994 84.203 -8.15763 84.9447 -4.39015 85.2078C-0.625488 85.4708 3.24182 85.238 7.11293 84.5821C7.11592 84.5816 7.11895 84.5828 7.12089 84.5851C7.12283 84.5874 7.12585 84.5885 7.12884 84.588C15.424 83.1755 23.7778 79.778 31.3564 74.934C34.9999 72.6011 38.523 69.8898 41.8294 66.8139C45.1096 63.7618 47.9662 60.5319 50.4056 57.2167C50.4265 57.1895 50.4463 57.1624 50.4672 57.1353C50.4678 57.1345 50.4678 57.1335 50.4672 57.1327C50.4656 57.1309 50.468 57.1284 50.4699 57.1298L50.4748 57.1336C50.476 57.1345 50.4777 57.1342 50.4786 57.133C52.9887 53.6969 55.1331 50.0467 56.8167 46.2425Z" fill="white"/>
<path d="M-1.28854 47.4158L-3.70855 48.0191V50.9129L-7.43164 51.8412V39.8503L-1.56777 38.3883C1.10044 37.7231 2.43455 38.8666 2.43455 41.819C2.43455 42.4692 2.3725 43.0922 2.2484 43.6881C2.12429 44.2839 1.91229 44.8324 1.61237 45.3335C1.3228 45.8214 0.940143 46.2472 0.464415 46.611C-0.000970674 46.9722 -0.585289 47.2404 -1.28854 47.4158ZM-2.85534 41.779L-3.70855 41.9917V44.9495L-2.85534 44.7367C-2.4003 44.6233 -2.07453 44.4941 -1.87803 44.3492C-1.67119 44.2017 -1.56777 43.9521 -1.56777 43.6003V42.2574C-1.56777 41.9163 -1.67119 41.7236 -1.87803 41.6792C-2.07453 41.6323 -2.4003 41.6655 -2.85534 41.779Z" fill="#CBD5E4"/>
<path d="M3.72754 37.0681L7.36337 36.1616V44.9518L8.65106 44.6307C9.11564 44.5149 9.42873 44.3744 9.59032 44.2092C9.76201 44.0415 9.84786 43.7494 9.84786 43.3331V35.5421L13.4837 34.6356V41.2087C13.4837 42.208 13.418 43.0675 13.2867 43.7872C13.1656 44.5044 12.9232 45.1269 12.5596 45.6547C12.2061 46.1696 11.7112 46.6 11.0749 46.946C10.4387 47.292 9.61557 47.5909 8.60561 47.8427C7.59566 48.0945 6.77255 48.2061 6.13628 48.1774C5.50001 48.1486 5.00008 47.9662 4.6365 47.6301C4.28301 47.2915 4.04062 46.7951 3.90933 46.1408C3.78814 45.4737 3.72754 44.6405 3.72754 43.6412L3.72754 37.0681Z" fill="#CBD5E4"/>
<path d="M22.9051 40.2805L24.9218 43.7747L20.8264 44.7958L19.3061 41.6095L18.4995 41.8107V45.3759L14.7764 46.3042V34.3134L20.6402 32.8513C23.3085 32.1861 24.6426 33.255 24.6426 36.0582C24.6426 37.9768 24.0634 39.3842 22.9051 40.2805ZM19.3527 36.242L18.4995 36.4547V38.8529L19.3527 38.6402C19.8077 38.5267 20.1335 38.3975 20.33 38.2526C20.5368 38.1051 20.6402 37.8608 20.6402 37.5198V36.7204C20.6402 36.3793 20.5368 36.1866 20.33 36.1422C20.1335 36.0953 19.8077 36.1286 19.3527 36.242Z" fill="#CBD5E4"/>
<path d="M33.661 34.2893V37.0712L29.9379 37.9995V39.4543L34.4987 38.3172V41.3869L26.2148 43.4523V31.4614L34.4056 29.4192L33.9403 32.6049L29.9379 33.6028V35.2176L33.661 34.2893Z" fill="#CBD5E4"/>
<defs>
<linearGradient id="paint0_linear_788_19526" x1="90.9134" y1="-12.3677" x2="-0.96143" y2="85.7698" gradientUnits="userSpaceOnUse">
<stop stop-color="#FF3936"/>
<stop offset="0.2601" stop-color="#E62926"/>
<stop offset="0.7497" stop-color="#BB0E0B"/>
<stop offset="1" stop-color="#AB0400"/>
</linearGradient>
<linearGradient id="paint1_linear_788_19526" x1="62.4558" y1="15.307" x2="68.5123" y2="106.559" gradientUnits="userSpaceOnUse">
<stop stop-color="white"/>
<stop offset="0.147" stop-color="#F3F5F8"/>
<stop offset="0.7114" stop-color="#C8D2E2"/>
<stop offset="1" stop-color="#B8C4D9"/>
</linearGradient>
<linearGradient id="paint2_linear_788_19526" x1="-4.22088" y1="19.7322" x2="1.83566" y2="110.986" gradientUnits="userSpaceOnUse">
<stop stop-color="white"/>
<stop offset="0.147" stop-color="#F3F5F8"/>
<stop offset="0.7114" stop-color="#C8D2E2"/>
<stop offset="1" stop-color="#B8C4D9"/>
</linearGradient>
<linearGradient id="paint3_linear_788_19526" x1="-15.6371" y1="37.5815" x2="106.313" y2="58.0454" gradientUnits="userSpaceOnUse">
<stop stop-color="#FF3936"/>
<stop offset="0.2601" stop-color="#E62926"/>
<stop offset="0.7497" stop-color="#BB0E0B"/>
<stop offset="1" stop-color="#AB0400"/>
</linearGradient>
<linearGradient id="paint4_linear_788_19526" x1="106.221" y1="1.96033" x2="14.3431" y2="100.102" gradientUnits="userSpaceOnUse">
<stop stop-color="#FF3936"/>
<stop offset="0.2601" stop-color="#E62926"/>
<stop offset="0.7497" stop-color="#BB0E0B"/>
<stop offset="1" stop-color="#AB0400"/>
</linearGradient>
<linearGradient id="paint5_linear_788_19526" x1="103.77" y1="-0.344276" x2="11.8894" y2="97.7998" gradientUnits="userSpaceOnUse">
<stop stop-color="#FF3936"/>
<stop offset="0.2601" stop-color="#E62926"/>
<stop offset="0.7497" stop-color="#BB0E0B"/>
<stop offset="1" stop-color="#AB0400"/>
</linearGradient>
<linearGradient id="paint6_linear_788_19526" x1="-15.1314" y1="-3.24069" x2="79.4681" y2="14.5096" gradientUnits="userSpaceOnUse">
<stop stop-color="white"/>
<stop offset="0.147" stop-color="#F3F5F8"/>
<stop offset="0.7114" stop-color="#C8D2E2"/>
<stop offset="1" stop-color="#B8C4D9"/>
</linearGradient>
<linearGradient id="paint7_linear_788_19526" x1="-17.9266" y1="11.6923" x2="76.6657" y2="29.4411" gradientUnits="userSpaceOnUse">
<stop stop-color="white"/>
<stop offset="0.147" stop-color="#F3F5F8"/>
<stop offset="0.7114" stop-color="#C8D2E2"/>
<stop offset="1" stop-color="#B8C4D9"/>
</linearGradient>
<linearGradient id="paint8_linear_788_19526" x1="-29.752" y1="74.6819" x2="64.8426" y2="92.4313" gradientUnits="userSpaceOnUse">
<stop stop-color="white"/>
<stop offset="0.147" stop-color="#F3F5F8"/>
<stop offset="0.7114" stop-color="#C8D2E2"/>
<stop offset="1" stop-color="#B8C4D9"/>
</linearGradient>
<linearGradient id="paint9_linear_788_19526" x1="-25.5428" y1="52.2559" x2="69.0576" y2="70.0064" gradientUnits="userSpaceOnUse">
<stop stop-color="white"/>
<stop offset="0.147" stop-color="#F3F5F8"/>
<stop offset="0.7114" stop-color="#C8D2E2"/>
<stop offset="1" stop-color="#B8C4D9"/>
</linearGradient>
<linearGradient id="paint10_linear_788_19526" x1="41.4474" y1="16.7009" x2="47.5039" y2="107.954" gradientUnits="userSpaceOnUse">
<stop stop-color="white"/>
<stop offset="0.147" stop-color="#F3F5F8"/>
<stop offset="0.7114" stop-color="#C8D2E2"/>
<stop offset="1" stop-color="#B8C4D9"/>
</linearGradient>
</defs>
</svg>
