<svg width="142" height="135" viewBox="0 0 142 135" fill="none" xmlns="http://www.w3.org/2000/svg">
<path d="M121.263 16.5477C125.677 22.5014 130.087 28.455 134.5 34.4104C134.786 34.7964 134.462 35.012 134.176 34.6258L124.099 21.0271C124.05 20.9606 124.006 20.8906 123.967 20.8176C123.168 19.3264 122.266 17.901 121.263 16.5477Z" fill="url(#paint0_linear_788_19876)"/>
<path d="M20.888 118.646C16.474 112.692 12.0617 106.737 7.64941 100.784C11.4376 105.895 16.6559 109.979 23.1293 112.692C24.2171 113.148 25.185 113.86 25.8872 114.808C29.485 119.663 25.3449 124.293 21.5884 119.56C21.3497 119.259 21.1162 118.954 20.888 118.646Z" fill="url(#paint1_linear_788_19876)"/>
<path d="M127.98 33.3752C127.809 32.1655 131.108 30.4945 131.836 31.476L137.181 38.6895C137.23 38.7563 137.275 38.8266 137.314 38.9001C139.245 42.5717 140.579 46.6937 141.216 51.2378C141.953 56.4751 135.675 58.2169 132.526 53.9676L129.727 50.1896C128.448 48.4637 127.951 46.2972 128.16 44.1594C128.517 40.5102 128.475 36.8976 127.98 33.3752Z" fill="url(#paint2_linear_788_19876)"/>
<path d="M48.7562 116.215C52.476 115.9 56.1912 117.334 58.414 120.334L58.5671 120.54C62.9003 126.387 59.4586 134.677 52.1988 134.17C47.7039 133.858 43.5464 133.047 39.7588 131.811C38.6401 131.446 37.6831 130.715 36.9825 129.769L33.4504 125.003C30.9 121.561 34.6888 116.009 38.962 116.307C42.1821 116.532 45.4581 116.494 48.7562 116.215Z" fill="url(#paint3_linear_788_19876)"/>
<path d="M119.968 49.2934C119.642 49.3674 119.277 49.3915 118.898 49.3657C118.344 49.3278 117.762 49.1797 117.247 48.9265C116.427 48.5253 115.774 47.857 115.647 46.9357L113.355 30.5455C113.265 29.8945 113.444 29.1592 113.776 28.4393C114.412 27.0632 115.614 25.744 116.608 25.1723C120.743 22.8077 122.328 17.4804 119.133 13.9475C116.914 11.494 114.32 9.33235 111.378 7.50973C107.346 5.01236 102.258 6.78832 99.6648 10.7592C98.7641 12.1421 95.9207 14.0417 93.7869 13.8936L75.2922 12.6054C73.1739 12.4573 72.1182 10.2873 72.4558 8.86479C73.3117 5.57288 70.4921 2.51772 67.2036 3.38667C59.9649 5.2994 52.7882 8.25391 45.9723 12.0605C43.0971 13.6663 42.3288 17.3897 44.1584 20.128C44.601 20.7996 44.5992 22.2032 44.0154 23.5827C43.7106 24.3043 43.2474 25.0207 42.6033 25.6218L26.3991 40.722C25.9909 41.1043 25.5242 41.4212 25.0351 41.6812C24.4323 41.9999 23.7969 42.2306 23.182 42.377C22.4794 42.5458 21.806 42.6061 20.7296 42.4941C20.5712 42.458 20.4317 42.4132 20.3128 42.3546C16.9721 40.7642 12.9373 41.7543 10.976 44.8917C9.02024 48.0203 7.28471 51.2561 5.81538 54.5788C4.69746 57.1058 3.76473 59.6058 3.00848 62.0683C1.89079 65.7076 5.24614 68.8905 8.95494 68.0308C9.2391 67.9654 9.55428 67.9396 10.0193 67.9585C10.436 67.9878 10.8666 68.0773 11.273 68.2272C12.2736 68.594 13.1296 69.3173 13.2811 70.3765L15.5527 86.777C15.6457 87.4245 15.4666 88.1582 15.1359 88.878C14.5004 90.2524 13.2966 91.575 12.3064 92.1382C8.18382 94.5495 6.6244 99.8944 9.83444 103.431C12.0432 105.864 14.622 108.009 17.5467 109.82C21.5753 112.314 26.659 110.536 29.2441 106.565C30.1466 105.182 33.002 103.284 35.1272 103.419L53.6218 104.707C55.7556 104.855 56.7924 107.039 56.4549 108.459C55.6662 111.777 58.5202 114.799 61.8152 113.923C69.0153 112.007 76.1536 109.061 82.9404 105.272C85.8226 103.663 86.5933 99.9304 84.7592 97.1859C84.3131 96.5229 84.3166 95.1158 84.8987 93.7381C85.2035 93.0165 85.6667 92.3018 86.3074 91.7059L102.531 76.5936C103.572 75.6171 104.998 75.0522 106.254 74.8421C106.765 74.756 107.249 74.7302 107.873 74.7784C108.164 74.8146 108.414 74.8783 108.613 74.9713C111.959 76.5646 116 75.5727 117.958 72.4269C119.904 69.3 121.628 66.0662 123.097 62.7471C124.216 60.2168 125.15 57.7133 125.907 55.2476C127.023 51.613 123.671 48.4345 119.968 49.2934Z" fill="url(#paint4_linear_788_19876)"/>
<path d="M123.082 62.7457C125.5 57.2792 133.682 55.5336 137.241 60.3359L138.949 62.641C140.234 64.3747 140.788 66.5609 140.312 68.6657C139.435 72.5473 138.116 76.543 136.319 80.6084C135.924 81.5022 135.51 82.3897 135.078 83.2705C131.929 89.6956 123.278 89.7434 119.018 83.9943C116.251 80.2606 116.299 75.1965 118.686 71.2093C120.33 68.4623 121.803 65.6364 123.082 62.7457Z" fill="url(#paint5_linear_788_19876)"/>
<path d="M79.094 107.303C84.3024 104.688 90.7773 105.819 94.2472 110.501C98.073 115.664 96.7426 123.05 90.9553 125.843C85.421 128.513 79.71 130.618 73.9689 132.063C70.3465 132.974 66.6115 131.429 64.3874 128.428C59.984 122.486 63.4011 113.801 70.3132 111.171C73.2779 110.044 76.2119 108.75 79.094 107.303Z" fill="url(#paint6_linear_788_19876)"/>
<path d="M26.3911 40.7185L42.5953 25.6183C43.2394 25.0172 43.7044 24.3025 44.0075 23.5792C44.5913 22.1997 44.5931 20.7961 44.1505 20.1245C42.2964 17.3487 38.5481 16.554 35.8501 18.5195C32.5971 20.8891 29.4413 23.4836 26.4222 26.302C23.5431 28.9793 20.9016 31.7574 18.4942 34.6035C16.3562 37.1311 17.3158 40.9298 20.3049 42.3529C20.4237 42.4097 20.5633 42.4562 20.7217 42.4924C20.8009 42.5113 20.8836 42.5251 20.9714 42.5371C21.0575 42.5492 21.1488 42.5595 21.2435 42.5664C21.7981 42.6043 22.4715 42.544 23.1741 42.377C23.7889 42.2289 24.4244 41.9998 25.0272 41.6812C25.5163 41.4177 25.983 41.1008 26.3911 40.7185Z" fill="url(#paint7_linear_788_19876)"/>
<path d="M99.6645 10.7574L103.883 4.29929C103.994 4.12961 103.919 3.90189 103.729 3.83073C103.195 3.63612 102.651 3.45012 102.1 3.27273C98.3952 2.08614 94.3326 1.31976 89.9547 1.01493C85.7164 0.718714 81.3868 0.870271 77.0314 1.4386C76.2185 1.54537 75.4039 1.6642 74.5893 1.80026C74.3074 1.84673 74.081 2.05832 74.0145 2.33622L72.4521 8.85954C72.1162 10.2821 73.1702 12.452 75.2885 12.6001L93.7832 13.8884C95.9204 14.0399 98.7638 12.1403 99.6645 10.7574Z" fill="url(#paint8_linear_788_19876)"/>
<path d="M13.2693 70.3763C13.1194 69.3171 12.2601 68.5938 11.2612 68.227C10.8548 68.0771 10.4242 67.9876 10.0074 67.9583C9.96091 67.9549 9.91442 67.9514 9.86793 67.9514C9.54243 67.9394 9.22729 67.9652 8.94313 68.0306C4.24026 69.1207 0.516612 72.9565 0.50693 77.7841C0.502761 79.8625 0.637484 81.921 0.922838 83.9489C1.13569 85.4945 1.43038 86.9914 1.80316 88.4375C2.97103 92.9681 8.23634 94.4621 12.298 92.1397C13.2865 91.5765 14.4903 90.2539 15.1275 88.8795C15.4582 88.1597 15.6373 87.4243 15.5443 86.7785L13.2693 70.3763Z" fill="url(#paint9_linear_788_19876)"/>
<path d="M127.98 33.3766C127.763 31.8293 127.466 30.3311 127.091 28.8831C125.921 24.355 120.659 22.8486 116.598 25.1703C115.606 25.7421 114.403 27.063 113.767 28.4373C113.435 29.1572 113.256 29.8926 113.345 30.5436L115.637 46.9337C115.763 47.8551 116.418 48.5233 117.237 48.9246C117.752 49.1777 118.334 49.3258 118.891 49.3637C119.268 49.3896 119.633 49.3672 119.958 49.2914C124.657 48.2006 128.383 44.3747 128.396 39.5511C128.401 37.4696 128.266 35.4077 127.98 33.3766Z" fill="url(#paint10_linear_788_19876)"/>
<path d="M53.6179 104.708L35.1232 103.42C32.998 103.284 30.1426 105.182 29.2402 106.567C26.9739 110.048 28.54 114.737 32.6225 115.503C34.6527 115.885 36.7671 116.156 38.962 116.309C41.8284 116.508 44.7386 116.5 47.6688 116.299C52.0099 116.002 55.4448 112.697 56.4492 108.463C56.7885 107.039 55.7517 104.857 53.6179 104.708Z" fill="url(#paint11_linear_788_19876)"/>
<path d="M107.867 74.7784C107.8 74.7715 107.732 74.7647 107.66 74.7595C107.243 74.7302 106.759 74.756 106.248 74.8422C104.992 75.0523 103.566 75.6171 102.525 76.5936L86.3015 91.7059C85.6608 92.3018 85.1958 93.0165 84.8927 93.7381C84.3106 95.1159 84.3072 96.5229 84.7532 97.1859C86.6089 99.9628 90.3581 100.759 93.0587 98.7942C96.3084 96.4298 99.4652 93.8379 102.49 91.0239C106.999 86.8286 110.925 82.3905 114.279 77.8336C114.324 77.775 114.302 77.6881 114.235 77.6562L108.609 74.973C108.408 74.8783 108.158 74.8146 107.867 74.7784Z" fill="url(#paint12_linear_788_19876)"/>
<path d="M114.267 77.8318C114.309 77.7745 114.395 77.7744 114.437 77.8313L127.505 95.4645C127.556 95.5322 127.557 95.6271 127.504 95.6927C124.153 100.25 120.224 104.689 115.716 108.885C113.775 110.69 111.78 112.403 109.742 114.024C105.178 117.653 98.6246 116.409 95.1525 111.724C91.3286 106.563 92.7175 99.2812 97.6847 95.2096C99.3144 93.8737 100.914 92.4776 102.479 91.0221C106.988 86.8268 110.914 82.3888 114.267 77.8318Z" fill="url(#paint13_linear_788_19876)"/>
<path d="M81.7842 20.0108C59.7676 18.4763 34.1517 34.7855 24.578 56.4301C15.0026 78.0764 25.0947 96.8707 47.1112 98.4052C69.1295 99.9397 94.7317 83.6287 104.305 61.9842C113.879 40.3396 103.801 21.5453 81.7842 20.0108Z" fill="white"/>
<path d="M81.7842 19.4651C59.7676 17.9306 34.1517 34.2398 24.578 55.8844C15.0026 77.5307 25.0947 96.325 47.1112 97.8595C69.1295 99.3939 94.7317 83.083 104.305 61.4385C113.879 39.7922 103.801 20.9979 81.7842 19.4651Z" fill="#44A1FF"/>
<path d="M25.8634 60.1103C35.4371 38.4658 61.0531 22.1566 83.0696 23.6911C86.2931 23.9154 89.3425 20.628 86.1677 20.0267C84.7633 19.7607 83.2992 19.5724 81.778 19.4665C59.7614 17.932 34.1454 34.2412 24.5718 55.8858C23.9579 57.2735 23.425 58.6493 22.9712 60.0095C22.2181 62.2662 24.9012 62.286 25.8634 60.1103Z" fill="#1E84F0"/>
<path d="M141.221 51.2379C140.577 46.6465 139.223 42.4891 137.26 38.7898C136.446 37.2588 135.524 35.7966 134.498 34.4103C134.284 34.1227 134.069 33.8333 133.855 33.544C134.517 34.6152 135.145 35.7674 135.684 36.7817C137.648 40.481 139.001 44.6401 139.645 49.2298C140.291 53.8211 140.167 58.5658 139.392 63.3449C138.586 68.2514 137.066 73.3681 134.753 78.6001C132.439 83.831 129.491 88.8467 126.039 93.5681C126.038 93.5698 126.035 93.5701 126.034 93.5689L126.027 93.5638C126.024 93.5618 126.021 93.5652 126.023 93.5677C126.024 93.5687 126.024 93.5702 126.023 93.5712C125.994 93.6086 125.967 93.6475 125.938 93.6831C122.587 98.2401 118.659 102.68 114.15 106.875C109.603 111.103 104.762 114.83 99.7542 118.037C89.3369 124.695 77.854 129.367 66.4518 131.307C66.4477 131.308 66.4436 131.306 66.4409 131.303C66.4382 131.3 66.4341 131.298 66.43 131.299C61.1089 132.202 55.793 132.52 50.6182 132.16C45.4396 131.8 40.7087 130.779 36.4755 129.209C29.8864 126.767 24.5166 122.954 20.5039 118.119C20.6331 118.295 20.7622 118.469 20.8931 118.645C25.004 124.192 30.7992 128.528 38.0548 131.217C42.288 132.787 47.0188 133.807 52.1975 134.169C57.3722 134.53 62.6881 134.21 68.0092 133.307C68.0133 133.306 68.0175 133.308 68.0201 133.311C68.0228 133.314 68.027 133.316 68.0311 133.315C79.4333 131.375 90.9162 126.703 101.333 120.045C106.342 116.838 111.184 113.111 115.729 108.883C120.238 104.688 124.165 100.248 127.518 95.6912C127.547 95.6539 127.574 95.6166 127.602 95.5793C127.603 95.5783 127.603 95.5768 127.602 95.5758C127.6 95.5733 127.604 95.5698 127.606 95.5718L127.613 95.5769C127.615 95.5782 127.617 95.5779 127.618 95.5762C131.07 90.8548 134.018 85.8374 136.332 80.6082C138.647 75.3762 140.167 70.2595 140.972 65.353C141.743 60.5756 141.867 55.8292 141.221 51.2379Z" fill="#B0AAAA"/>
<path d="M123.942 63.8392C126.257 58.6072 127.778 53.4906 128.582 48.584C129.357 43.8049 129.481 39.0603 128.835 34.4689C128.191 29.8775 126.838 25.7201 124.874 22.0209C124.235 20.8188 123.51 19.6735 122.74 18.5593C122.244 17.8893 121.747 17.2194 121.251 16.5477C122.279 17.9341 123.2 19.3962 124.013 20.9273C125.976 24.6266 127.33 28.7856 127.974 33.377C128.62 37.9684 128.496 42.7131 127.721 47.4922C126.915 52.3987 125.394 57.5153 123.081 62.7474C120.767 67.9786 117.819 72.9947 114.367 77.7164C114.366 77.7176 114.366 77.7193 114.366 77.7208C114.368 77.7257 114.362 77.7295 114.358 77.7252L114.357 77.7235C114.355 77.7209 114.351 77.7209 114.349 77.7235C114.322 77.7597 114.295 77.796 114.267 77.8338C110.916 82.3907 106.988 86.8306 102.479 91.0241C97.9322 95.2538 93.0911 98.9807 88.0829 102.186C77.6691 108.842 66.1914 113.512 54.7943 115.454C54.7902 115.455 54.7861 115.453 54.7834 115.45C54.7807 115.447 54.7766 115.445 54.7724 115.446C49.4462 116.349 44.1252 116.669 38.9487 116.308C33.77 115.948 29.0392 114.928 24.806 113.356C17.9413 110.812 12.4027 106.779 8.3418 101.655C8.39518 101.728 8.45202 101.802 8.50541 101.876C12.6163 107.423 18.4115 111.759 25.6671 114.448C29.9002 116.018 34.6311 117.038 39.8098 117.4C44.9845 117.761 50.3004 117.441 55.6215 116.54C55.6256 116.539 55.6298 116.54 55.6325 116.544C55.6351 116.547 55.6393 116.548 55.6434 116.548C67.0456 114.606 78.5285 109.936 88.9458 103.278C93.9539 100.071 98.7968 96.344 103.342 92.116C107.85 87.9207 111.777 83.4809 115.13 78.924C115.159 78.8867 115.186 78.8494 115.215 78.812C115.216 78.811 115.216 78.8096 115.215 78.8086C115.213 78.8061 115.216 78.8026 115.219 78.8046L115.225 78.8097C115.227 78.811 115.229 78.8106 115.23 78.809C118.681 74.0859 121.628 69.0684 123.942 63.8392Z" fill="white"/>
<path d="M47.2764 73.5257L44.3582 75.2782L44.8386 79.1984L40.349 81.8946L38.3584 65.6506L45.4295 61.4042C48.647 59.4719 50.5008 60.5056 50.991 64.5052C51.0989 65.386 51.1249 66.254 51.0691 67.1091C51.0132 67.9643 50.8398 68.7892 50.5489 69.584C50.2688 70.3568 49.8622 71.0815 49.3292 71.7581C48.8087 72.4272 48.1244 73.0164 47.2764 73.5257ZM44.3864 66.495L43.3576 67.1129L43.8486 71.1198L44.8775 70.5019C45.4262 70.1724 45.8111 69.8715 46.0321 69.5992C46.2656 69.3195 46.3531 68.9414 46.2947 68.4649L46.0718 66.6456C46.0152 66.1835 45.8542 65.9624 45.5888 65.9822C45.336 65.9946 44.9352 66.1655 44.3864 66.495Z" fill="#2B2C2D"/>
<path d="M51.8145 57.5695L56.1988 54.9365L57.6581 66.8445L59.2109 65.912C59.7711 65.5756 60.1383 65.2643 60.3124 64.978C60.4987 64.6845 60.5573 64.2557 60.4882 63.6917L59.1948 53.1373L63.5791 50.5044L64.6703 59.4089C64.8362 60.7626 64.897 61.9523 64.8528 62.978C64.8207 63.9964 64.6217 64.9334 64.2558 65.7889C63.9004 66.623 63.3546 67.3974 62.6185 68.112C61.8823 68.8265 60.9053 69.5495 59.6874 70.2809C58.4695 71.0123 57.4614 71.4815 56.6631 71.6884C55.8647 71.8954 55.2109 71.8414 54.7016 71.5266C54.2045 71.2045 53.8197 70.6256 53.5474 69.79C53.2855 68.9331 53.0716 67.8278 52.9057 66.4741L51.8145 57.5695Z" fill="#2B2C2D"/>
<path d="M76.268 54.511L79.3634 58.4652L74.4249 61.431L71.9997 57.702L71.027 58.2862L71.6189 63.1161L67.1293 65.8123L65.1387 49.5683L72.2098 45.3218C75.4273 43.3896 77.2687 44.3222 77.7341 48.1197C78.0526 50.7187 77.5639 52.8491 76.268 54.511ZM71.1667 50.4127L70.1378 51.0306L70.536 54.2794L71.5648 53.6615C72.1136 53.332 72.4984 53.0311 72.7195 52.7588C72.953 52.4791 73.0414 52.1082 72.9848 51.6461L72.8521 50.5632C72.7954 50.1012 72.6345 49.8801 72.3691 49.8999C72.1162 49.9122 71.7154 50.0832 71.1667 50.4127Z" fill="#2B2C2D"/>
<path d="M88.6885 42.2387L89.1503 46.0073L84.6607 48.7034L84.9022 50.6744L90.402 47.3716L90.9116 51.53L80.9223 57.529L78.9316 41.285L88.8087 35.3535L88.7571 39.8489L83.9308 42.7473L84.1989 44.9348L88.6885 42.2387Z" fill="#2B2C2D"/>
<defs>
<linearGradient id="paint0_linear_788_19876" x1="170.824" y1="-16.7242" x2="44.536" y2="118.172" gradientUnits="userSpaceOnUse">
<stop stop-color="#29DFFF"/>
<stop offset="0.147" stop-color="#22D3FC"/>
<stop offset="0.7114" stop-color="#09A8F1"/>
<stop offset="1" stop-color="#0098ED"/>
</linearGradient>
<linearGradient id="paint1_linear_788_19876" x1="158.193" y1="-28.5671" x2="31.8886" y2="106.347" gradientUnits="userSpaceOnUse">
<stop stop-color="#29DFFF"/>
<stop offset="0.147" stop-color="#22D3FC"/>
<stop offset="0.7114" stop-color="#09A8F1"/>
<stop offset="1" stop-color="#0098ED"/>
</linearGradient>
<linearGradient id="paint2_linear_788_19876" x1="131.694" y1="21.3164" x2="140.018" y2="146.748" gradientUnits="userSpaceOnUse">
<stop stop-color="#38393B"/>
<stop offset="0.3263" stop-color="#2F3031"/>
<stop offset="1" stop-color="#1F2021"/>
</linearGradient>
<linearGradient id="paint3_linear_788_19876" x1="40.0563" y1="27.3992" x2="48.3814" y2="152.833" gradientUnits="userSpaceOnUse">
<stop stop-color="#38393B"/>
<stop offset="0.3263" stop-color="#2F3031"/>
<stop offset="1" stop-color="#1F2021"/>
</linearGradient>
<linearGradient id="paint4_linear_788_19876" x1="24.3627" y1="51.9343" x2="191.991" y2="80.0633" gradientUnits="userSpaceOnUse">
<stop stop-color="#29DFFF"/>
<stop offset="0.147" stop-color="#22D3FC"/>
<stop offset="0.7114" stop-color="#09A8F1"/>
<stop offset="1" stop-color="#0098ED"/>
</linearGradient>
<linearGradient id="paint5_linear_788_19876" x1="191.853" y1="2.97039" x2="65.5599" y2="137.873" gradientUnits="userSpaceOnUse">
<stop stop-color="#29DFFF"/>
<stop offset="0.147" stop-color="#22D3FC"/>
<stop offset="0.7114" stop-color="#09A8F1"/>
<stop offset="1" stop-color="#0098ED"/>
</linearGradient>
<linearGradient id="paint6_linear_788_19876" x1="188.473" y1="-0.19755" x2="62.1774" y2="134.708" gradientUnits="userSpaceOnUse">
<stop stop-color="#29DFFF"/>
<stop offset="0.147" stop-color="#22D3FC"/>
<stop offset="0.7114" stop-color="#09A8F1"/>
<stop offset="1" stop-color="#0098ED"/>
</linearGradient>
<linearGradient id="paint7_linear_788_19876" x1="19.2575" y1="26.6495" x2="149.278" y2="51.046" gradientUnits="userSpaceOnUse">
<stop stop-color="#38393B"/>
<stop offset="0.3263" stop-color="#2F3031"/>
<stop offset="1" stop-color="#1F2021"/>
</linearGradient>
<linearGradient id="paint8_linear_788_19876" x1="25.0424" y1="-4.17852" x2="155.076" y2="20.2204" gradientUnits="userSpaceOnUse">
<stop stop-color="#38393B"/>
<stop offset="0.3263" stop-color="#2F3031"/>
<stop offset="1" stop-color="#1F2021"/>
</linearGradient>
<linearGradient id="paint9_linear_788_19876" x1="8.7902" y1="82.4044" x2="138.83" y2="106.805" gradientUnits="userSpaceOnUse">
<stop stop-color="#38393B"/>
<stop offset="0.3263" stop-color="#2F3031"/>
<stop offset="1" stop-color="#1F2021"/>
</linearGradient>
<linearGradient id="paint10_linear_788_19876" x1="21.1869" y1="16.3477" x2="151.211" y2="40.745" gradientUnits="userSpaceOnUse">
<stop stop-color="#38393B"/>
<stop offset="0.3263" stop-color="#2F3031"/>
<stop offset="1" stop-color="#1F2021"/>
</linearGradient>
<linearGradient id="paint11_linear_788_19876" x1="4.94416" y1="102.931" x2="134.971" y2="127.329" gradientUnits="userSpaceOnUse">
<stop stop-color="#38393B"/>
<stop offset="0.3263" stop-color="#2F3031"/>
<stop offset="1" stop-color="#1F2021"/>
</linearGradient>
<linearGradient id="paint12_linear_788_19876" x1="10.7193" y1="72.1051" x2="140.754" y2="96.5043" gradientUnits="userSpaceOnUse">
<stop stop-color="#38393B"/>
<stop offset="0.3263" stop-color="#2F3031"/>
<stop offset="1" stop-color="#1F2021"/>
</linearGradient>
<linearGradient id="paint13_linear_788_19876" x1="102.815" y1="23.2325" x2="111.14" y2="148.666" gradientUnits="userSpaceOnUse">
<stop stop-color="#38393B"/>
<stop offset="0.3263" stop-color="#2F3031"/>
<stop offset="1" stop-color="#1F2021"/>
</linearGradient>
</defs>
</svg>
