<svg width="68" height="121" viewBox="0 0 68 121" fill="none" xmlns="http://www.w3.org/2000/svg">
<path d="M17.834 72.9285C17.0917 68.2856 16.3513 63.6438 15.6095 59C15.5613 58.6988 15.8066 58.6721 15.8547 58.9733L17.5482 69.5771C17.5565 69.6289 17.5609 69.6813 17.5615 69.7338C17.5746 70.8069 17.6651 71.8731 17.834 72.9285Z" fill="url(#paint0_linear_788_19555)"/>
<path d="M18.9776 61.4909C18.7193 62.2219 16.3731 62.1972 16.2508 61.4316L15.3525 55.8065C15.3442 55.7544 15.3397 55.7018 15.3394 55.6491C15.3265 53.0171 15.7823 50.3068 16.7531 47.5625C17.8714 44.398 21.9152 45.2552 22.4443 48.5695L22.9145 51.5144C23.1294 52.8606 22.7747 54.226 22.0311 55.3686C20.7625 57.3179 19.7293 59.3635 18.9776 61.4909Z" fill="url(#paint1_linear_788_19555)"/>
<path d="M28.15 54.8783C28.3549 54.9319 28.5674 55.0251 28.7731 55.1505C29.0742 55.3341 29.3585 55.5879 29.5743 55.881C29.9183 56.3468 30.0901 56.9139 29.8922 57.4698L26.3862 67.3662C26.2461 67.7589 25.9301 68.1204 25.5323 68.4283C24.772 69.0169 23.7093 69.4077 22.9836 69.4392C19.9641 69.5601 17.5128 72.0948 18.2774 75.0185C18.8083 77.0488 19.6355 79.0245 20.7584 80.9116C22.297 83.497 25.6812 83.9864 28.3027 82.51C29.2144 81.9952 31.3707 81.758 32.5284 82.4658L42.5617 88.603C43.7107 89.3063 43.6699 90.8366 43.0636 91.5386C41.6185 93.141 42.3116 95.6858 44.4169 96.159C49.0513 97.2007 53.9556 97.6378 58.9063 97.4896C60.9944 97.4272 62.5165 95.5566 62.2885 93.48C62.2359 92.9724 62.6476 92.1829 63.3799 91.5773C63.7626 91.2603 64.2331 90.9926 64.7715 90.8428L78.3112 87.085C78.6528 86.9893 79.0083 86.9475 79.3597 86.9442C79.7922 86.9413 80.2174 86.9974 80.6063 87.0949C81.0512 87.2055 81.4479 87.3686 82.021 87.7466C82.0996 87.8133 82.165 87.8794 82.2148 87.9471C83.6298 89.8199 86.1906 90.4433 88.2127 89.2513C90.2291 88.0626 92.1529 86.7491 93.9522 85.3088C95.3207 84.2138 96.577 83.0798 97.7231 81.9153C99.4176 80.1935 98.4602 77.4194 96.1206 76.8177C95.9415 76.7714 95.7565 76.6937 95.5003 76.547C95.2743 76.4086 95.0582 76.2322 94.8723 76.0284C94.4164 75.5291 94.1463 74.8715 94.3709 74.231L97.8916 64.3348C98.0287 63.9431 98.3442 63.5826 98.741 63.2741C99.5009 62.6865 100.566 62.2943 101.288 62.2671C104.314 62.1162 106.756 59.564 105.984 56.6341C105.452 54.6181 104.629 52.656 103.512 50.7809C101.975 48.1981 98.5927 47.7114 95.9756 49.19C95.062 49.7039 92.9003 49.937 91.7434 49.2395L81.7102 43.1023C80.5525 42.3945 80.6079 40.862 81.2137 40.161C82.6283 38.5247 81.9064 35.988 79.7952 35.5173C75.1817 34.4886 70.3013 34.058 65.3722 34.2047C63.2792 34.2671 61.7532 36.1419 61.9819 38.2233C62.039 38.7271 61.6253 39.5181 60.8945 40.1232C60.5117 40.4402 60.0418 40.7069 59.5068 40.8549L45.9529 44.6138C45.0807 44.8585 44.1127 44.7592 43.3446 44.5101C43.0315 44.4089 42.7515 44.2818 42.4147 44.0722C42.2615 43.9667 42.1396 43.8578 42.0543 43.7469C40.6375 41.8711 38.0726 41.2469 36.0499 42.4446C34.0394 43.6352 32.1227 44.9509 30.3246 46.3893C28.9544 47.4857 27.6965 48.6213 26.5491 49.7875C24.8571 51.5072 25.8134 54.2776 28.15 54.8783Z" fill="url(#paint2_linear_788_19555)"/>
<path d="M30.3296 46.3922C27.3692 48.7618 22.2527 47.35 21.6549 43.6055L21.368 41.8081C21.1522 40.4563 21.4802 39.0636 22.3637 38.0181C23.9932 36.0898 25.9048 34.2267 28.1061 32.4643C28.5902 32.0769 29.0829 31.6984 29.5837 31.329C33.2366 28.6341 38.1196 31.1385 38.8352 35.6212C39.3 38.5325 37.7915 41.3691 35.281 42.9149C33.5515 43.9798 31.8955 45.1395 30.3296 46.3922Z" fill="url(#paint3_linear_788_19555)"/>
<path d="M68.128 34.1842C64.4311 34.132 61.1173 31.6006 60.5344 27.9495C59.8918 23.9241 62.8019 20.156 66.8765 20.2777C70.7732 20.3942 74.6039 20.8805 78.2583 21.7474C80.5639 22.2944 82.2139 24.2572 82.5876 26.5972C83.3275 31.23 78.8624 35.1189 74.2024 34.5761C72.2036 34.3432 70.1736 34.2131 68.128 34.1842Z" fill="url(#paint4_linear_788_19555)"/>
<path d="M78.1153 87.3414L64.6668 90.5344C64.132 90.6618 63.6693 90.9073 63.2976 91.208C62.5853 91.7797 62.2016 92.5465 62.2734 93.0519C62.5899 95.186 64.442 96.7596 66.5184 96.5327C69.0701 96.2538 71.6276 95.8178 74.167 95.2125C76.5134 94.658 78.7543 93.9787 80.8829 93.1925C82.8132 92.4794 83.3678 90.021 82.0649 88.3485C82.0119 88.2803 81.9443 88.2113 81.8629 88.1421C81.8224 88.107 81.7786 88.0736 81.7313 88.0396C81.685 88.0061 81.6362 87.9725 81.5825 87.9386C81.2735 87.7447 80.8693 87.5673 80.4191 87.4391C80.0247 87.3281 79.5953 87.2542 79.1623 87.2406C78.8098 87.2324 78.4546 87.2599 78.1153 87.3414Z" fill="url(#paint5_linear_788_19555)"/>
<path d="M28.1491 82.4443L24.025 84.6006C23.9143 84.6585 23.8907 84.8095 23.9774 84.9035C24.2289 85.1712 24.4886 85.4376 24.7545 85.7014C26.5434 87.4719 28.6488 89.1273 31.0575 90.6326C33.3891 92.0904 35.8928 93.3367 38.5232 94.368C39.0143 94.5601 39.5096 94.7463 40.0095 94.9232C40.1826 94.9849 40.3732 94.935 40.494 94.7973L43.1204 91.8023C43.6934 91.1443 43.6763 89.6604 42.511 88.9318L32.3354 82.5726C31.1602 81.8363 29.0327 81.9807 28.1491 82.4443Z" fill="url(#paint6_linear_788_19555)"/>
<path d="M18.8378 61.2991C18.5632 62.1429 18.339 62.9852 18.1639 63.8248C17.5214 66.904 20.1561 69.4554 23.2336 69.4559C23.9733 69.4536 25.0436 69.1026 25.7968 68.5424C26.191 68.2488 26.4997 67.898 26.6276 67.5088L29.8256 57.6982C30.0072 57.1477 29.8089 56.5699 29.4397 56.0876C29.2081 55.784 28.9081 55.5173 28.5926 55.32C28.3788 55.1861 28.1586 55.0827 27.9469 55.0215C24.8936 54.137 21.551 55.1813 20.149 58.0607C19.6365 59.1133 19.1971 60.1935 18.8378 61.2991Z" fill="url(#paint7_linear_788_19555)"/>
<path d="M42.5804 43.6839C42.6172 43.7086 42.654 43.7333 42.6942 43.7588C42.9262 43.9049 43.213 44.0425 43.53 44.1547C44.3103 44.432 45.2855 44.5686 46.1517 44.3603L59.6142 41.1666C60.1456 41.041 60.6082 40.7956 60.9795 40.4958C61.6903 39.9245 62.0759 39.1564 61.9998 38.6546C61.6833 36.52 59.8318 34.9453 57.7546 35.171C55.2061 35.448 52.6484 35.8823 50.1067 36.4834C46.3665 37.3684 42.8953 38.568 39.722 40.0116C39.681 40.029 39.6689 40.0837 39.697 40.1199L42.207 43.3462C42.2962 43.4604 42.4226 43.5732 42.5804 43.6839Z" fill="url(#paint8_linear_788_19555)"/>
<path d="M39.7054 40.4802C39.6652 40.5003 39.6169 40.4753 39.6098 40.4309L37.4139 26.6814C37.4055 26.6285 37.4323 26.5746 37.4814 26.5532C40.7013 24.969 44.2117 23.6195 47.9772 22.5774C49.5978 22.1295 51.2219 21.7487 52.8434 21.4329C56.4748 20.7256 59.7993 23.3435 60.3825 26.9969C61.0249 31.0204 58.112 34.713 54.1247 35.5513C52.8164 35.8263 51.5073 36.144 50.2007 36.5054C46.4352 37.5474 42.9263 38.8965 39.7054 40.4802Z" fill="url(#paint9_linear_788_19555)"/>
<path d="M41.0687 82.5315C53.0122 89.8379 72.2034 88.1539 83.9261 78.7723C95.6503 69.3902 95.4695 55.858 83.526 48.5516C71.5814 41.2446 52.3975 42.9336 40.6748 52.3153C28.9521 61.6969 29.1251 75.225 41.0687 82.5315Z" fill="white"/>
<path d="M40.9095 82.8388C52.8531 90.1453 72.0443 88.4612 83.767 79.0796C95.4911 69.6975 95.3103 56.1653 83.3668 48.8589C71.4222 41.5519 52.2383 43.2409 40.5156 52.6226C28.7924 62.0052 28.9654 75.5333 40.9095 82.8388Z" fill="#FF9F05"/>
<path d="M84.2796 76.3248C72.557 85.7064 53.3658 87.3904 41.4222 80.084C39.6735 79.0144 36.995 79.9725 38.6061 81.24C39.3187 81.8007 40.0877 82.3351 40.913 82.8398C52.8566 90.1463 72.0478 88.4623 83.7705 79.0806C84.5221 78.4792 85.2246 77.8607 85.8781 77.2279C86.9623 76.178 85.4579 75.3817 84.2796 76.3248Z" fill="#E87500"/>
<path d="M16.7523 47.5623C15.7713 50.3351 15.3166 53.0713 15.3392 55.7281C15.3497 56.8283 15.4404 57.9209 15.6125 59.0016C15.6485 59.226 15.685 59.4519 15.7206 59.6772C15.6618 58.8807 15.6451 58.0483 15.6386 57.3195C15.616 54.6628 16.0711 51.9256 17.0517 49.1537C18.0317 46.3803 19.49 43.746 21.3247 41.2827C23.2142 38.7568 25.5674 36.3218 28.4004 34.0536C31.2337 31.7865 34.3606 29.8258 37.6843 28.1779C37.6855 28.1773 37.6869 28.1778 37.6875 28.179L37.6897 28.1839C37.6906 28.1858 37.6935 28.1848 37.693 28.1827C37.6929 28.1819 37.6933 28.1811 37.694 28.1808C37.7211 28.1682 37.7478 28.1542 37.7745 28.1426C40.9944 26.5583 44.5048 25.2088 48.2703 24.1668C52.0667 23.1174 55.8822 22.4363 59.6396 22.0969C67.4517 21.3974 75.2822 22.128 82.2679 24.3728C82.2705 24.3736 82.2723 24.3757 82.2729 24.3782C82.2735 24.3808 82.2754 24.3829 82.2779 24.3837C85.5373 25.4324 88.6226 26.8089 91.4301 28.5257C94.2397 30.2437 96.6037 32.203 98.5269 34.3258C101.521 37.6286 103.428 41.3462 104.272 45.2415C104.251 45.1048 104.229 44.9691 104.207 44.8319C103.516 40.5066 101.523 36.3698 98.2256 32.7334C96.3024 30.6105 93.9379 28.6523 91.1288 26.9333C88.3218 25.2155 85.236 23.84 81.9766 22.7913C81.9741 22.7905 81.9722 22.7884 81.9716 22.7858C81.9711 22.7832 81.9692 22.7811 81.9666 22.7803C74.9809 20.5356 67.1504 19.805 59.3383 20.5044C55.5809 20.8439 51.7644 21.5245 47.969 22.5743C44.2035 23.6164 40.6941 24.9664 37.4732 26.5501C37.446 26.5627 37.4198 26.5757 37.3927 26.5883C37.392 26.5887 37.3915 26.5895 37.3917 26.5903C37.3922 26.5923 37.3893 26.5933 37.3884 26.5914L37.3862 26.5866C37.3856 26.5854 37.3842 26.5849 37.383 26.5855C34.0583 28.2329 30.9309 30.1945 28.0981 32.4607C25.2642 34.7283 22.9109 37.1634 21.0224 39.6898C19.1911 42.1536 17.7324 44.7889 16.7523 47.5623Z" fill="#B0AAAA"/>
<path d="M30.1646 45.525C27.3307 47.7927 24.9775 50.2277 23.089 52.7541C21.2542 55.2174 19.796 57.8518 18.8159 60.6251C17.8349 63.398 17.3803 66.1342 17.4028 68.791C17.4107 69.6546 17.4837 70.5114 17.5909 71.3638C17.6741 71.8861 17.7582 72.4088 17.8408 72.932C17.6678 71.8508 17.577 70.7582 17.5675 69.6585C17.5449 67.0017 18.0001 64.2646 18.9811 61.4917C19.9612 58.7183 21.4194 56.084 23.2541 53.6207C25.1436 51.0948 27.4969 48.6598 30.3298 46.3916C33.1633 44.1243 36.2905 42.1635 39.6154 40.5161C39.6163 40.5156 39.6169 40.5148 39.617 40.5138C39.6174 40.5104 39.6222 40.5102 39.6228 40.5136L39.623 40.5149C39.6233 40.5169 39.6255 40.518 39.6273 40.5172C39.6536 40.5049 39.6791 40.4923 39.7059 40.4791C42.9258 38.8949 46.4362 37.5454 50.2012 36.5043C53.9981 35.454 57.8137 34.7729 61.5705 34.4344C69.3802 33.7349 77.2073 34.465 84.1906 36.7072C84.1931 36.708 84.195 36.7101 84.1956 36.7127C84.1962 36.7153 84.198 36.7174 84.2006 36.7182C87.4629 37.7684 90.5516 39.1454 93.3596 40.8637C96.1692 42.5817 98.5337 44.54 100.456 46.6638C103.576 50.1044 105.513 53.9955 106.3 58.0677C106.291 58.0114 106.28 57.9531 106.272 57.8958C105.581 53.5704 103.588 49.4337 100.291 45.7972C98.368 43.6744 96.0035 41.7161 93.1944 39.9971C90.3874 38.2793 87.3016 36.9038 84.0427 35.8542C84.0402 35.8534 84.0383 35.8513 84.0377 35.8487C84.0371 35.8461 84.0352 35.844 84.0327 35.8432C77.0465 33.5994 69.2165 32.8679 61.4044 33.5673C57.647 33.9068 53.8305 34.5874 50.0351 35.6372C46.2696 36.6792 42.7601 38.0293 39.5392 39.613C39.5121 39.6256 39.4859 39.6386 39.4588 39.6512C39.458 39.6516 39.4576 39.6524 39.4578 39.6532C39.4582 39.6552 39.4554 39.6562 39.4545 39.6543L39.4522 39.6495C39.4517 39.6483 39.4503 39.6478 39.4491 39.6484C36.1249 41.2972 32.9974 43.2588 30.1646 45.525Z" fill="white"/>
<path d="M48.1417 70.3743L45.9836 70.5252L45.419 72.971L42.0988 73.2031L44.4385 63.0688L49.6677 62.7032C52.0472 62.5368 52.9489 63.7012 52.3728 66.1965C52.2459 66.746 52.072 67.2634 51.8511 67.7485C51.6302 68.2337 51.3445 68.6658 50.9938 69.0449C50.6545 69.4142 50.2488 69.7174 49.7767 69.9542C49.3138 70.1904 48.7688 70.3305 48.1417 70.3743ZM47.9206 65.3779L47.1597 65.4311L46.5826 67.9308L47.3434 67.8776C47.7492 67.8493 48.0491 67.7884 48.243 67.6951C48.4462 67.6011 48.5821 67.4055 48.6508 67.1082L48.9128 65.9732C48.9793 65.6849 48.9298 65.5067 48.764 65.4385C48.6075 65.3697 48.3263 65.3495 47.9206 65.3779Z" fill="#2B2C2D"/>
<path d="M54.3896 62.373L57.632 62.1463L55.9168 69.5754L57.0652 69.4951C57.4795 69.4662 57.7709 69.3939 57.9393 69.2782C58.1168 69.1619 58.2462 68.9279 58.3274 68.576L59.8476 61.9913L63.0899 61.7646L61.8074 67.32C61.6124 68.1645 61.3894 68.8812 61.1382 69.47C60.8961 70.0581 60.5703 70.5483 60.1607 70.9404C59.7622 71.3232 59.261 71.6135 58.657 71.8116C58.0531 72.0096 57.3008 72.1401 56.4001 72.2031C55.4995 72.2661 54.7837 72.2382 54.2529 72.1195C53.722 72.0009 53.3361 71.7725 53.0951 71.4345C52.8632 71.0959 52.7557 70.6403 52.7726 70.0679C52.8006 69.4861 52.9121 68.7729 53.1071 67.9284L54.3896 62.373Z" fill="#2B2C2D"/>
<path d="M69.9324 67.9334L70.9509 71.1857L67.2987 71.4411L66.6387 68.5226L65.9193 68.5729L65.2236 71.5862L61.9035 71.8184L64.2432 61.6841L69.4724 61.3184C71.8519 61.152 72.7681 62.2534 72.2211 64.6226C71.8468 66.2441 71.0839 67.3477 69.9324 67.9334ZM67.7252 63.9931L66.9644 64.0463L66.4964 66.0731L67.2573 66.0199C67.6631 65.9916 67.963 65.9307 68.1569 65.8374C68.3601 65.7434 68.495 65.5523 68.5615 65.264L68.7175 64.5884C68.784 64.3001 68.7344 64.1219 68.5687 64.0538C68.4122 63.9849 68.131 63.9647 67.7252 63.9931Z" fill="#2B2C2D"/>
<defs>
<linearGradient id="paint0_linear_788_19555" x1="-19.7984" y1="77.1531" x2="90.7584" y2="38.1796" gradientUnits="userSpaceOnUse">
<stop stop-color="#FFEA05"/>
<stop offset="0.1856" stop-color="#FFDA05"/>
<stop offset="0.7245" stop-color="#FFAF05"/>
<stop offset="1" stop-color="#FF9F05"/>
</linearGradient>
<linearGradient id="paint1_linear_788_19555" x1="13.3582" y1="67.1917" x2="45.3776" y2="-5.84696" gradientUnits="userSpaceOnUse">
<stop stop-color="#38393B"/>
<stop offset="0.3263" stop-color="#2F3031"/>
<stop offset="1" stop-color="#1F2021"/>
</linearGradient>
<linearGradient id="paint2_linear_788_19555" x1="82.7366" y1="81.3688" x2="-3.38596" y2="16.4823" gradientUnits="userSpaceOnUse">
<stop stop-color="#FFEA05"/>
<stop offset="0.1856" stop-color="#FFDA05"/>
<stop offset="0.7245" stop-color="#FFAF05"/>
<stop offset="1" stop-color="#FF9F05"/>
</linearGradient>
<linearGradient id="paint3_linear_788_19555" x1="-25.872" y1="59.9139" x2="84.692" y2="20.9381" gradientUnits="userSpaceOnUse">
<stop stop-color="#FFEA05"/>
<stop offset="0.1856" stop-color="#FFDA05"/>
<stop offset="0.7245" stop-color="#FFAF05"/>
<stop offset="1" stop-color="#FF9F05"/>
</linearGradient>
<linearGradient id="paint4_linear_788_19555" x1="-24.8972" y1="62.6859" x2="85.6692" y2="23.7092" gradientUnits="userSpaceOnUse">
<stop stop-color="#FFEA05"/>
<stop offset="0.1856" stop-color="#FFDA05"/>
<stop offset="0.7245" stop-color="#FFAF05"/>
<stop offset="1" stop-color="#FF9F05"/>
</linearGradient>
<linearGradient id="paint5_linear_788_19555" x1="78.3876" y1="97.2604" x2="9.80828" y2="43.7655" gradientUnits="userSpaceOnUse">
<stop stop-color="#38393B"/>
<stop offset="0.3263" stop-color="#2F3031"/>
<stop offset="1" stop-color="#1F2021"/>
</linearGradient>
<linearGradient id="paint6_linear_788_19555" x1="66.5911" y1="113.311" x2="-0.797927" y2="60.3493" gradientUnits="userSpaceOnUse">
<stop stop-color="#38393B"/>
<stop offset="0.3263" stop-color="#2F3031"/>
<stop offset="1" stop-color="#1F2021"/>
</linearGradient>
<linearGradient id="paint7_linear_788_19555" x1="76.6969" y1="104.596" x2="7.05671" y2="50.1189" gradientUnits="userSpaceOnUse">
<stop stop-color="#38393B"/>
<stop offset="0.3263" stop-color="#2F3031"/>
<stop offset="1" stop-color="#1F2021"/>
</linearGradient>
<linearGradient id="paint8_linear_788_19555" x1="97.796" y1="75.4895" x2="29.2106" y2="21.9896" gradientUnits="userSpaceOnUse">
<stop stop-color="#38393B"/>
<stop offset="0.3263" stop-color="#2F3031"/>
<stop offset="1" stop-color="#1F2021"/>
</linearGradient>
<linearGradient id="paint9_linear_788_19555" x1="30.1741" y1="74.5642" x2="62.194" y2="1.5244" gradientUnits="userSpaceOnUse">
<stop stop-color="#38393B"/>
<stop offset="0.3263" stop-color="#2F3031"/>
<stop offset="1" stop-color="#1F2021"/>
</linearGradient>
</defs>
</svg>
