<svg width="1839" height="993" viewBox="0 0 1839 993" fill="none" xmlns="http://www.w3.org/2000/svg">
<g filter="url(#filter0_f_92_3785)">
<ellipse cx="1554.67" cy="45.2073" rx="2.66667" ry="2.555" fill="white"/>
</g>
<ellipse cx="1554.67" cy="45.2073" rx="2.66667" ry="2.555" fill="white"/>
<g filter="url(#filter1_f_92_3785)">
<circle cx="288" cy="62.5" r="2" fill="white"/>
</g>
<circle cx="288" cy="62.5" r="2" fill="white"/>
<g filter="url(#filter2_f_92_3785)">
<circle cx="36" cy="36.5" r="2" fill="white"/>
</g>
<circle cx="36" cy="36.5" r="2" fill="white"/>
<g filter="url(#filter3_f_92_3785)">
<ellipse cx="1318.67" cy="13.2698" rx="2.66667" ry="2.555" fill="white"/>
</g>
<ellipse cx="1318.67" cy="13.2698" rx="2.66667" ry="2.555" fill="white"/>
<g filter="url(#filter4_f_92_3785)">
<circle cx="1127" cy="42.5" r="2" fill="white"/>
</g>
<circle cx="1127" cy="42.5" r="2" fill="white"/>
<g filter="url(#filter5_f_92_3785)">
<ellipse cx="1817.33" cy="60.5374" rx="2.66667" ry="2.555" fill="white"/>
</g>
<ellipse cx="1817.33" cy="60.5374" rx="2.66667" ry="2.555" fill="white"/>
<g filter="url(#filter6_f_92_3785)">
<ellipse cx="866.667" cy="18.3792" rx="2.66667" ry="2.555" fill="white"/>
</g>
<ellipse cx="866.667" cy="18.3792" rx="2.66667" ry="2.555" fill="white"/>
<g filter="url(#filter7_f_92_3785)">
<ellipse cx="1248" cy="249.608" rx="2.66667" ry="2.555" fill="white"/>
</g>
<ellipse cx="1248" cy="249.608" rx="2.66667" ry="2.555" fill="white"/>
<g filter="url(#filter8_f_92_3785)">
<ellipse cx="1457.33" cy="498.719" rx="2.66667" ry="2.555" fill="white"/>
</g>
<ellipse cx="1457.33" cy="498.719" rx="2.66667" ry="2.555" fill="white"/>
<g filter="url(#filter9_f_92_3785)">
<ellipse cx="1696" cy="922.85" rx="2.66667" ry="2.555" fill="white"/>
</g>
<ellipse cx="1696" cy="922.85" rx="2.66667" ry="2.555" fill="white"/>
<g filter="url(#filter10_f_92_3785)">
<ellipse cx="1321.33" cy="958.619" rx="2.66667" ry="2.555" fill="white"/>
</g>
<ellipse cx="1321.33" cy="958.619" rx="2.66667" ry="2.555" fill="white"/>
<g filter="url(#filter11_f_92_3785)">
<ellipse cx="1713.33" cy="554.93" rx="2.66667" ry="2.555" fill="white"/>
</g>
<ellipse cx="1713.33" cy="554.93" rx="2.66667" ry="2.555" fill="white"/>
<g filter="url(#filter12_f_92_3785)">
<ellipse cx="1822.67" cy="825.76" rx="2.66667" ry="2.555" fill="white"/>
</g>
<ellipse cx="1822.67" cy="825.76" rx="2.66667" ry="2.555" fill="white"/>
<g filter="url(#filter13_f_92_3785)">
<ellipse cx="1830.67" cy="383.744" rx="2.66667" ry="2.555" fill="white"/>
</g>
<ellipse cx="1830.67" cy="383.744" rx="2.66667" ry="2.555" fill="white"/>
<g filter="url(#filter14_f_92_3785)">
<ellipse cx="809.333" cy="572.815" rx="2.66667" ry="2.555" fill="white"/>
</g>
<ellipse cx="809.333" cy="572.815" rx="2.66667" ry="2.555" fill="white"/>
<g filter="url(#filter15_f_92_3785)">
<ellipse cx="1037.33" cy="554.93" rx="2.66667" ry="2.555" fill="white"/>
</g>
<ellipse cx="1037.33" cy="554.93" rx="2.66667" ry="2.555" fill="white"/>
<g filter="url(#filter16_f_92_3785)">
<ellipse cx="1221.33" cy="726.116" rx="2.66667" ry="2.555" fill="white"/>
</g>
<ellipse cx="1221.33" cy="726.116" rx="2.66667" ry="2.555" fill="white"/>
<g filter="url(#filter17_f_92_3785)">
<ellipse cx="1830.67" cy="625.192" rx="2.66667" ry="2.555" fill="white"/>
</g>
<ellipse cx="1830.67" cy="625.192" rx="2.66667" ry="2.555" fill="white"/>
<g filter="url(#filter18_f_92_3785)">
<ellipse cx="1534.67" cy="583.035" rx="2.66667" ry="2.555" fill="white"/>
</g>
<ellipse cx="1534.67" cy="583.035" rx="2.66667" ry="2.555" fill="white"/>
<g filter="url(#filter19_f_92_3785)">
<circle cx="399" cy="7.5" r="2" fill="white"/>
</g>
<circle cx="399" cy="7.5" r="2" fill="white"/>
<g filter="url(#filter20_f_92_3785)">
<circle cx="7" cy="183.5" r="2" fill="white"/>
</g>
<circle cx="7" cy="183.5" r="2" fill="white"/>
<g filter="url(#filter21_f_92_3785)">
<circle cx="1131" cy="280.5" r="2" fill="white"/>
</g>
<circle cx="1131" cy="280.5" r="2" fill="white"/>
<g filter="url(#filter22_f_92_3785)">
<circle cx="592" cy="184.5" r="2" fill="white"/>
</g>
<circle cx="592" cy="184.5" r="2" fill="white"/>
<g filter="url(#filter23_f_92_3785)">
<circle cx="698" cy="286.5" r="2" fill="white"/>
</g>
<circle cx="698" cy="286.5" r="2" fill="white"/>
<g filter="url(#filter24_f_92_3785)">
<circle cx="998" cy="707.5" r="2" fill="white"/>
</g>
<circle cx="998" cy="707.5" r="2" fill="white"/>
<g filter="url(#filter25_f_92_3785)">
<circle cx="647" cy="499.5" r="2" fill="white"/>
</g>
<circle cx="647" cy="499.5" r="2" fill="white"/>
<g filter="url(#filter26_f_92_3785)">
<circle cx="688" cy="659.5" r="2" fill="white"/>
</g>
<circle cx="688" cy="659.5" r="2" fill="white"/>
<g filter="url(#filter27_f_92_3785)">
<circle cx="293" cy="713.5" r="2" fill="white"/>
</g>
<circle cx="293" cy="713.5" r="2" fill="white"/>
<g filter="url(#filter28_f_92_3785)">
<circle cx="7" cy="743.5" r="2" fill="white"/>
</g>
<circle cx="7" cy="743.5" r="2" fill="white"/>
<g filter="url(#filter29_f_92_3785)">
<circle cx="369" cy="291.5" r="2" fill="white"/>
</g>
<circle cx="369" cy="291.5" r="2" fill="white"/>
<g filter="url(#filter30_f_92_3785)">
<circle cx="65" cy="498.5" r="2" fill="white"/>
</g>
<circle cx="65" cy="498.5" r="2" fill="white"/>
<g filter="url(#filter31_f_92_3785)">
<circle cx="119" cy="624.5" r="2" fill="white"/>
</g>
<circle cx="119" cy="624.5" r="2" fill="white"/>
<path d="M692.743 472.552C701.167 402.343 763.775 387.242 817.743 341.551C844.33 319.043 862.744 310.737 888.743 287.551C934.646 246.616 929.076 156.885 990.743 167.551C1052.41 178.218 1115.67 156.341 1146.24 211.551C1181.15 274.594 1111.74 269.051 1067.74 378.551C1023.74 488.051 1128.1 470.865 1125.74 536.552C1124.24 578.366 1096.45 597.711 1096.24 639.552C1095.97 694.857 1168.79 721.549 1146.24 772.052C1118.75 833.645 974.743 792.552 974.743 792.552C922.91 802.552 759.04 842.592 751.743 754.552C747.466 702.948 813.361 691.147 817.743 639.552C824.636 558.38 683.037 553.435 692.743 472.552Z" fill="#E5E5E5" fill-opacity="0.06"/>
<rect width="140.154" height="131.554" rx="10.0473" transform="matrix(0.846714 0.532099 -0.567953 0.823202 917.051 743.334)" fill="#686767"/>
<rect width="141.292" height="2.88705" transform="matrix(0.846416 0.532531 -0.565636 0.824655 896.086 772.568)" fill="#595959"/>
<rect width="141.292" height="2.88705" transform="matrix(0.846416 0.532532 -0.565636 0.824655 888.068 784.264)" fill="#595959"/>
<ellipse cx="2.85946" cy="2.85912" rx="2.85946" ry="2.85912" transform="matrix(0.846697 0.532124 -0.567925 0.82322 906.975 764.35)" fill="#7D7D7D"/>
<ellipse cx="2.85941" cy="2.85909" rx="2.85941" ry="2.85909" transform="matrix(0.846695 0.532127 -0.567922 0.823222 1011.95 830.414)" fill="#7D7D7D"/>
<ellipse cx="2.85943" cy="2.85909" rx="2.85943" ry="2.85909" transform="matrix(0.846697 0.532124 -0.567925 0.82322 888.533 791.246)" fill="#7D7D7D"/>
<ellipse cx="2.85946" cy="2.85912" rx="2.85946" ry="2.85912" transform="matrix(0.846697 0.532124 -0.567925 0.82322 993.504 857.311)" fill="#7D7D7D"/>
<rect width="28.3451" height="72.766" rx="6.69819" transform="matrix(1.01772 -0.0317102 0.0223747 0.981124 956.896 845.867)" fill="#D6D6D6"/>
<ellipse cx="9.46388" cy="9.28905" rx="9.46388" ry="9.28905" transform="matrix(1.0177 -0.0328105 0.0220517 0.981134 969.268 901.467)" fill="url(#paint0_radial_92_3785)"/>
<rect width="27.189" height="73.0502" rx="6.69819" transform="matrix(-0.290592 -0.936476 -0.977992 0.286764 912.125 819.727)" fill="#D6D6D6"/>
<ellipse cx="9.29644" cy="9.35036" rx="9.29644" ry="9.35036" transform="matrix(-0.292184 -0.936006 -0.978448 0.285288 854.143 826.996)" fill="url(#paint1_radial_92_3785)"/>
<path d="M931.339 904.074L869.58 865.256L832.801 918.573C830.701 921.619 831.537 925.684 834.669 927.652L846.94 935.365C850.072 937.334 854.314 936.461 856.415 933.415L875.186 906.203C877.287 903.158 881.529 902.285 884.661 904.254L886.942 905.687C890.074 907.656 890.91 911.721 888.809 914.766L870.038 941.978C867.938 945.024 868.774 949.088 871.906 951.057L885.085 959.341C888.217 961.309 892.46 960.437 894.56 957.391L931.339 904.074Z" fill="#D6D6D6"/>
<rect width="92.9717" height="90.0475" transform="matrix(0.846675 0.532158 -0.567888 0.823245 910.078 788.545)" fill="#E1E1E1"/>
<rect width="87.6483" height="25.8469" transform="matrix(0.846802 0.531972 -0.567557 0.823453 869.637 852.061)" fill="#E1E1E1"/>
<rect width="7.09417" height="89.433" transform="matrix(0.846349 0.532631 -0.565922 0.824481 921.758 796.227)" fill="url(#paint2_linear_92_3785)"/>
<rect width="7.09418" height="89.4329" transform="matrix(0.84635 0.532631 -0.565923 0.824481 968.143 825.418)" fill="url(#paint3_linear_92_3785)"/>
<rect width="93.6998" height="2.88451" transform="matrix(0.846449 0.532487 -0.565796 0.824561 860.57 859.879)" fill="#9A9A9A"/>
<rect width="9.97071" height="22.8" rx="4.98535" transform="matrix(0.846464 0.532463 -0.567251 0.823645 1008.94 809.242)" fill="#D6D6D6"/>
<rect width="9.97067" height="22.8" rx="4.98534" transform="matrix(0.846464 0.532464 -0.567249 0.823646 921.059 753.932)" fill="#D6D6D6"/>
<path d="M1005.58 820.546C989.487 843.868 956.996 850.552 933.007 835.475C909.017 820.398 902.614 789.269 918.704 765.947C934.794 742.625 967.285 735.941 991.274 751.018C1015.26 766.096 1021.67 797.224 1005.58 820.546Z" fill="#D6D6D6" stroke="#E1E1E1" stroke-width="0.33491"/>
<path fill-rule="evenodd" clip-rule="evenodd" d="M1004.94 821.63C988.322 843.264 957.016 849.092 933.71 834.445C910.495 819.855 903.698 790.278 917.738 767.201C917.196 767.906 916.669 768.629 916.159 769.368C900.015 792.768 906.438 823.998 930.504 839.123C954.57 854.248 987.167 847.54 1003.31 824.14C1003.88 823.313 1004.42 822.476 1004.94 821.63Z" fill="#DDDDDD"/>
<path fill-rule="evenodd" clip-rule="evenodd" d="M1001.73 826.308C985.115 847.942 953.809 853.77 930.503 839.123C907.288 824.533 900.491 794.956 914.531 771.878C913.989 772.584 913.462 773.307 912.952 774.046C896.808 797.446 903.231 828.676 927.297 843.801C951.363 858.925 983.96 852.217 1000.1 828.818C1000.67 827.99 1001.22 827.153 1001.73 826.308Z" fill="#D6D6D6"/>
<path d="M1011.05 803.614C1003.42 784.462 963.628 757.771 938.145 751.893C918.878 765.964 908.577 786.96 917.135 808.779C921.887 820.894 928.583 826.749 940.135 833.363C948.681 838.256 954.385 840.745 964.398 841.008C987.904 841.626 1007.98 816.882 1011.05 803.614Z" fill="black"/>
<rect width="2.86215" height="1.44384" rx="0.721918" transform="matrix(0.989941 0.218062 -0.238994 0.956725 947.119 848.021)" fill="#C4C4C4"/>
<rect width="1.42665" height="1.43515" rx="0.713325" transform="matrix(0.989979 0.217913 -0.240309 0.95644 953.605 848.756)" fill="#C4C4C4"/>
<mask id="mask0_92_3785" style="mask-type:alpha" maskUnits="userSpaceOnUse" x="914" y="751" width="98" height="91">
<path d="M1011.06 803.611C1003.42 784.459 963.633 757.77 938.151 751.893C918.883 765.966 908.581 786.963 917.137 808.781C921.888 820.896 928.584 826.751 940.135 833.365C948.681 838.258 954.385 840.746 964.397 841.009C987.903 841.625 1007.98 816.879 1011.06 803.611Z" fill="black"/>
</mask>
<g mask="url(#mask0_92_3785)">
<rect width="14.2254" height="79.084" transform="matrix(0.36521 0.908992 -0.953289 0.363321 977.035 756.527)" fill="#484848"/>
<rect width="8.02778" height="83.2726" transform="matrix(0.364184 0.909386 -0.953301 0.363291 992.059 775.523)" fill="#484848"/>
</g>
<ellipse cx="9.293" cy="9.29218" rx="9.293" ry="9.29218" transform="matrix(0.84669 0.532136 -0.567942 0.823211 938.939 758.473)" fill="#828282" fill-opacity="0.5"/>
<ellipse cx="5.00395" cy="5.00348" rx="5.00395" ry="5.00348" transform="matrix(0.846692 0.532134 -0.567944 0.82321 951.084 766.154)" fill="#828282" fill-opacity="0.5"/>
<ellipse cx="3.57422" cy="3.57392" rx="3.57422" ry="3.57392" transform="matrix(0.84669 0.532137 -0.56794 0.823212 930.84 770.166)" fill="#828282" fill-opacity="0.5"/>
<ellipse cx="3.57423" cy="3.57392" rx="3.57423" ry="3.57392" transform="matrix(0.84669 0.532136 -0.567941 0.823211 958.207 745.539)" fill="#BC0D0D"/>
<ellipse cx="3.57426" cy="3.57393" rx="3.57426" ry="3.57393" transform="matrix(0.846692 0.532134 -0.567944 0.82321 974.844 749.312)" fill="#BC0D0D"/>
<rect width="38.7209" height="20.0611" rx="3.3491" transform="matrix(0.846799 0.531977 -0.567919 0.823225 905.934 839.793)" fill="#273AE7"/>
<path d="M924.917 855.13L915.149 856.363L920.494 858.67L907.134 860.803" stroke="#D2CB15" stroke-width="0.669819"/>
<defs>
<filter id="filter0_f_92_3785" x="1547" y="37.6523" width="15.334" height="15.1094" filterUnits="userSpaceOnUse" color-interpolation-filters="sRGB">
<feFlood flood-opacity="0" result="BackgroundImageFix"/>
<feBlend mode="normal" in="SourceGraphic" in2="BackgroundImageFix" result="shape"/>
<feGaussianBlur stdDeviation="2.5" result="effect1_foregroundBlur_92_3785"/>
</filter>
<filter id="filter1_f_92_3785" x="281" y="55.5" width="14" height="14" filterUnits="userSpaceOnUse" color-interpolation-filters="sRGB">
<feFlood flood-opacity="0" result="BackgroundImageFix"/>
<feBlend mode="normal" in="SourceGraphic" in2="BackgroundImageFix" result="shape"/>
<feGaussianBlur stdDeviation="2.5" result="effect1_foregroundBlur_92_3785"/>
</filter>
<filter id="filter2_f_92_3785" x="29" y="29.5" width="14" height="14" filterUnits="userSpaceOnUse" color-interpolation-filters="sRGB">
<feFlood flood-opacity="0" result="BackgroundImageFix"/>
<feBlend mode="normal" in="SourceGraphic" in2="BackgroundImageFix" result="shape"/>
<feGaussianBlur stdDeviation="2.5" result="effect1_foregroundBlur_92_3785"/>
</filter>
<filter id="filter3_f_92_3785" x="1311" y="5.71484" width="15.334" height="15.1094" filterUnits="userSpaceOnUse" color-interpolation-filters="sRGB">
<feFlood flood-opacity="0" result="BackgroundImageFix"/>
<feBlend mode="normal" in="SourceGraphic" in2="BackgroundImageFix" result="shape"/>
<feGaussianBlur stdDeviation="2.5" result="effect1_foregroundBlur_92_3785"/>
</filter>
<filter id="filter4_f_92_3785" x="1120" y="35.5" width="14" height="14" filterUnits="userSpaceOnUse" color-interpolation-filters="sRGB">
<feFlood flood-opacity="0" result="BackgroundImageFix"/>
<feBlend mode="normal" in="SourceGraphic" in2="BackgroundImageFix" result="shape"/>
<feGaussianBlur stdDeviation="2.5" result="effect1_foregroundBlur_92_3785"/>
</filter>
<filter id="filter5_f_92_3785" x="1809.67" y="52.9824" width="15.334" height="15.1094" filterUnits="userSpaceOnUse" color-interpolation-filters="sRGB">
<feFlood flood-opacity="0" result="BackgroundImageFix"/>
<feBlend mode="normal" in="SourceGraphic" in2="BackgroundImageFix" result="shape"/>
<feGaussianBlur stdDeviation="2.5" result="effect1_foregroundBlur_92_3785"/>
</filter>
<filter id="filter6_f_92_3785" x="859" y="10.8242" width="15.334" height="15.1094" filterUnits="userSpaceOnUse" color-interpolation-filters="sRGB">
<feFlood flood-opacity="0" result="BackgroundImageFix"/>
<feBlend mode="normal" in="SourceGraphic" in2="BackgroundImageFix" result="shape"/>
<feGaussianBlur stdDeviation="2.5" result="effect1_foregroundBlur_92_3785"/>
</filter>
<filter id="filter7_f_92_3785" x="1240.33" y="242.053" width="15.334" height="15.1094" filterUnits="userSpaceOnUse" color-interpolation-filters="sRGB">
<feFlood flood-opacity="0" result="BackgroundImageFix"/>
<feBlend mode="normal" in="SourceGraphic" in2="BackgroundImageFix" result="shape"/>
<feGaussianBlur stdDeviation="2.5" result="effect1_foregroundBlur_92_3785"/>
</filter>
<filter id="filter8_f_92_3785" x="1449.67" y="491.164" width="15.334" height="15.1094" filterUnits="userSpaceOnUse" color-interpolation-filters="sRGB">
<feFlood flood-opacity="0" result="BackgroundImageFix"/>
<feBlend mode="normal" in="SourceGraphic" in2="BackgroundImageFix" result="shape"/>
<feGaussianBlur stdDeviation="2.5" result="effect1_foregroundBlur_92_3785"/>
</filter>
<filter id="filter9_f_92_3785" x="1688.33" y="915.295" width="15.334" height="15.1094" filterUnits="userSpaceOnUse" color-interpolation-filters="sRGB">
<feFlood flood-opacity="0" result="BackgroundImageFix"/>
<feBlend mode="normal" in="SourceGraphic" in2="BackgroundImageFix" result="shape"/>
<feGaussianBlur stdDeviation="2.5" result="effect1_foregroundBlur_92_3785"/>
</filter>
<filter id="filter10_f_92_3785" x="1313.67" y="951.064" width="15.334" height="15.1094" filterUnits="userSpaceOnUse" color-interpolation-filters="sRGB">
<feFlood flood-opacity="0" result="BackgroundImageFix"/>
<feBlend mode="normal" in="SourceGraphic" in2="BackgroundImageFix" result="shape"/>
<feGaussianBlur stdDeviation="2.5" result="effect1_foregroundBlur_92_3785"/>
</filter>
<filter id="filter11_f_92_3785" x="1705.67" y="547.375" width="15.334" height="15.1094" filterUnits="userSpaceOnUse" color-interpolation-filters="sRGB">
<feFlood flood-opacity="0" result="BackgroundImageFix"/>
<feBlend mode="normal" in="SourceGraphic" in2="BackgroundImageFix" result="shape"/>
<feGaussianBlur stdDeviation="2.5" result="effect1_foregroundBlur_92_3785"/>
</filter>
<filter id="filter12_f_92_3785" x="1815" y="818.205" width="15.334" height="15.1094" filterUnits="userSpaceOnUse" color-interpolation-filters="sRGB">
<feFlood flood-opacity="0" result="BackgroundImageFix"/>
<feBlend mode="normal" in="SourceGraphic" in2="BackgroundImageFix" result="shape"/>
<feGaussianBlur stdDeviation="2.5" result="effect1_foregroundBlur_92_3785"/>
</filter>
<filter id="filter13_f_92_3785" x="1823" y="376.189" width="15.334" height="15.1094" filterUnits="userSpaceOnUse" color-interpolation-filters="sRGB">
<feFlood flood-opacity="0" result="BackgroundImageFix"/>
<feBlend mode="normal" in="SourceGraphic" in2="BackgroundImageFix" result="shape"/>
<feGaussianBlur stdDeviation="2.5" result="effect1_foregroundBlur_92_3785"/>
</filter>
<filter id="filter14_f_92_3785" x="801.666" y="565.26" width="15.334" height="15.1094" filterUnits="userSpaceOnUse" color-interpolation-filters="sRGB">
<feFlood flood-opacity="0" result="BackgroundImageFix"/>
<feBlend mode="normal" in="SourceGraphic" in2="BackgroundImageFix" result="shape"/>
<feGaussianBlur stdDeviation="2.5" result="effect1_foregroundBlur_92_3785"/>
</filter>
<filter id="filter15_f_92_3785" x="1029.67" y="547.375" width="15.334" height="15.1094" filterUnits="userSpaceOnUse" color-interpolation-filters="sRGB">
<feFlood flood-opacity="0" result="BackgroundImageFix"/>
<feBlend mode="normal" in="SourceGraphic" in2="BackgroundImageFix" result="shape"/>
<feGaussianBlur stdDeviation="2.5" result="effect1_foregroundBlur_92_3785"/>
</filter>
<filter id="filter16_f_92_3785" x="1213.67" y="718.561" width="15.334" height="15.1094" filterUnits="userSpaceOnUse" color-interpolation-filters="sRGB">
<feFlood flood-opacity="0" result="BackgroundImageFix"/>
<feBlend mode="normal" in="SourceGraphic" in2="BackgroundImageFix" result="shape"/>
<feGaussianBlur stdDeviation="2.5" result="effect1_foregroundBlur_92_3785"/>
</filter>
<filter id="filter17_f_92_3785" x="1823" y="617.637" width="15.334" height="15.1094" filterUnits="userSpaceOnUse" color-interpolation-filters="sRGB">
<feFlood flood-opacity="0" result="BackgroundImageFix"/>
<feBlend mode="normal" in="SourceGraphic" in2="BackgroundImageFix" result="shape"/>
<feGaussianBlur stdDeviation="2.5" result="effect1_foregroundBlur_92_3785"/>
</filter>
<filter id="filter18_f_92_3785" x="1527" y="575.48" width="15.334" height="15.1094" filterUnits="userSpaceOnUse" color-interpolation-filters="sRGB">
<feFlood flood-opacity="0" result="BackgroundImageFix"/>
<feBlend mode="normal" in="SourceGraphic" in2="BackgroundImageFix" result="shape"/>
<feGaussianBlur stdDeviation="2.5" result="effect1_foregroundBlur_92_3785"/>
</filter>
<filter id="filter19_f_92_3785" x="392" y="0.5" width="14" height="14" filterUnits="userSpaceOnUse" color-interpolation-filters="sRGB">
<feFlood flood-opacity="0" result="BackgroundImageFix"/>
<feBlend mode="normal" in="SourceGraphic" in2="BackgroundImageFix" result="shape"/>
<feGaussianBlur stdDeviation="2.5" result="effect1_foregroundBlur_92_3785"/>
</filter>
<filter id="filter20_f_92_3785" x="0" y="176.5" width="14" height="14" filterUnits="userSpaceOnUse" color-interpolation-filters="sRGB">
<feFlood flood-opacity="0" result="BackgroundImageFix"/>
<feBlend mode="normal" in="SourceGraphic" in2="BackgroundImageFix" result="shape"/>
<feGaussianBlur stdDeviation="2.5" result="effect1_foregroundBlur_92_3785"/>
</filter>
<filter id="filter21_f_92_3785" x="1124" y="273.5" width="14" height="14" filterUnits="userSpaceOnUse" color-interpolation-filters="sRGB">
<feFlood flood-opacity="0" result="BackgroundImageFix"/>
<feBlend mode="normal" in="SourceGraphic" in2="BackgroundImageFix" result="shape"/>
<feGaussianBlur stdDeviation="2.5" result="effect1_foregroundBlur_92_3785"/>
</filter>
<filter id="filter22_f_92_3785" x="585" y="177.5" width="14" height="14" filterUnits="userSpaceOnUse" color-interpolation-filters="sRGB">
<feFlood flood-opacity="0" result="BackgroundImageFix"/>
<feBlend mode="normal" in="SourceGraphic" in2="BackgroundImageFix" result="shape"/>
<feGaussianBlur stdDeviation="2.5" result="effect1_foregroundBlur_92_3785"/>
</filter>
<filter id="filter23_f_92_3785" x="691" y="279.5" width="14" height="14" filterUnits="userSpaceOnUse" color-interpolation-filters="sRGB">
<feFlood flood-opacity="0" result="BackgroundImageFix"/>
<feBlend mode="normal" in="SourceGraphic" in2="BackgroundImageFix" result="shape"/>
<feGaussianBlur stdDeviation="2.5" result="effect1_foregroundBlur_92_3785"/>
</filter>
<filter id="filter24_f_92_3785" x="991" y="700.5" width="14" height="14" filterUnits="userSpaceOnUse" color-interpolation-filters="sRGB">
<feFlood flood-opacity="0" result="BackgroundImageFix"/>
<feBlend mode="normal" in="SourceGraphic" in2="BackgroundImageFix" result="shape"/>
<feGaussianBlur stdDeviation="2.5" result="effect1_foregroundBlur_92_3785"/>
</filter>
<filter id="filter25_f_92_3785" x="640" y="492.5" width="14" height="14" filterUnits="userSpaceOnUse" color-interpolation-filters="sRGB">
<feFlood flood-opacity="0" result="BackgroundImageFix"/>
<feBlend mode="normal" in="SourceGraphic" in2="BackgroundImageFix" result="shape"/>
<feGaussianBlur stdDeviation="2.5" result="effect1_foregroundBlur_92_3785"/>
</filter>
<filter id="filter26_f_92_3785" x="681" y="652.5" width="14" height="14" filterUnits="userSpaceOnUse" color-interpolation-filters="sRGB">
<feFlood flood-opacity="0" result="BackgroundImageFix"/>
<feBlend mode="normal" in="SourceGraphic" in2="BackgroundImageFix" result="shape"/>
<feGaussianBlur stdDeviation="2.5" result="effect1_foregroundBlur_92_3785"/>
</filter>
<filter id="filter27_f_92_3785" x="286" y="706.5" width="14" height="14" filterUnits="userSpaceOnUse" color-interpolation-filters="sRGB">
<feFlood flood-opacity="0" result="BackgroundImageFix"/>
<feBlend mode="normal" in="SourceGraphic" in2="BackgroundImageFix" result="shape"/>
<feGaussianBlur stdDeviation="2.5" result="effect1_foregroundBlur_92_3785"/>
</filter>
<filter id="filter28_f_92_3785" x="0" y="736.5" width="14" height="14" filterUnits="userSpaceOnUse" color-interpolation-filters="sRGB">
<feFlood flood-opacity="0" result="BackgroundImageFix"/>
<feBlend mode="normal" in="SourceGraphic" in2="BackgroundImageFix" result="shape"/>
<feGaussianBlur stdDeviation="2.5" result="effect1_foregroundBlur_92_3785"/>
</filter>
<filter id="filter29_f_92_3785" x="362" y="284.5" width="14" height="14" filterUnits="userSpaceOnUse" color-interpolation-filters="sRGB">
<feFlood flood-opacity="0" result="BackgroundImageFix"/>
<feBlend mode="normal" in="SourceGraphic" in2="BackgroundImageFix" result="shape"/>
<feGaussianBlur stdDeviation="2.5" result="effect1_foregroundBlur_92_3785"/>
</filter>
<filter id="filter30_f_92_3785" x="58" y="491.5" width="14" height="14" filterUnits="userSpaceOnUse" color-interpolation-filters="sRGB">
<feFlood flood-opacity="0" result="BackgroundImageFix"/>
<feBlend mode="normal" in="SourceGraphic" in2="BackgroundImageFix" result="shape"/>
<feGaussianBlur stdDeviation="2.5" result="effect1_foregroundBlur_92_3785"/>
</filter>
<filter id="filter31_f_92_3785" x="112" y="617.5" width="14" height="14" filterUnits="userSpaceOnUse" color-interpolation-filters="sRGB">
<feFlood flood-opacity="0" result="BackgroundImageFix"/>
<feBlend mode="normal" in="SourceGraphic" in2="BackgroundImageFix" result="shape"/>
<feGaussianBlur stdDeviation="2.5" result="effect1_foregroundBlur_92_3785"/>
</filter>
<radialGradient id="paint0_radial_92_3785" cx="0" cy="0" r="1" gradientUnits="userSpaceOnUse" gradientTransform="translate(11.6479 11.4327) rotate(-157.186) scale(5.52844 5.45731)">
<stop stop-color="white"/>
<stop offset="1" stop-color="#DDDDDD"/>
</radialGradient>
<radialGradient id="paint1_radial_92_3785" cx="0" cy="0" r="1" gradientUnits="userSpaceOnUse" gradientTransform="translate(11.4418 11.5081) rotate(-156.681) scale(5.45103 5.47277)">
<stop stop-color="white"/>
<stop offset="1" stop-color="#DDDDDD"/>
</radialGradient>
<linearGradient id="paint2_linear_92_3785" x1="3.54708" y1="0" x2="3.54708" y2="89.433" gradientUnits="userSpaceOnUse">
<stop stop-color="#3BB094"/>
<stop offset="1" stop-color="#232030"/>
</linearGradient>
<linearGradient id="paint3_linear_92_3785" x1="3.54709" y1="0" x2="3.54709" y2="89.4329" gradientUnits="userSpaceOnUse">
<stop stop-color="#3BB094"/>
<stop offset="1" stop-color="#232030"/>
</linearGradient>
</defs>
</svg>
