<svg width="128" height="183" viewBox="0 0 128 183" fill="none" xmlns="http://www.w3.org/2000/svg">
<path d="M9.84259 115.821L13.3227 117.174L24.5353 113.115C24.5353 113.115 26.8439 115.044 28.2085 116.401C29.2311 117.418 30.0274 117.843 30.7217 119.108C30.9985 119.612 31.4778 119.914 31.3017 120.461C31.1536 120.921 30.7847 121.057 30.3351 121.234C29.7733 121.456 29.3873 121.313 28.7885 121.234C27.382 121.05 25.6953 119.688 25.1153 120.074C24.5353 120.461 24.4746 121.381 24.1487 122.588C23.8227 123.794 26.1419 127.115 25.1153 129.741C24.8322 130.464 24.8458 131.137 24.1487 131.48C23.607 131.748 23.1818 131.65 22.602 131.48C21.5248 131.166 21.3362 130.256 20.6688 129.354C19.4239 127.671 18.3489 124.521 18.3489 124.521C18.3489 124.521 19.0959 126.966 19.3155 128.581C19.4685 129.705 19.7871 130.38 19.5088 131.48C19.3679 132.038 19.4105 132.52 18.9289 132.834C18.6064 133.044 18.3472 133.027 17.9622 133.027C17.5773 133.027 17.3454 132.995 16.9956 132.834C16.3632 132.543 16.2163 132.063 15.8357 131.48C15.2989 130.659 15.2352 130.071 14.869 129.161C14.0581 127.144 12.9358 123.941 12.9358 123.941C12.9358 123.941 13.3132 127.507 12.9358 129.741C12.8198 130.427 13.1364 131.107 12.5491 131.48C12.2865 131.648 12.0871 131.674 11.7758 131.674C11.4646 131.674 11.2839 131.614 11.0025 131.48C10.2645 131.131 10.2171 130.466 9.84259 129.741C9.26224 128.616 9.10801 127.891 8.87597 126.647C8.51606 124.718 8.39584 123.587 8.48946 121.621C8.54734 120.405 8.58881 119.711 8.87597 118.528C9.14071 117.437 9.84259 115.821 9.84259 115.821Z" fill="#C0C0C0"/>
<path d="M12.9375 61.6903C12.9375 61.6903 25.2262 48.4477 35.3632 43.5177C46.1892 38.2527 65.5219 37.138 65.5219 37.138C65.5219 37.138 73.3696 48.5054 77.1214 56.4705C82.7606 68.4424 86.7874 88.9491 86.7874 88.9491L44.4492 113.888C44.4492 113.888 32.9485 100.724 27.0502 91.269C20.2764 80.4099 12.9375 61.6903 12.9375 61.6903Z" fill="#CACACA"/>
<path d="M28.0175 41.1977C17.8804 46.1277 5.5918 59.3703 5.5918 59.3703C5.5918 59.3703 12.9306 78.0899 19.7045 88.949C25.6028 98.4045 37.1034 111.568 37.1034 111.568L44.4501 113.888C44.4501 113.888 32.9492 100.724 27.0509 91.2689C20.277 80.4098 12.9382 61.6902 12.9382 61.6902C12.9382 61.6902 25.2268 48.4476 35.3639 43.5176C46.1897 38.2526 65.5226 37.1379 65.5226 37.1379C65.5226 37.1379 73.3704 48.5053 77.1221 56.4704C82.3313 67.5291 86.1646 85.8704 86.7189 88.604L86.7883 88.5624C86.7883 88.5624 84.2804 69.858 79.442 58.9836C75.3297 49.7412 65.5226 37.1379 65.5226 37.1379L58.1762 34.818C58.1762 34.818 38.8433 35.9327 28.0175 41.1977Z" fill="#ACAAAA"/>
<path d="M5.5918 59.3704C5.5918 59.3704 12.9306 78.09 19.7045 88.9491C25.6028 98.4045 37.1034 111.568 37.1034 111.568L44.4501 113.888C44.4501 113.888 32.9492 100.724 27.0509 91.269C20.2769 80.4099 12.9381 61.6903 12.9381 61.6903L5.5918 59.3704Z" fill="#BBB8B8"/>
<path d="M18.3516 124.521C18.3516 124.521 19.4266 127.671 20.6715 129.354C21.3388 130.257 21.5274 131.166 22.6047 131.481C23.1844 131.65 23.6096 131.748 24.1513 131.481C24.693 131.214 24.283 130.646 23.9584 130.321C23.6337 129.996 23.2034 130.344 22.7984 130.128C22.113 129.761 22.2411 129.049 21.8318 128.388C21.3466 127.604 20.9411 127.252 20.4785 126.454C20.1396 125.87 20.2438 125.315 19.7052 124.908C19.2668 124.576 18.3516 124.521 18.3516 124.521Z" fill="#D6D6D6"/>
<path d="M12.9375 123.941C12.9375 123.941 14.0598 127.144 14.8708 129.161C15.2369 130.071 15.3006 130.659 15.8374 131.481C16.218 132.063 16.3649 132.543 16.9973 132.834C17.3471 132.995 17.579 133.027 17.964 133.027C18.3489 133.027 18.1791 132.565 18.1577 132.254C18.117 131.666 18.3131 131.569 17.9643 131.094C17.4436 130.384 17.1599 130.517 16.744 129.741C16.2333 128.788 15.7275 127.621 15.2574 126.648C14.8903 125.887 15.2466 125.338 14.6778 124.714C14.3519 124.357 13.677 124.02 12.9375 123.941Z" fill="#D6D6D6"/>
<path d="M8.87597 118.528C8.58881 119.711 8.54734 120.405 8.48946 121.621C8.39584 123.588 8.51606 124.718 8.87597 126.648C9.10801 127.892 9.26224 128.616 9.84259 129.741C10.2171 130.467 10.2645 131.131 11.0025 131.481C11.2839 131.614 11.4646 131.674 11.7758 131.674C11.7758 131.674 10.9235 129.115 10.6161 127.421C10.372 126.076 10.143 125.306 10.2295 123.941C10.3129 122.625 10.5009 121.874 11.0025 120.655C11.624 119.144 13.3227 117.175 13.3227 117.175L9.84259 115.822C9.84259 115.822 9.14071 117.437 8.87597 118.528Z" fill="#D6D6D6"/>
<path d="M24.7944 54.8947C24.7555 54.6118 24.9974 54.374 25.2818 54.3998C26.7427 54.5319 27.8892 54.502 29.5636 54.344C32.9916 54.0206 34.8622 53.2758 38.0699 52.0241C39.6124 51.4222 40.4607 51.0352 41.9364 50.2842C44.718 48.8685 46.1977 47.8926 48.7028 46.031C51.0932 44.2547 52.6342 43.3953 54.4629 41.1084C54.599 40.9381 54.8389 40.8832 55.0253 40.9961C57.4052 42.4382 57.4522 44.923 58.5624 46.8043C58.5624 46.8043 53.9938 48.4993 51.4094 50.8641C48.6105 53.4252 46.6765 54.378 43.0964 55.8906C39.7257 57.3147 37.2536 57.944 33.6234 58.4038C30.4634 58.8041 27.0504 60.7237 27.0504 60.7237C25.8448 58.4072 25.0899 57.0414 24.7944 54.8947Z" fill="url(#paint0_linear_578_7125)"/>
<path d="M86.2069 141.727C86.3617 140.834 86.2069 139.407 86.2069 139.407L99.7396 142.887L98.773 146.174C98.773 146.174 103.838 151.627 104.573 156.033C104.96 158.353 103.857 163.573 100.513 163.573C94.52 163.573 92.1477 160.862 88.7201 156.806C85.6609 153.187 82.7905 150.154 84.0803 145.594C84.5494 143.935 85.9124 143.425 86.2069 141.727Z" fill="#C0C0C0"/>
<path d="M98.7739 146.173L99.7405 142.887H94.9074C94.9074 142.887 93.9818 144.624 94.1341 145.787C94.3304 147.284 95.222 148.007 96.454 148.88C97.7403 149.791 99.0255 149.141 100.321 150.04C101.512 150.867 101.802 151.756 102.64 152.94C103.464 154.102 104.574 156.033 104.574 156.033C103.839 151.626 98.7739 146.173 98.7739 146.173Z" fill="#9C9C9C"/>
<path d="M86.2069 141.727C85.9124 143.425 84.5494 143.935 84.0803 145.594C82.7905 150.154 85.6609 153.187 88.7201 156.806C92.1477 160.862 94.52 163.573 100.513 163.573C100.513 163.573 96.3486 162.564 94.1333 161.06C91.7006 159.408 90.6654 157.947 89.1069 155.453C88.0868 153.821 87.3747 152.891 86.9803 151.007C86.64 149.381 86.4479 148.327 86.9803 146.754C87.3831 145.563 88.2187 145.199 88.7201 144.047C89.1879 142.972 89.4936 141.147 89.4936 141.147L86.2069 139.407C86.2069 139.407 86.3617 140.834 86.2069 141.727Z" fill="#D6D6D6"/>
<path d="M25 56.0838C26.1593 56.4704 28.6894 56.6477 30.5685 56.4704C33.9965 56.147 36.021 55.5956 39.2286 54.3439C40.7712 53.7419 41.6195 53.355 43.0951 52.6039C45.8767 51.1883 47.743 50.019 50.2482 48.1574C52.7394 46.3062 55.6221 44.2909 56.5894 42.3577C56.9761 42.7443 57.3918 43.8807 57.8274 45.4509C57.8274 45.4509 54.9987 50.2391 52.4142 52.6039C49.6154 55.1649 47.6814 56.1178 44.1013 57.6304C40.7306 59.0545 38.2585 59.6838 34.6283 60.1436C31.4683 60.5439 26.5087 59.3703 26.5087 59.3703C26.1213 59.3703 25.1926 57.2437 25 56.0838Z" fill="url(#paint1_linear_578_7125)"/>
<path d="M101.674 38.6847C101.674 38.6847 103.002 38.5719 103.8 38.2981C104.695 37.9911 105.165 37.6982 105.927 37.1381C106.787 36.5059 107.099 35.9535 107.86 35.2049C110.145 32.9576 113.853 29.5985 113.853 29.5985C113.853 29.5985 114.572 29.2778 115.013 29.4051C115.376 29.5098 115.549 29.6921 115.787 29.9851C115.999 30.2472 116.107 30.4274 116.173 30.7584C116.264 31.2086 116.089 31.4722 115.98 31.9184C115.489 33.9326 113.08 36.278 113.467 36.5581L113.853 36.7515C114.24 36.7515 116.091 34.9083 117.72 34.0449C118.526 33.6176 118.963 33.3049 119.846 33.0783C120.654 32.8712 121.271 32.4347 121.973 32.885C122.431 33.1789 122.603 33.5197 122.746 34.0449C122.865 34.482 122.798 34.7549 122.746 35.2049C122.457 37.6979 117.7 38.878 118.106 39.6513C118.233 39.8923 118.25 40.1096 118.493 40.2313C118.88 40.4246 120.396 40.2552 121.586 40.038C123.16 39.7509 123.859 38.8174 125.453 38.6847C125.979 38.6409 126.306 38.5147 126.806 38.6847C127.364 38.8744 127.846 39.0741 127.966 39.6513C128.063 40.1188 127.803 40.3893 127.579 40.8113C127.18 41.5662 126.707 41.8335 126.033 42.3579C124.967 43.187 124.191 43.3961 122.94 43.9045C121.124 44.6423 119.824 44.3125 118.106 45.2578C117.299 45.7022 116.173 45.6895 116.173 46.611C116.173 47.9643 120.033 48.5484 120.426 50.8642C120.54 51.5341 120.823 52.0527 120.426 52.6041C120.049 53.1276 119.516 53.0788 118.88 53.1841C117.301 53.4453 116.55 52.2758 115.013 51.8308C113.377 51.3571 112.454 51.0473 110.76 50.8642C109.184 50.6937 106.7 50.8642 106.7 50.8642L106.12 41.5846L101.674 38.6847Z" fill="#C0C0C0"/>
<path d="M125.452 38.6846C123.858 38.8172 123.159 39.7508 121.585 40.0379C121.199 40.2312 121.198 40.2321 121.005 40.4246L121.005 40.4246C120.813 40.6171 120.565 40.7376 120.619 41.0046C120.672 41.2715 120.942 41.2997 121.199 41.3912C121.785 41.6006 122.164 41.2271 122.745 41.0046C123.218 40.8235 123.422 40.5776 123.905 40.4246C124.343 40.2858 124.611 40.2988 125.065 40.2312C125.667 40.1417 126.016 40.162 126.612 40.0379C127.15 39.9259 128.085 40.2285 127.965 39.6513C127.845 39.074 127.363 38.8743 126.805 38.6846C126.305 38.5146 125.978 38.6408 125.452 38.6846Z" fill="#D6D6D6"/>
<path d="M117.72 34.0449C116.173 35.0116 115.207 35.7849 115.207 35.7849C115.207 35.7849 114.78 36.1417 115.013 36.5582C115.318 37.1012 115.966 37.1293 116.56 36.9448C117.023 36.7395 117.261 36.5788 117.72 36.3649C118.242 36.122 118.579 36.0784 119.074 35.7849C119.764 35.3752 119.941 34.8594 120.62 34.4316C121.049 34.1616 121.5 34.2737 121.78 33.8516C121.993 33.5308 122.675 33.3353 121.974 32.885C121.272 32.4347 120.655 32.8712 119.847 33.0783C118.963 33.3049 118.494 33.5616 117.72 34.0449Z" fill="#D6D6D6"/>
<path d="M103.8 38.2981C103.001 38.572 102.389 38.2377 101.673 38.6847C99.9147 39.7826 104.075 41.9268 106.12 41.5846C107.256 41.3944 107.584 40.5162 108.633 40.038C109.22 39.7703 109.658 39.8377 110.18 39.458C110.656 39.111 110.95 38.8542 111.146 38.2981C111.457 37.4174 110.423 36.9011 110.566 35.9782C110.739 34.859 111.634 34.5695 112.306 33.6583C112.916 32.832 113.14 32.2714 113.853 31.5317C114.523 30.8352 116.024 30.2781 115.786 29.9851C115.548 29.6921 115.375 29.5098 115.013 29.4051C114.571 29.2778 113.853 29.5985 113.853 29.5985C113.853 29.5985 110.145 32.9576 107.86 35.2049C107.098 35.9536 106.787 36.5059 105.926 37.1381C105.164 37.6983 104.695 37.9912 103.8 38.2981Z" fill="#D6D6D6"/>
<path d="M63.5455 164.465C64.2102 163.529 65.3136 162.116 65.3136 162.116L72.3862 163.29L76.9282 161.639L80.0482 154.873C80.0482 154.873 80.8014 156.769 81.2269 158.005C81.6444 159.217 82.0139 159.87 82.2092 161.137C82.5983 163.659 82.0853 165.193 81.2269 167.597C79.9564 171.155 78.1834 172.73 75.5296 175.426C72.962 178.036 68.0641 181.103 68.0641 181.103C68.0641 181.103 62.7156 183.672 60.2057 181.886C58.8549 180.925 58.3313 179.945 57.8481 178.363C57.0245 175.666 58.3932 173.943 59.4198 171.316C60.5561 168.408 61.7366 167.012 63.5455 164.465Z" fill="#C0C0C0"/>
<path d="M81.2273 158.005C80.8018 156.769 80.0485 154.873 80.0485 154.873C80.0485 154.873 75.8991 158.918 76.9286 161.639C77.4767 163.088 79.1058 163.083 79.6353 164.539C80.4435 166.762 79.0029 168.25 77.8953 170.339C77.0113 172.007 76.259 172.803 74.9955 174.206C73.5642 175.794 72.9191 176.488 71.5156 177.879C70.2055 179.177 68.0645 181.103 68.0645 181.103C68.0645 181.103 72.9623 178.036 75.53 175.426C78.1838 172.73 79.9568 171.155 81.2273 167.597C82.0856 165.193 82.5987 163.659 82.2096 161.137C82.0142 159.87 81.6447 159.217 81.2273 158.005Z" fill="#9C9C9C"/>
<path d="M63.545 164.465C61.7362 167.012 60.5556 168.408 59.4194 171.316C58.3927 173.943 57.0251 175.666 57.8477 178.363C58.3307 179.946 59.1415 181.359 60.2052 181.886C60.1094 181.281 59.914 181.6 59.7218 180.392C59.5296 179.185 59.2666 178.032 59.4194 176.526C59.6038 174.707 60.1125 173.737 60.8818 172.079C61.7065 170.301 62.1282 169.18 63.545 167.826C64.1737 167.225 64.5965 166.965 65.3132 166.473C67.8094 164.757 72.8658 165.697 72.3858 163.29C71.8382 160.545 65.3132 162.116 65.3132 162.116C65.3132 162.116 64.2098 163.529 63.545 164.465Z" fill="#D6D6D6"/>
<path d="M25.558 57.9519C30.3911 57.9519 31.6509 57.9972 35.3621 57.2438C39.1057 56.4839 41.2044 55.817 44.6417 54.1506C47.7889 52.625 49.5186 51.585 52.1814 49.3175C54.459 47.378 56.2412 45.451 57.4012 43.7111C58.1745 44.6777 58.1361 45.1191 58.9478 45.6443C59.2313 45.8277 59.4002 45.926 59.7211 46.031C61.1069 46.4844 61.7857 45.0284 63.2009 44.6777C64.9658 44.2403 66.0276 44.4274 67.8407 44.291C71.7621 43.9961 73.9717 43.9981 77.8937 43.7111C81.3704 43.4566 83.35 43.5225 86.7866 42.9378C92.3189 41.9964 94.9079 38.9653 100.513 38.6846C101.644 38.628 102.307 38.4388 103.413 38.6846C105.867 39.2304 106.755 40.9131 108.246 42.9378C109.307 44.3791 110.087 45.2307 110.372 46.9976C110.705 49.0591 110.604 50.6605 109.212 52.2174C107.65 53.9651 105.579 52.8682 103.413 53.764C100.972 54.7733 100.142 56.4812 97.6128 57.2438C95.9362 57.7494 94.8619 57.386 93.1663 57.8238C90.1258 58.6088 88.9311 60.3361 86.0133 61.497C83.9501 62.3178 82.7827 62.8282 80.6002 63.2369C79.0348 63.53 78.1299 63.5246 76.5404 63.6235C73.5263 63.8112 73.2538 62.8502 69.5806 63.6235C69.5806 64.5902 69.6015 64.94 70.1607 65.7501C71.3797 67.5163 72.321 68.3108 73.6405 70.0033C78.4045 76.1137 79.01 81.1286 84.4667 86.6292C85.1389 87.3068 85.6968 87.5297 86.2308 88.3208C86.9706 89.417 86.5341 90.4293 87.2216 91.559C88.3477 93.4096 89.8662 93.7036 91.7768 94.7247C93.1937 95.482 94.1872 95.5071 95.5587 96.3438C97.1972 97.3435 97.8894 98.2343 99.2561 99.582C100.388 100.698 100.884 101.458 102.011 102.579C103.595 104.154 104.954 104.575 106.312 106.348C107.504 107.903 108.064 108.92 108.632 110.795C109.097 112.328 109.298 113.255 109.212 114.855C109.112 116.739 108.38 117.68 107.859 119.495C106.69 123.561 106.4 125.956 104.959 129.934C103.521 133.906 101.722 135.746 100.513 139.794C99.9361 141.724 100.771 143.39 99.3527 144.82C98.0747 146.109 96.721 146.14 94.9063 146.173C93.112 146.207 92.0623 145.821 90.4598 145.013C89.3468 144.453 88.6988 144.089 87.8499 143.177C86.8259 142.076 85.4191 141.286 85.24 139.794C84.66 134.961 85.5368 133.298 86.5933 129.354C87.1157 127.404 88.3415 126.538 88.4299 124.521C88.5008 122.901 88.2654 121.921 87.5599 120.461C83.8867 118.335 81.7601 118.335 74.8005 116.981C74.4138 116.981 73.2538 116.981 72.4805 120.654C72.0939 123.168 72.7812 125.633 73.6405 128.967C74.4356 132.053 74.6592 133.842 75.5738 136.894C76.8014 140.991 78.0049 143.111 79.4403 147.14C80.1374 149.097 80.8902 150.11 81.1802 152.166C81.3909 153.662 81.4284 154.544 81.1802 156.033C80.7361 158.697 80.1015 160.357 78.4736 162.606C77.6278 163.774 77.2414 164.65 75.9604 165.313C74.5459 166.045 73.4929 165.666 71.9006 165.699C70.389 165.73 69.5194 165.788 68.0341 165.506C66.7907 165.27 65.9855 165.254 64.9409 164.539C63.9674 163.873 63.7066 163.169 63.0076 162.219C60.8258 159.255 60.0082 157.171 58.5611 153.713C56.7075 149.284 56.122 146.608 55.0813 141.92C54.6481 139.969 54.547 138.845 54.1147 136.894C53.2668 133.066 53.6508 132.227 51.7948 128.774C50.7185 126.772 48.9132 124.583 48.0249 122.491C47.1686 120.474 47.5423 118.948 46.575 116.981C45.3258 114.442 45.415 116.981 42.5152 111.182C39.9145 105.98 36.715 103.835 35.1688 98.2287C34.901 97.2577 34.797 96.701 34.5888 95.7155C34.3349 94.513 34.2476 93.8279 34.0089 92.6223C33.3472 89.2806 33.0422 85.4693 32.0756 84.116C31.7002 84.0764 31.486 84.0969 31.109 84.116C28.0157 84.2732 30.5804 95.693 27.6291 102.289C27.0775 103.521 26.444 104.08 26.0825 105.382C25.5774 107.2 26.4796 108.37 26.0825 110.215C25.6421 112.262 25.1439 113.475 23.7626 115.048C22.5466 116.433 21.6484 117.183 19.8961 117.755C18.0299 118.363 16.8235 117.944 14.8697 117.755C13.1894 117.592 12.0754 117.831 10.6165 116.981C9.37003 116.256 8.65533 115.607 8.1033 114.275C7.49651 112.81 8.27392 111.791 8.1033 110.215C7.94554 108.758 7.56276 107.989 7.33 106.542C7.1248 105.266 6.76841 104.536 6.94335 103.255C7.07262 102.309 7.49388 101.864 7.71665 100.935C8.05312 99.5327 8.07195 98.7042 8.1033 97.2621C8.14282 95.4443 7.62685 94.4383 7.71665 92.6223C7.77308 91.4812 7.9557 90.8554 8.1033 89.7224C8.50615 86.6302 8.1946 84.7891 9.06992 81.7961C9.38497 80.7189 9.55245 80.1021 10.0365 79.0896C10.5336 78.0498 10.9437 77.5351 11.5831 76.5763C12.3624 75.408 12.9409 74.8516 13.7097 73.6765C15.3734 71.1336 15.5826 69.2958 17.1896 66.7167C17.9648 65.4726 18.3625 64.7369 19.3162 63.6235C20.9576 61.7072 21.893 60.1691 24.3426 59.5637C24.7884 59.4535 25.1641 59.6808 25.5026 59.3704C25.896 59.0096 25.4133 58.4658 25.558 57.9519Z" fill="url(#paint2_linear_578_7125)"/>
<path d="M86.2338 88.3208C85.6999 87.5297 85.142 87.3068 84.4698 86.6292C79.0131 81.1286 78.4075 76.1137 73.6435 70.0033C72.324 68.3108 71.3827 67.5163 70.1637 65.7501C69.6045 64.94 69.5837 63.6235 69.5837 63.6235C69.5837 63.6235 67.6481 63.21 66.6832 62.4636C64.5251 60.7942 65.3295 55.6972 64.9433 55.6972C60.8322 55.6976 65.5494 62.0943 66.2971 66.1368C66.747 68.5686 66.9289 69.9577 67.6504 72.3232C68.9412 76.5549 70.0714 78.8606 72.4835 82.5694C75.2525 86.8268 76.7423 89.7717 81.1832 92.2357C84.9003 94.298 93.6905 95.7458 91.7799 94.7247C89.8693 93.7036 88.3508 93.4096 87.2246 91.559C86.5372 90.4293 86.9737 89.417 86.2338 88.3208Z" fill="url(#paint3_linear_578_7125)"/>
<path d="M69.5822 63.6235C73.2553 62.8502 73.5278 63.8112 76.5419 63.6235C79.556 63.4359 73.2647 62.8578 71.5154 61.6903C70.2269 60.8303 69.6446 60.1417 68.6155 58.9837C67.502 57.7307 64.9424 55.6972 64.9424 55.6972C64.9424 55.6972 64.8631 57.8615 65.1359 58.9837C65.4519 60.2837 65.3149 61.2883 66.2959 62.2703C67.2276 63.203 69.5822 63.6235 69.5822 63.6235Z" fill="url(#paint4_linear_578_7125)"/>
<path d="M74.8008 116.981C81.7604 118.335 83.887 118.335 87.5602 120.461C88.2657 121.921 88.5012 122.901 88.4302 124.521C88.3418 126.538 87.116 127.404 86.5936 129.354C85.5371 133.298 84.6604 134.961 85.2403 139.794C85.4194 141.286 86.8262 142.076 87.8502 143.177C88.8743 144.278 89.276 142.389 89.3002 141.534C89.3251 140.65 88.288 140.562 87.8502 139.794C86.9439 138.203 87.048 136.981 87.1736 135.154C87.339 132.747 88.5341 131.642 89.3002 129.354C90.2256 126.591 91.9141 125.074 91.4267 122.201C91.0305 119.865 90.1226 118.535 88.3335 116.981C86.1162 115.056 84.1154 114.558 81.1805 114.661C78.5311 114.755 75.3804 115.628 74.8008 116.981Z" fill="#B26F34"/>
<path d="M45.5988 71.9367L46.3721 71.3568C46.3721 71.3568 46.6401 74.4202 46.5655 76.3832C46.4904 78.3577 46.5456 79.5147 45.9855 81.4096C45.2475 83.9062 43.724 84.8164 42.699 87.2094C42.0691 88.6799 41.3457 91.0759 41.3457 91.0759C41.3457 91.0759 40.1358 85.9734 40.7657 84.5028C41.7908 82.1098 43.3143 81.1996 44.0522 78.7031C44.6123 76.8082 44.5572 75.6512 44.6322 73.6766C45.5988 71.9367 45.5988 71.9367 45.5988 71.9367Z" fill="#D18643"/>
<path d="M25.5026 59.3704C25.1641 59.6807 24.7884 59.4535 24.3426 59.5637C21.893 60.169 20.9576 61.7071 19.3162 63.6235C18.3625 64.7369 17.9648 65.4725 17.1896 66.7167C15.5826 69.2958 15.3734 71.1336 13.7097 73.6764C12.9409 74.8516 12.3624 75.408 11.5832 76.5763C10.9437 77.535 10.5336 78.0498 10.0366 79.0895C9.55245 80.1021 9.38497 80.7188 9.06992 81.7961C8.1946 84.7891 8.50615 86.6302 8.1033 89.7224C7.9557 90.8553 7.77308 91.4812 7.71665 92.6223C7.62685 94.4383 8.14282 95.4443 8.1033 97.2621C8.07195 98.7041 8.05312 99.5327 7.71665 100.935C7.49388 101.864 7.07262 102.309 6.94335 103.255C6.76841 104.536 7.1248 105.266 7.33 106.542C7.56276 107.989 7.94554 108.757 8.1033 110.215C8.27392 111.791 7.49651 112.81 8.1033 114.275C8.65534 115.607 9.37003 116.255 10.6165 116.981C12.0754 117.831 13.1894 117.592 14.8697 117.755C16.55 117.918 15.1457 110.062 15.8363 105.188C16.7049 99.0588 17.6289 95.6789 19.3162 89.7224C20.9689 83.8876 22.0099 80.6274 24.3426 75.0297C26.9791 68.7029 38.5962 62.0056 32.2689 59.3704H25.5026Z" fill="#E5A064"/>
<path d="M68.0343 165.506C69.5196 165.788 71.9008 165.699 71.9008 165.699C75.7464 164.38 69.4531 159.843 68.0343 156.033C66.7512 152.587 65.9992 150.661 64.9411 147.14C64.0875 144.299 64.3667 142.431 63.0079 139.794C61.922 137.686 60.446 137.054 59.3347 134.96C57.3843 131.285 57.5923 128.664 57.2081 124.521C56.8805 120.988 57.2081 118.983 57.2081 115.435C57.2081 112.641 57.4495 111.065 57.2081 108.282C57.0033 105.92 57.8072 104.069 56.2415 102.288C54.991 100.867 53.6856 88.3219 51.795 88.2171C49.6246 88.0966 48.3252 88.8608 46.5752 90.1503C43.5019 92.4151 39.6155 105.382 42.5154 111.181C45.4153 116.981 45.3261 114.442 46.5752 116.981C47.5426 118.948 47.1689 120.474 48.0252 122.491C48.9134 124.583 50.7188 126.772 51.795 128.774C53.6511 132.227 53.267 133.066 54.1149 136.894C54.5473 138.845 54.6483 139.969 55.0816 141.92L55.1117 142.056C56.1337 146.66 56.7257 149.326 58.5614 153.713C60.0084 157.171 60.7577 159.221 63.0079 162.219C63.7158 163.162 63.9677 163.873 64.9411 164.539C65.9858 165.254 66.791 165.27 68.0343 165.506Z" fill="#E5A064"/>
<path d="M47.498 58.6069L48.156 58.2006C48.156 58.2006 51.6238 62.6092 53.571 65.6229C57.2063 71.2494 58.071 75.0672 61.3049 80.9336C63.0554 84.109 64.1997 85.7975 65.9452 88.9756C68.5068 93.6397 70.6119 96.0166 72.1318 101.116C73.4971 105.697 73.6787 113.257 73.6787 113.257L73.0208 113.663C73.0208 113.663 72.8391 106.103 71.4739 101.523C69.9539 96.423 67.8489 94.0461 65.2873 89.382C63.5418 86.2038 62.3975 84.5153 60.647 81.34C57.413 75.4736 56.5484 71.6558 52.913 66.0293C50.9659 63.0156 47.498 58.6069 47.498 58.6069Z" fill="url(#paint5_linear_578_7125)"/>
<path d="M58.562 45.451C58.562 45.451 59.1449 45.8193 59.5286 45.9536C60.3019 46.2243 60.2716 46.1075 60.6886 46.0309C61.4619 45.8377 61.8038 45.1966 62.6218 44.8709C63.1325 44.6676 63.4371 44.5968 63.9751 44.4843C64.9386 44.2828 65.506 44.3543 66.4883 44.291C68.2981 44.1742 69.3164 44.1789 71.1281 44.0976C72.7138 44.0265 73.6034 43.9959 75.188 43.9043C77.3038 43.782 78.486 43.6521 80.6011 43.5177C81.8842 43.4361 83.8876 43.3243 83.8876 43.3243C84.2392 43.6889 84.3154 44.0012 84.4676 44.4843C85.0785 46.4232 83.9878 47.8962 82.5343 49.3174C80.8953 50.9202 79.2053 50.7951 76.9279 51.0573C73.9789 51.3969 72.3413 50.3934 69.3882 50.0907C64.0473 49.5432 55.6621 49.3174 55.6621 49.3174L57.402 47.3842L58.562 45.451Z" fill="#E49046"/>
<path d="M25.6976 58.9838C25.6976 58.9838 37.5998 59.6395 44.5462 56.8573C51.2324 54.1793 58.6783 45.4511 58.6783 45.4511C58.8511 45.5871 58.9525 45.6575 59.1423 45.772C59.1423 45.772 51.6058 54.6418 45.0301 57.4372C37.902 60.4676 25.5039 59.3705 25.5039 59.3705C25.6416 59.2423 25.6699 59.155 25.6976 58.9838Z" fill="url(#paint6_linear_578_7125)"/>
<path d="M25.6976 58.9838C25.6976 58.9838 37.5998 59.6395 44.5462 56.8573C51.2324 54.1793 58.6783 45.4511 58.6783 45.4511C58.8511 45.5871 58.9525 45.6575 59.1423 45.772C59.1423 45.772 51.6058 54.6418 45.0301 57.4372C37.902 60.4676 25.5039 59.3705 25.5039 59.3705C25.6416 59.2423 25.6699 59.155 25.6976 58.9838Z" fill="url(#paint7_linear_578_7125)"/>
<path d="M30.5312 71.3568H30.9179C30.9179 71.3568 32.6059 75.5154 32.6578 78.3165C32.7002 80.6033 31.6912 84.093 31.6912 84.093C31.3165 84.1056 31.4692 84.1046 31.3046 84.1046C31.3046 84.1046 32.3443 80.4882 32.2712 78.1231C32.1869 75.396 30.5312 71.3568 30.5312 71.3568Z" fill="url(#paint8_linear_578_7125)"/>
<path d="M1.33298 22.29C1.86997 19.7591 2.49353 18.3692 3.81409 16.1036C5.05839 13.9688 6.00132 12.8827 7.74251 11.0771C10.2002 8.5285 11.8598 7.2789 14.9791 5.47068C17.9892 3.72572 19.8778 3.00464 23.2495 1.99083C26.9279 0.884795 29.1063 0.395181 32.9671 0.250907C36.0425 0.135986 37.8052 0.270015 40.824 0.830883C42.6299 1.16641 43.6754 1.32359 45.3727 1.99083C47.0069 2.63323 47.8866 3.1184 49.3011 4.11741C52.9116 6.66723 53.8992 9.22397 55.9174 13.0104C56.9675 14.9804 57.4313 16.147 58.1918 18.2301C58.9765 20.3796 59.4624 21.5938 59.8459 23.8366C60.3939 27.0423 60.7503 29.0152 59.8459 32.1495C59.1121 34.6924 58.1646 35.9925 56.5377 38.1426C55.0853 40.0622 54.114 41.0685 52.1958 42.5891C49.8192 44.473 48.1134 45.0698 45.3727 46.4556C42.0045 48.1587 40.1271 49.2251 36.4821 50.3221C31.2099 51.9088 27.8272 53.1931 22.4224 52.062C19.5979 51.471 18.0517 50.7931 15.5994 49.3555C13.6548 48.2155 12.6978 47.3702 11.0507 45.8756C7.56146 42.7095 5.77647 40.5622 3.81409 36.4027C1.40317 31.2925 0.170574 27.7685 1.33298 22.29Z" fill="url(#paint9_linear_578_7125)"/>
<path d="M4.78458 33.8893L14.2573 49.3553C14.2573 49.3553 11.4067 49.4965 9.81087 48.7753C8.01022 47.9616 7.29677 46.8958 6.13769 45.2955C5.00862 43.7366 4.49133 42.713 4.01112 40.849C3.38954 38.4363 4.78458 33.8893 4.78458 33.8893Z" fill="#B7B6B2"/>
<path d="M54.1152 14.3258C54.1152 14.3258 58.0504 15.703 59.1081 16.4902C60.0084 17.1604 60.4195 17.6825 61.0413 18.6168C62.0206 20.0881 62.33 21.1215 62.5879 22.8699C62.7752 24.1397 62.7752 24.8867 62.5879 26.1565C62.33 27.9049 59.1081 33.2716 59.1081 33.2716L54.1152 14.3258Z" fill="#B7B7C3"/>
<g filter="url(#filter0_f_578_7125)">
<path d="M57.9492 18.2577L58.8081 17.6501C58.8081 17.6501 59.6489 18.9812 60.0963 19.8779C60.7065 21.1008 60.9858 21.8203 61.3845 23.1184C61.577 23.7449 61.9116 24.093 61.814 24.7387C61.7186 25.37 60.9551 26.1564 60.9551 26.1564C60.9551 26.1564 60.5188 24.158 60.0963 22.9159C59.4539 21.0271 57.9492 18.2577 57.9492 18.2577Z" fill="#62635E" fill-opacity="0.5"/>
</g>
<path d="M4.39799 25.3831C4.90008 22.8522 5.48313 21.4623 6.71789 19.1967C7.88134 17.0619 8.763 15.9759 10.3911 14.1702C12.689 11.6216 14.2409 10.372 17.1574 8.56382C19.972 6.81886 21.7378 6.09778 24.8904 5.08397C28.3299 3.97793 30.3667 3.48832 33.9767 3.34405C36.8523 3.22913 38.5004 3.36315 41.3231 3.92402C43.0117 4.25955 43.9892 4.41673 45.5762 5.08397C47.1042 5.72637 47.9268 6.21154 49.2494 7.21055C52.6252 9.76037 53.5487 12.3171 55.4358 16.1035C56.4176 18.0735 56.8513 19.2402 57.5624 21.3233C58.2961 23.4727 58.7505 24.6869 59.109 26.9297C59.6214 30.1354 59.9546 32.1083 59.109 35.2427C58.4229 37.7855 57.5369 39.0857 56.0158 41.2358C54.6577 43.1553 53.7495 44.1617 51.956 45.6822C49.7338 47.5662 48.1388 48.1629 45.5762 49.5487C42.4268 51.2519 40.6715 52.3183 37.2632 53.4152C32.3337 55.0019 29.1708 56.2862 24.1171 55.1552C21.4761 54.5641 20.0304 53.8862 17.7374 52.4486C15.9192 51.3086 15.0243 50.4633 13.4843 48.9688C10.2218 45.8026 8.55276 43.6553 6.71789 39.4958C4.46362 34.3856 3.31111 30.8617 4.39799 25.3831Z" fill="url(#paint10_linear_578_7125)"/>
<path d="M11.7447 28.863C13.4845 25.9631 14.1695 24.9689 16.1912 22.8699C18.5063 20.4663 20.1005 19.3749 22.9575 17.6501C25.7338 15.9742 27.4496 15.2785 30.4972 14.1703C34.7503 12.6237 36.8768 12.237 40.3568 12.2371C42.816 12.2371 44.4639 13.7676 45.9632 15.7169C47.8964 18.2301 48.3342 18.8059 49.8297 21.71C51.0237 24.0283 52.343 27.8964 52.343 27.8964C52.343 27.8964 53.251 31.1825 52.343 32.9228C50.0231 37.3693 45.9062 40.9279 40.3568 44.1357C34.5656 47.4833 32.817 48.7755 23.9242 48.3888C19.6709 47.4222 13.1695 41.1567 11.7447 33.6962C11.446 32.1318 10.9253 30.2287 11.7447 28.863Z" fill="url(#paint11_linear_578_7125)"/>
<path d="M20.0554 19.3903C22.856 17.3031 24.772 16.321 27.9818 14.9439C31.0986 13.6066 32.9288 12.8468 36.2947 12.4306C37.4959 12.2821 39.388 12.2373 39.388 12.2373C39.388 12.2373 32.1963 19.7654 29.7217 25.77C26.9918 32.3939 27.2085 43.9426 27.2085 43.9426L19.0888 44.7159C19.0888 44.7159 11.8965 32.3704 13.0958 27.3167C13.4824 25.6879 14.5781 24.4402 15.9956 22.8702C17.3896 21.3262 18.3876 20.6333 20.0554 19.3903Z" fill="url(#paint12_linear_578_7125)"/>
<path fill-rule="evenodd" clip-rule="evenodd" d="M15.5999 22.5506C13.5028 24.7392 12.7922 25.7759 10.9877 28.7995C10.2317 30.0659 10.5753 31.7754 10.8786 33.2856C10.9163 33.4736 10.9533 33.6585 10.9877 33.8391C12.4656 41.6182 19.2097 48.1514 23.6218 49.1592C32.4075 49.5432 34.4706 48.3393 39.8373 45.2081L40.6676 44.7244C46.4239 41.3796 50.6945 37.6691 53.1008 33.0328C54.0429 31.2181 53.1008 27.7916 53.1008 27.7916C53.1008 27.7916 51.7324 23.7584 50.4939 21.3411C48.9424 18.313 48.4886 17.7126 46.4832 15.0921C44.9279 13.0595 43.2186 11.4636 40.6676 11.4636C37.0575 11.4636 34.8516 11.8668 30.4399 13.4794C27.2787 14.635 25.4988 15.3603 22.6189 17.1079C19.6552 18.9063 18.0017 20.0442 15.5999 22.5506ZM16.1908 22.8698C14.1692 24.9688 13.4843 25.963 11.7444 28.8629C11.016 30.0771 11.3468 31.7162 11.639 33.1642C11.6753 33.3448 11.7111 33.5225 11.7444 33.696C13.1694 41.1566 19.6707 47.4221 23.9238 48.3887C32.3935 48.757 34.383 47.6024 39.5564 44.5995C39.8146 44.4495 40.0808 44.2949 40.3565 44.1356C45.9059 40.9278 50.0227 37.3692 52.3426 32.9227C53.2507 31.1824 52.3426 27.8962 52.3426 27.8962C52.3426 27.8962 51.0233 24.0282 49.8294 21.7098C48.3338 18.8057 47.8961 18.23 45.9629 15.7167C44.4635 13.7675 42.8157 12.2369 40.3565 12.2369C36.8766 12.2369 34.75 12.6236 30.4969 14.1701C27.4494 15.2784 25.7336 15.974 22.9572 17.65C20.1004 19.3748 18.5062 20.4661 16.1908 22.8698Z" fill="url(#paint13_linear_578_7125)"/>
<path d="M99.1352 120.861C100.762 119.328 102.579 116.208 102.579 116.208C102.579 116.208 102.196 117.418 101.89 118.167C101.184 119.896 100.546 120.703 99.1352 121.84C97.7302 122.973 95.2324 123.554 95.2324 123.554C95.2324 123.554 97.7748 122.143 99.1352 120.861Z" fill="#AC7341"/>
<defs>
<filter id="filter0_f_578_7125" x="54.3492" y="14.0501" width="11.0828" height="15.7063" filterUnits="userSpaceOnUse" color-interpolation-filters="sRGB">
<feFlood flood-opacity="0" result="BackgroundImageFix"/>
<feBlend mode="normal" in="SourceGraphic" in2="BackgroundImageFix" result="shape"/>
<feGaussianBlur stdDeviation="1.8" result="effect1_foregroundBlur_578_7125"/>
</filter>
<linearGradient id="paint0_linear_578_7125" x1="50.8294" y1="43.1311" x2="24.7305" y2="57.4372" gradientUnits="userSpaceOnUse">
<stop stop-color="#778186"/>
<stop offset="1" stop-color="#474B4C"/>
</linearGradient>
<linearGradient id="paint1_linear_578_7125" x1="51.2148" y1="44.2909" x2="26.0825" y2="57.8237" gradientUnits="userSpaceOnUse">
<stop stop-color="#C1C1C1"/>
<stop offset="1" stop-color="#929292"/>
</linearGradient>
<linearGradient id="paint2_linear_578_7125" x1="77.3136" y1="43.3244" x2="53.728" y2="169.566" gradientUnits="userSpaceOnUse">
<stop stop-color="#D4853F"/>
<stop offset="1" stop-color="#D79962"/>
</linearGradient>
<linearGradient id="paint3_linear_578_7125" x1="77.3158" y1="43.3243" x2="53.7302" y2="169.566" gradientUnits="userSpaceOnUse">
<stop stop-color="#A25D21"/>
<stop offset="1" stop-color="#D79962"/>
</linearGradient>
<linearGradient id="paint4_linear_578_7125" x1="77.3154" y1="43.3244" x2="53.7297" y2="169.566" gradientUnits="userSpaceOnUse">
<stop stop-color="#995316"/>
<stop offset="1" stop-color="#D79962"/>
</linearGradient>
<linearGradient id="paint5_linear_578_7125" x1="58.3696" y1="81.2163" x2="61.8495" y2="79.4764" gradientUnits="userSpaceOnUse">
<stop stop-color="#6A4222"/>
<stop offset="1" stop-color="#D58947"/>
</linearGradient>
<linearGradient id="paint6_linear_578_7125" x1="39.037" y1="55.504" x2="40.197" y2="59.1772" gradientUnits="userSpaceOnUse">
<stop stop-color="#D48845"/>
<stop offset="1" stop-color="#4E3219"/>
</linearGradient>
<linearGradient id="paint7_linear_578_7125" x1="56.243" y1="47.191" x2="58.7562" y2="46.9977" gradientUnits="userSpaceOnUse">
<stop stop-color="#D48641" stop-opacity="0"/>
<stop offset="1" stop-color="#4E3219"/>
</linearGradient>
<linearGradient id="paint8_linear_578_7125" x1="30.7246" y1="71.9367" x2="32.0161" y2="84.1433" gradientUnits="userSpaceOnUse">
<stop stop-color="#D58A49"/>
<stop offset="1" stop-color="#281709"/>
</linearGradient>
<linearGradient id="paint9_linear_578_7125" x1="3.21053" y1="19.1589" x2="49.0286" y2="26.5053" gradientUnits="userSpaceOnUse">
<stop stop-color="#9F9F9F"/>
<stop offset="1" stop-color="#787877"/>
</linearGradient>
<linearGradient id="paint10_linear_578_7125" x1="3.98437" y1="26.1186" x2="39.3629" y2="27.0852" gradientUnits="userSpaceOnUse">
<stop stop-color="#CBCBCB"/>
<stop offset="1" stop-color="#828380"/>
</linearGradient>
<linearGradient id="paint11_linear_578_7125" x1="12.5179" y1="30.7963" x2="51.9562" y2="31.7629" gradientUnits="userSpaceOnUse">
<stop stop-color="#1B0A5D"/>
<stop offset="0.390625" stop-color="#1B0A5D"/>
<stop offset="0.970597" stop-color="#010005"/>
</linearGradient>
<linearGradient id="paint12_linear_578_7125" x1="39.5813" y1="14.3638" x2="18.7022" y2="29.4432" gradientUnits="userSpaceOnUse">
<stop stop-color="#FFF9FF" stop-opacity="0.36"/>
<stop offset="1" stop-color="#1B0A5D" stop-opacity="0"/>
</linearGradient>
<linearGradient id="paint13_linear_578_7125" x1="10.5577" y1="30.3717" x2="53.4758" y2="30.3717" gradientUnits="userSpaceOnUse">
<stop stop-color="#5B5C59"/>
<stop offset="1" stop-color="#3F403E"/>
</linearGradient>
</defs>
</svg>
