<svg width="68" height="86" viewBox="0 0 68 86" fill="none" xmlns="http://www.w3.org/2000/svg">
<rect x="13.6009" y="1.9789" width="53.3199" height="74.2529" rx="2.76474" transform="rotate(9.30032 13.6009 1.9789)" fill="white" stroke="white" stroke-width="2.36977"/>
<path d="M20.1029 8.83355L16.4875 15.7894L14.5447 15.4713L19.2916 7.14356L20.5279 7.34602L20.1029 8.83355ZM20.9028 16.5125L19.6888 8.76573L19.7423 7.21736L20.9907 7.42182L22.8517 16.8316L20.9028 16.5125ZM21.3338 13.1937L21.0994 14.6249L16.416 13.8579L16.6504 12.4267L21.3338 13.1937Z" fill="#FF0000"/>
<path d="M48.5644 80.1639L52.3873 73.3126L54.3207 73.6835L49.3255 81.8745L48.0951 81.6385L48.5644 80.1639ZM47.9932 72.4698L48.9765 80.2429L48.877 81.7885L47.6345 81.5501L46.0538 72.0978L47.9932 72.4698ZM47.4634 75.774L47.7404 74.3504L52.4012 75.2444L52.1241 76.668L47.4634 75.774Z" fill="#FF0000"/>
<path fill-rule="evenodd" clip-rule="evenodd" d="M19.6677 19.1101C18.4911 18.9378 18.0171 20.3698 18.0171 20.3698C18.0171 20.3698 17.9871 18.8553 16.817 18.6433C15.6469 18.4313 14.7394 19.4455 14.9413 20.7026C15.1432 21.9596 15.495 22.2927 15.9769 23.259C16.4589 24.2253 17.1212 25.8689 17.0589 26.2208C17.1121 25.8675 18.2265 24.5148 18.9916 23.7527C19.7566 22.9905 20.1962 22.7871 20.7885 21.6601C21.3809 20.5331 20.8443 19.2824 19.6677 19.1101Z" fill="#FF0000"/>
<path fill-rule="evenodd" clip-rule="evenodd" d="M44.8677 30.7755C38.988 29.8941 36.8586 35.584 36.8586 35.584C36.8586 35.584 36.4679 29.4814 30.6143 28.4413C24.7605 27.401 20.4083 31.3396 21.6132 36.433C22.818 41.5263 24.6207 42.9232 27.1722 46.8907C29.7234 50.8582 33.2796 57.5811 33.026 58.9879C33.2345 57.5737 38.5615 52.3055 42.2452 49.359C45.9288 46.4127 48.083 45.6638 50.8494 41.2208C53.6159 36.7777 50.7475 31.6567 44.8677 30.7755Z" fill="url(#paint0_angular_363_8426)"/>
<path fill-rule="evenodd" clip-rule="evenodd" d="M48.3008 70.5517C49.4793 70.7104 49.9377 69.2732 49.9377 69.2732C49.9377 69.2732 49.9842 70.7872 51.1566 70.9857C52.3291 71.1842 53.2256 70.1597 53.0099 68.9051C52.7943 67.6506 52.4389 67.3217 51.9464 66.3611C51.4538 65.4004 50.7736 63.7647 50.8321 63.4122C50.7827 63.7661 49.683 65.1313 48.9263 65.9022C48.1695 66.673 47.7321 66.8814 47.152 68.015C46.572 69.1487 47.1222 70.393 48.3008 70.5517Z" fill="#FF0000"/>
<defs>
<radialGradient id="paint0_angular_363_8426" cx="0" cy="0" r="1" gradientUnits="userSpaceOnUse" gradientTransform="translate(38.4643 24.0722) rotate(99.0071) scale(35.3362 36.5017)">
<stop stop-color="#FF0000"/>
<stop offset="1" stop-color="#F00909"/>
</radialGradient>
</defs>
</svg>
