<svg width="56" height="77" viewBox="0 0 56 77" fill="none" xmlns="http://www.w3.org/2000/svg">
<rect x="1.35579" y="1.46876" width="53.3199" height="74.2529" rx="2.76474" fill="white" stroke="white" stroke-width="2.36977"/>
<path d="M8.87902 7.18273L6.43519 14.6315H4.46655L7.80521 5.64608H9.05798L8.87902 7.18273ZM10.9094 14.6315L8.45937 7.18273L8.26189 5.64608H9.527L12.8842 14.6315H10.9094ZM10.7983 11.2866V12.7369H6.05257V11.2866H10.7983Z" fill="#FF0000"/>
<path d="M48.4947 72.9756L51.1601 65.5966L53.128 65.6502L49.5222 74.5408L48.2699 74.5067L48.4947 72.9756ZM46.6876 65.475L48.9142 72.987L49.0657 74.5284L47.801 74.494L44.7135 65.4213L46.6876 65.475ZM46.6987 68.8214L46.742 67.3718L51.486 67.5008L51.4427 68.9504L46.6987 68.8214Z" fill="#FF0000"/>
<path fill-rule="evenodd" clip-rule="evenodd" d="M10.1138 17.3941C8.92486 17.4142 8.68849 18.904 8.68849 18.904C8.68849 18.904 8.41412 17.4142 7.22516 17.3941C6.03617 17.3739 5.30448 18.5214 5.70692 19.7294C6.10933 20.9373 6.5103 21.2091 7.14211 22.0848C7.7739 22.9606 8.69307 24.4756 8.68849 24.8329C8.68394 24.4756 9.56505 22.9606 10.1969 22.0848C10.8287 21.2091 11.2296 20.9373 11.6321 19.7294C12.0345 18.5214 11.3028 17.3739 10.1138 17.3941Z" fill="#FF0000"/>
<path fill-rule="evenodd" clip-rule="evenodd" d="M36.866 24.8339C30.9212 24.9144 29.7393 30.8736 29.7393 30.8736C29.7393 30.8736 28.3675 24.9144 22.4227 24.8339C16.4777 24.7533 12.8193 29.3435 14.8315 34.1753C16.8435 39.0069 18.8484 40.0941 22.0074 43.597C25.1664 47.1001 29.7622 53.1599 29.7393 54.5893C29.7166 53.1599 34.1221 47.1001 37.2812 43.597C40.4403 40.0941 42.4451 39.0069 44.4572 34.1753C46.4692 29.3435 42.8109 24.7533 36.866 24.8339Z" fill="url(#paint0_angular_363_8107)"/>
<path fill-rule="evenodd" clip-rule="evenodd" d="M46.6833 63.5324C47.872 63.4986 48.0921 62.0062 48.0921 62.0062C48.0921 62.0062 48.3827 63.4927 49.5718 63.4991C50.7609 63.5056 51.4801 62.3497 51.0645 61.1464C50.649 59.9432 50.2451 59.6761 49.6038 58.8077C48.9625 57.9392 48.0269 56.435 48.0275 56.0776C48.036 56.4349 47.1714 57.9599 46.5492 58.8429C45.927 59.7258 45.529 60.0022 45.1398 61.2147C44.7505 62.4272 45.4946 63.5662 46.6833 63.5324Z" fill="#FF0000"/>
<defs>
<radialGradient id="paint0_angular_363_8107" cx="0" cy="0" r="1" gradientUnits="userSpaceOnUse" gradientTransform="translate(29.4635 19.2536) rotate(89.7068) scale(35.3362 36.5017)">
<stop stop-color="#FF0000"/>
<stop offset="1" stop-color="#F00909"/>
</radialGradient>
</defs>
</svg>
