<svg width="17" height="17" viewBox="0 0 17 17" fill="none" xmlns="http://www.w3.org/2000/svg">
<path d="M5.56102 2.13654C5.37355 2.32406 5.26823 2.57837 5.26823 2.84354C5.26823 3.1087 5.37355 3.36301 5.56102 3.55054L10.511 8.50054L5.56102 13.4505C5.37886 13.6391 5.27807 13.8917 5.28034 14.1539C5.28262 14.4161 5.38779 14.6669 5.5732 14.8524C5.75861 15.0378 6.00942 15.1429 6.27162 15.1452C6.53381 15.1475 6.78642 15.0467 6.97502 14.8645L12.632 9.20754C12.8195 9.02001 12.9248 8.7657 12.9248 8.50054C12.9248 8.23537 12.8195 7.98106 12.632 7.79354L6.97502 2.13654C6.78749 1.94907 6.53318 1.84375 6.26802 1.84375C6.00285 1.84375 5.74855 1.94907 5.56102 2.13654Z" fill="#998220"/>
</svg>
