<svg width="231" height="231" viewBox="0 0 231 231" fill="none" xmlns="http://www.w3.org/2000/svg">
<circle cx="115.5" cy="115.368" r="115" fill="#495369"/>
<circle cx="115.5" cy="115.368" r="114.5" stroke="#6F87AF" stroke-opacity="0.2"/>
<circle cx="115.5" cy="115.368" r="100" fill="#698FB7" fill-opacity="0.29"/>
<path d="M112.17 108.701H118.837V125.368H112.17V108.701ZM112.167 128.701H118.834V135.368H112.167V128.701Z" fill="white"/>
<path d="M121.396 89.3679C120.236 87.1845 117.976 85.8279 115.503 85.8279C113.03 85.8279 110.77 87.1845 109.61 89.3712L85.1498 135.581C84.607 136.596 84.3381 137.735 84.3697 138.885C84.4012 140.035 84.7321 141.158 85.3298 142.141C85.9187 143.129 86.7552 143.946 87.7566 144.512C88.7579 145.078 89.8896 145.373 91.0398 145.368H139.966C142.326 145.368 144.463 144.161 145.68 142.141C146.276 141.157 146.607 140.035 146.638 138.885C146.67 137.735 146.402 136.596 145.86 135.581L121.396 89.3679ZM91.0398 138.701L115.503 92.4912L139.983 138.701H91.0398Z" fill="white"/>
</svg>
