<svg width="26" height="24" viewBox="0 0 26 24" fill="none" xmlns="http://www.w3.org/2000/svg">
<path d="M22.2744 2.88013C23.0663 3.94829 23.8577 5.01646 24.6496 6.08493C24.701 6.15423 24.6429 6.19293 24.5915 6.12362L22.7833 3.6838C22.7745 3.67187 22.7665 3.65928 22.7595 3.64619C22.6163 3.37865 22.4545 3.12291 22.2744 2.88013Z" fill="url(#paint0_linear_363_8433)"/>
<path d="M4.26745 21.198C3.47551 20.1299 2.68389 19.0614 1.89258 17.9932C2.57222 18.9103 3.50845 19.643 4.66985 20.1298C4.86504 20.2116 5.03872 20.3394 5.16473 20.5094C5.81027 21.3805 5.06752 22.2113 4.39331 21.3621C4.35043 21.3081 4.30847 21.2534 4.26745 21.198Z" fill="url(#paint1_linear_363_8433)"/>
<path d="M23.4822 5.89918C23.4516 5.68207 24.0435 5.3822 24.1741 5.55835L25.1333 6.85263C25.1422 6.86462 25.1502 6.87724 25.1571 6.89044C25.5037 7.54917 25.7429 8.28872 25.8573 9.10399C25.9895 10.0437 24.8631 10.3562 24.2981 9.59384L23.7957 8.91598C23.5662 8.60631 23.4771 8.21753 23.5146 7.8339C23.5786 7.17923 23.571 6.53111 23.4822 5.89918Z" fill="url(#paint2_linear_363_8433)"/>
<path d="M9.26633 20.7617C9.9337 20.7053 10.6002 20.9626 10.999 21.5007L11.0265 21.5378C11.8039 22.5868 11.1864 24.0741 9.88394 23.9832C9.07749 23.9271 8.33157 23.7817 7.65203 23.56C7.45131 23.4945 7.27962 23.3633 7.15392 23.1936L6.52021 22.3385C6.06264 21.721 6.74241 20.7248 7.50907 20.7784C8.0867 20.8187 8.67448 20.8118 9.26633 20.7617Z" fill="url(#paint3_linear_363_8433)"/>
<path d="M22.0424 8.7551C21.984 8.76839 21.9185 8.77271 21.8505 8.76808C21.7511 8.76128 21.6466 8.73471 21.5542 8.68929C21.4072 8.61729 21.2901 8.49741 21.2672 8.3321L20.8559 5.39148C20.8399 5.27468 20.872 5.14274 20.9316 5.01359C21.0456 4.76671 21.2613 4.53002 21.4396 4.42744C22.1815 4.00319 22.4659 3.04742 21.8927 2.41356C21.4945 1.97337 21.0292 1.58554 20.5013 1.25853C19.778 0.810469 18.865 1.1291 18.3998 1.84153C18.2382 2.08965 17.7281 2.43046 17.3452 2.40389L14.027 2.17277C13.647 2.14619 13.4576 1.75687 13.5181 1.50165C13.6717 0.911033 13.1658 0.362895 12.5758 0.518804C11.2771 0.861982 9.98961 1.39208 8.76664 2.07505C8.25079 2.36313 8.11292 3.03115 8.44117 3.52242C8.52058 3.64292 8.52027 3.89475 8.41552 4.14225C8.36083 4.27171 8.27772 4.40025 8.16216 4.50808L5.2549 7.21728C5.18167 7.28587 5.09794 7.34273 5.01019 7.38938C4.90204 7.44654 4.78803 7.48795 4.67772 7.51421C4.55165 7.54449 4.43084 7.55531 4.23772 7.53522C4.20929 7.52874 4.18427 7.5207 4.16295 7.5102C3.56358 7.22485 2.83967 7.40248 2.48774 7.96534C2.13677 8.52667 1.82533 9.10723 1.5619 9.70338C1.36137 10.1567 1.19413 10.6051 1.0585 11.0468C0.857993 11.6998 1.46003 12.2711 2.12549 12.1169C2.17647 12.1051 2.23302 12.1005 2.31644 12.1039C2.39122 12.1091 2.46847 12.1252 2.5417 12.1521C2.72122 12.2179 2.87478 12.3477 2.90197 12.5377L3.30953 15.4802C3.32621 15.5964 3.29408 15.728 3.23475 15.8571C3.12074 16.1037 2.90475 16.341 2.72709 16.4421C1.98745 16.8747 1.70767 17.8336 2.28359 18.4681C2.67988 18.9047 3.14254 19.2896 3.66727 19.6144C4.39006 20.0619 5.30216 19.7429 5.76597 19.0304C5.92788 18.7823 6.44017 18.4418 6.82146 18.4659L10.1397 18.697C10.5225 18.7236 10.7085 19.1154 10.6479 19.3703C10.5064 19.9655 11.0185 20.5078 11.6097 20.3505C12.9015 20.0068 14.1823 19.4782 15.4 18.7983C15.917 18.5097 16.0554 17.8401 15.7264 17.3477C15.6464 17.2287 15.647 16.9763 15.7515 16.7291C15.8062 16.5996 15.8893 16.4714 16.0042 16.3645L18.9149 13.6531C19.1018 13.478 19.3577 13.3766 19.5829 13.3389C19.6747 13.3235 19.7615 13.3188 19.8734 13.3275C19.9256 13.334 19.9704 13.3454 20.0062 13.3621C20.6064 13.6479 21.3315 13.47 21.6828 12.9056C22.0319 12.3446 22.3413 11.7644 22.6048 11.1689C22.8055 10.7152 22.9729 10.2664 23.1087 9.82425C23.309 9.1717 22.7074 8.60101 22.0424 8.7551Z" fill="url(#paint4_linear_363_8433)"/>
<path d="M22.6028 11.1687C23.0366 10.1879 24.5046 9.87462 25.1432 10.7362L25.4497 11.1498C25.6803 11.4609 25.7797 11.8532 25.6944 12.2309C25.5371 12.9273 25.3004 13.6442 24.978 14.3735C24.9071 14.5339 24.8328 14.6931 24.7553 14.8511C24.1903 16.0039 22.6383 16.0125 21.8739 14.9811C21.3773 14.3112 21.3858 13.4025 21.8141 12.687C22.1091 12.1942 22.3734 11.6873 22.6028 11.1687Z" fill="url(#paint5_linear_363_8433)"/>
<path d="M14.7126 19.1629C15.647 18.6938 16.8088 18.8966 17.4314 19.7367C18.1179 20.663 17.8792 21.9882 16.8408 22.4892C15.8479 22.9683 14.8234 23.346 13.7934 23.6051C13.1435 23.7687 12.4733 23.4914 12.0743 22.953C11.2843 21.887 11.8974 20.3287 13.1375 19.8569C13.6693 19.6546 14.1956 19.4225 14.7126 19.1629Z" fill="url(#paint6_linear_363_8433)"/>
<path d="M5.25607 7.21666L8.16332 4.50747C8.27888 4.39963 8.36231 4.27141 8.41669 4.14163C8.52143 3.89413 8.52174 3.64231 8.44233 3.5218C8.10969 3.02378 7.4372 2.88122 6.95312 3.23385C6.3695 3.65899 5.8033 4.12449 5.26163 4.63014C4.74511 5.11046 4.27109 5.60887 3.83916 6.11948C3.45553 6.57301 3.62777 7.25455 4.16411 7.50989C4.18543 7.52009 4.21046 7.52843 4.23888 7.53492C4.2531 7.53832 4.26793 7.54079 4.28369 7.54295C4.29914 7.54511 4.31551 7.54697 4.33251 7.5482C4.432 7.555 4.55281 7.54419 4.67888 7.51422C4.78919 7.48764 4.90351 7.44655 5.01135 7.38939C5.0991 7.34211 5.18284 7.28526 5.25607 7.21666Z" fill="url(#paint7_linear_363_8433)"/>
<path d="M18.4021 1.84122L19.159 0.68254C19.1789 0.652099 19.1654 0.611244 19.1313 0.598478C19.0352 0.563562 18.9379 0.530191 18.839 0.498366C18.1744 0.285474 17.4455 0.147975 16.66 0.0932845C15.8996 0.0401388 15.1228 0.0673303 14.3414 0.169296C14.1956 0.188453 14.0494 0.209773 13.9033 0.234183C13.8527 0.24252 13.8121 0.28048 13.8001 0.330336L13.5198 1.50072C13.4596 1.75594 13.6487 2.14526 14.0287 2.17183L17.3469 2.40296C17.7304 2.43015 18.2405 2.08934 18.4021 1.84122Z" fill="url(#paint8_linear_363_8433)"/>
<path d="M2.90268 12.5377C2.8758 12.3477 2.72162 12.2179 2.54241 12.1521C2.46948 12.1252 2.39224 12.1091 2.31715 12.1039C2.30881 12.1032 2.30047 12.1026 2.29213 12.1026C2.23373 12.1005 2.17718 12.1051 2.1262 12.1168C1.28226 12.3124 0.614025 13.0007 0.612321 13.867C0.611588 14.2398 0.635761 14.6091 0.686943 14.9728C0.725132 15.2501 0.778004 15.5187 0.844886 15.7781C1.05442 16.591 1.99909 16.859 2.7278 16.4423C2.90515 16.3413 3.12145 16.104 3.23546 15.8574C3.29479 15.7283 3.32692 15.5963 3.31024 15.4805L2.90268 12.5377Z" fill="url(#paint9_linear_363_8433)"/>
<path d="M23.4853 5.89943C23.4464 5.62183 23.393 5.35304 23.3258 5.09324C23.1158 4.28084 22.1717 4.01057 21.4433 4.42711C21.2653 4.5297 21.0496 4.76669 20.9353 5.01326C20.8757 5.14242 20.8435 5.27435 20.8596 5.39115L21.2708 8.33177C21.2934 8.49708 21.4108 8.61697 21.5579 8.68896C21.6503 8.73438 21.7547 8.76095 21.8545 8.76775C21.9222 8.77239 21.9877 8.76837 22.0461 8.75477C22.8891 8.55907 23.5575 7.87266 23.5599 7.00723C23.5609 6.63378 23.5366 6.26385 23.4853 5.89943Z" fill="url(#paint10_linear_363_8433)"/>
<path d="M10.1415 18.6973L6.82327 18.4662C6.44198 18.4418 5.92968 18.7823 5.76778 19.0307C5.36117 19.6553 5.64215 20.4965 6.3746 20.6341C6.73885 20.7025 7.11821 20.7512 7.512 20.7787C8.02628 20.8144 8.5484 20.8129 9.07413 20.7769C9.85298 20.7236 10.4692 20.1305 10.6494 19.3709C10.7103 19.1154 10.5243 18.7239 10.1415 18.6973Z" fill="url(#paint11_linear_363_8433)"/>
<path d="M19.8758 13.3275C19.8637 13.3263 19.8517 13.325 19.8387 13.3241C19.7639 13.3188 19.6771 13.3235 19.5853 13.3389C19.3601 13.3766 19.1042 13.478 18.9173 13.6532L16.0066 16.3645C15.8917 16.4714 15.8083 16.5997 15.7539 16.7291C15.6495 16.9763 15.6488 17.2288 15.7289 17.3477C16.0616 17.8459 16.7341 17.9888 17.2186 17.6364C17.8016 17.2121 18.3681 16.7471 18.9108 16.2422C19.7197 15.4895 20.4242 14.6932 21.0258 13.8756C21.0339 13.8651 21.0299 13.8495 21.018 13.8438L20.0086 13.3624C19.9728 13.3454 19.928 13.334 19.8758 13.3275Z" fill="url(#paint12_linear_363_8433)"/>
<path d="M21.022 13.8753C21.0299 13.8652 21.0453 13.8651 21.0529 13.8754L23.3974 17.0389C23.4064 17.051 23.4067 17.068 23.3972 17.0798C22.7959 17.8974 22.0911 18.694 21.2822 19.4466C20.934 19.7705 20.5761 20.0779 20.2104 20.3687C19.3915 21.0199 18.2158 20.7967 17.5928 19.9561C16.9066 19.0302 17.1558 17.7236 18.0471 16.993C18.3394 16.7534 18.6264 16.5029 18.907 16.2418C19.716 15.4892 20.4204 14.6929 21.022 13.8753Z" fill="url(#paint13_linear_363_8433)"/>
<path d="M15.1937 3.50146C11.2436 3.22615 6.64772 6.15225 4.93007 10.0356C3.21241 13.9192 5.02276 17.2912 8.97284 17.5665C12.9232 17.8418 17.5166 14.9154 19.2343 11.0321C20.9519 7.14873 19.1437 3.77677 15.1937 3.50146Z" fill="#FF4545"/>
<path d="M15.1937 3.4035C11.2436 3.12819 6.64772 6.05429 4.93007 9.93763C3.21241 13.8213 5.02276 17.1932 8.97284 17.4685C12.9232 17.7439 17.5166 14.8174 19.2343 10.9341C20.9519 7.05046 19.1437 3.6785 15.1937 3.4035Z" fill="#A10400"/>
<path d="M15.1111 7.85937C14.9165 7.8491 14.7178 7.86334 14.519 7.89928C13.6461 8.0571 12.0876 7.70106 11.2018 7.65451C9.95505 7.58932 8.5368 8.52647 8.03068 9.75006C7.49181 11.0515 8.06313 12.0468 8.62085 12.7664C9.00059 13.2586 9.40753 13.6396 9.45264 13.6828C9.99886 14.1913 10.7981 14.3195 11.476 14.0075L11.9026 13.8111C11.9783 13.774 12.6766 13.4511 13.4413 13.0188C14.558 12.3866 15.9117 11.4924 16.4506 10.191C16.9567 8.96771 16.3551 7.92457 15.1111 7.85937Z" fill="url(#paint14_linear_363_8433)"/>
<path d="M5.16265 10.6959C6.8803 6.81254 11.4762 3.88644 15.4262 4.16175C16.0046 4.20201 16.5517 3.61218 15.9821 3.5043C15.7301 3.45658 15.4674 3.4228 15.1945 3.4038C11.2444 3.1285 6.64856 6.0546 4.93091 9.93794C4.82078 10.1869 4.72519 10.4337 4.64377 10.6777C4.50883 11.0822 4.9902 11.0858 5.16265 10.6959Z" fill="#780300"/>
<path d="M25.856 9.10397C25.7404 8.28021 25.4975 7.53432 25.1453 6.87062C24.9991 6.59593 24.8338 6.3336 24.6497 6.08487C24.6114 6.03326 24.5727 5.98135 24.5344 5.92944C24.6531 6.12163 24.7659 6.32835 24.8626 6.51034C25.2148 7.17404 25.4577 7.92024 25.5732 8.74369C25.6891 9.56745 25.6669 10.4187 25.5275 11.2761C25.3829 12.1564 25.1104 13.0744 24.6951 14.0131C24.2799 14.9516 23.7511 15.8515 23.1317 16.6986C23.1315 16.6989 23.1311 16.699 23.1308 16.6987L23.1296 16.6978C23.1291 16.6975 23.1285 16.6981 23.1289 16.6985C23.1291 16.6987 23.1291 16.699 23.1289 16.6992C23.1238 16.7059 23.1189 16.7129 23.1137 16.7192C22.5124 17.5368 21.8076 18.3334 20.9987 19.0861C20.183 19.8446 19.3144 20.5133 18.4159 21.0886C16.5469 22.2832 14.4867 23.1214 12.441 23.4695C12.4402 23.4696 12.4395 23.4693 12.439 23.4687C12.4385 23.4682 12.4378 23.4679 12.437 23.468C11.4824 23.6301 10.5286 23.6872 9.6002 23.6226C8.67108 23.558 7.82229 23.3748 7.0628 23.093C5.88062 22.6549 4.9172 21.9708 4.19727 21.1034C4.22044 21.135 4.24361 21.1662 4.2671 21.1977C5.00465 22.1929 6.04439 22.971 7.34614 23.4533C8.10563 23.7351 8.95442 23.918 9.88354 23.9829C10.812 24.0478 11.7657 23.9904 12.7204 23.8283C12.7211 23.8282 12.7219 23.8284 12.7223 23.829C12.7228 23.8296 12.7236 23.8299 12.7243 23.8297C14.77 23.4817 16.8302 22.6435 18.6992 21.4489C19.5978 20.8736 20.4666 20.2049 21.282 19.4464C22.091 18.6937 22.7955 17.8971 23.397 17.0795C23.4022 17.0728 23.4071 17.0661 23.4123 17.0594C23.4124 17.0593 23.4124 17.059 23.4122 17.0588C23.4119 17.0584 23.4125 17.0578 23.4129 17.0581L23.4141 17.059C23.4144 17.0593 23.4148 17.0592 23.4151 17.0589C24.0344 16.2118 24.5633 15.3116 24.9784 14.3734C25.3937 13.4347 25.6666 12.5167 25.8109 11.6364C25.9496 10.7793 25.9718 9.92773 25.856 9.10397Z" fill="#B0AAAA"/>
<path d="M22.758 11.3649C23.1732 10.4262 23.4461 9.50819 23.5904 8.62789C23.7294 7.77045 23.7517 6.91919 23.6358 6.09544C23.5202 5.27168 23.2774 4.52579 22.9251 3.86209C22.8105 3.64641 22.6804 3.44094 22.5423 3.24102C22.4533 3.12083 22.364 3.00063 22.275 2.88013C22.4595 3.12886 22.6248 3.39119 22.7706 3.66588C23.1229 4.32958 23.3657 5.07578 23.4813 5.89954C23.5972 6.7233 23.5749 7.57455 23.4359 8.43199C23.2913 9.31229 23.0184 10.2303 22.6035 11.169C22.1883 12.1076 21.6594 13.0075 21.04 13.8546C21.0398 13.8549 21.0398 13.8552 21.0399 13.8554C21.0402 13.8563 21.039 13.857 21.0384 13.8562L21.0382 13.8559C21.0379 13.8555 21.0372 13.8555 21.0368 13.8559C21.0318 13.8624 21.0271 13.8689 21.0221 13.8757C20.4208 14.6933 19.716 15.4899 18.9071 16.2422C18.0913 17.0011 17.2228 17.6698 16.3243 18.2448C14.4559 19.4391 12.3966 20.277 10.3518 20.6253C10.3511 20.6254 10.3503 20.6252 10.3499 20.6246C10.3494 20.624 10.3486 20.6237 10.3479 20.6239C9.39228 20.7859 8.43762 20.8433 7.50888 20.7785C6.57976 20.7139 5.73097 20.531 4.97149 20.2489C3.73987 19.7925 2.74617 19.0688 2.01758 18.1496C2.02716 18.1626 2.03704 18.1759 2.04693 18.1892C2.78448 19.1844 3.82422 19.9624 5.12598 20.4448C5.88547 20.7266 6.73425 20.9095 7.66337 20.9744C8.5918 21.0392 9.54554 20.9818 10.5002 20.8201C10.501 20.8199 10.5017 20.8202 10.5022 20.8208C10.5027 20.8214 10.5034 20.8216 10.5041 20.8215C12.5499 20.4732 14.6101 19.6353 16.4791 18.4407C17.3776 17.8653 18.2465 17.1967 19.0619 16.4381C19.8708 15.6854 20.5753 14.8889 21.1769 14.0713C21.1821 14.0646 21.1869 14.0579 21.1921 14.0512C21.1922 14.051 21.1922 14.0508 21.1921 14.0506C21.1917 14.0501 21.1923 14.0495 21.1928 14.0499L21.194 14.0508C21.1943 14.051 21.1947 14.051 21.1949 14.0507C21.8139 13.2033 22.3428 12.3031 22.758 11.3649Z" fill="white"/>
<defs>
<linearGradient id="paint0_linear_363_8433" x1="31.1664" y1="-3.08933" x2="8.50858" y2="21.113" gradientUnits="userSpaceOnUse">
<stop stop-color="#FF3936"/>
<stop offset="0.2601" stop-color="#E62926"/>
<stop offset="0.7497" stop-color="#BB0E0B"/>
<stop offset="1" stop-color="#AB0400"/>
</linearGradient>
<linearGradient id="paint1_linear_363_8433" x1="28.9018" y1="-5.21401" x2="6.24117" y2="18.9914" gradientUnits="userSpaceOnUse">
<stop stop-color="#FF3936"/>
<stop offset="0.2601" stop-color="#E62926"/>
<stop offset="0.7497" stop-color="#BB0E0B"/>
<stop offset="1" stop-color="#AB0400"/>
</linearGradient>
<linearGradient id="paint2_linear_363_8433" x1="24.1485" y1="3.73566" x2="25.6422" y2="26.2399" gradientUnits="userSpaceOnUse">
<stop stop-color="white"/>
<stop offset="0.147" stop-color="#F3F5F8"/>
<stop offset="0.7114" stop-color="#C8D2E2"/>
<stop offset="1" stop-color="#B8C4D9"/>
</linearGradient>
<linearGradient id="paint3_linear_363_8433" x1="7.70513" y1="4.827" x2="9.19877" y2="27.3316" gradientUnits="userSpaceOnUse">
<stop stop-color="white"/>
<stop offset="0.147" stop-color="#F3F5F8"/>
<stop offset="0.7114" stop-color="#C8D2E2"/>
<stop offset="1" stop-color="#B8C4D9"/>
</linearGradient>
<linearGradient id="paint4_linear_363_8433" x1="4.88959" y1="9.22893" x2="34.9644" y2="14.2757" gradientUnits="userSpaceOnUse">
<stop stop-color="#FF3936"/>
<stop offset="0.2601" stop-color="#E62926"/>
<stop offset="0.7497" stop-color="#BB0E0B"/>
<stop offset="1" stop-color="#AB0400"/>
</linearGradient>
<linearGradient id="paint5_linear_363_8433" x1="34.9412" y1="0.444193" x2="12.2826" y2="24.6474" gradientUnits="userSpaceOnUse">
<stop stop-color="#FF3936"/>
<stop offset="0.2601" stop-color="#E62926"/>
<stop offset="0.7497" stop-color="#BB0E0B"/>
<stop offset="1" stop-color="#AB0400"/>
</linearGradient>
<linearGradient id="paint6_linear_363_8433" x1="34.3368" y1="-0.124197" x2="11.6775" y2="24.0797" gradientUnits="userSpaceOnUse">
<stop stop-color="#FF3936"/>
<stop offset="0.2601" stop-color="#E62926"/>
<stop offset="0.7497" stop-color="#BB0E0B"/>
<stop offset="1" stop-color="#AB0400"/>
</linearGradient>
<linearGradient id="paint7_linear_363_8433" x1="3.97625" y1="4.69249" x2="27.3037" y2="9.06956" gradientUnits="userSpaceOnUse">
<stop stop-color="white"/>
<stop offset="0.147" stop-color="#F3F5F8"/>
<stop offset="0.7114" stop-color="#C8D2E2"/>
<stop offset="1" stop-color="#B8C4D9"/>
</linearGradient>
<linearGradient id="paint8_linear_363_8433" x1="5.01389" y1="-0.838494" x2="28.3436" y2="3.539" gradientUnits="userSpaceOnUse">
<stop stop-color="white"/>
<stop offset="0.147" stop-color="#F3F5F8"/>
<stop offset="0.7114" stop-color="#C8D2E2"/>
<stop offset="1" stop-color="#B8C4D9"/>
</linearGradient>
<linearGradient id="paint9_linear_363_8433" x1="2.0991" y1="14.6957" x2="25.43" y2="19.0734" gradientUnits="userSpaceOnUse">
<stop stop-color="white"/>
<stop offset="0.147" stop-color="#F3F5F8"/>
<stop offset="0.7114" stop-color="#C8D2E2"/>
<stop offset="1" stop-color="#B8C4D9"/>
</linearGradient>
<linearGradient id="paint10_linear_363_8433" x1="4.32525" y1="2.84424" x2="27.6532" y2="7.2214" gradientUnits="userSpaceOnUse">
<stop stop-color="white"/>
<stop offset="0.147" stop-color="#F3F5F8"/>
<stop offset="0.7114" stop-color="#C8D2E2"/>
<stop offset="1" stop-color="#B8C4D9"/>
</linearGradient>
<linearGradient id="paint11_linear_363_8433" x1="1.40879" y1="18.3785" x2="24.7373" y2="22.7558" gradientUnits="userSpaceOnUse">
<stop stop-color="white"/>
<stop offset="0.147" stop-color="#F3F5F8"/>
<stop offset="0.7114" stop-color="#C8D2E2"/>
<stop offset="1" stop-color="#B8C4D9"/>
</linearGradient>
<linearGradient id="paint12_linear_363_8433" x1="2.44617" y1="12.8479" x2="25.7761" y2="17.2254" gradientUnits="userSpaceOnUse">
<stop stop-color="white"/>
<stop offset="0.147" stop-color="#F3F5F8"/>
<stop offset="0.7114" stop-color="#C8D2E2"/>
<stop offset="1" stop-color="#B8C4D9"/>
</linearGradient>
<linearGradient id="paint13_linear_363_8433" x1="18.9677" y1="4.07943" x2="20.4613" y2="26.584" gradientUnits="userSpaceOnUse">
<stop stop-color="white"/>
<stop offset="0.147" stop-color="#F3F5F8"/>
<stop offset="0.7114" stop-color="#C8D2E2"/>
<stop offset="1" stop-color="#B8C4D9"/>
</linearGradient>
<linearGradient id="paint14_linear_363_8433" x1="7.81433" y1="11.0874" x2="16.6301" y2="11.0874" gradientUnits="userSpaceOnUse">
<stop stop-color="white"/>
<stop offset="0.147" stop-color="#F3F5F8"/>
<stop offset="0.7114" stop-color="#C8D2E2"/>
<stop offset="1" stop-color="#B8C4D9"/>
</linearGradient>
</defs>
</svg>
