<svg width="27" height="25" viewBox="0 0 27 25" fill="none" xmlns="http://www.w3.org/2000/svg">
<path d="M22.623 3.5874C23.4147 4.65557 24.2063 5.72373 24.9979 6.79221C25.0493 6.86147 24.9912 6.90015 24.9399 6.83086L23.1319 4.39106C23.1231 4.37914 23.1152 4.36657 23.1082 4.35348C22.9649 4.08594 22.8031 3.83019 22.623 3.5874Z" fill="url(#paint0_linear_363_8499)"/>
<path d="M4.61705 21.9053C3.82512 20.8371 3.0335 19.7687 2.24219 18.7005C2.92183 19.6176 3.85806 20.3503 5.01947 20.8371C5.21465 20.9189 5.38833 21.0466 5.51435 21.2167C6.15999 22.0878 5.4171 22.9188 4.74296 22.0695C4.70005 22.0155 4.65808 21.9607 4.61705 21.9053Z" fill="url(#paint1_linear_363_8499)"/>
<path d="M23.8305 6.60646C23.8 6.38942 24.3921 6.08957 24.5226 6.26566L25.4817 7.55992C25.4905 7.5719 25.4985 7.58451 25.5054 7.5977C25.852 8.25644 26.0912 8.99599 26.2057 9.81126C26.3378 10.751 25.2114 11.0635 24.6464 10.3011L24.144 9.62326C23.9145 9.31358 23.8254 8.9248 23.8629 8.54118C23.927 7.8865 23.9194 7.23839 23.8305 6.60646Z" fill="url(#paint2_linear_363_8499)"/>
<path d="M9.61522 21.4691C10.2826 21.4126 10.9492 21.6699 11.348 22.2081L11.3754 22.2451C12.1529 23.2941 11.5354 24.7815 10.2329 24.6905C9.42641 24.6345 8.68048 24.489 8.00092 24.2673C7.80024 24.2018 7.62857 24.0706 7.50288 23.901L6.86898 23.0457C6.4114 22.4283 7.0911 21.4322 7.85771 21.4857C8.43564 21.5261 9.02348 21.5191 9.61522 21.4691Z" fill="url(#paint3_linear_363_8499)"/>
<path d="M22.3914 9.46244C22.333 9.47572 22.2675 9.48005 22.1995 9.47541C22.1 9.46862 21.9956 9.44205 21.9032 9.39662C21.7561 9.32463 21.639 9.20474 21.6161 9.03943L21.2049 6.09881C21.1888 5.98202 21.2209 5.85008 21.2806 5.72092C21.3946 5.47404 21.6103 5.23736 21.7882 5.13477C22.5301 4.71053 22.8146 3.75474 22.2413 3.12086C21.8432 2.68066 21.3779 2.29281 20.85 1.9658C20.1266 1.51775 19.2136 1.83643 18.7484 2.54887C18.5868 2.79699 18.0767 3.1378 17.6939 3.11123L14.3757 2.8801C13.9956 2.85353 13.8062 2.46421 13.8668 2.20898C14.0203 1.61837 13.5144 1.07023 12.9244 1.22614C11.6258 1.56932 10.3383 2.09941 9.11528 2.78239C8.59942 3.07047 8.46156 3.73849 8.7898 4.22976C8.86921 4.35026 8.8689 4.60208 8.76416 4.84958C8.70947 4.97905 8.62636 5.10758 8.5108 5.21542L5.60354 7.92461C5.53031 7.99321 5.44657 8.05006 5.35882 8.09672C5.25068 8.15388 5.13666 8.19528 5.02636 8.22155C4.90029 8.25183 4.77947 8.26264 4.58636 8.24256C4.55793 8.23607 4.5329 8.22804 4.51158 8.21753C3.91221 7.93219 3.18831 8.10982 2.83638 8.67268C2.4854 9.23401 2.17396 9.81457 1.91053 10.4107C1.71001 10.864 1.54269 11.3124 1.40703 11.7541C1.20643 12.4072 1.80855 12.9784 2.47413 12.8242C2.52511 12.8125 2.58166 12.8078 2.66508 12.8112C2.73986 12.8165 2.81711 12.8325 2.89034 12.8594C3.06986 12.9252 3.22342 13.055 3.25061 13.245L3.65816 16.1875C3.67485 16.3037 3.64271 16.4353 3.58339 16.5645C3.46937 16.8111 3.25339 17.0484 3.07572 17.1494C2.33608 17.582 2.0563 18.541 2.63223 19.1754C3.02851 19.612 3.49118 19.9969 4.01591 20.3218C4.73869 20.7693 5.6508 20.4502 6.11461 19.7378C6.27651 19.4897 6.78881 19.1492 7.1701 19.1733L10.4883 19.4044C10.8711 19.431 11.0571 19.8227 10.9966 20.0777C10.8551 20.6728 11.3671 21.2151 11.9583 21.0578C13.2501 20.7141 14.5309 20.1855 15.7486 19.5057C16.2657 19.217 16.404 18.5475 16.0751 18.055C15.9951 17.9361 15.9957 17.6836 16.1001 17.4364C16.1548 17.307 16.2379 17.1787 16.3529 17.0718L19.2635 14.3605C19.4504 14.1853 19.7063 14.0839 19.9315 14.0462C20.0233 14.0308 20.1101 14.0262 20.222 14.0348C20.2742 14.0413 20.3193 14.0527 20.3549 14.0694C20.9551 14.3553 21.6801 14.1773 22.0314 13.6129C22.3805 13.0519 22.6898 12.4717 22.9531 11.8762C23.1539 11.4223 23.3214 10.9733 23.4572 10.531C23.6574 9.87876 23.056 9.30835 22.3914 9.46244Z" fill="url(#paint4_linear_363_8499)"/>
<path d="M22.9521 11.876C23.3859 10.8952 24.8539 10.5819 25.4925 11.4435L25.799 11.8571C26.0296 12.1682 26.129 12.5605 26.0437 12.9382C25.8864 13.6346 25.6497 14.3514 25.3273 15.0808C25.2564 15.2411 25.1821 15.4004 25.1047 15.5584C24.5396 16.7112 22.9876 16.7197 22.2233 15.6883C21.7269 15.0184 21.7354 14.1098 22.1636 13.3944C22.4586 12.9016 22.7228 12.3946 22.9521 11.876Z" fill="url(#paint5_linear_363_8499)"/>
<path d="M15.0592 19.8701C15.9937 19.401 17.1554 19.6039 17.7779 20.444C18.4643 21.3703 18.2257 22.6955 17.1873 23.1965C16.1944 23.6755 15.1698 24.0532 14.1398 24.3124C13.4899 24.4759 12.8197 24.1986 12.4207 23.6602C11.6308 22.5942 12.2438 21.036 13.4839 20.5642C14.0158 20.3619 14.5422 20.1297 15.0592 19.8701Z" fill="url(#paint6_linear_363_8499)"/>
<path d="M5.60208 7.924L8.50933 5.21481C8.62489 5.10697 8.70801 4.97874 8.7627 4.84897C8.86744 4.60147 8.86776 4.34964 8.78835 4.22914C8.45551 3.73109 7.78287 3.58857 7.29869 3.94129C6.71512 4.3664 6.14896 4.83186 5.60733 5.33748C5.09081 5.8178 4.61679 6.31621 4.18486 6.82682C3.80123 7.28035 3.97347 7.96189 4.50981 8.21723C4.53113 8.22742 4.55616 8.23577 4.58459 8.24225C4.5988 8.24565 4.61363 8.24812 4.62939 8.25029C4.64484 8.25245 4.66122 8.2543 4.67821 8.25554C4.77771 8.26234 4.89852 8.25152 5.02459 8.22155C5.13489 8.19498 5.24922 8.15388 5.35705 8.09672C5.44511 8.04945 5.52885 7.99259 5.60208 7.924Z" fill="url(#paint7_linear_363_8499)"/>
<path d="M18.7488 2.54856L19.5057 1.38987C19.5255 1.35943 19.512 1.31858 19.478 1.30581C19.3819 1.2709 19.2846 1.23753 19.1857 1.2057C18.5211 0.992811 17.7922 0.855311 17.0067 0.800621C16.2463 0.747475 15.4695 0.774667 14.6881 0.876632C14.5422 0.895789 14.3961 0.917109 14.2499 0.941519C14.1994 0.949858 14.1588 0.98782 14.1468 1.03768L13.8665 2.20805C13.8062 2.46328 13.9953 2.8526 14.3754 2.87917L17.6936 3.11029C18.077 3.13748 18.5872 2.79667 18.7488 2.54856Z" fill="url(#paint8_linear_363_8499)"/>
<path d="M3.24839 13.245C3.2215 13.055 3.06731 12.9252 2.8881 12.8594C2.81518 12.8325 2.73793 12.8165 2.66285 12.8112C2.65451 12.8106 2.64617 12.81 2.63782 12.81C2.57912 12.8078 2.52289 12.8124 2.4719 12.8242C1.62796 13.0198 0.959725 13.7081 0.958024 14.5744C0.957292 14.9472 0.981466 15.3164 1.03265 15.6801C1.07084 15.9574 1.12371 16.226 1.19059 16.4855C1.40012 17.2983 2.34479 17.5663 3.0735 17.1497C3.25085 17.0486 3.46684 16.8113 3.58116 16.5648C3.64049 16.4356 3.67262 16.3037 3.65594 16.1878L3.24839 13.245Z" fill="url(#paint9_linear_363_8499)"/>
<path d="M23.8307 6.60671C23.7918 6.32911 23.7384 6.06032 23.6712 5.80052C23.4612 4.98811 22.5171 4.71785 21.7887 5.13439C21.6107 5.23697 21.395 5.47396 21.281 5.72054C21.2214 5.84969 21.1892 5.98163 21.2053 6.09843L21.6166 9.03905C21.6391 9.20435 21.7565 9.32424 21.9036 9.39624C21.996 9.44166 22.1004 9.46823 22.2002 9.47503C22.2679 9.47966 22.3334 9.47565 22.3918 9.46205C23.2348 9.26636 23.903 8.57985 23.9053 7.71447C23.9063 7.34103 23.882 6.97112 23.8307 6.60671Z" fill="url(#paint10_linear_363_8499)"/>
<path d="M10.4872 19.4047L7.16898 19.1735C6.78769 19.1491 6.27538 19.4896 6.11348 19.7381C5.70687 20.3626 5.98785 21.2039 6.72031 21.3414C7.08455 21.4098 7.46392 21.4585 7.85771 21.486C8.37198 21.5217 8.8941 21.5202 9.41984 21.4842C10.1987 21.4309 10.8149 20.8378 10.9952 20.0783C11.0557 19.8227 10.87 19.4312 10.4872 19.4047Z" fill="url(#paint11_linear_363_8499)"/>
<path d="M20.2225 14.0348C20.2104 14.0336 20.1984 14.0324 20.1854 14.0314C20.1106 14.0262 20.0238 14.0308 19.932 14.0463C19.7068 14.084 19.4509 14.1853 19.264 14.3605L16.3533 17.0719C16.2384 17.1788 16.155 17.307 16.1006 17.4365C15.9961 17.6837 15.9955 17.9361 16.0755 18.0551C16.4083 18.5532 17.0808 18.6961 17.5652 18.3437C18.1483 17.9195 18.7147 17.4544 19.2575 16.9495C20.0664 16.1968 20.7709 15.4006 21.3725 14.583C21.3806 14.5725 21.3766 14.5569 21.3646 14.5511L20.3553 14.0697C20.3195 14.0528 20.2747 14.0413 20.2225 14.0348Z" fill="url(#paint12_linear_363_8499)"/>
<path d="M21.3707 14.5827C21.3786 14.5725 21.3938 14.5724 21.4015 14.5828L23.7458 17.7463C23.7548 17.7584 23.7551 17.7754 23.7455 17.7872C23.1443 18.6048 22.4395 19.4014 21.6305 20.154C21.2823 20.4779 20.9245 20.7853 20.5588 21.0761C19.7399 21.7272 18.5642 21.504 17.9412 20.6634C17.2552 19.7376 17.5043 18.431 18.3955 17.7005C18.6879 17.4608 18.975 17.2104 19.2557 16.9492C20.0646 16.1965 20.7691 15.4003 21.3707 14.5827Z" fill="url(#paint13_linear_363_8499)"/>
<path d="M15.5423 4.2088C11.5922 3.93349 6.99635 6.85959 5.2787 10.7429C3.56104 14.6266 5.3714 17.9985 9.32148 18.2738C13.2719 18.5492 17.8653 15.6227 19.5829 11.7394C21.3006 7.85607 19.4924 4.4841 15.5423 4.2088Z" fill="white"/>
<path d="M15.5423 4.11083C11.5922 3.83553 6.99635 6.76163 5.2787 10.645C3.56104 14.5286 5.3714 17.9006 9.32148 18.1759C13.2719 18.4512 17.8653 15.5248 19.5829 11.6414C21.3006 7.7578 19.4924 4.38583 15.5423 4.11083Z" fill="#1F2021"/>
<path d="M15.2176 9.76471C14.6723 8.39738 12.9711 7.93022 11.804 8.8273L10.3534 9.94222C9.5656 10.5478 9.27631 11.6032 9.64527 12.5258C10.1916 13.8918 11.8918 14.3578 13.0583 13.4612L14.5088 12.3462C15.2959 11.7411 15.5854 10.6869 15.2176 9.76471Z" fill="url(#paint14_linear_363_8499)"/>
<path d="M5.51128 11.4032C7.22894 7.51981 11.8248 4.59372 15.7749 4.86902C16.3532 4.90928 16.9003 4.31946 16.3307 4.21158C16.0787 4.16386 15.8161 4.13007 15.5431 4.11108C11.5931 3.83577 6.9972 6.76187 5.27954 10.6452C5.16941 10.8942 5.07383 11.141 4.99241 11.385C4.85746 11.7894 5.33883 11.7931 5.51128 11.4032Z" fill="#151617"/>
<path d="M26.204 9.8113C26.0884 8.98755 25.8456 8.24166 25.4933 7.57795C25.3472 7.30326 25.1819 7.04094 24.9977 6.7922C24.9594 6.7406 24.9208 6.68869 24.8824 6.63678C25.0011 6.82897 25.1139 7.03568 25.2106 7.21768C25.5628 7.88138 25.8057 8.62758 25.9213 9.45103C26.0371 10.2748 26.0149 11.126 25.8758 11.9835C25.7312 12.8638 25.4584 13.7818 25.0434 14.7205C24.6282 15.659 24.0994 16.5589 23.4804 17.4059C23.4801 17.4062 23.4797 17.4063 23.4794 17.4061L23.4782 17.4052C23.4778 17.4048 23.4772 17.4054 23.4775 17.4059C23.4777 17.4061 23.4777 17.4063 23.4776 17.4065C23.4724 17.4132 23.4675 17.4202 23.4623 17.4266C22.8611 18.2442 22.1563 19.0407 21.3473 19.7934C20.5316 20.552 19.663 21.2206 18.7645 21.796C16.8955 22.9906 14.8353 23.8288 12.7896 24.1768C12.7889 24.1769 12.7881 24.1766 12.7876 24.1761C12.7872 24.1755 12.7864 24.1752 12.7857 24.1753C11.831 24.3374 10.8773 24.3945 9.94884 24.33C9.01972 24.2654 8.17093 24.0821 7.41144 23.8003C6.22926 23.3622 5.26584 22.6781 4.5459 21.8108C4.56907 21.8423 4.59225 21.8735 4.61573 21.905C5.35328 22.9003 6.39302 23.6783 7.69478 24.1606C8.45427 24.4424 9.30305 24.6253 10.2322 24.6902C11.1606 24.7551 12.1143 24.6977 13.069 24.5356C13.0698 24.5355 13.0705 24.5358 13.071 24.5364C13.0715 24.5369 13.0722 24.5372 13.0729 24.5371C15.1187 24.189 17.1789 23.3509 19.0479 22.1562C19.9464 21.5809 20.8153 20.9123 21.6307 20.1537C22.4396 19.401 23.1441 18.6044 23.7457 17.7869C23.7509 17.7802 23.7557 17.7735 23.7609 17.7668C23.761 17.7666 23.761 17.7663 23.7609 17.7662C23.7605 17.7657 23.7611 17.7651 23.7616 17.7654L23.7628 17.7664C23.7631 17.7666 23.7635 17.7665 23.7637 17.7662C24.383 16.9191 24.9119 16.0189 25.3271 15.0808C25.7424 14.1421 26.0152 13.2241 26.1595 12.3438C26.2976 11.4866 26.3199 10.6351 26.204 9.8113Z" fill="#B0AAAA"/>
<path d="M23.1082 12.0722C23.5235 11.1335 23.7964 10.2155 23.9407 9.33516C24.0797 8.47773 24.1019 7.62647 23.9861 6.80271C23.8705 5.97896 23.6277 5.23306 23.2754 4.56936C23.1608 4.35369 23.0307 4.14821 22.8926 3.9483C22.8036 3.8281 22.7143 3.70791 22.6253 3.5874C22.8098 3.83614 22.9751 4.09847 23.1209 4.37315C23.4732 5.03686 23.716 5.78306 23.8316 6.60681C23.9474 7.43057 23.9252 8.28183 23.7862 9.13927C23.6416 10.0196 23.369 10.9376 22.9537 11.8763C22.5385 12.8148 22.0096 13.7148 21.3905 14.5619C21.3904 14.5621 21.3903 14.5624 21.3904 14.5627C21.3908 14.5636 21.3896 14.5643 21.389 14.5635L21.3888 14.5632C21.3885 14.5627 21.3878 14.5627 21.3874 14.5632C21.3824 14.5697 21.3777 14.5762 21.3727 14.583C20.7714 15.4006 20.0666 16.1971 19.2577 16.9495C18.4419 17.7084 17.5734 18.377 16.6748 18.952C14.8065 20.1464 12.7472 20.9842 10.7024 21.3326C10.7017 21.3327 10.7009 21.3324 10.7004 21.3319C10.7 21.3313 10.6992 21.331 10.6985 21.3311C9.74287 21.4932 8.7882 21.5506 7.85947 21.4857C6.93035 21.4212 6.08156 21.2382 5.32207 20.9561C4.09045 20.4998 3.09675 19.7761 2.36816 18.8569C2.37774 18.8699 2.38763 18.8831 2.39752 18.8964C3.13507 19.8917 4.17481 20.6697 5.47656 21.152C6.23605 21.4338 7.08484 21.6167 8.01396 21.6816C8.94239 21.7465 9.89613 21.6891 10.8508 21.5273C10.8515 21.5272 10.8523 21.5275 10.8528 21.5281C10.8533 21.5286 10.854 21.5289 10.8547 21.5288C12.9005 21.1804 14.9606 20.3426 16.8296 19.1479C17.7282 18.5726 18.597 17.904 19.4125 17.1454C20.2214 16.3927 20.9259 15.5962 21.5275 14.7786C21.5326 14.7719 21.5375 14.7652 21.5427 14.7585C21.5428 14.7583 21.5428 14.7581 21.5427 14.7579C21.5423 14.7574 21.5429 14.7568 21.5434 14.7572L21.5445 14.7581C21.5448 14.7583 21.5453 14.7582 21.5455 14.7579C22.1645 13.9106 22.6934 13.0104 23.1082 12.0722Z" fill="white"/>
<defs>
<linearGradient id="paint0_linear_363_8499" x1="31.5149" y1="-2.38206" x2="8.85713" y2="21.8202" gradientUnits="userSpaceOnUse">
<stop stop-color="#38393B"/>
<stop offset="0.3263" stop-color="#2F3031"/>
<stop offset="1" stop-color="#1F2021"/>
</linearGradient>
<linearGradient id="paint1_linear_363_8499" x1="29.2513" y1="-4.50676" x2="6.59068" y2="19.6986" gradientUnits="userSpaceOnUse">
<stop stop-color="#38393B"/>
<stop offset="0.3263" stop-color="#2F3031"/>
<stop offset="1" stop-color="#1F2021"/>
</linearGradient>
<linearGradient id="paint2_linear_363_8499" x1="24.4971" y1="4.44294" x2="25.9907" y2="26.9471" gradientUnits="userSpaceOnUse">
<stop stop-color="white"/>
<stop offset="0.147" stop-color="#F3F5F8"/>
<stop offset="0.7114" stop-color="#C8D2E2"/>
<stop offset="1" stop-color="#B8C4D9"/>
</linearGradient>
<linearGradient id="paint3_linear_363_8499" x1="8.05432" y1="5.53434" x2="9.54799" y2="28.0389" gradientUnits="userSpaceOnUse">
<stop stop-color="white"/>
<stop offset="0.147" stop-color="#F3F5F8"/>
<stop offset="0.7114" stop-color="#C8D2E2"/>
<stop offset="1" stop-color="#B8C4D9"/>
</linearGradient>
<linearGradient id="paint4_linear_363_8499" x1="5.23847" y1="9.93627" x2="35.3133" y2="14.983" gradientUnits="userSpaceOnUse">
<stop stop-color="#38393B"/>
<stop offset="0.3263" stop-color="#2F3031"/>
<stop offset="1" stop-color="#1F2021"/>
</linearGradient>
<linearGradient id="paint5_linear_363_8499" x1="35.2905" y1="1.15147" x2="12.6318" y2="25.3547" gradientUnits="userSpaceOnUse">
<stop stop-color="#38393B"/>
<stop offset="0.3263" stop-color="#2F3031"/>
<stop offset="1" stop-color="#1F2021"/>
</linearGradient>
<linearGradient id="paint6_linear_363_8499" x1="34.6834" y1="0.583079" x2="12.0241" y2="24.787" gradientUnits="userSpaceOnUse">
<stop stop-color="#38393B"/>
<stop offset="0.3263" stop-color="#2F3031"/>
<stop offset="1" stop-color="#1F2021"/>
</linearGradient>
<linearGradient id="paint7_linear_363_8499" x1="4.3222" y1="5.39983" x2="27.6497" y2="9.7769" gradientUnits="userSpaceOnUse">
<stop stop-color="white"/>
<stop offset="0.147" stop-color="#F3F5F8"/>
<stop offset="0.7114" stop-color="#C8D2E2"/>
<stop offset="1" stop-color="#B8C4D9"/>
</linearGradient>
<linearGradient id="paint8_linear_363_8499" x1="5.36052" y1="-0.131158" x2="28.6902" y2="4.24633" gradientUnits="userSpaceOnUse">
<stop stop-color="white"/>
<stop offset="0.147" stop-color="#F3F5F8"/>
<stop offset="0.7114" stop-color="#C8D2E2"/>
<stop offset="1" stop-color="#B8C4D9"/>
</linearGradient>
<linearGradient id="paint9_linear_363_8499" x1="2.44474" y1="15.403" x2="25.7756" y2="19.7808" gradientUnits="userSpaceOnUse">
<stop stop-color="white"/>
<stop offset="0.147" stop-color="#F3F5F8"/>
<stop offset="0.7114" stop-color="#C8D2E2"/>
<stop offset="1" stop-color="#B8C4D9"/>
</linearGradient>
<linearGradient id="paint10_linear_363_8499" x1="4.67059" y1="3.55151" x2="27.9986" y2="7.92868" gradientUnits="userSpaceOnUse">
<stop stop-color="white"/>
<stop offset="0.147" stop-color="#F3F5F8"/>
<stop offset="0.7114" stop-color="#C8D2E2"/>
<stop offset="1" stop-color="#B8C4D9"/>
</linearGradient>
<linearGradient id="paint11_linear_363_8499" x1="1.75443" y1="19.0858" x2="25.083" y2="23.4631" gradientUnits="userSpaceOnUse">
<stop stop-color="white"/>
<stop offset="0.147" stop-color="#F3F5F8"/>
<stop offset="0.7114" stop-color="#C8D2E2"/>
<stop offset="1" stop-color="#B8C4D9"/>
</linearGradient>
<linearGradient id="paint12_linear_363_8499" x1="2.79278" y1="13.5552" x2="26.1227" y2="17.9328" gradientUnits="userSpaceOnUse">
<stop stop-color="white"/>
<stop offset="0.147" stop-color="#F3F5F8"/>
<stop offset="0.7114" stop-color="#C8D2E2"/>
<stop offset="1" stop-color="#B8C4D9"/>
</linearGradient>
<linearGradient id="paint13_linear_363_8499" x1="19.3162" y1="4.78683" x2="20.8099" y2="27.2914" gradientUnits="userSpaceOnUse">
<stop stop-color="white"/>
<stop offset="0.147" stop-color="#F3F5F8"/>
<stop offset="0.7114" stop-color="#C8D2E2"/>
<stop offset="1" stop-color="#B8C4D9"/>
</linearGradient>
<linearGradient id="paint14_linear_363_8499" x1="9.02133" y1="11.1433" x2="15.8392" y2="11.1433" gradientUnits="userSpaceOnUse">
<stop stop-color="white"/>
<stop offset="0.147" stop-color="#F3F5F8"/>
<stop offset="0.7114" stop-color="#C8D2E2"/>
<stop offset="1" stop-color="#B8C4D9"/>
</linearGradient>
</defs>
</svg>
