<svg width="26" height="24" viewBox="0 0 26 24" fill="none" xmlns="http://www.w3.org/2000/svg">
<path d="M21.666 2.8125C22.4579 3.88067 23.2493 4.94883 24.0409 6.01731V6.01731C24.0923 6.08657 24.0342 6.12524 23.9829 6.05596L22.1749 3.61616C22.1661 3.60424 22.1581 3.59166 22.1511 3.57858C22.0079 3.31103 21.8461 3.05529 21.666 2.8125Z" fill="url(#paint0_linear_3579_29183)"/>
<path d="M3.65643 21.1306C2.8645 20.0624 2.07287 18.9939 1.28125 17.9258C1.9609 18.8429 2.89714 19.5755 4.05856 20.0623C4.25372 20.1441 4.42738 20.2719 4.55337 20.4419V20.4419C5.19886 21.313 4.45607 22.1437 3.78209 21.2945C3.73928 21.2405 3.69739 21.1859 3.65643 21.1306Z" fill="url(#paint1_linear_3579_29183)"/>
<path d="M22.8708 5.83296C22.8403 5.61593 23.4321 5.31612 23.5626 5.49221L24.5217 6.78642C24.5306 6.7984 24.5385 6.81101 24.5455 6.8242C24.8921 7.48294 25.1313 8.22249 25.2457 9.03777V9.03777C25.3779 9.9774 24.2515 10.2899 23.6866 9.52753L23.1843 8.84969C22.9548 8.54005 22.8657 8.15135 22.9033 7.7678C22.9673 7.11308 22.9597 6.46493 22.8708 5.83296V5.83296Z" fill="url(#paint2_linear_3579_29183)"/>
<path d="M8.65593 20.6946C9.32333 20.6382 9.98988 20.8955 10.3887 21.4336L10.4162 21.4706C11.1936 22.5196 10.5761 24.007 9.27359 23.916V23.916C8.46715 23.86 7.72122 23.7146 7.04168 23.4929C6.84096 23.4274 6.66927 23.2961 6.54357 23.1265L5.90986 22.2713C5.45229 21.6539 6.13206 20.6577 6.89872 20.7112V20.7112C7.47646 20.7516 8.06422 20.7446 8.65593 20.6946Z" fill="url(#paint3_linear_3579_29183)"/>
<path d="M21.4321 8.68845C21.3737 8.70174 21.3082 8.70606 21.2402 8.70143C21.1407 8.69463 21.0363 8.66806 20.9439 8.62264C20.7968 8.55064 20.6797 8.43075 20.6568 8.26545L20.2456 5.32483C20.2295 5.20803 20.2616 5.07609 20.3213 4.94694C20.4353 4.70006 20.651 4.46337 20.8293 4.36079V4.36079C21.5712 3.93654 21.8556 2.98076 21.2823 2.3469C20.8842 1.90672 20.4189 1.51888 19.891 1.19188C19.1677 0.743819 18.2546 1.06245 17.7895 1.77488V1.77488C17.6279 2.023 17.1177 2.36381 16.7349 2.33724L13.4167 2.10612C13.0366 2.07954 12.8472 1.69022 12.9078 1.435V1.435C13.0613 0.844384 12.5555 0.296245 11.9655 0.452146C10.6667 0.795316 9.37914 1.3254 8.15626 2.00836C7.64041 2.29646 7.50257 2.96449 7.83082 3.45577V3.45577C7.91023 3.57627 7.90992 3.8281 7.80517 4.07559C7.75048 4.20506 7.66737 4.3336 7.55181 4.44143L4.64455 7.15063C4.57132 7.21922 4.48759 7.27607 4.39984 7.32273C4.29169 7.37989 4.17768 7.4213 4.06737 7.44756C3.9413 7.47784 3.82049 7.48866 3.62737 7.46857C3.59894 7.46208 3.57392 7.45405 3.5526 7.44355V7.44355C2.95323 7.1582 2.22933 7.33584 1.87745 7.89873C1.52655 8.46005 1.21517 9.04059 0.95155 9.63673C0.750978 10.0901 0.583635 10.5386 0.447953 10.9805C0.247423 11.6334 0.84942 12.2045 1.51483 12.0502V12.0502C1.56581 12.0385 1.62236 12.0338 1.70579 12.0372C1.78056 12.0425 1.85781 12.0586 1.93073 12.0854C2.11025 12.1513 2.26382 12.281 2.29101 12.4711L2.69856 15.4135C2.71525 15.5297 2.68311 15.6613 2.62379 15.7905C2.50977 16.0371 2.29379 16.2744 2.11612 16.3754V16.3754C1.37648 16.808 1.0967 17.767 1.67263 18.4015C2.06892 18.838 2.53158 19.2229 3.05631 19.5478C3.7791 19.9953 4.6912 19.6762 5.155 18.9638V18.9638C5.31691 18.7157 5.82921 18.3752 6.2105 18.3993L9.5287 18.6304C9.91153 18.657 10.0975 19.0488 10.037 19.3037V19.3037C9.89549 19.8988 10.4075 20.4411 10.9987 20.2838C12.2905 19.9401 13.5712 19.4116 14.7889 18.7318C15.306 18.4431 15.4442 17.7735 15.1152 17.281V17.281C15.0351 17.1621 15.0358 16.9096 15.1402 16.6625C15.1949 16.533 15.278 16.4048 15.3929 16.2979L18.3036 13.5865C18.4905 13.4113 18.7464 13.31 18.9716 13.2723C19.0634 13.2568 19.1502 13.2522 19.2621 13.2608C19.3143 13.2673 19.3591 13.2787 19.3949 13.2954V13.2954C19.9952 13.5813 20.7202 13.4033 21.0715 12.8389C21.4207 12.2779 21.73 11.6977 21.9935 11.1022C22.1944 10.6483 22.3619 10.1991 22.4977 9.75673C22.6978 9.10463 22.0966 8.53437 21.4321 8.68845V8.68845Z" fill="url(#paint4_linear_3579_29183)"/>
<path d="M21.9915 11.1022C22.4252 10.1215 23.8933 9.80827 24.5317 10.6699L24.8382 11.0834C25.0687 11.3945 25.1681 11.7867 25.0828 12.1644C24.9254 12.8608 24.6888 13.5777 24.3664 14.307C24.2954 14.4674 24.2212 14.6266 24.1437 14.7847C23.5787 15.9374 22.0267 15.946 21.2623 14.9145V14.9145C20.7659 14.2446 20.7744 13.3361 21.2027 12.6207C21.4978 12.1279 21.762 11.6209 21.9915 11.1022V11.1022Z" fill="url(#paint5_linear_3579_29183)"/>
<path d="M14.0996 19.0958C15.0341 18.6266 16.1958 18.8295 16.8183 19.6696V19.6696C17.5047 20.5959 17.266 21.9211 16.2277 22.4221C15.2348 22.9012 14.2101 23.2789 13.1801 23.5381C12.5302 23.7016 11.8601 23.4243 11.461 22.8859V22.8859C10.671 21.8199 11.2841 20.2616 12.5242 19.7899C13.0561 19.5876 13.5825 19.3554 14.0996 19.0958Z" fill="url(#paint6_linear_3579_29183)"/>
<path d="M4.64474 7.15044L7.55199 4.44125C7.66755 4.33341 7.75098 4.20518 7.80536 4.07541C7.9101 3.82791 7.91041 3.57609 7.83101 3.45558V3.45558C7.49836 2.95756 6.82587 2.81499 6.3418 3.16762C5.75818 3.59277 5.19197 4.05826 4.6503 4.56392C4.13376 5.04426 3.65984 5.54269 3.22792 6.05332C2.84433 6.50682 3.01649 7.18835 3.55278 7.44367V7.44367C3.5741 7.45386 3.59913 7.46221 3.62756 7.4687C3.64177 7.47209 3.6566 7.47456 3.67235 7.47673C3.6878 7.47889 3.70419 7.48075 3.72118 7.48198C3.82067 7.48878 3.94149 7.47796 4.06756 7.44799C4.17786 7.42142 4.29188 7.38032 4.40002 7.32316C4.48777 7.27589 4.57151 7.21903 4.64474 7.15044Z" fill="url(#paint7_linear_3579_29183)"/>
<path d="M17.7898 1.77451L18.5467 0.615834C18.5666 0.58539 18.553 0.544534 18.519 0.531766V0.531766C18.4232 0.496851 18.3256 0.46348 18.2267 0.431654C17.5621 0.218763 16.8332 0.0812636 16.0477 0.026573C15.2873 -0.0265726 14.5105 0.000618876 13.7291 0.102584C13.5833 0.121741 13.4371 0.143061 13.291 0.167471V0.167471C13.2404 0.17581 13.1998 0.213772 13.1878 0.263631L12.9075 1.43401C12.8473 1.68923 13.0364 2.07855 13.4164 2.10512L16.7346 2.33625C17.1181 2.36344 17.6282 2.02262 17.7898 1.77451Z" fill="url(#paint8_linear_3579_29183)"/>
<path d="M2.28976 12.4707C2.26288 12.2807 2.1087 12.1509 1.92949 12.0851C1.85657 12.0582 1.77931 12.0422 1.70454 12.0369C1.69619 12.0363 1.68785 12.0357 1.67951 12.0357C1.62111 12.0335 1.56457 12.0381 1.51359 12.0499V12.0499C0.669829 12.2455 0.00175394 12.9337 1.68281e-05 13.7998C-0.000731053 14.1727 0.0234401 14.542 0.0746367 14.9058C0.112825 15.1832 0.165697 15.4517 0.232578 15.7112C0.442111 16.524 1.38678 16.7921 2.11549 16.3754V16.3754C2.29285 16.2743 2.50883 16.037 2.62316 15.7905C2.68249 15.6613 2.71462 15.5294 2.69794 15.4135L2.28976 12.4707Z" fill="url(#paint9_linear_3579_29183)"/>
<path d="M22.8701 5.83327C22.8312 5.55567 22.7778 5.28688 22.7106 5.02708C22.5005 4.21467 21.5565 3.94441 20.828 4.36095V4.36095C20.6501 4.46353 20.4341 4.70053 20.3201 4.9471C20.2604 5.07625 20.2283 5.20819 20.2444 5.32499L20.6556 8.26561C20.6782 8.43092 20.7956 8.55081 20.9427 8.6228C21.035 8.66822 21.1395 8.69479 21.2393 8.70159C21.307 8.70622 21.3725 8.70221 21.4309 8.68861V8.68861C22.2739 8.49291 22.9423 7.8065 22.9446 6.94107C22.9456 6.56761 22.9214 6.19769 22.8701 5.83327Z" fill="url(#paint10_linear_3579_29183)"/>
<path d="M9.52819 18.6308L6.20999 18.3997C5.8287 18.3753 5.3164 18.7158 5.15449 18.9642V18.9642C4.74788 19.5888 5.02887 20.43 5.76132 20.5676C6.12557 20.636 6.50493 20.6846 6.89872 20.7121C7.413 20.7479 7.93512 20.7463 8.46085 20.7103C9.23969 20.657 9.85596 20.064 10.0362 19.3044V19.3044C10.097 19.0489 9.91102 18.6574 9.52819 18.6308Z" fill="url(#paint11_linear_3579_29183)"/>
<path d="M19.2625 13.2613C19.2504 13.2601 19.2384 13.2589 19.2254 13.2579C19.1506 13.2527 19.0638 13.2573 18.972 13.2728C18.7468 13.3105 18.491 13.4118 18.304 13.587L15.3934 16.2984C15.2784 16.4053 15.195 16.5335 15.1406 16.663C15.0362 16.9102 15.0356 17.1626 15.1156 17.2816V17.2816C15.4485 17.7798 16.1212 17.9226 16.6057 17.5701C17.1888 17.1459 17.7551 16.6809 18.2978 16.176C19.1068 15.4233 19.8112 14.6271 20.4128 13.8095V13.8095C20.421 13.799 20.417 13.7834 20.405 13.7776L19.3957 13.2962C19.3595 13.2793 19.3147 13.2678 19.2625 13.2613Z" fill="url(#paint12_linear_3579_29183)"/>
<path d="M20.4107 13.8078C20.4182 13.7975 20.4336 13.7975 20.4411 13.8077L22.7858 16.9714C22.7948 16.9835 22.7951 17.0005 22.7856 17.0123V17.0123C22.1843 17.8299 21.4795 18.6265 20.6706 19.3791C20.3224 19.703 19.9645 20.0104 19.5988 20.3012C18.7799 20.9523 17.6042 20.7291 16.9813 19.8885V19.8885C16.2952 18.9627 16.5444 17.6561 17.4356 16.9256C17.728 16.6859 18.015 16.4355 18.2957 16.1743C19.1046 15.4216 19.8091 14.6254 20.4107 13.8078V13.8078Z" fill="url(#paint13_linear_3579_29183)"/>
<path d="M14.5825 3.43395C10.6324 3.15865 6.03652 6.08475 4.31887 9.96808C2.60091 13.8517 4.41157 17.2237 8.36165 17.499C12.312 17.7743 16.9054 14.8479 18.6231 10.9646C20.3407 7.08123 18.5325 3.70926 14.5825 3.43395Z" fill="white"/>
<path d="M14.5825 3.3363C10.6324 3.06099 6.03652 5.98709 4.31887 9.87043C2.60091 13.7541 4.41157 17.126 8.36165 17.4013C12.312 17.6767 16.9054 14.7502 18.6231 10.8669C20.3407 6.98326 18.5325 3.6113 14.5825 3.3363Z" fill="#7F09C4"/>
<path d="M4.54949 10.6284C6.26715 6.74503 10.863 3.81894 14.8131 4.09424V4.09424C15.3914 4.1345 15.9385 3.54468 15.3689 3.4368C15.117 3.38908 14.8543 3.35529 14.5814 3.3363C10.6313 3.06099 6.03541 5.98709 4.31775 9.87043C4.20762 10.1194 4.11202 10.3663 4.03058 10.6103C3.89548 11.0152 4.37685 11.0187 4.54949 10.6284V10.6284Z" fill="#7F09C4"/>
<path d="M25.2463 9.03781C25.1307 8.21405 24.8878 7.46816 24.5356 6.80445C24.3895 6.52977 24.2242 6.26744 24.04 6.0187C24.0017 5.9671 23.9631 5.91519 23.9247 5.86328C24.0434 6.05547 24.1562 6.26218 24.2529 6.44418C24.6051 7.10788 24.848 7.85408 24.9636 8.67753C25.0794 9.50129 25.0572 10.3525 24.9181 11.21C24.7735 12.0903 24.5007 13.0083 24.0857 13.947C23.6705 14.8855 23.1417 15.7854 22.5223 16.6324C22.5221 16.6327 22.5217 16.6328 22.5214 16.6326L22.5202 16.6317C22.5197 16.6313 22.5191 16.6319 22.5195 16.6324V16.6324C22.5197 16.6326 22.5197 16.6328 22.5195 16.633C22.5144 16.6397 22.5095 16.6467 22.5043 16.6531C21.903 17.4707 21.1983 18.2672 20.3893 19.0199C19.5736 19.7785 18.705 20.4471 17.8065 21.0225C15.9375 22.2171 13.8773 23.0553 11.8316 23.4033C11.8309 23.4034 11.8301 23.4031 11.8296 23.4026V23.4026C11.8292 23.402 11.8284 23.4017 11.8277 23.4019C10.873 23.5639 9.91925 23.621 8.99082 23.5565C8.0617 23.4919 7.21291 23.3086 6.45342 23.0268C5.27124 22.5887 4.30783 21.9046 3.58789 21.0373C3.61106 21.0688 3.63423 21.1 3.65772 21.1315C4.39527 22.1268 5.43501 22.9048 6.73677 23.3871C7.49626 23.6689 8.34504 23.8518 9.27416 23.9167C10.2026 23.9816 11.1563 23.9242 12.111 23.7621C12.1117 23.762 12.1125 23.7623 12.113 23.7629V23.7629C12.1134 23.7634 12.1142 23.7637 12.1149 23.7636C14.1606 23.4155 16.2208 22.5774 18.0898 21.3827C18.9884 20.8074 19.8572 20.1388 20.6727 19.3802C21.4816 18.6275 22.1861 17.8309 22.7877 17.0134C22.7928 17.0067 22.7977 17 22.8029 16.9933C22.803 16.9931 22.803 16.9928 22.8029 16.9927V16.9927C22.8025 16.9922 22.8031 16.9916 22.8036 16.9919L22.8047 16.9929C22.805 16.9931 22.8055 16.993 22.8057 16.9927C23.425 16.1456 23.9539 15.2454 24.3691 14.3073C24.7843 13.3686 25.0572 12.4506 25.2015 11.5703C25.3399 10.7131 25.3621 9.86156 25.2463 9.03781Z" fill="#B0AAAA"/>
<path d="M22.1466 11.2973C22.5619 10.3586 22.8348 9.44056 22.979 8.56026C23.1181 7.70282 23.1403 6.85157 23.0245 6.02781C22.9089 5.20405 22.666 4.45816 22.3138 3.79446C22.1992 3.57879 22.0691 3.37331 21.931 3.1734C21.842 3.0532 21.7527 2.933 21.6637 2.8125C21.8482 3.06123 22.0135 3.32356 22.1593 3.59825C22.5116 4.26195 22.7544 5.00815 22.87 5.83191C22.9858 6.65567 22.9636 7.50693 22.8246 8.36436C22.6799 9.24467 22.4071 10.1627 21.9921 11.1014C21.5769 12.0399 21.048 12.9399 20.4286 13.787C20.4285 13.7872 20.4284 13.7875 20.4285 13.7878V13.7878C20.4289 13.7887 20.4277 13.7894 20.4271 13.7886L20.4269 13.7883C20.4265 13.7878 20.4259 13.7878 20.4255 13.7883C20.4205 13.7948 20.4158 13.8013 20.4108 13.8081C19.8095 14.6257 19.1047 15.4222 18.2957 16.1746C17.48 16.9335 16.6115 17.6021 15.7129 18.1771C13.8445 19.3715 11.7853 20.2093 9.74049 20.5577C9.73975 20.5578 9.739 20.5575 9.73852 20.557V20.557C9.73805 20.5564 9.7373 20.5561 9.73656 20.5562C8.78096 20.7183 7.82629 20.7757 6.89755 20.7108C5.96843 20.6463 5.11965 20.4633 4.36016 20.1812C3.12854 19.7249 2.13484 19.0012 1.40625 18.082C1.41583 18.095 1.42603 18.1082 1.4356 18.1215C2.17315 19.1168 3.21289 19.8948 4.51465 20.3771C5.27414 20.6589 6.12293 20.8418 7.05205 20.9067C7.98047 20.9716 8.93422 20.9142 9.88889 20.7524C9.88963 20.7523 9.89038 20.7526 9.89086 20.7532V20.7532C9.89134 20.7537 9.89208 20.754 9.89282 20.7539C11.9385 20.4055 13.9987 19.5677 15.8677 18.373C16.7663 17.7977 17.6351 17.1291 18.4506 16.3705C19.2595 15.6178 19.964 14.8212 20.5656 14.0037C20.5707 13.997 20.5756 13.9903 20.5808 13.9836C20.5809 13.9834 20.5809 13.9832 20.5808 13.983V13.983C20.5804 13.9825 20.581 13.9819 20.5814 13.9823L20.5826 13.9832C20.5829 13.9834 20.5833 13.9833 20.5836 13.983C21.2026 13.1356 21.7315 12.2354 22.1466 11.2973Z" fill="white"/>
<path fill-rule="evenodd" clip-rule="evenodd" d="M15.317 10.62L11.7293 7.04834L8.0468 10.522L11.6344 14.0936L15.317 10.62Z" fill="#FF9500"/>
<defs>
<linearGradient id="paint0_linear_3579_29183" x1="30.558" y1="-3.15696" x2="7.90016" y2="21.0454" gradientUnits="userSpaceOnUse">
<stop stop-color="#7F09C4"/>
</linearGradient>
<linearGradient id="paint1_linear_3579_29183" x1="28.2908" y1="-5.28154" x2="5.63009" y2="18.9239" gradientUnits="userSpaceOnUse">
<stop offset="0.075" stop-color="#7F09C4"/>
<stop offset="0.147" stop-color="#9826F5"/>
<stop offset="0.66" stop-color="#A116F1"/>
<stop offset="0.7114" stop-color="#7F09C4"/>
<stop offset="1" stop-color="#7F09C4"/>
</linearGradient>
<linearGradient id="paint2_linear_3579_29183" x1="23.5372" y1="3.66944" x2="25.0308" y2="26.1736" gradientUnits="userSpaceOnUse">
<stop stop-color="#FFAF05"/>
</linearGradient>
<linearGradient id="paint3_linear_3579_29183" x1="7.09505" y1="4.75986" x2="8.58869" y2="27.2644" gradientUnits="userSpaceOnUse">
<stop stop-color="#FFAF05"/>
</linearGradient>
<linearGradient id="paint4_linear_3579_29183" x1="4.27921" y1="9.16228" x2="34.354" y2="14.209" gradientUnits="userSpaceOnUse">
<stop stop-color="#7F09C4"/>
</linearGradient>
<linearGradient id="paint5_linear_3579_29183" x1="34.3299" y1="0.377694" x2="11.6712" y2="24.581" gradientUnits="userSpaceOnUse">
<stop stop-color="#7F09C4"/>
</linearGradient>
<linearGradient id="paint6_linear_3579_29183" x1="33.7238" y1="-0.191274" x2="11.0645" y2="24.0126" gradientUnits="userSpaceOnUse">
<stop stop-color="#7F09C4"/>
</linearGradient>
<linearGradient id="paint7_linear_3579_29183" x1="3.36486" y1="4.62627" x2="26.6924" y2="9.00333" gradientUnits="userSpaceOnUse">
<stop stop-color="#FFAF05"/>
</linearGradient>
<linearGradient id="paint8_linear_3579_29183" x1="4.40155" y1="-0.905206" x2="27.7313" y2="3.4723" gradientUnits="userSpaceOnUse">
<stop stop-color="#FFAF05"/>
</linearGradient>
<linearGradient id="paint9_linear_3579_29183" x1="1.48615" y1="14.6287" x2="24.8171" y2="19.0065" gradientUnits="userSpaceOnUse">
<stop stop-color="#FFAF05"/>
</linearGradient>
<linearGradient id="paint10_linear_3579_29183" x1="3.70986" y1="2.77805" x2="27.038" y2="7.15526" gradientUnits="userSpaceOnUse">
<stop stop-color="#FFAF05"/>
</linearGradient>
<linearGradient id="paint11_linear_3579_29183" x1="0.795443" y1="18.312" x2="24.124" y2="22.6892" gradientUnits="userSpaceOnUse">
<stop offset="1" stop-color="#FFAF05"/>
</linearGradient>
<linearGradient id="paint12_linear_3579_29183" x1="1.83286" y1="12.7817" x2="25.1628" y2="17.1593" gradientUnits="userSpaceOnUse">
<stop stop-color="#FFAF05"/>
</linearGradient>
<linearGradient id="paint13_linear_3579_29183" x1="18.356" y1="4.01193" x2="19.8496" y2="26.5165" gradientUnits="userSpaceOnUse">
<stop stop-color="#FFAF05"/>
</linearGradient>
</defs>
</svg>
