<svg width="26" height="24" viewBox="0 0 26 24" fill="none" xmlns="http://www.w3.org/2000/svg">
<path d="M22.0215 2.88013C22.8134 3.94829 23.6047 5.01646 24.3964 6.08493C24.4477 6.1542 24.3897 6.19287 24.3383 6.12358L22.5304 3.68379C22.5215 3.67187 22.5136 3.65929 22.5066 3.64621C22.3633 3.37866 22.2015 3.12292 22.0215 2.88013Z" fill="url(#paint0_linear_363_8477)"/>
<path d="M4.01288 21.198C3.22094 20.1299 2.42932 19.0614 1.6377 17.9932C2.31734 18.9103 3.25359 19.643 4.415 20.1298C4.61017 20.2116 4.78383 20.3394 4.90982 20.5094C5.5553 21.3804 4.81252 22.2111 4.13854 21.3619C4.09572 21.308 4.05383 21.2533 4.01288 21.198Z" fill="url(#paint1_linear_363_8477)"/>
<path d="M23.2273 5.89918C23.1967 5.68215 23.7886 5.38234 23.9191 5.55844L24.8781 6.85265C24.887 6.86462 24.895 6.87723 24.9019 6.89042C25.2485 7.54916 25.4877 8.28871 25.6021 9.10399C25.7343 10.0436 24.608 10.3561 24.043 9.59375L23.5407 8.91591C23.3113 8.60628 23.2222 8.21757 23.2597 7.83402C23.3238 7.17931 23.3162 6.53115 23.2273 5.89918Z" fill="url(#paint2_linear_363_8477)"/>
<path d="M9.01335 20.7618C9.68075 20.7054 10.3473 20.9627 10.7461 21.5008L10.7736 21.5378C11.551 22.5868 10.9335 24.0742 9.63102 23.9832C8.82457 23.9272 8.07864 23.7818 7.3991 23.5601C7.19839 23.4946 7.02669 23.3633 6.90099 23.1937L6.26728 22.3385C5.80971 21.7211 6.48948 20.7249 7.25615 20.7784C7.83388 20.8188 8.42164 20.8118 9.01335 20.7618Z" fill="url(#paint3_linear_363_8477)"/>
<path d="M21.7895 8.75516C21.7311 8.76845 21.6656 8.77277 21.5976 8.76814C21.4981 8.76134 21.3937 8.73477 21.3013 8.68935C21.1542 8.61735 21.0371 8.49747 21.0143 8.33216L20.603 5.39154C20.5869 5.27474 20.6191 5.1428 20.6787 5.01365C20.7927 4.76677 21.0084 4.53008 21.1867 4.4275C21.9286 4.00326 22.213 3.04747 21.6397 2.41362C21.2416 1.97343 20.7763 1.5856 20.2484 1.25859C19.5251 0.81053 18.6121 1.12916 18.1469 1.8416C17.9853 2.08971 17.4751 2.43052 17.0923 2.40395L13.7741 2.17283C13.394 2.14626 13.2046 1.75693 13.2652 1.50171C13.4188 0.911095 12.9129 0.362957 12.3229 0.518858C11.0242 0.862028 9.73656 1.39211 8.51369 2.07507C7.99783 2.36317 7.85999 3.0312 8.18824 3.52248C8.26765 3.64299 8.26734 3.89481 8.16259 4.14231C8.1079 4.27177 8.02479 4.40031 7.90923 4.50815L5.00197 7.21734C4.92874 7.28593 4.84501 7.34279 4.75726 7.38944C4.64911 7.44661 4.5351 7.48801 4.42479 7.51427C4.29873 7.54455 4.17791 7.55537 3.98479 7.53528C3.95637 7.5288 3.93134 7.52076 3.91002 7.51026C3.31065 7.22491 2.58675 7.40255 2.23487 7.96544C1.88397 8.52676 1.57259 9.10731 1.30897 9.70344C1.1084 10.1568 0.941057 10.6054 0.805375 11.0472C0.604845 11.7001 1.20684 12.2712 1.87225 12.1169C1.92324 12.1052 1.97978 12.1006 2.06321 12.104C2.13798 12.1092 2.21523 12.1253 2.28815 12.1522C2.46767 12.218 2.62124 12.3477 2.64843 12.5378L3.05599 15.4802C3.07267 15.5964 3.04054 15.7281 2.98121 15.8572C2.86719 16.1038 2.65121 16.3411 2.47354 16.4421C1.7339 16.8748 1.45412 17.8337 2.03005 18.4682C2.42634 18.9047 2.889 19.2896 3.41374 19.6145C4.13652 20.062 5.04862 19.7429 5.51242 19.0305C5.67433 18.7824 6.18663 18.4419 6.56792 18.466L9.88612 18.6971C10.269 18.7237 10.455 19.1155 10.3944 19.3704C10.2529 19.9655 10.765 20.5079 11.3561 20.3506C12.6479 20.0068 13.9286 19.4783 15.1463 18.7985C15.6634 18.5098 15.8017 17.8402 15.4726 17.3478C15.3926 17.2288 15.3932 16.9764 15.4976 16.7292C15.5523 16.5997 15.6354 16.4715 15.7504 16.3646L18.661 13.6532C18.848 13.478 19.1038 13.3767 19.3291 13.339C19.4208 13.3235 19.5076 13.3189 19.6195 13.3275C19.6717 13.334 19.7165 13.3455 19.7524 13.3621C20.3526 13.648 21.0776 13.4701 21.4289 12.9056C21.7781 12.3446 22.0874 11.7644 22.3509 11.169C22.5518 10.715 22.7193 10.2658 22.8551 9.82344C23.0552 9.17134 22.454 8.60108 21.7895 8.75516Z" fill="url(#paint4_linear_363_8477)"/>
<path d="M22.348 11.1687C22.7817 10.1879 24.2497 9.87473 24.8882 10.7363L25.1947 11.1499C25.4252 11.461 25.5245 11.8532 25.4392 12.2308C25.2819 12.9272 25.0453 13.6441 24.7228 14.3735C24.6519 14.5339 24.5776 14.6931 24.5002 14.8511C23.9351 16.0039 22.3831 16.0125 21.6188 14.981C21.1224 14.3111 21.1309 13.4025 21.5591 12.6872C21.8542 12.1943 22.1184 11.6873 22.348 11.1687Z" fill="url(#paint5_linear_363_8477)"/>
<path d="M14.456 19.1628C15.3905 18.6937 16.5522 18.8966 17.1747 19.7367C17.8611 20.663 17.6225 21.9882 16.5841 22.4892C15.5912 22.9683 14.5666 23.346 13.5365 23.6051C12.8866 23.7687 12.2165 23.4914 11.8175 22.953C11.0274 21.887 11.6405 20.3287 12.8806 19.857C13.4126 19.6546 13.939 19.4224 14.456 19.1628Z" fill="url(#paint6_linear_363_8477)"/>
<path d="M5.0002 7.21666L7.90745 4.50747C8.02302 4.39963 8.10644 4.27141 8.16083 4.14163C8.26557 3.89413 8.26588 3.64231 8.18647 3.5218C7.85383 3.02378 7.18134 2.88122 6.69727 3.23385C6.11364 3.65899 5.54744 4.12449 5.00577 4.63014C4.48923 5.11048 4.01531 5.60891 3.58339 6.11955C3.1998 6.57304 3.37196 7.25457 3.90825 7.50989C3.92957 7.52009 3.9546 7.52843 3.98302 7.53492C3.99724 7.53832 4.01207 7.54079 4.02782 7.54295C4.04327 7.54511 4.05966 7.54697 4.07665 7.5482C4.17614 7.555 4.29696 7.54419 4.42302 7.51422C4.53333 7.48764 4.64734 7.44655 4.75549 7.38939C4.84324 7.34211 4.92697 7.28526 5.0002 7.21666Z" fill="url(#paint7_linear_363_8477)"/>
<path d="M18.1472 1.84128L18.9041 0.682606C18.924 0.652163 18.9105 0.611306 18.8764 0.598539C18.7806 0.563623 18.683 0.530252 18.5841 0.498427C17.9195 0.285535 17.1906 0.148036 16.4052 0.0933455C15.6447 0.0401999 14.868 0.0673913 14.0865 0.169357C13.9407 0.188514 13.7945 0.209834 13.6484 0.234244C13.5978 0.242582 13.5572 0.280544 13.5452 0.330404L13.2649 1.50078C13.2047 1.756 13.3938 2.14532 13.7738 2.1719L17.092 2.40302C17.4755 2.43021 17.9856 2.0894 18.1472 1.84128Z" fill="url(#paint8_linear_363_8477)"/>
<path d="M2.64621 12.5377C2.61932 12.3477 2.46514 12.2179 2.28593 12.1521C2.21301 12.1252 2.13576 12.1091 2.06098 12.1039C2.05264 12.1032 2.0443 12.1026 2.03596 12.1026C1.97756 12.1005 1.92102 12.1051 1.87003 12.1168C1.02627 12.3124 0.358199 13.0006 0.356462 13.8667C0.355714 14.2396 0.379885 14.609 0.431082 14.9728C0.469271 15.2501 0.522142 15.5187 0.589024 15.7781C0.798557 16.591 1.74323 16.859 2.47194 16.4423C2.6493 16.3413 2.86528 16.104 2.9796 15.8574C3.03893 15.7283 3.07107 15.5963 3.05438 15.4805L2.64621 12.5377Z" fill="url(#paint9_linear_363_8477)"/>
<path d="M23.2275 5.89943C23.1886 5.62183 23.1352 5.35304 23.068 5.09324C22.858 4.28084 21.9139 4.01057 21.1855 4.42711C21.0075 4.5297 20.7915 4.76669 20.6775 5.01326C20.6178 5.14242 20.5857 5.27435 20.6018 5.39115L21.013 8.33177C21.0356 8.49708 21.153 8.61697 21.3001 8.68896C21.3925 8.73438 21.4969 8.76095 21.5967 8.76775C21.6644 8.77239 21.7299 8.76837 21.7883 8.75477C22.6313 8.55907 23.2997 7.87266 23.302 7.00723C23.303 6.63378 23.2788 6.26385 23.2275 5.89943Z" fill="url(#paint10_linear_363_8477)"/>
<path d="M9.88561 18.6974L6.56741 18.4663C6.18613 18.4419 5.67382 18.7824 5.51191 19.0308C5.10531 19.6554 5.38629 20.4966 6.11874 20.6342C6.48299 20.7026 6.86235 20.7512 7.25615 20.7787C7.77042 20.8145 8.29254 20.8129 8.81827 20.7769C9.59712 20.7236 10.2134 20.1306 10.3936 19.371C10.4545 19.1154 10.2684 18.724 9.88561 18.6974Z" fill="url(#paint11_linear_363_8477)"/>
<path d="M19.618 13.3276C19.6059 13.3263 19.5939 13.3251 19.5809 13.3242C19.5061 13.3189 19.4193 13.3235 19.3275 13.339C19.1023 13.3767 18.8464 13.478 18.6595 13.6532L15.7488 16.3646C15.6339 16.4715 15.5505 16.5997 15.4961 16.7292C15.3916 16.9764 15.391 17.2288 15.4711 17.3478C15.804 17.846 16.4766 17.9889 16.9612 17.6363C17.5442 17.2121 18.1106 16.7471 18.6533 16.2422C19.4622 15.4895 20.1667 14.6933 20.7683 13.8757C20.7764 13.8652 20.7724 13.8496 20.7604 13.8439L19.7511 13.3625C19.715 13.3455 19.6702 13.334 19.618 13.3276Z" fill="url(#paint12_linear_363_8477)"/>
<path d="M20.7672 13.8753C20.7746 13.865 20.79 13.865 20.7976 13.8752L23.1422 17.0389C23.1513 17.051 23.1515 17.068 23.142 17.0798C22.5407 17.8974 21.8359 18.694 21.027 19.4466C20.6788 19.7705 20.321 20.0779 19.9553 20.3687C19.1363 21.0198 17.9606 20.7966 17.3377 19.956C16.6516 19.0302 16.9008 17.7236 17.792 16.9931C18.0844 16.7535 18.3714 16.503 18.6522 16.2418C19.4611 15.4892 20.1656 14.6929 20.7672 13.8753Z" fill="url(#paint13_linear_363_8477)"/>
<path d="M14.9389 3.50146C10.9888 3.22615 6.39297 6.15225 4.67532 10.0356C2.95735 13.9192 4.76802 17.2912 8.7181 17.5665C12.6685 17.8418 17.2619 14.9154 18.9795 11.0321C20.6972 7.14873 18.889 3.77677 14.9389 3.50146Z" fill="white"/>
<path d="M14.9389 3.40356C10.9888 3.12825 6.39297 6.05435 4.67532 9.93769C2.95735 13.8213 4.76802 17.1933 8.7181 17.4686C12.6685 17.7439 17.2619 14.8175 18.9795 10.9342C20.6972 7.05052 18.889 3.67856 14.9389 3.40356Z" fill="#0098ED"/>
<path d="M15.2466 9.53158C14.9849 9.32335 14.8312 8.89881 14.9812 8.59999C15.0096 8.54351 15.0359 8.48622 15.06 8.42819C15.5225 7.30997 14.9737 6.35458 13.8345 6.29495C12.695 6.23501 11.3957 7.09368 10.9328 8.2119C10.7535 8.64519 10.3877 9.04798 9.94911 9.21389C9.9194 9.22513 9.8896 9.23688 9.85971 9.24917C8.64231 9.75776 7.79012 10.9761 7.96006 11.976C8.07439 12.6452 8.61852 13.0457 9.33135 13.0828C9.68143 13.1013 10.0717 13.0321 10.4718 12.8649C10.5415 12.8366 10.6114 12.9193 10.5657 12.979C10.358 13.2496 10.1151 13.5304 9.83907 13.7934C9.60725 14.0143 9.74096 14.4694 10.0608 14.4861L10.9779 14.5341C11.3415 14.5532 11.6156 14.1254 11.5663 13.7646C11.5315 13.5106 11.5311 13.2487 11.5503 12.9982C11.5568 12.9124 11.664 12.8776 11.7316 12.9307C11.9797 13.1319 12.2976 13.2382 12.6474 13.2564C13.3602 13.2938 14.2056 12.9663 14.8573 12.3372C15.8265 11.3975 16.0005 10.1437 15.2466 9.53158Z" fill="url(#paint14_linear_363_8477)"/>
<path d="M4.90594 10.6959C6.62359 6.81254 11.2195 3.88644 15.1695 4.16175C15.7479 4.20201 16.295 3.61218 15.7254 3.5043C15.4734 3.45658 15.2107 3.4228 14.9378 3.4038C10.9877 3.1285 6.39185 6.0546 4.6742 9.93794C4.56406 10.1869 4.46846 10.4338 4.38703 10.6778C4.25193 11.0827 4.7333 11.0862 4.90594 10.6959Z" fill="#0083CC"/>
<path d="M25.6027 9.10403C25.4872 8.28027 25.2443 7.53438 24.892 6.87068C24.7459 6.59599 24.5806 6.33366 24.3964 6.08493C24.3581 6.03333 24.3195 5.98141 24.2812 5.9295C24.3998 6.12169 24.5126 6.32841 24.6093 6.5104C24.9616 7.1741 25.2044 7.9203 25.32 8.74375C25.4359 9.56751 25.4136 10.4188 25.2746 11.2762C25.13 12.1565 24.8571 13.0745 24.4422 14.0132C24.027 14.9517 23.4981 15.8516 22.8788 16.6987C22.8786 16.699 22.8781 16.699 22.8778 16.6988L22.8767 16.6979C22.8762 16.6975 22.8756 16.6982 22.876 16.6986C22.8761 16.6988 22.8761 16.699 22.876 16.6992C22.8708 16.7059 22.866 16.7129 22.8608 16.7193C22.2595 17.5369 21.5547 18.3334 20.7458 19.0861C19.93 19.8447 19.0615 20.5133 18.163 21.0887C16.2939 22.2833 14.2338 23.1215 12.188 23.4695C12.1873 23.4696 12.1866 23.4694 12.1861 23.4688C12.1856 23.4682 12.1848 23.4679 12.1841 23.4681C11.2294 23.6301 10.2757 23.6872 9.34727 23.6227C8.41814 23.5581 7.56936 23.3749 6.80987 23.0931C5.62769 22.6549 4.66427 21.9708 3.94434 21.1035C3.96751 21.135 3.99068 21.1662 4.01416 21.1978C4.75171 22.193 5.79146 22.971 7.09322 23.4534C7.85271 23.7351 8.70148 23.9181 9.6306 23.983C10.559 24.0478 11.5128 23.9904 12.4675 23.8284C12.4682 23.8282 12.4689 23.8285 12.4694 23.8291C12.4699 23.8296 12.4706 23.8299 12.4714 23.8298C14.5171 23.4818 16.5773 22.6436 18.4463 21.449C19.3448 20.8736 20.2137 20.205 21.0291 19.4464C21.838 18.6937 22.5425 17.8972 23.1441 17.0796C23.1493 17.0729 23.1542 17.0662 23.1593 17.0595C23.1595 17.0593 23.1595 17.0591 23.1593 17.0589C23.1589 17.0584 23.1595 17.0578 23.16 17.0582L23.1612 17.0591C23.1615 17.0593 23.1619 17.0592 23.1621 17.0589C23.7815 16.2119 24.3103 15.3117 24.7255 14.3735C25.1408 13.4348 25.4136 12.5168 25.5579 11.6365C25.6963 10.7794 25.7186 9.92779 25.6027 9.10403Z" fill="#B0AAAA"/>
<path d="M22.5031 11.3649C22.9184 10.4262 23.1912 9.50819 23.3355 8.62789C23.4745 7.77045 23.4968 6.91919 23.3809 6.09544C23.2654 5.27168 23.0225 4.52579 22.6702 3.86209C22.5556 3.64641 22.4255 3.44094 22.2874 3.24102C22.1984 3.12083 22.1091 3.00063 22.0201 2.88013C22.2046 3.12886 22.3699 3.39119 22.5158 3.66588C22.868 4.32958 23.1109 5.07578 23.2264 5.89954C23.3423 6.7233 23.32 7.57455 23.181 8.43199C23.0364 9.31229 22.7636 10.2303 22.3486 11.169C21.9334 12.1076 21.4045 13.0075 20.7851 13.8546C20.7849 13.8549 20.7849 13.8552 20.785 13.8554C20.7853 13.8563 20.7841 13.857 20.7836 13.8562L20.7833 13.8559C20.783 13.8555 20.7823 13.8555 20.782 13.8559C20.777 13.8624 20.7722 13.8689 20.7672 13.8757C20.1659 14.6933 19.4611 15.4899 18.6522 16.2422C17.8365 17.0011 16.9679 17.6698 16.0694 18.2448C14.201 19.4391 12.1417 20.277 10.0969 20.6253C10.0962 20.6254 10.0954 20.6252 10.095 20.6246C10.0945 20.624 10.0937 20.6237 10.093 20.6239C9.1374 20.7859 8.18274 20.8433 7.254 20.7785C6.32488 20.7139 5.47609 20.531 4.7166 20.2489C3.48498 19.7925 2.49128 19.0688 1.7627 18.1496C1.77227 18.1626 1.78247 18.1759 1.79205 18.1892C2.5296 19.1844 3.56934 19.9624 4.8711 20.4448C5.63058 20.7266 6.47937 20.9095 7.40849 20.9744C8.33692 21.0392 9.29066 20.9818 10.2453 20.8201C10.2461 20.8199 10.2468 20.8202 10.2473 20.8208C10.2478 20.8214 10.2485 20.8216 10.2493 20.8215C12.295 20.4732 14.3552 19.6353 16.2242 18.4407C17.1227 17.8653 17.9916 17.1967 18.807 16.4381C19.6159 15.6854 20.3204 14.8889 20.922 14.0713C20.9272 14.0646 20.932 14.0579 20.9372 14.0512C20.9374 14.051 20.9373 14.0508 20.9372 14.0506C20.9368 14.0501 20.9374 14.0495 20.9379 14.0499L20.9391 14.0508C20.9394 14.051 20.9398 14.051 20.94 14.0507C21.5591 13.2033 22.0879 12.3031 22.5031 11.3649Z" fill="white"/>
<defs>
<linearGradient id="paint0_linear_363_8477" x1="30.9134" y1="-3.08933" x2="8.25563" y2="21.113" gradientUnits="userSpaceOnUse">
<stop stop-color="#29DFFF"/>
<stop offset="0.147" stop-color="#22D3FC"/>
<stop offset="0.7114" stop-color="#09A8F1"/>
<stop offset="1" stop-color="#0098ED"/>
</linearGradient>
<linearGradient id="paint1_linear_363_8477" x1="28.6473" y1="-5.2141" x2="5.98654" y2="18.9914" gradientUnits="userSpaceOnUse">
<stop stop-color="#29DFFF"/>
<stop offset="0.147" stop-color="#22D3FC"/>
<stop offset="0.7114" stop-color="#09A8F1"/>
<stop offset="1" stop-color="#0098ED"/>
</linearGradient>
<linearGradient id="paint2_linear_363_8477" x1="23.8936" y1="3.73566" x2="25.3872" y2="26.2399" gradientUnits="userSpaceOnUse">
<stop stop-color="#38393B"/>
<stop offset="0.3263" stop-color="#2F3031"/>
<stop offset="1" stop-color="#1F2021"/>
</linearGradient>
<linearGradient id="paint3_linear_363_8477" x1="7.45247" y1="4.82706" x2="8.94611" y2="27.3316" gradientUnits="userSpaceOnUse">
<stop stop-color="#38393B"/>
<stop offset="0.3263" stop-color="#2F3031"/>
<stop offset="1" stop-color="#1F2021"/>
</linearGradient>
<linearGradient id="paint4_linear_363_8477" x1="4.63663" y1="9.22899" x2="34.7114" y2="14.2757" gradientUnits="userSpaceOnUse">
<stop stop-color="#29DFFF"/>
<stop offset="0.147" stop-color="#22D3FC"/>
<stop offset="0.7114" stop-color="#09A8F1"/>
<stop offset="1" stop-color="#0098ED"/>
</linearGradient>
<linearGradient id="paint5_linear_363_8477" x1="34.6864" y1="0.444162" x2="12.0276" y2="24.6475" gradientUnits="userSpaceOnUse">
<stop stop-color="#29DFFF"/>
<stop offset="0.147" stop-color="#22D3FC"/>
<stop offset="0.7114" stop-color="#09A8F1"/>
<stop offset="1" stop-color="#0098ED"/>
</linearGradient>
<linearGradient id="paint6_linear_363_8477" x1="34.0802" y1="-0.124197" x2="11.421" y2="24.0797" gradientUnits="userSpaceOnUse">
<stop stop-color="#29DFFF"/>
<stop offset="0.147" stop-color="#22D3FC"/>
<stop offset="0.7114" stop-color="#09A8F1"/>
<stop offset="1" stop-color="#0098ED"/>
</linearGradient>
<linearGradient id="paint7_linear_363_8477" x1="3.72032" y1="4.69249" x2="27.0478" y2="9.06956" gradientUnits="userSpaceOnUse">
<stop stop-color="#38393B"/>
<stop offset="0.3263" stop-color="#2F3031"/>
<stop offset="1" stop-color="#1F2021"/>
</linearGradient>
<linearGradient id="paint8_linear_363_8477" x1="4.75897" y1="-0.838433" x2="28.0887" y2="3.53907" gradientUnits="userSpaceOnUse">
<stop stop-color="#38393B"/>
<stop offset="0.3263" stop-color="#2F3031"/>
<stop offset="1" stop-color="#1F2021"/>
</linearGradient>
<linearGradient id="paint9_linear_363_8477" x1="1.8426" y1="14.6957" x2="25.1735" y2="19.0734" gradientUnits="userSpaceOnUse">
<stop stop-color="#38393B"/>
<stop offset="0.3263" stop-color="#2F3031"/>
<stop offset="1" stop-color="#1F2021"/>
</linearGradient>
<linearGradient id="paint10_linear_363_8477" x1="4.06728" y1="2.84421" x2="27.3954" y2="7.22142" gradientUnits="userSpaceOnUse">
<stop stop-color="#38393B"/>
<stop offset="0.3263" stop-color="#2F3031"/>
<stop offset="1" stop-color="#1F2021"/>
</linearGradient>
<linearGradient id="paint11_linear_363_8477" x1="1.15286" y1="18.3785" x2="24.4814" y2="22.7558" gradientUnits="userSpaceOnUse">
<stop stop-color="#38393B"/>
<stop offset="0.3263" stop-color="#2F3031"/>
<stop offset="1" stop-color="#1F2021"/>
</linearGradient>
<linearGradient id="paint12_linear_363_8477" x1="2.18833" y1="12.8479" x2="25.5183" y2="17.2255" gradientUnits="userSpaceOnUse">
<stop stop-color="#38393B"/>
<stop offset="0.3263" stop-color="#2F3031"/>
<stop offset="1" stop-color="#1F2021"/>
</linearGradient>
<linearGradient id="paint13_linear_363_8477" x1="18.7124" y1="4.07943" x2="20.2061" y2="26.584" gradientUnits="userSpaceOnUse">
<stop stop-color="#38393B"/>
<stop offset="0.3263" stop-color="#2F3031"/>
<stop offset="1" stop-color="#1F2021"/>
</linearGradient>
<linearGradient id="paint14_linear_363_8477" x1="7.93853" y1="10.4359" x2="15.7153" y2="10.4359" gradientUnits="userSpaceOnUse">
<stop stop-color="#38393B"/>
<stop offset="0.3263" stop-color="#2F3031"/>
<stop offset="1" stop-color="#1F2021"/>
</linearGradient>
</defs>
</svg>
