<svg width="26" height="24" viewBox="0 0 26 24" fill="none" xmlns="http://www.w3.org/2000/svg">
<path d="M21.7344 2.88013C22.5263 3.94829 23.3176 5.01646 24.1096 6.08493C24.1609 6.15423 24.1029 6.19293 24.0515 6.12362L22.2433 3.6838C22.2344 3.67187 22.2265 3.65928 22.2195 3.64619C22.0762 3.37865 21.9144 3.12291 21.7344 2.88013Z" fill="url(#paint0_linear_363_8455)"/>
<path d="M3.72576 21.198C2.93383 20.1299 2.14221 19.0614 1.35059 17.9932C2.03023 18.9103 2.96648 19.643 4.1279 20.1298C4.32306 20.2116 4.49672 20.3393 4.62272 20.5094C5.26831 21.3804 4.52565 22.2111 3.85148 21.3619C3.80865 21.308 3.76674 21.2533 3.72576 21.198Z" fill="url(#paint1_linear_363_8455)"/>
<path d="M22.9392 5.89918C22.9086 5.68207 23.5006 5.3822 23.6311 5.55835L24.5903 6.85263C24.5992 6.86462 24.6072 6.87724 24.6142 6.89044C24.9607 7.54917 25.1999 8.28872 25.3144 9.10399C25.4466 10.0439 24.32 10.3563 23.7549 9.59373L23.2528 8.91611C23.0232 8.60635 22.9341 8.21748 22.9716 7.83377C23.0357 7.17914 23.0281 6.53107 22.9392 5.89918Z" fill="url(#paint2_linear_363_8455)"/>
<path d="M8.72656 20.7617C9.39395 20.7053 10.0605 20.9626 10.4593 21.5007L10.4868 21.5378C11.2642 22.5868 10.6467 24.0741 9.34421 23.9832C8.53775 23.9271 7.7918 23.7817 7.11225 23.56C6.91157 23.4945 6.7399 23.3633 6.61421 23.1937L5.9803 22.3384C5.52273 21.721 6.20243 20.7248 6.96904 20.7784C7.54697 20.8187 8.13481 20.8118 8.72656 20.7617Z" fill="url(#paint3_linear_363_8455)"/>
<path d="M21.5001 8.7551C21.4417 8.76839 21.3762 8.77271 21.3082 8.76808C21.2087 8.76128 21.1043 8.73471 21.0119 8.68929C20.8648 8.61729 20.7477 8.49741 20.7248 8.3321L20.3136 5.39148C20.2975 5.27468 20.3296 5.14274 20.3893 5.01359C20.5033 4.76671 20.719 4.53002 20.8969 4.42744C21.6389 4.00319 21.9233 3.04741 21.35 2.41353C20.9519 1.97332 20.4866 1.58548 19.9587 1.25846C19.2353 0.810418 18.3223 1.12909 17.8571 1.84153C17.6955 2.08965 17.1854 2.43046 16.8026 2.40389L13.4844 2.17277C13.1043 2.14619 12.9149 1.75687 12.9755 1.50165C13.129 0.911034 12.6231 0.362896 12.0331 0.518797C10.7344 0.861981 9.44673 1.39209 8.2238 2.07509C7.708 2.36317 7.57009 3.0311 7.8982 3.52242C7.97761 3.64292 7.9773 3.89475 7.87255 4.14225C7.81786 4.27171 7.73475 4.40025 7.61919 4.50808L4.71194 7.21728C4.63871 7.28587 4.55497 7.34273 4.46722 7.38938C4.35907 7.44654 4.24506 7.48795 4.13475 7.51421C4.00868 7.54449 3.88787 7.55531 3.69475 7.53522C3.66633 7.52874 3.6413 7.5207 3.61998 7.5102C3.02061 7.22485 2.29671 7.40249 1.94483 7.96538C1.59393 8.5267 1.28255 9.10724 1.01893 9.70338C0.818405 10.1567 0.651091 10.6051 0.515424 11.0468C0.31483 11.6999 0.916951 12.2711 1.58252 12.1169C1.63351 12.1051 1.69005 12.1005 1.77348 12.1039C1.84825 12.1091 1.9255 12.1252 1.99873 12.1521C2.17825 12.2179 2.33182 12.3477 2.35901 12.5377L2.76656 15.4802C2.78325 15.5964 2.75111 15.728 2.69178 15.8571C2.57777 16.1037 2.36179 16.341 2.18412 16.4421C1.44448 16.8747 1.1647 17.8336 1.74063 18.4681C2.13691 18.9047 2.59958 19.2896 3.12431 19.6144C3.84709 20.0619 4.75919 19.7429 5.223 19.0304C5.38522 18.7823 5.89721 18.4418 6.2785 18.4659L9.5967 18.697C9.97953 18.7236 10.1655 19.1154 10.105 19.3703C9.96348 19.9655 10.4755 20.5078 11.0667 20.3505C12.3585 20.0068 13.6393 19.4782 14.857 18.7983C15.3741 18.5097 15.5124 17.8401 15.1835 17.3477C15.1035 17.2287 15.1041 16.9763 15.2085 16.7291C15.2632 16.5996 15.3463 16.4714 15.4613 16.3645L18.3719 13.6531C18.5588 13.478 18.8147 13.3766 19.0399 13.3389C19.1317 13.3235 19.2185 13.3188 19.3304 13.3275C19.3826 13.334 19.4274 13.3454 19.4632 13.3621C20.0635 13.6479 20.7885 13.47 21.1398 12.9056C21.489 12.3446 21.7983 11.7644 22.0618 11.1689C22.2626 10.715 22.4301 10.266 22.5659 9.82368C22.7661 9.17142 22.1647 8.60101 21.5001 8.7551Z" fill="url(#paint4_linear_363_8455)"/>
<path d="M22.0609 11.1687C22.4946 10.1879 23.9626 9.87473 24.6011 10.7363L24.9075 11.1499C25.138 11.461 25.2374 11.8532 25.1521 12.2308C24.9948 12.9272 24.7582 13.6441 24.4357 14.3735C24.3648 14.5339 24.2905 14.6931 24.213 14.8511C23.648 16.0039 22.096 16.0125 21.3317 14.981C20.8353 14.3111 20.8438 13.4025 21.272 12.6872C21.5671 12.1943 21.8313 11.6873 22.0609 11.1687Z" fill="url(#paint5_linear_363_8455)"/>
<path d="M14.1689 19.1629C15.1034 18.6938 16.2651 18.8967 16.8877 19.7368C17.574 20.663 17.3354 21.9882 16.2971 22.4892C15.3041 22.9683 14.2795 23.346 13.2494 23.6052C12.5995 23.7687 11.9294 23.4914 11.5304 22.953C10.7404 21.887 11.3534 20.3287 12.5936 19.857C13.1255 19.6547 13.6519 19.4225 14.1689 19.1629Z" fill="url(#paint6_linear_363_8455)"/>
<path d="M4.71181 7.21666L7.61906 4.50747C7.73462 4.39963 7.81805 4.27141 7.87243 4.14163C7.97718 3.89413 7.97749 3.64231 7.89808 3.5218C7.56543 3.02378 6.89294 2.88122 6.40887 3.23385C5.82525 3.65899 5.25904 4.12449 4.71738 4.63014C4.20087 5.11045 3.72698 5.60884 3.29516 6.11944C2.91157 6.573 3.08382 7.25455 3.62016 7.50989C3.64148 7.52009 3.66651 7.52843 3.69494 7.53492C3.70915 7.53832 3.72398 7.54079 3.73974 7.54295C3.75519 7.54511 3.77126 7.54697 3.78856 7.5482C3.88806 7.555 4.00887 7.54419 4.13493 7.51422C4.24524 7.48764 4.35957 7.44655 4.4674 7.38939C4.55485 7.34211 4.63858 7.28526 4.71181 7.21666Z" fill="url(#paint7_linear_363_8455)"/>
<path d="M17.8582 1.84122L18.615 0.682538C18.6349 0.652098 18.6214 0.611244 18.5874 0.598478C18.4916 0.563562 18.3939 0.530191 18.2951 0.498366C17.6304 0.285474 16.9015 0.147975 16.1161 0.0932845C15.3557 0.0401388 14.5789 0.0673303 13.7975 0.169296C13.6516 0.188453 13.5055 0.209773 13.3593 0.234183C13.3087 0.242521 13.2681 0.280481 13.2562 0.330338L12.9759 1.50072C12.9156 1.75594 13.1047 2.14526 13.4848 2.17183L16.803 2.40296C17.1864 2.43015 17.6966 2.08934 17.8582 1.84122Z" fill="url(#paint8_linear_363_8455)"/>
<path d="M2.35874 12.5377C2.33186 12.3477 2.17767 12.2179 1.99846 12.1521C1.92554 12.1252 1.84829 12.1091 1.77321 12.1039C1.76487 12.1032 1.75653 12.1026 1.74818 12.1026C1.68979 12.1005 1.63324 12.1051 1.58226 12.1168C0.738316 12.3124 0.0700793 13.0007 0.0683756 13.867C0.0676424 14.2398 0.0918152 14.6091 0.142998 14.9728C0.181187 15.2501 0.234059 15.5187 0.300942 15.7781C0.510477 16.591 1.45514 16.859 2.18386 16.4423C2.36121 16.3413 2.57719 16.104 2.69152 15.8574C2.75084 15.7283 2.78298 15.5963 2.76629 15.4805L2.35874 12.5377Z" fill="url(#paint9_linear_363_8455)"/>
<path d="M22.9411 5.89943C22.9022 5.62183 22.8488 5.35304 22.7816 5.09325C22.5715 4.28084 21.6274 4.01057 20.899 4.42711C20.721 4.5297 20.5054 4.76669 20.3913 5.01326C20.3317 5.14242 20.2996 5.27435 20.3156 5.39115L20.7269 8.33177C20.7495 8.49708 20.8669 8.61697 21.0139 8.68896C21.1063 8.73438 21.2108 8.76095 21.3106 8.76775C21.3782 8.77239 21.4437 8.76837 21.5021 8.75477C22.3451 8.55908 23.0134 7.87257 23.0156 7.0072C23.0166 6.63376 22.9924 6.26384 22.9411 5.89943Z" fill="url(#paint10_linear_363_8455)"/>
<path d="M9.59753 18.6973L6.27933 18.4662C5.89804 18.4418 5.38574 18.7823 5.22383 19.0307C4.81722 19.6553 5.0982 20.4965 5.83066 20.6341C6.19491 20.7025 6.57426 20.7512 6.96806 20.7787C7.48233 20.8144 8.00445 20.8129 8.53019 20.7769C9.30903 20.7236 9.9253 20.1305 10.1055 19.3709C10.1664 19.1154 9.98036 18.7239 9.59753 18.6973Z" fill="url(#paint11_linear_363_8455)"/>
<path d="M19.3299 13.3275C19.3178 13.3263 19.3058 13.325 19.2928 13.3241C19.218 13.3188 19.1309 13.3235 19.0394 13.3389C18.8142 13.3766 18.5583 13.478 18.3714 13.6532L15.4608 16.3645C15.3458 16.4714 15.2624 16.5997 15.208 16.7291C15.1036 16.9763 15.1029 17.2288 15.183 17.3477C15.5157 17.8459 16.1882 17.9888 16.6726 17.6364C17.2557 17.2121 17.8222 16.7471 18.3649 16.2422C19.1738 15.4895 19.8783 14.6932 20.4799 13.8756C20.488 13.8651 20.484 13.8495 20.4721 13.8438L19.4627 13.3624C19.4269 13.3454 19.3821 13.334 19.3299 13.3275Z" fill="url(#paint12_linear_363_8455)"/>
<path d="M20.4791 13.8753C20.4866 13.865 20.5019 13.865 20.5095 13.8752L22.8542 17.0389C22.8632 17.051 22.8635 17.0681 22.8539 17.0798C22.2527 17.8974 21.5479 18.694 20.7389 19.4466C20.3907 19.7705 20.0329 20.0779 19.6672 20.3687C18.8482 21.0198 17.6726 20.7966 17.0496 19.956C16.3636 19.0302 16.6127 17.7236 17.5039 16.9931C17.7963 16.7535 18.0834 16.503 18.3641 16.2418C19.173 15.4892 19.8775 14.6929 20.4791 13.8753Z" fill="url(#paint13_linear_363_8455)"/>
<path d="M14.6518 3.50146C10.7017 3.22615 6.10586 6.15225 4.38821 10.0356C2.67024 13.9192 4.4809 17.2912 8.43098 17.5665C12.3814 17.8418 16.9748 14.9154 18.6924 11.0321C20.4101 7.14873 18.6019 3.77677 14.6518 3.50146Z" fill="white"/>
<path d="M14.6518 3.4035C10.7017 3.12819 6.10586 6.05429 4.38821 9.93763C2.67024 13.8213 4.4809 17.1932 8.43098 17.4685C12.3814 17.7439 16.9748 14.8174 18.6924 10.9341C20.4101 7.05046 18.6019 3.6785 14.6518 3.4035Z" fill="#FF9F05"/>
<path d="M14.3079 7.11101C13.7619 6.60261 12.9629 6.47456 12.2854 6.78688L11.8604 6.98278C11.7826 7.01986 11.0836 7.34275 10.3192 7.77471C9.20099 8.40906 7.85165 9.30141 7.31277 10.6026C6.80635 11.8264 7.40547 12.8693 8.64945 12.9345C8.71097 12.9377 8.77292 12.9385 8.83515 12.9369C9.2265 12.927 9.69736 13.4142 9.41805 13.6885C9.16777 13.9343 9.25809 14.4832 9.6084 14.5015L10.5807 14.5524C10.9689 14.5728 11.2608 14.1164 11.2075 13.7313C11.1462 13.2888 11.8739 13.0383 12.3144 13.1125C12.393 13.1257 12.4747 13.1346 12.5594 13.139C13.8061 13.2045 15.2244 12.2674 15.7305 11.0435C16.2694 9.74203 15.699 8.74956 15.1403 8.02685C14.76 7.53525 14.3524 7.15458 14.3079 7.11101Z" fill="url(#paint14_linear_363_8455)"/>
<path d="M4.61883 10.6959C6.33649 6.81254 10.9323 3.88644 14.8824 4.16175C15.4608 4.20201 16.0079 3.61218 15.4383 3.5043C15.1863 3.45658 14.9236 3.4228 14.6507 3.4038C10.7006 3.1285 6.10475 6.0546 4.38709 9.93794C4.27695 10.1869 4.18136 10.4338 4.09992 10.6778C3.96482 11.0827 4.44619 11.0862 4.61883 10.6959Z" fill="#E87500"/>
<path d="M25.3153 9.10397C25.1997 8.28021 24.9569 7.53432 24.6046 6.87062C24.4585 6.59593 24.2932 6.3336 24.109 6.08487C24.0707 6.03326 24.0321 5.98135 23.9938 5.92944C24.1124 6.12163 24.2252 6.32835 24.3219 6.51034C24.6742 7.17404 24.917 7.92024 25.0326 8.74369C25.1485 9.56745 25.1262 10.4187 24.9872 11.2761C24.8426 12.1564 24.5697 13.0744 24.1548 14.0131C23.7396 14.9516 23.2107 15.8515 22.5917 16.6986C22.5915 16.6989 22.591 16.699 22.5907 16.6987L22.5895 16.6978C22.5891 16.6975 22.5885 16.6981 22.5889 16.6985C22.589 16.6987 22.589 16.699 22.5889 16.6992C22.5837 16.7059 22.5788 16.7129 22.5737 16.7192C21.9724 17.5368 21.2676 18.3334 20.4587 19.0861C19.6429 19.8446 18.7744 20.5133 17.8758 21.0886C16.0068 22.2832 13.9466 23.1214 11.9009 23.4695C11.9002 23.4696 11.8995 23.4693 11.899 23.4687C11.8985 23.4682 11.8977 23.4679 11.897 23.468C10.9423 23.6301 9.98859 23.6872 9.06016 23.6226C8.13104 23.558 7.28225 23.3748 6.52277 23.093C5.34058 22.6549 4.37716 21.9708 3.65723 21.1034C3.6804 21.135 3.70357 21.1662 3.72706 21.1977C4.46461 22.1929 5.50435 22.971 6.80611 23.4533C7.5656 23.7351 8.41438 23.918 9.3435 23.9829C10.2719 24.0478 11.2257 23.9904 12.1803 23.8283C12.1811 23.8282 12.1818 23.8284 12.1823 23.829C12.1828 23.8296 12.1835 23.8299 12.1843 23.8297C14.23 23.4817 16.2902 22.6435 18.1592 21.4489C19.0577 20.8736 19.9266 20.2049 20.742 19.4464C21.5509 18.6937 22.2554 17.8971 22.857 17.0795C22.8622 17.0728 22.8671 17.0661 22.8722 17.0594C22.8724 17.0593 22.8724 17.059 22.8722 17.0588C22.8718 17.0584 22.8724 17.0577 22.8729 17.0581L22.8741 17.059C22.8744 17.0593 22.8748 17.0592 22.875 17.0589C23.4944 16.2118 24.0232 15.3116 24.4384 14.3734C24.8537 13.4347 25.1265 12.5167 25.2708 11.6364C25.4089 10.7793 25.4312 9.92773 25.3153 9.10397Z" fill="#B0AAAA"/>
<path d="M22.215 11.3649C22.6303 10.4262 22.9031 9.50819 23.0474 8.62789C23.1865 7.77045 23.2087 6.91919 23.0928 6.09544C22.9773 5.27168 22.7344 4.52579 22.3822 3.86209C22.2675 3.64641 22.1374 3.44094 21.9993 3.24102C21.9103 3.12083 21.821 3.00063 21.7321 2.88013C21.9165 3.12886 22.0818 3.39119 22.2277 3.66588C22.5799 4.32958 22.8228 5.07578 22.9383 5.89954C23.0542 6.7233 23.032 7.57455 22.8929 8.43199C22.7483 9.31229 22.4755 10.2303 22.0605 11.169C21.6453 12.1076 21.1164 13.0075 20.497 13.8546C20.4968 13.8549 20.4968 13.8552 20.4969 13.8554C20.4973 13.8563 20.4961 13.857 20.4955 13.8562L20.4952 13.8559C20.4949 13.8555 20.4942 13.8555 20.4939 13.8559C20.4889 13.8624 20.4841 13.8689 20.4791 13.8757C19.8778 14.6933 19.173 15.4899 18.3641 16.2422C17.5484 17.0011 16.6798 17.6698 15.7813 18.2448C13.9129 19.4391 11.8536 20.277 9.80884 20.6253C9.80811 20.6254 9.80736 20.6252 9.80688 20.6246C9.80641 20.624 9.80566 20.6237 9.80493 20.6239C8.84932 20.7859 7.89465 20.8433 6.96591 20.7785C6.03679 20.7139 5.188 20.531 4.42852 20.2489C3.1969 19.7925 2.2032 19.0688 1.47461 18.1496C1.48419 18.1626 1.49438 18.1759 1.50396 18.1892C2.24151 19.1844 3.28125 19.9624 4.58301 20.4448C5.3425 20.7266 6.19128 20.9095 7.12041 20.9744C8.04883 21.0392 9.00257 20.9818 9.95725 20.8201C9.95799 20.8199 9.95874 20.8202 9.95922 20.8208C9.95969 20.8214 9.96044 20.8216 9.96118 20.8215C12.0069 20.4732 14.0671 19.6353 15.9361 18.4407C16.8346 17.8653 17.7035 17.1967 18.5189 16.4381C19.3278 15.6854 20.0323 14.8889 20.6339 14.0713C20.6391 14.0646 20.644 14.0579 20.6491 14.0512C20.6493 14.051 20.6493 14.0508 20.6491 14.0506C20.6487 14.0501 20.6493 14.0495 20.6498 14.0499L20.651 14.0508C20.6513 14.051 20.6517 14.051 20.6519 14.0507C21.271 13.2033 21.7998 12.3031 22.215 11.3649Z" fill="white"/>
<defs>
<linearGradient id="paint0_linear_363_8455" x1="30.6262" y1="-3.08918" x2="7.96889" y2="21.1126" gradientUnits="userSpaceOnUse">
<stop stop-color="#FFEA05"/>
<stop offset="0.1856" stop-color="#FFDA05"/>
<stop offset="0.7245" stop-color="#FFAF05"/>
<stop offset="1" stop-color="#FF9F05"/>
</linearGradient>
<linearGradient id="paint1_linear_363_8455" x1="28.3603" y1="-5.21422" x2="5.69947" y2="18.9913" gradientUnits="userSpaceOnUse">
<stop stop-color="#FFEA05"/>
<stop offset="0.1856" stop-color="#FFDA05"/>
<stop offset="0.7245" stop-color="#FFAF05"/>
<stop offset="1" stop-color="#FF9F05"/>
</linearGradient>
<linearGradient id="paint2_linear_363_8455" x1="23.6055" y1="3.73566" x2="25.0992" y2="26.2399" gradientUnits="userSpaceOnUse">
<stop stop-color="#38393B"/>
<stop offset="0.3263" stop-color="#2F3031"/>
<stop offset="1" stop-color="#1F2021"/>
</linearGradient>
<linearGradient id="paint3_linear_363_8455" x1="7.1657" y1="4.827" x2="8.65934" y2="27.3316" gradientUnits="userSpaceOnUse">
<stop stop-color="#38393B"/>
<stop offset="0.3263" stop-color="#2F3031"/>
<stop offset="1" stop-color="#1F2021"/>
</linearGradient>
<linearGradient id="paint4_linear_363_8455" x1="4.34721" y1="9.22893" x2="34.4221" y2="14.2757" gradientUnits="userSpaceOnUse">
<stop stop-color="#FFEA05"/>
<stop offset="0.1856" stop-color="#FFDA05"/>
<stop offset="0.7245" stop-color="#FFAF05"/>
<stop offset="1" stop-color="#FF9F05"/>
</linearGradient>
<linearGradient id="paint5_linear_363_8455" x1="34.3993" y1="0.444162" x2="11.7405" y2="24.6475" gradientUnits="userSpaceOnUse">
<stop stop-color="#FFEA05"/>
<stop offset="0.1856" stop-color="#FFDA05"/>
<stop offset="0.7245" stop-color="#FFAF05"/>
<stop offset="1" stop-color="#FF9F05"/>
</linearGradient>
<linearGradient id="paint6_linear_363_8455" x1="33.7931" y1="-0.124196" x2="11.1339" y2="24.0797" gradientUnits="userSpaceOnUse">
<stop stop-color="#FFEA05"/>
<stop offset="0.1856" stop-color="#FFDA05"/>
<stop offset="0.7245" stop-color="#FFAF05"/>
<stop offset="1" stop-color="#FF9F05"/>
</linearGradient>
<linearGradient id="paint7_linear_363_8455" x1="3.43196" y1="4.69249" x2="26.7595" y2="9.06956" gradientUnits="userSpaceOnUse">
<stop stop-color="#38393B"/>
<stop offset="0.3263" stop-color="#2F3031"/>
<stop offset="1" stop-color="#1F2021"/>
</linearGradient>
<linearGradient id="paint8_linear_363_8455" x1="4.46994" y1="-0.838494" x2="27.7997" y2="3.53901" gradientUnits="userSpaceOnUse">
<stop stop-color="#38393B"/>
<stop offset="0.3263" stop-color="#2F3031"/>
<stop offset="1" stop-color="#1F2021"/>
</linearGradient>
<linearGradient id="paint9_linear_363_8455" x1="1.55513" y1="14.6957" x2="24.8862" y2="19.0735" gradientUnits="userSpaceOnUse">
<stop stop-color="#38393B"/>
<stop offset="0.3263" stop-color="#2F3031"/>
<stop offset="1" stop-color="#1F2021"/>
</linearGradient>
<linearGradient id="paint10_linear_363_8455" x1="3.78083" y1="2.84421" x2="27.109" y2="7.22143" gradientUnits="userSpaceOnUse">
<stop stop-color="#38393B"/>
<stop offset="0.3263" stop-color="#2F3031"/>
<stop offset="1" stop-color="#1F2021"/>
</linearGradient>
<linearGradient id="paint11_linear_363_8455" x1="0.86484" y1="18.3785" x2="24.1934" y2="22.7558" gradientUnits="userSpaceOnUse">
<stop stop-color="#38393B"/>
<stop offset="0.3263" stop-color="#2F3031"/>
<stop offset="1" stop-color="#1F2021"/>
</linearGradient>
<linearGradient id="paint12_linear_363_8455" x1="1.90024" y1="12.8479" x2="25.2302" y2="17.2254" gradientUnits="userSpaceOnUse">
<stop stop-color="#38393B"/>
<stop offset="0.3263" stop-color="#2F3031"/>
<stop offset="1" stop-color="#1F2021"/>
</linearGradient>
<linearGradient id="paint13_linear_363_8455" x1="18.4244" y1="4.07943" x2="19.918" y2="26.584" gradientUnits="userSpaceOnUse">
<stop stop-color="#38393B"/>
<stop offset="0.3263" stop-color="#2F3031"/>
<stop offset="1" stop-color="#1F2021"/>
</linearGradient>
<linearGradient id="paint14_linear_363_8455" x1="7.1326" y1="10.4359" x2="15.9464" y2="10.4359" gradientUnits="userSpaceOnUse">
<stop stop-color="#38393B"/>
<stop offset="0.3263" stop-color="#2F3031"/>
<stop offset="1" stop-color="#1F2021"/>
</linearGradient>
</defs>
</svg>
