<svg width="57" height="77" viewBox="0 0 57 77" fill="none" xmlns="http://www.w3.org/2000/svg">
<rect x="1.70051" y="1.46882" width="53.3199" height="74.2529" rx="2.76474" fill="white" stroke="white" stroke-width="2.36977"/>
<path d="M12.0564 12.1692C12.0564 12.7328 11.9247 13.208 11.6614 13.5948C11.3981 13.9774 11.036 14.2674 10.5753 14.4649C10.1186 14.6583 9.60019 14.755 9.02009 14.755C8.43999 14.755 7.91955 14.6583 7.45876 14.4649C6.99797 14.2674 6.63386 13.9774 6.36644 13.5948C6.09902 13.208 5.9653 12.7328 5.9653 12.1692C5.9653 11.7907 6.04142 11.4492 6.19364 11.1448C6.34587 10.8362 6.55775 10.5729 6.82929 10.3548C7.10494 10.1327 7.4279 9.96398 7.79818 9.84878C8.16845 9.72947 8.57164 9.66982 9.00775 9.66982C9.59196 9.66982 10.1145 9.77267 10.5753 9.97838C11.036 10.1841 11.3981 10.4741 11.6614 10.8485C11.9247 11.2229 12.0564 11.6631 12.0564 12.1692ZM10.2667 12.0519C10.2667 11.7763 10.2132 11.5397 10.1062 11.3422C10.0034 11.1406 9.85733 10.9864 9.66808 10.8794C9.47882 10.7724 9.25871 10.7189 9.00775 10.7189C8.75678 10.7189 8.53667 10.7724 8.34742 10.8794C8.15817 10.9864 8.01006 11.1406 7.90309 11.3422C7.80023 11.5397 7.74881 11.7763 7.74881 12.0519C7.74881 12.3235 7.80023 12.558 7.90309 12.7555C8.01006 12.9529 8.15817 13.1052 8.34742 13.2121C8.54079 13.315 8.76501 13.3664 9.02009 13.3664C9.27517 13.3664 9.49528 13.315 9.68042 13.2121C9.86967 13.1052 10.0137 12.9529 10.1124 12.7555C10.2153 12.558 10.2667 12.3235 10.2667 12.0519ZM11.8651 8.02825C11.8651 8.48493 11.7437 8.89018 11.5009 9.244C11.2582 9.5937 10.9208 9.8673 10.4889 10.0648C10.061 10.2623 9.57139 10.361 9.02009 10.361C8.46468 10.361 7.97097 10.2623 7.53898 10.0648C7.10699 9.8673 6.76963 9.5937 6.52689 9.244C6.28415 8.89018 6.16279 8.48493 6.16279 8.02825C6.16279 7.48518 6.28415 7.02851 6.52689 6.65823C6.77374 6.28384 7.11111 5.99996 7.53898 5.80659C7.97097 5.61322 8.46056 5.51654 9.00775 5.51654C9.56316 5.51654 10.0548 5.61322 10.4827 5.80659C10.9147 5.99996 11.252 6.28384 11.4948 6.65823C11.7416 7.02851 11.8651 7.48518 11.8651 8.02825ZM10.0877 8.10848C10.0877 7.86574 10.0445 7.65592 9.95813 7.47901C9.87173 7.29799 9.7483 7.1581 9.58785 7.05936C9.43151 6.96062 9.23814 6.91125 9.00775 6.91125C8.78558 6.91125 8.59427 6.95857 8.43382 7.05319C8.27748 7.14782 8.15611 7.28564 8.06971 7.46667C7.98743 7.64358 7.94629 7.85752 7.94629 8.10848C7.94629 8.35122 7.98743 8.56516 8.06971 8.7503C8.15611 8.93132 8.27954 9.07326 8.43999 9.17611C8.60044 9.27897 8.79381 9.3304 9.02009 9.3304C9.24637 9.3304 9.43768 9.27897 9.59402 9.17611C9.75447 9.07326 9.87584 8.93132 9.95813 8.7503C10.0445 8.56516 10.0877 8.35122 10.0877 8.10848Z" fill="#FF0000"/>
<path d="M46.1328 67.9616C46.1409 67.398 46.2793 66.9244 46.5481 66.5408C46.8168 66.1612 47.183 65.8754 47.6465 65.6833C48.1059 65.4952 48.6257 65.4045 49.2057 65.4112C49.7858 65.4179 50.3048 65.5206 50.7628 65.7193C51.2208 65.9221 51.5807 66.2163 51.8427 66.602C52.1046 66.9918 52.2315 67.4684 52.2235 68.032C52.2181 68.4105 52.1371 68.7511 51.9806 69.0537C51.824 69.3605 51.6083 69.6213 51.3337 69.8362C51.0549 70.0552 50.7296 70.2201 50.3577 70.331C49.9857 70.446 49.5817 70.501 49.1456 70.496C48.5615 70.4892 48.0405 70.3803 47.5826 70.1693C47.1248 69.9583 46.7669 69.6641 46.509 69.2867C46.251 68.9093 46.1256 68.4676 46.1328 67.9616ZM47.9207 68.0996C47.9168 68.3752 47.9669 68.6123 48.071 68.811C48.171 69.0138 48.3149 69.1698 48.5026 69.2789C48.6903 69.388 48.9096 69.4441 49.1606 69.447C49.4115 69.4499 49.6324 69.3989 49.8231 69.2942C50.0139 69.1894 50.1642 69.0368 50.274 68.8365C50.3797 68.6402 50.4345 68.4043 50.4384 68.1287C50.4423 67.8572 50.3942 67.6221 50.2942 67.4234C50.19 67.2247 50.0441 67.0708 49.8564 66.9617C49.6645 66.8566 49.441 66.8026 49.1859 66.7996C48.9309 66.7967 48.7101 66.8455 48.5235 66.9462C48.3327 67.051 48.1865 67.2016 48.085 67.3979C47.9793 67.5942 47.9246 67.828 47.9207 68.0996ZM46.2651 72.1043C46.2716 71.6477 46.3988 71.2439 46.6465 70.8929C46.8942 70.5461 47.2355 70.2764 47.6703 70.0839C48.1009 69.8914 48.5919 69.7983 49.1431 69.8047C49.6985 69.8111 50.1908 69.9156 50.6199 70.118C51.0491 70.3205 51.3825 70.598 51.6203 70.9504C51.8579 71.307 51.9735 71.7136 51.967 72.1703C51.9593 72.7133 51.8314 73.1685 51.5834 73.5359C51.3313 73.9074 50.9899 74.1874 50.5593 74.3758C50.1246 74.5641 49.6336 74.6552 49.0865 74.6488C48.5311 74.6424 48.0409 74.5401 47.6158 74.3418C47.1866 74.1434 46.8533 73.8557 46.6159 73.4785C46.3743 73.1054 46.2574 72.6474 46.2651 72.1043ZM48.0435 72.0447C48.04 72.2874 48.0802 72.4977 48.1641 72.6756C48.2479 72.8576 48.3694 72.9989 48.5284 73.0995C48.6833 73.2 48.876 73.2516 49.1064 73.2543C49.3285 73.2568 49.5205 73.2117 49.6823 73.119C49.8399 73.0262 49.9633 72.8898 50.0522 72.7098C50.137 72.5338 50.1812 72.3204 50.1848 72.0694C50.1882 71.8267 50.1502 71.6123 50.0705 71.4263C49.9867 71.2442 49.8653 71.1009 49.7063 70.9962C49.5473 70.8915 49.3547 70.8378 49.1285 70.8352C48.9022 70.8326 48.7102 70.8818 48.5524 70.9829C48.3905 71.0838 48.2671 71.2244 48.1822 71.4044C48.0932 71.5885 48.047 71.802 48.0435 72.0447Z" fill="#FF0000"/>
<path fill-rule="evenodd" clip-rule="evenodd" d="M5.65039 20.6246L9.00757 24.3767L12.3647 20.6246L9.00757 16.8724L5.65039 20.6246Z" fill="#FF0000"/>
<path fill-rule="evenodd" clip-rule="evenodd" d="M44.3574 60.5157L47.7146 64.2678L51.0718 60.5157L47.7146 56.7635L44.3574 60.5157Z" fill="#FF0000"/>
<path fill-rule="evenodd" clip-rule="evenodd" d="M15.5234 16.6749L19.868 21.612L24.2126 16.6749L19.868 11.7379L15.5234 16.6749Z" fill="#FF0000"/>
<path fill-rule="evenodd" clip-rule="evenodd" d="M24.6074 25.759L28.952 30.6961L33.2966 25.759L28.952 20.822L24.6074 25.759Z" fill="#FF0000"/>
<path fill-rule="evenodd" clip-rule="evenodd" d="M24.6074 47.4819L28.952 52.419L33.2966 47.4819L28.952 42.5449L24.6074 47.4819Z" fill="#FF0000"/>
<path fill-rule="evenodd" clip-rule="evenodd" d="M15.5234 36.423L19.868 41.3601L24.2126 36.423L19.868 31.486L15.5234 36.423Z" fill="#FF0000"/>
<path fill-rule="evenodd" clip-rule="evenodd" d="M34.0869 36.423L38.4315 41.3601L42.7761 36.423L38.4315 31.486L34.0869 36.423Z" fill="#FF0000"/>
<path fill-rule="evenodd" clip-rule="evenodd" d="M15.5234 58.1459L19.868 63.083L24.2126 58.1459L19.868 53.2089L15.5234 58.1459Z" fill="#FF0000"/>
<path fill-rule="evenodd" clip-rule="evenodd" d="M34.0869 16.6749L38.4315 21.612L42.7761 16.6749L38.4315 11.7379L34.0869 16.6749Z" fill="#FF0000"/>
<path fill-rule="evenodd" clip-rule="evenodd" d="M43.2374 58.2625L38.9597 53.2674L34.549 58.1455L38.8267 63.1406L43.2374 58.2625Z" fill="#FF0000"/>
</svg>
