<svg width="20" height="21" viewBox="0 0 20 21" fill="none" xmlns="http://www.w3.org/2000/svg">
<path d="M1.39551 15.8511C1.39551 16.2109 1.64396 16.554 2.09335 16.8661C3.45072 17.8092 6.64271 18.4713 10.3639 18.4713C14.0852 18.4713 17.2772 17.8092 18.6347 16.8661C19.0841 16.554 19.3326 16.2109 19.3326 15.8511C19.3326 15.7212 19.3003 15.5934 19.2378 15.4686C19.2378 15.4685 19.2376 15.4685 19.2376 15.4684C18.6035 14.2026 14.8723 13.2308 10.364 13.2308C5.85604 13.2308 2.12489 14.2024 1.49066 15.4682L1.49052 15.4684C1.42791 15.5933 1.39551 15.7211 1.39551 15.8511Z" fill="#F7F7F7"/>
<path d="M1.22949 16.0385V18.0652C1.22949 18.6132 1.72273 19.1251 2.5778 19.5598V17.4677L2.8023 17.2617L2.80244 17.2615L4.92591 16.8725C5.31994 17.0634 5.97853 17.2963 6.92629 17.4752L5.62828 18.0769C5.62149 18.0867 5.44816 18.3414 5.44816 18.3414V20.4735C6.86681 20.7574 8.553 20.9219 10.362 20.9219C10.4491 20.9219 10.5359 20.9214 10.6224 20.9207V18.769C10.6141 18.769 10.6141 18.769 10.6224 18.7689L10.586 18.4706C10.561 18.4708 10.561 18.4708 10.586 18.4705L10.519 17.7713H10.5265C11.4468 17.7645 12.3926 17.6999 13.3062 17.5593L14.4171 18.1888C14.4212 18.1882 14.4252 18.1876 14.4292 18.1871C14.4254 18.1877 14.4213 18.1883 14.4173 18.189L14.5739 18.4628V20.6006C16.1988 20.3361 17.5375 19.923 18.4061 19.419V17.3329L18.1823 17.1349L15.973 16.783C16.2589 16.6269 16.615 16.3759 16.7091 16.0658C16.7092 16.0656 16.7092 16.0654 16.7092 16.0652C16.7107 16.0607 16.712 16.0563 16.7134 16.0517C16.7134 16.0517 16.7134 16.0517 16.7134 16.0515C16.7211 16.0269 16.7273 15.9957 16.7313 15.9697L19.3159 16.0036L19.479 16.1998C19.4804 16.1925 19.4818 16.1851 19.4828 16.1778C19.4839 16.1724 19.4848 16.1671 19.4856 16.1616C19.4863 16.1564 19.487 16.1511 19.4876 16.146C19.4881 16.1428 19.4885 16.1396 19.4888 16.1364C19.4895 16.1311 19.4901 16.1257 19.4906 16.1201C19.4913 16.1133 19.4919 16.1066 19.4923 16.0998C19.4927 16.0958 19.4929 16.0917 19.4931 16.0876C19.4941 16.0712 19.4946 16.0549 19.4946 16.0386C19.4946 15.7376 19.3318 15.448 19.0312 15.1772C18.8039 14.9271 18.4534 14.6916 17.9996 14.4771L15.7644 14.8867H15.764C15.1644 14.6049 14.4324 14.4205 13.7812 14.297L15.1917 13.643C13.7976 13.3823 12.1402 13.231 10.3619 13.231C10.2692 13.231 10.1767 13.2315 10.0846 13.2324L10.1583 14.0042C9.27293 14.0119 8.29896 14.0794 7.40875 14.2173L6.19664 13.5302H6.19651C4.59502 13.776 3.27924 14.1591 2.43236 14.6262L4.74659 14.9949C4.42974 15.1677 4.04662 15.4461 3.99326 15.8031L1.39796 15.7691L1.25058 15.8512C1.23661 15.9129 1.22949 15.9754 1.22949 16.0385ZM4.36706 15.8652C4.36706 14.9006 7.05105 14.1186 10.3619 14.1186C13.6728 14.1186 16.3568 14.9006 16.3568 15.8652C16.3568 16.0195 16.288 16.1692 16.159 16.3118C15.5421 17.0638 13.1807 17.6239 10.3619 17.6239C7.54449 17.6239 5.18407 17.0645 4.56601 16.3128C4.43613 16.17 4.36706 16.0199 4.36706 15.8652Z" fill="#F63833"/>
<path d="M10.3619 18.7704C15.4057 18.7704 19.4944 17.5303 19.4944 16.0006C19.4944 14.4709 15.4057 13.2308 10.3619 13.2308C5.31823 13.2308 1.22949 14.4709 1.22949 16.0006C1.22949 17.5303 5.31823 18.7704 10.3619 18.7704Z" fill="url(#paint0_radial_363_8116)"/>
<path d="M19.0631 13.3936C19.0631 13.7534 18.8146 14.0965 18.3652 14.4086C17.0079 15.3517 13.8159 16.0137 10.0946 16.0137C6.37338 16.0137 3.18138 15.3517 1.82382 14.4086C1.37443 14.0965 1.12598 13.7534 1.12598 13.3936C1.12598 13.2637 1.15831 13.1359 1.22079 13.0111C1.22079 13.011 1.22093 13.011 1.22093 13.0108C1.85509 11.745 5.58631 10.7733 10.0946 10.7733C14.6025 10.7733 18.3337 11.7449 18.9679 13.0107L18.968 13.0108C19.0307 13.1357 19.0631 13.2636 19.0631 13.3936Z" fill="#F7F7F7"/>
<path d="M19.227 13.5808C19.227 15.0893 15.1382 16.3124 10.0944 16.3124C5.05077 16.3124 0.961914 15.0893 0.961914 13.5808C0.961914 13.2799 1.12473 12.9902 1.42535 12.7194C1.22986 12.9346 1.12579 13.1605 1.12579 13.3936C1.12579 14.8407 5.14119 16.0138 10.0944 16.0138C15.0475 16.0138 19.0629 14.8407 19.0629 13.3936C19.0629 13.1602 18.9585 12.9341 18.7627 12.7187C19.0639 12.9898 19.227 13.2797 19.227 13.5808Z" fill="#EBEBEB"/>
<path d="M15.8902 13.8556C15.9938 13.73 16.0485 13.599 16.0485 13.4642C16.0485 12.5239 13.3827 11.7617 10.0945 11.7617C6.80615 11.7617 4.14046 12.5239 4.14046 13.4642C4.14046 13.5984 4.19469 13.729 4.29749 13.8543C4.16834 13.7117 4.09961 13.562 4.09961 13.4077C4.09961 12.443 6.78366 11.6611 10.0945 11.6611C13.4053 11.6611 16.0894 12.4431 16.0894 13.4077C16.0894 13.5624 16.0202 13.7125 15.8902 13.8556Z" fill="#BD1C0E"/>
<path d="M10.0956 15.1664C13.3839 15.1664 16.0495 14.4043 16.0495 13.4641C16.0495 12.5239 13.3839 11.7617 10.0956 11.7617C6.80728 11.7617 4.1416 12.5239 4.1416 13.4641C4.1416 14.4043 6.80728 15.1664 10.0956 15.1664Z" fill="#EA2623"/>
<path d="M10.0956 15.1664C13.3839 15.1664 16.0495 14.4043 16.0495 13.4641C16.0495 12.5239 13.3839 11.7617 10.0956 11.7617C6.80728 11.7617 4.1416 12.5239 4.1416 13.4641C4.1416 14.4043 6.80728 15.1664 10.0956 15.1664Z" fill="url(#paint1_radial_363_8116)"/>
<path d="M15.7839 13.5035C15.7839 13.5689 15.771 13.6334 15.7457 13.6968L15.2845 13.6811C15.3185 13.6094 15.3363 13.5362 15.3363 13.4616C15.3363 13.3751 15.3124 13.2903 15.2666 13.2076L15.6791 13.1848C15.7479 13.288 15.7839 13.3945 15.7839 13.5035Z" fill="#EEEDEC"/>
<path d="M18.7627 12.7187C18.7645 12.7206 18.7663 12.7228 18.7679 12.7246C18.748 12.7024 18.7269 12.6804 18.705 12.6584L16.2145 12.8719C15.9483 12.6102 15.5161 12.4105 15.1691 12.2778C15.1691 12.2778 15.1691 12.2778 15.169 12.2778C15.0299 12.225 14.9127 12.1855 14.7954 12.1481L16.7406 11.634C15.5647 11.2551 14.0145 10.9772 12.2606 10.8501L11.6228 11.6003C10.7888 11.5393 9.77825 11.5274 8.84546 11.5822L8.31729 10.8246C6.53216 10.9294 4.93872 11.1892 3.70824 11.5538L5.58007 12.0913C5.57814 12.0919 5.57622 12.0925 5.57422 12.0931C5.08178 12.2365 4.45213 12.4683 4.05983 12.7952C4.05969 12.7952 4.0597 12.7952 4.0597 12.7952L1.59522 12.5547C1.53261 12.6087 1.47592 12.6637 1.42535 12.7193C1.12473 12.9901 0.961914 13.2798 0.961914 13.5807V15.6074C0.961914 15.8752 1.07975 16.1344 1.29999 16.3801V14.3194L1.48936 14.1342L3.94505 13.9236C3.99728 13.9769 4.05883 14.0308 4.11678 14.0748C4.11678 14.0748 4.11692 14.0749 4.11712 14.0749C4.44182 14.3276 4.92601 14.5239 5.31865 14.6523L3.43823 15.1494H3.4381L3.27316 15.3968V17.5067C4.47529 17.929 6.07212 18.2388 7.88247 18.3796V16.2315C7.86457 16.2301 7.84654 16.2288 7.82864 16.2274C7.84654 16.2288 7.86444 16.2302 7.88247 16.2315L7.93556 15.9372L8.54318 15.2225C8.56507 15.2225 9.38202 15.2937 10.5088 15.274C10.7903 15.2689 11.0997 15.2572 11.3946 15.2392L11.8976 15.9606L11.9414 16.2563V18.4056C13.7763 18.2876 15.4102 17.9978 16.6633 17.5919V15.4782L16.4997 15.2272L14.6922 14.7082C14.942 14.6424 15.779 14.3554 16.1868 13.9785L18.6124 14.2153L18.6126 14.2155L18.7758 14.4306V16.4963C19.0685 16.2165 19.227 15.9178 19.227 15.6073V13.5806C19.227 13.2797 19.0639 12.9898 18.7627 12.7187ZM15.8904 13.8552C15.2724 14.6069 12.9119 15.1663 10.0944 15.1663C7.27565 15.1663 4.9143 14.6063 4.29743 13.8542C4.16828 13.7116 4.09955 13.5619 4.09955 13.4076C4.09955 12.443 6.7836 11.6611 10.0944 11.6611C13.4053 11.6611 16.0893 12.443 16.0893 13.4076C16.0893 13.5623 16.0203 13.7124 15.8904 13.8552Z" fill="#F63833"/>
<path d="M0.961914 13.5431C0.961914 15.0728 5.0507 16.3129 10.0944 16.3129C15.1381 16.3129 19.2268 15.0728 19.2268 13.5431C19.2268 12.0133 15.1381 10.7733 10.0944 10.7733C5.0507 10.7732 0.961914 12.0133 0.961914 13.5431Z" fill="url(#paint2_radial_363_8116)"/>
<path d="M19.0631 10.7913C19.0631 11.151 18.8146 11.4942 18.3652 11.8062C17.0079 12.7494 13.8159 13.4114 10.0946 13.4114C6.37338 13.4114 3.18138 12.7494 1.82382 11.8062C1.37443 11.4942 1.12598 11.151 1.12598 10.7913C1.12598 10.6614 1.15831 10.5336 1.22079 10.4088C1.22079 10.4087 1.22093 10.4087 1.22093 10.4085C1.85509 9.14274 5.58631 8.17096 10.0946 8.17096C14.6025 8.17096 18.3337 9.14254 18.9679 10.4084L18.968 10.4085C19.0307 10.5335 19.0631 10.6613 19.0631 10.7913Z" fill="#F7F7F7"/>
<path d="M19.227 10.9785V13.0052C19.227 14.583 15.1382 15.862 10.0944 15.862C5.05077 15.862 0.961914 14.583 0.961914 13.0052V10.9785C0.961914 11.3278 1.18129 11.6621 1.58104 11.9692C2.9072 12.9879 6.2189 13.7101 10.0944 13.7101C13.97 13.7101 17.2816 12.9879 18.6078 11.9692C19.0076 11.6621 19.227 11.3278 19.227 10.9785Z" fill="url(#paint3_linear_363_8116)"/>
<path d="M19.227 10.9785C19.227 12.4871 15.1382 13.7101 10.0944 13.7101C5.05077 13.7101 0.961914 12.4871 0.961914 10.9785C0.961914 10.6776 1.12473 10.3879 1.42535 10.1171C1.22986 10.3323 1.12579 10.5582 1.12579 10.7913C1.12579 12.2384 5.14119 13.4115 10.0944 13.4115C15.0475 13.4115 19.0629 12.2384 19.0629 10.7913C19.0629 10.5579 18.9585 10.3317 18.7627 10.1164C19.0639 10.3875 19.227 10.6773 19.227 10.9785Z" fill="#EBEBEB"/>
<path d="M15.8902 11.2533C15.9938 11.1277 16.0485 10.9966 16.0485 10.8618C16.0485 9.92151 13.3827 9.15939 10.0945 9.15939C6.80615 9.15939 4.14046 9.92151 4.14046 10.8618C4.14046 10.996 4.19469 11.1266 4.29749 11.2519C4.16834 11.1093 4.09961 10.9596 4.09961 10.8053C4.09961 9.84066 6.78366 9.05872 10.0945 9.05872C13.4053 9.05872 16.0894 9.84066 16.0894 10.8053C16.0894 10.9601 16.0202 11.1103 15.8902 11.2533Z" fill="#BD1C0E"/>
<path d="M10.0956 12.5641C13.3839 12.5641 16.0495 11.802 16.0495 10.8618C16.0495 9.9216 13.3839 9.15942 10.0956 9.15942C6.80728 9.15942 4.1416 9.9216 4.1416 10.8618C4.1416 11.802 6.80728 12.5641 10.0956 12.5641Z" fill="#EA2623"/>
<path d="M16.0496 10.8618C16.0496 11.802 13.3839 12.5641 10.0956 12.5641C6.80729 12.5641 4.1416 11.802 4.1416 10.8618C4.1416 9.92161 6.80729 9.15942 10.0956 9.15942C13.3839 9.15942 16.0496 9.92154 16.0496 10.8618Z" fill="url(#paint4_radial_363_8116)"/>
<path d="M19.2057 10.7911L19.0584 10.709L16.4631 10.743C16.4098 10.386 16.0266 10.1076 15.7098 9.9348L18.024 9.56605C17.1771 9.09902 15.8613 8.71597 14.2599 8.47004H14.2597L13.0476 9.15718C12.1574 9.01924 11.1835 8.95178 10.298 8.94412L10.3718 8.17229C10.2797 8.17142 10.1872 8.17096 10.0944 8.17096C8.31616 8.17096 6.65878 8.3222 5.26469 8.58296L6.67515 9.23695C6.02394 9.36051 5.2921 9.54482 4.69246 9.82668H4.69213L2.45694 9.41707C2.00322 9.63165 1.65264 9.86713 1.42535 10.1172C1.12473 10.3879 0.961914 10.6777 0.961914 10.9786C0.961914 10.9949 0.962378 11.0112 0.963443 11.0276C0.963576 11.0317 0.963843 11.0359 0.964176 11.0399C0.964642 11.0466 0.965174 11.0533 0.965906 11.0601C0.966372 11.0657 0.966969 11.0711 0.967701 11.0764C0.968034 11.0796 0.968433 11.0828 0.968899 11.086C0.969498 11.0912 0.97023 11.0963 0.970962 11.1016C0.971694 11.1071 0.972627 11.1124 0.973691 11.1178C0.974689 11.1252 0.976086 11.1325 0.977549 11.1398L1.14063 10.9436L3.72521 10.9097C3.72914 10.9357 3.73546 10.9669 3.74311 10.9915C3.74311 10.9917 3.74311 10.9917 3.74311 10.9917C3.74451 10.9963 3.74584 11.0008 3.7473 11.0053C3.7473 11.0056 3.7473 11.0057 3.74743 11.0059C3.84145 11.316 4.19763 11.567 4.48347 11.7231L2.27423 12.075L2.0504 12.273V14.3591C2.91898 14.8631 4.25771 15.2761 5.88255 15.5406V13.4029L6.03912 13.1291C6.03506 13.1283 6.03106 13.1277 6.0272 13.1271C6.0312 13.1277 6.03526 13.1283 6.03931 13.1289L7.15022 12.4994C8.06385 12.64 9.00961 12.7045 9.92996 12.7115H9.93741L9.87041 13.4106C9.89549 13.411 9.89549 13.411 9.87041 13.4108L9.83401 13.709C9.84219 13.7091 9.84219 13.7091 9.83401 13.7091V15.8608C9.92051 15.8615 10.0073 15.8619 10.0944 15.8619C11.9034 15.8619 13.5895 15.6975 15.0082 15.4136V13.2814C15.0082 13.2814 14.8348 13.0267 14.8281 13.017L13.5301 12.4152C14.4778 12.2363 15.1364 12.0034 15.5305 11.8126L17.6539 12.2015L17.6541 12.2017L17.8786 12.4077V14.4998C18.7337 14.0651 19.2269 13.5532 19.2269 13.0052V10.9785C19.2269 10.9155 19.2197 10.853 19.2057 10.7911ZM15.8904 11.2529C15.2723 12.0046 12.9118 12.564 10.0944 12.564C7.27558 12.564 4.91423 12.004 4.29737 11.2518C4.16822 11.1093 4.09948 10.9596 4.09948 10.8052C4.09948 9.84065 6.78354 9.0587 10.0944 9.0587C13.4052 9.0587 16.0893 9.84065 16.0893 10.8052C16.0893 10.9599 16.0203 11.11 15.8904 11.2529Z" fill="#F63833"/>
<path d="M0.961914 10.9408C0.961914 12.4705 5.0507 13.7106 10.0944 13.7106C15.1381 13.7106 19.2268 12.4705 19.2268 10.9408C19.2268 9.41102 15.1381 8.17096 10.0944 8.17096C5.0507 8.17096 0.961914 9.41102 0.961914 10.9408Z" fill="url(#paint5_radial_363_8116)"/>
<path d="M1.09668 8.19453C1.09668 8.5543 1.34513 8.89743 1.79452 9.20949C3.15188 10.1527 6.34388 10.8147 10.0651 10.8147C13.7864 10.8147 16.9784 10.1527 18.3359 9.20949C18.7854 8.89743 19.0338 8.5543 19.0338 8.19453C19.0338 8.06465 19.0014 7.93689 18.9389 7.81207C18.9389 7.81194 18.9388 7.81194 18.9388 7.81174C18.3046 6.54593 14.5734 5.57422 10.0652 5.57422C5.55728 5.57422 1.82606 6.5458 1.19189 7.81167L1.19176 7.8118C1.12902 7.9367 1.09668 8.06451 1.09668 8.19453Z" fill="#F7F7F7"/>
<path d="M0.932617 8.38171V10.4084C0.932617 11.9862 5.02141 13.2652 10.0651 13.2652C15.1088 13.2652 19.1976 11.9862 19.1976 10.4084V8.38171C19.1976 8.73104 18.9782 9.06525 18.5785 9.37239C17.2523 10.3911 13.9407 11.1133 10.0651 11.1133C6.18954 11.1133 2.8779 10.3911 1.55168 9.37239C1.15199 9.06525 0.932617 8.7311 0.932617 8.38171Z" fill="url(#paint6_linear_363_8116)"/>
<path d="M0.932617 8.38178C0.932617 9.89031 5.02141 11.1133 10.0651 11.1133C15.1088 11.1133 19.1976 9.89031 19.1976 8.38178C19.1976 8.08083 19.0348 7.79112 18.7342 7.52038C18.9296 7.73557 19.0337 7.96146 19.0337 8.19454C19.0337 9.64166 15.0183 10.8147 10.0651 10.8147C5.11196 10.8147 1.0967 9.64166 1.0967 8.19454C1.0967 7.9612 1.20109 7.73497 1.39685 7.51965C1.09557 7.79073 0.932617 8.08063 0.932617 8.38178Z" fill="#EBEBEB"/>
<path d="M4.26952 8.65639C4.16593 8.53083 4.11117 8.39975 4.11117 8.26495C4.11117 7.32464 6.77699 6.56252 10.0652 6.56252C13.3535 6.56252 16.0192 7.32464 16.0192 8.26495C16.0192 8.39916 15.9649 8.52977 15.8622 8.65499C15.9914 8.51247 16.0601 8.36276 16.0601 8.20839C16.0601 7.2438 13.3761 6.46185 10.0652 6.46185C6.75436 6.46185 4.07031 7.2438 4.07031 8.20839C4.07031 8.36316 4.13951 8.51333 4.26952 8.65639Z" fill="#BD1C0E"/>
<path d="M4.11035 8.26498C4.11035 9.20515 6.77611 9.96734 10.0644 9.96734C13.3527 9.96734 16.0184 9.20522 16.0184 8.26498C16.0184 7.32474 13.3527 6.56262 10.0644 6.56262C6.77611 6.56262 4.11035 7.32481 4.11035 8.26498Z" fill="#EA2623"/>
<path d="M4.11035 8.26498C4.11035 9.20515 6.77604 9.96734 10.0643 9.96734C13.3526 9.96734 16.0183 9.20522 16.0183 8.26498C16.0183 7.32474 13.3526 6.56262 10.0643 6.56262C6.77604 6.56262 4.11035 7.32481 4.11035 8.26498Z" fill="url(#paint7_radial_363_8116)"/>
<path d="M0.932617 8.38176V10.4085C0.932617 10.9565 1.42592 11.4684 2.28093 11.9031V9.81099L2.50549 9.60492L2.50563 9.60479L4.6291 9.21581C5.02314 9.40671 5.68172 9.63952 6.62941 9.81851L5.3314 10.4203C5.32468 10.43 5.15129 10.6846 5.15129 10.6846V12.8167C6.56993 13.1007 8.25612 13.2651 10.0651 13.2651C10.1522 13.2651 10.239 13.2647 10.3255 13.2639V11.1123C10.3173 11.1123 10.3173 11.1123 10.3255 11.1122L10.2891 10.814C10.264 10.8141 10.264 10.8141 10.2891 10.8138L10.2222 10.1147H10.2296C11.15 10.1078 12.0957 10.0432 13.0094 9.90268L14.1202 10.5322C14.1243 10.5316 14.1282 10.531 14.1323 10.5304C14.1284 10.531 14.1244 10.5316 14.1204 10.5323L14.277 10.8061V12.9439C15.9019 12.6793 17.2405 12.2664 18.1091 11.7623V9.67625L17.8853 9.47823L15.676 9.12632C15.9619 8.97022 16.3181 8.71924 16.412 8.40911C16.4121 8.40898 16.4121 8.40878 16.4121 8.40851C16.4136 8.40405 16.415 8.39953 16.4163 8.39494C16.4163 8.39494 16.4163 8.39494 16.4163 8.39481C16.424 8.37012 16.4303 8.33898 16.4342 8.31296L19.0188 8.34683L19.182 8.54305C19.1834 8.53573 19.1848 8.52841 19.1858 8.52109C19.1868 8.5157 19.1877 8.51038 19.1885 8.50486C19.1892 8.4996 19.1899 8.49441 19.1906 8.48922C19.191 8.48603 19.1915 8.48283 19.1918 8.47971C19.1925 8.47432 19.1932 8.46893 19.1936 8.4634C19.1943 8.45655 19.1949 8.44983 19.1954 8.44311C19.1957 8.43912 19.196 8.43493 19.1961 8.43087C19.1971 8.4145 19.1976 8.3982 19.1976 8.38183C19.1976 8.08088 19.0348 7.79118 18.7342 7.52044C18.5069 7.27039 18.1563 7.03491 17.7026 6.82033L15.4674 7.22994H15.467C14.8674 6.94808 14.1355 6.76371 13.4843 6.64021L14.8948 5.98622C13.5007 5.72546 11.8433 5.57422 10.065 5.57422C9.97225 5.57422 9.87983 5.57469 9.78768 5.57555L9.86147 6.34738C8.97606 6.35503 8.00208 6.42251 7.11188 6.56044L5.89976 5.8733H5.89963C4.29821 6.11916 2.98237 6.50228 2.13548 6.96931L4.44972 7.33806C4.13286 7.51086 3.74974 7.78925 3.69638 8.14622L1.10109 8.11222L0.953776 8.19439C0.939736 8.25621 0.932617 8.31869 0.932617 8.38176ZM4.07019 8.2085C4.07019 7.24391 6.75424 6.46196 10.0651 6.46196C13.376 6.46196 16.06 7.24391 16.06 8.2085C16.06 8.36287 15.9912 8.51258 15.8621 8.6551C15.2452 9.40724 12.8839 9.96728 10.0651 9.96728C7.24761 9.96728 4.8872 9.40777 4.26913 8.65616C4.13925 8.51331 4.07019 8.36313 4.07019 8.2085Z" fill="#F63833"/>
<path d="M19.1975 8.34398C19.1975 9.87374 15.1088 11.1138 10.0651 11.1138C5.02141 11.1138 0.932617 9.87367 0.932617 8.34398C0.932617 6.81428 5.02141 5.57416 10.0651 5.57416C15.1088 5.57416 19.1975 6.81428 19.1975 8.34398Z" fill="url(#paint8_radial_363_8116)"/>
<path d="M19.1666 5.75031C19.1666 6.11008 18.9181 6.45321 18.4687 6.76534C17.1114 7.70844 13.9194 8.37049 10.1981 8.37049C6.4769 8.37049 3.28483 7.70844 1.92734 6.76534C1.47788 6.45321 1.22949 6.11015 1.22949 5.75031C1.22949 5.62043 1.2619 5.49268 1.32437 5.36786C1.32437 5.36772 1.32451 5.36772 1.32451 5.36759C1.95868 4.10178 5.68989 3.13 10.1981 3.13C14.706 3.13 18.4373 4.10158 19.0714 5.36746L19.0716 5.36759C19.1342 5.49248 19.1666 5.6203 19.1666 5.75031Z" fill="#F7F7F7"/>
<path d="M19.3324 5.93756V7.96429C19.3324 9.54202 15.2436 10.821 10.1999 10.821C5.15624 10.821 1.06738 9.54209 1.06738 7.96429V5.93756C1.06738 6.28695 1.28669 6.6211 1.68651 6.92824C3.01267 7.94699 6.3243 8.66912 10.1999 8.66912C14.0754 8.66912 17.3871 7.94699 18.7133 6.92824C19.113 6.62103 19.3324 6.28695 19.3324 5.93756Z" fill="url(#paint9_linear_363_8116)"/>
<path d="M19.3324 5.93763C19.3324 7.44616 15.2436 8.66919 10.1999 8.66919C5.15624 8.66919 1.06738 7.44616 1.06738 5.93763C1.06738 5.63668 1.2302 5.34697 1.53082 5.07623C1.33533 5.29142 1.2312 5.51731 1.2312 5.75039C1.2312 7.19751 5.24666 8.37057 10.1998 8.37057C15.153 8.37057 19.1683 7.19751 19.1683 5.75039C19.1683 5.51704 19.064 5.29082 18.8681 5.0755C19.1694 5.34651 19.3324 5.63641 19.3324 5.93763Z" fill="#EBEBEB"/>
<path d="M15.9956 6.2123C16.0992 6.08674 16.154 5.95566 16.154 5.82086C16.154 4.88055 13.4882 4.11843 10.2 4.11843C6.91162 4.11843 4.24593 4.88055 4.24593 5.82086C4.24593 5.95506 4.30023 6.08568 4.40296 6.2109C4.27381 6.06838 4.20508 5.91867 4.20508 5.7643C4.20508 4.79971 6.88906 4.01776 10.2 4.01776C13.5108 4.01776 16.1948 4.79971 16.1948 5.7643C16.1948 5.91913 16.1257 6.06931 15.9956 6.2123Z" fill="#BD1C0E"/>
<path d="M10.1991 7.52313C13.4874 7.52313 16.153 6.76095 16.153 5.82077C16.153 4.88058 13.4874 4.11841 10.1991 4.11841C6.9108 4.11841 4.24512 4.88058 4.24512 5.82077C4.24512 6.76095 6.9108 7.52313 10.1991 7.52313Z" fill="#EA2623"/>
<path d="M16.153 5.82077C16.153 6.76094 13.4874 7.52313 10.1991 7.52313C6.9108 7.52313 4.24512 6.76101 4.24512 5.82077C4.24512 4.88059 6.9108 4.11841 10.1991 4.11841C13.4874 4.11841 16.153 4.88059 16.153 5.82077Z" fill="url(#paint10_radial_363_8116)"/>
<path d="M19.311 5.75018L19.1637 5.66801L16.5684 5.70201C16.5151 5.34503 16.1319 5.06664 15.8151 4.89384L18.1294 4.52509C17.2824 4.05807 15.9666 3.67501 14.3652 3.42909H14.3651L13.153 4.11622C12.2628 3.97829 11.2888 3.91082 10.4034 3.90317L10.4772 3.1314C10.385 3.13054 10.2926 3.13 10.1998 3.13C8.42149 3.13 6.76418 3.28124 5.37009 3.542L6.78055 4.196C6.12928 4.31956 5.39744 4.50393 4.7978 4.78572H4.79754L2.56234 4.37612C2.10863 4.5907 1.75804 4.82618 1.53082 5.07622C1.2302 5.34703 1.06738 5.63673 1.06738 5.93762C1.06738 5.95398 1.06785 5.97029 1.06885 5.98665C1.06898 5.99071 1.06931 5.9949 1.06958 5.9989C1.07004 6.00555 1.07064 6.01234 1.07137 6.01919C1.07184 6.02471 1.07244 6.0301 1.07317 6.03549C1.07344 6.03862 1.0739 6.04188 1.07437 6.04501C1.07497 6.0502 1.0757 6.05539 1.07643 6.06064C1.07723 6.06617 1.0781 6.07149 1.07916 6.07688C1.08022 6.0842 1.08155 6.09152 1.08302 6.09884L1.24617 5.90262L3.83075 5.86875C3.83467 5.89477 3.84099 5.92597 3.84865 5.95066C3.84865 5.95079 3.84865 5.95079 3.84865 5.95079C3.84998 5.95545 3.85137 5.95991 3.85284 5.96436C3.85284 5.9647 3.85284 5.96483 3.85297 5.96496C3.94699 6.27509 4.3031 6.52607 4.58894 6.68217L2.3797 7.03409L2.15587 7.2321V9.31818C3.02445 9.82213 4.36311 10.2352 5.98802 10.4998V8.36197L6.14459 8.08817C6.14053 8.08744 6.13653 8.08684 6.13267 8.08624C6.13667 8.08684 6.14073 8.08744 6.14472 8.08804L7.25563 7.45853C8.16932 7.59912 9.11502 7.66366 10.0354 7.67058H10.0428L9.97581 8.36976C10.0008 8.37009 10.0008 8.37009 9.97581 8.36989L9.93941 8.66811C9.9476 8.66824 9.9476 8.66824 9.93941 8.66824V10.8199C10.0259 10.8207 10.1127 10.8211 10.1998 10.8211C12.0088 10.8211 13.695 10.6566 15.1136 10.3727V8.24048C15.1136 8.24048 14.9402 7.98577 14.9334 7.97605L13.6354 7.37429C14.5831 7.19531 15.2417 6.96249 15.6357 6.77159L17.7592 7.16057L17.7594 7.16071L17.9839 7.36677V9.45884C18.8389 9.02415 19.3322 8.51228 19.3322 7.96428V5.93755C19.3322 5.87454 19.325 5.81206 19.311 5.75018ZM15.9956 6.21195C15.3776 6.96362 13.0172 7.52307 10.1997 7.52307C7.38092 7.52307 5.01957 6.96302 4.4027 6.21088C4.27355 6.06836 4.20482 5.91865 4.20482 5.76428C4.20482 4.79969 6.88881 4.01775 10.1997 4.01775C13.5105 4.01775 16.1946 4.79969 16.1946 5.76428C16.1946 5.91892 16.1255 6.06909 15.9956 6.21195Z" fill="#F63833"/>
<path d="M15.8452 6.04544C15.7791 6.22064 15.6197 6.38778 15.3823 6.54228H15.3822L14.9365 6.48519C15.1616 6.3444 15.3173 6.19183 15.391 6.03174L15.8452 6.04544Z" fill="#EEEDEC"/>
<path d="M15.8483 5.6817L15.4249 5.69634C15.3817 5.53159 15.2521 5.37423 15.0498 5.22785L15.3881 5.1828H15.3883C15.6257 5.33783 15.784 5.50571 15.8483 5.6817Z" fill="#EEEDEC"/>
<path d="M1.06738 5.89982C1.06738 7.42952 5.15611 8.66964 10.1998 8.66964C15.2436 8.66964 19.3323 7.42952 19.3323 5.89982C19.3323 4.37006 15.2435 3.13 10.1998 3.13C5.15611 3.12994 1.06738 4.37006 1.06738 5.89982Z" fill="url(#paint11_radial_363_8116)"/>
<path d="M1.12598 3.17445C1.12598 3.53428 1.37436 3.87735 1.82382 4.18947C3.18118 5.13258 6.37318 5.79462 10.0944 5.79462C13.8157 5.79462 17.0077 5.13258 18.3652 4.18947C18.8147 3.87735 19.0631 3.53428 19.0631 3.17445C19.0631 3.04457 19.0307 2.91681 18.9682 2.79199C18.9682 2.79186 18.9681 2.79186 18.9681 2.79172C18.3339 1.52592 14.6027 0.554138 10.0945 0.554138C5.58658 0.554138 1.85529 1.52572 1.22119 2.79159L1.22106 2.79172C1.15831 2.91668 1.12598 3.04443 1.12598 3.17445Z" fill="#F7F7F7"/>
<path d="M0.961914 3.36176V5.38849C0.961914 6.96622 5.0507 8.2452 10.0944 8.2452C15.1382 8.2452 19.227 6.96629 19.227 5.38849V3.36176C19.227 3.71114 19.0076 4.04529 18.6078 4.35243C17.2817 5.37119 13.97 6.09332 10.0944 6.09332C6.2189 6.09332 2.90727 5.37119 1.58104 4.35243C1.18129 4.04529 0.961914 3.71114 0.961914 3.36176Z" fill="url(#paint12_linear_363_8116)"/>
<path d="M0.961914 3.36176C0.961914 4.87029 5.0507 6.09332 10.0944 6.09332C15.1382 6.09332 19.227 4.87029 19.227 3.36176C19.227 3.06081 19.0641 2.77117 18.7635 2.50037C18.959 2.71555 19.0631 2.94144 19.0631 3.17452C19.0631 4.62164 15.0477 5.7947 10.0945 5.7947C5.14132 5.7947 1.12606 4.62164 1.12606 3.17452C1.12606 2.94118 1.23046 2.71495 1.42621 2.49963C1.12486 2.77071 0.961914 3.06054 0.961914 3.36176Z" fill="#EBEBEB"/>
<path d="M4.29889 3.63643C4.19529 3.51087 4.14053 3.3798 4.14053 3.24499C4.14053 2.30468 6.80635 1.54257 10.0946 1.54257C13.3829 1.54257 16.0486 2.30468 16.0486 3.24499C16.0486 3.3792 15.9943 3.50981 15.8916 3.63503C16.0207 3.49251 16.0894 3.3428 16.0894 3.18843C16.0894 2.22384 13.4053 1.44189 10.0945 1.44189C6.78366 1.44189 4.09961 2.22384 4.09961 3.18843C4.09968 3.34327 4.16887 3.49344 4.29889 3.63643Z" fill="#BD1C0E"/>
<path d="M10.0956 4.94732C13.3839 4.94732 16.0495 4.18515 16.0495 3.24496C16.0495 2.30478 13.3839 1.5426 10.0956 1.5426C6.80728 1.5426 4.1416 2.30478 4.1416 3.24496C4.1416 4.18515 6.80728 4.94732 10.0956 4.94732Z" fill="#EA2623"/>
<path d="M10.0956 4.94732C13.3839 4.94732 16.0495 4.18515 16.0495 3.24496C16.0495 2.30478 13.3839 1.5426 10.0956 1.5426C6.80728 1.5426 4.1416 2.30478 4.1416 3.24496C4.1416 4.18515 6.80728 4.94732 10.0956 4.94732Z" fill="url(#paint13_radial_363_8116)"/>
<path d="M0.961914 3.36174V5.38847C0.961914 5.93647 1.45522 6.44835 2.31023 6.88304V4.79097L2.53479 4.5849L2.53492 4.58477L4.6584 4.19579C5.05243 4.38668 5.71102 4.6195 6.65871 4.79849L5.3607 5.40032C5.35398 5.41003 5.18058 5.66467 5.18058 5.66467V7.79679C6.59923 8.08071 8.28542 8.24519 10.0944 8.24519C10.1815 8.24519 10.2683 8.24479 10.3548 8.24399V6.09231C10.3466 6.09231 10.3466 6.0923 10.3548 6.09217L10.3184 5.79395C10.2933 5.79408 10.2933 5.79408 10.3184 5.79382L10.2515 5.09464H10.2589C11.1793 5.08779 12.125 5.02318 13.0386 4.88259L14.1495 5.5121C14.1536 5.5115 14.1575 5.5109 14.1616 5.51037C14.1577 5.51097 14.1537 5.51157 14.1497 5.5123L14.3063 5.7861V7.92388C15.9311 7.65939 17.2698 7.24633 18.1384 6.74231V4.65623L17.9146 4.45821L15.7053 4.1063C15.9912 3.9502 16.3474 3.69929 16.4414 3.38909C16.4415 3.38896 16.4415 3.38876 16.4415 3.38849C16.443 3.38403 16.4444 3.37958 16.4457 3.37492C16.4457 3.37492 16.4457 3.37492 16.4457 3.37478C16.4533 3.3501 16.4597 3.31896 16.4636 3.29294L19.0482 3.32681L19.2113 3.52303C19.2128 3.51571 19.2141 3.50839 19.2152 3.50107C19.2162 3.49568 19.2171 3.49036 19.2178 3.48484C19.2186 3.47958 19.2193 3.47439 19.22 3.4692C19.2204 3.46607 19.2209 3.46281 19.2212 3.45969C19.2219 3.4543 19.2225 3.44891 19.223 3.44339C19.2237 3.43653 19.2243 3.42981 19.2248 3.42309C19.225 3.41903 19.2254 3.41491 19.2255 3.41085C19.2265 3.39448 19.227 3.37818 19.227 3.36181C19.227 3.06086 19.0641 2.77122 18.7635 2.50042C18.5363 2.25037 18.1857 2.01489 17.7319 1.80031L15.4967 2.20992H15.4964C14.8968 1.92806 14.1649 1.74369 13.5137 1.62019L14.9242 0.966198C13.5302 0.705438 11.8727 0.554199 10.0944 0.554199C10.0017 0.554199 9.90926 0.554665 9.81711 0.555596L9.8909 1.32736C9.00548 1.33502 8.03151 1.40248 7.14131 1.54042L5.9292 0.853284H5.92906C4.32764 1.09914 3.0118 1.48226 2.16491 1.94929L4.47915 2.31804C4.1623 2.49084 3.77917 2.76923 3.72581 3.1262L1.13052 3.0922L0.983204 3.17437C0.969032 3.23619 0.961914 3.29873 0.961914 3.36174ZM4.09948 3.18848C4.09948 2.22389 6.78354 1.44194 10.0944 1.44194C13.4052 1.44194 16.0893 2.22389 16.0893 3.18848C16.0893 3.34285 16.0205 3.49256 15.8914 3.63508C15.2745 4.38722 12.9132 4.94726 10.0944 4.94726C7.27691 4.94726 4.9165 4.38782 4.29836 3.63614C4.16855 3.49329 4.09948 3.34311 4.09948 3.18848Z" fill="#F63833"/>
<path d="M14.9785 2.67716C15.1697 2.82255 15.2894 2.97851 15.3248 3.14133L15.7509 3.12849C15.6954 2.95416 15.5477 2.78762 15.3224 2.63312L14.9785 2.67716Z" fill="#EEEDEC"/>
<defs>
<radialGradient id="paint0_radial_363_8116" cx="0" cy="0" r="1" gradientUnits="userSpaceOnUse" gradientTransform="translate(10.362 16.0006) scale(9.13263 2.76977)">
<stop offset="0.1372" stop-color="#866767"/>
<stop offset="0.4788" stop-color="#886969"/>
<stop offset="0.6091" stop-color="#8D7070"/>
<stop offset="0.7034" stop-color="#977C7C"/>
<stop offset="0.7803" stop-color="#A48D8D"/>
<stop offset="0.8466" stop-color="#B6A3A3"/>
<stop offset="0.9055" stop-color="#CCBFBF"/>
<stop offset="0.9577" stop-color="#E5DFDF"/>
<stop offset="1" stop-color="white"/>
</radialGradient>
<radialGradient id="paint1_radial_363_8116" cx="0" cy="0" r="1" gradientUnits="userSpaceOnUse" gradientTransform="translate(10.0956 13.4641) scale(5.95412 1.70233)">
<stop offset="0.8333" stop-color="white"/>
<stop offset="0.9191" stop-color="#FDFDFD"/>
<stop offset="0.9501" stop-color="#F7F6F7"/>
<stop offset="0.9721" stop-color="#EBEBEB"/>
<stop offset="0.9898" stop-color="#DBDADB"/>
<stop offset="1" stop-color="#CDCCCD"/>
</radialGradient>
<radialGradient id="paint2_radial_363_8116" cx="0" cy="0" r="1" gradientUnits="userSpaceOnUse" gradientTransform="translate(10.0944 13.543) rotate(180) scale(9.13263 2.76977)">
<stop offset="0.1372" stop-color="#866767"/>
<stop offset="0.4788" stop-color="#886969"/>
<stop offset="0.6091" stop-color="#8D7070"/>
<stop offset="0.7034" stop-color="#977C7C"/>
<stop offset="0.7803" stop-color="#A48D8D"/>
<stop offset="0.8466" stop-color="#B6A3A3"/>
<stop offset="0.9055" stop-color="#CCBFBF"/>
<stop offset="0.9577" stop-color="#E5DFDF"/>
<stop offset="1" stop-color="white"/>
</radialGradient>
<linearGradient id="paint3_linear_363_8116" x1="0.961961" y1="13.4202" x2="19.227" y2="13.4202" gradientUnits="userSpaceOnUse">
<stop stop-color="#F3F3F3"/>
<stop offset="0.2192" stop-color="#A5A5A5"/>
<stop offset="0.5628" stop-color="#9A9A9A"/>
<stop offset="0.8294" stop-color="#A5A3A4"/>
<stop offset="1" stop-color="#F5F5F5"/>
</linearGradient>
<radialGradient id="paint4_radial_363_8116" cx="0" cy="0" r="1" gradientUnits="userSpaceOnUse" gradientTransform="translate(10.0956 10.8617) scale(5.95408 1.70232)">
<stop offset="0.8333" stop-color="white"/>
<stop offset="0.9191" stop-color="#FDFDFD"/>
<stop offset="0.9501" stop-color="#F7F6F7"/>
<stop offset="0.9721" stop-color="#EBEBEB"/>
<stop offset="0.9898" stop-color="#DBDADB"/>
<stop offset="1" stop-color="#CDCCCD"/>
</radialGradient>
<radialGradient id="paint5_radial_363_8116" cx="0" cy="0" r="1" gradientUnits="userSpaceOnUse" gradientTransform="translate(10.0944 10.9408) rotate(180) scale(9.13263 2.76977)">
<stop offset="0.1372" stop-color="#866767"/>
<stop offset="0.4788" stop-color="#886969"/>
<stop offset="0.6091" stop-color="#8D7070"/>
<stop offset="0.7034" stop-color="#977C7C"/>
<stop offset="0.7803" stop-color="#A48D8D"/>
<stop offset="0.8466" stop-color="#B6A3A3"/>
<stop offset="0.9055" stop-color="#CCBFBF"/>
<stop offset="0.9577" stop-color="#E5DFDF"/>
<stop offset="1" stop-color="white"/>
</radialGradient>
<linearGradient id="paint6_linear_363_8116" x1="19.1976" y1="10.8234" x2="0.932604" y2="10.8234" gradientUnits="userSpaceOnUse">
<stop stop-color="#F5F5F5"/>
<stop offset="0.1706" stop-color="#A5A3A4"/>
<stop offset="0.4372" stop-color="#9A9A9A"/>
<stop offset="0.7808" stop-color="#A5A5A5"/>
<stop offset="1" stop-color="#F3F3F3"/>
</linearGradient>
<radialGradient id="paint7_radial_363_8116" cx="0" cy="0" r="1" gradientUnits="userSpaceOnUse" gradientTransform="translate(10.0643 8.26495) rotate(180) scale(5.95407 1.70232)">
<stop offset="0.8333" stop-color="white"/>
<stop offset="0.9191" stop-color="#FDFDFD"/>
<stop offset="0.9501" stop-color="#F7F6F7"/>
<stop offset="0.9721" stop-color="#EBEBEB"/>
<stop offset="0.9898" stop-color="#DBDADB"/>
<stop offset="1" stop-color="#CDCCCD"/>
</radialGradient>
<radialGradient id="paint8_radial_363_8116" cx="0" cy="0" r="1" gradientUnits="userSpaceOnUse" gradientTransform="translate(10.0651 8.34399) scale(9.13263 2.76977)">
<stop offset="0.1372" stop-color="#866767"/>
<stop offset="0.4788" stop-color="#886969"/>
<stop offset="0.6091" stop-color="#8D7070"/>
<stop offset="0.7034" stop-color="#977C7C"/>
<stop offset="0.7803" stop-color="#A48D8D"/>
<stop offset="0.8466" stop-color="#B6A3A3"/>
<stop offset="0.9055" stop-color="#CCBFBF"/>
<stop offset="0.9577" stop-color="#E5DFDF"/>
<stop offset="1" stop-color="white"/>
</radialGradient>
<linearGradient id="paint9_linear_363_8116" x1="1.06739" y1="8.37924" x2="19.3323" y2="8.37924" gradientUnits="userSpaceOnUse">
<stop stop-color="#F3F3F3"/>
<stop offset="0.2192" stop-color="#A5A5A5"/>
<stop offset="0.5628" stop-color="#9A9A9A"/>
<stop offset="0.8294" stop-color="#A5A3A4"/>
<stop offset="1" stop-color="#F5F5F5"/>
</linearGradient>
<radialGradient id="paint10_radial_363_8116" cx="0" cy="0" r="1" gradientUnits="userSpaceOnUse" gradientTransform="translate(10.1991 5.82077) scale(5.95407 1.70232)">
<stop offset="0.8333" stop-color="white"/>
<stop offset="0.9191" stop-color="#FDFDFD"/>
<stop offset="0.9501" stop-color="#F7F6F7"/>
<stop offset="0.9721" stop-color="#EBEBEB"/>
<stop offset="0.9898" stop-color="#DBDADB"/>
<stop offset="1" stop-color="#CDCCCD"/>
</radialGradient>
<radialGradient id="paint11_radial_363_8116" cx="0" cy="0" r="1" gradientUnits="userSpaceOnUse" gradientTransform="translate(10.1998 5.89978) rotate(180) scale(9.13263 2.76977)">
<stop offset="0.1372" stop-color="#866767"/>
<stop offset="0.4788" stop-color="#886969"/>
<stop offset="0.6091" stop-color="#8D7070"/>
<stop offset="0.7034" stop-color="#977C7C"/>
<stop offset="0.7803" stop-color="#A48D8D"/>
<stop offset="0.8466" stop-color="#B6A3A3"/>
<stop offset="0.9055" stop-color="#CCBFBF"/>
<stop offset="0.9577" stop-color="#E5DFDF"/>
<stop offset="1" stop-color="white"/>
</radialGradient>
<linearGradient id="paint12_linear_363_8116" x1="19.2269" y1="5.80347" x2="0.96188" y2="5.80347" gradientUnits="userSpaceOnUse">
<stop stop-color="#F3F3F3"/>
<stop offset="0.2192" stop-color="#A5A5A5"/>
<stop offset="0.5628" stop-color="#9A9A9A"/>
<stop offset="0.8294" stop-color="#A5A3A4"/>
<stop offset="1" stop-color="#F5F5F5"/>
</linearGradient>
<radialGradient id="paint13_radial_363_8116" cx="0" cy="0" r="1" gradientUnits="userSpaceOnUse" gradientTransform="translate(10.0955 3.24494) rotate(180) scale(5.95412 1.70233)">
<stop offset="0.8333" stop-color="white"/>
<stop offset="0.9191" stop-color="#FDFDFD"/>
<stop offset="0.9501" stop-color="#F7F6F7"/>
<stop offset="0.9721" stop-color="#EBEBEB"/>
<stop offset="0.9898" stop-color="#DBDADB"/>
<stop offset="1" stop-color="#CDCCCD"/>
</radialGradient>
</defs>
</svg>
