<svg width="48" height="49" viewBox="0 0 48 49" fill="none" xmlns="http://www.w3.org/2000/svg">
<rect y="0.36792" width="48" height="48" rx="12" fill="#161922"/>
<path d="M23.2515 23.6179C23.4504 23.6179 23.6412 23.6969 23.7819 23.8376C23.9225 23.9782 24.0015 24.169 24.0015 24.3679C24.0015 24.5668 23.9225 24.7576 23.7819 24.8982C23.6412 25.0389 23.4504 25.1179 23.2515 25.1179H12.2785L14.2395 26.7979C14.3907 26.9273 14.4843 27.1115 14.4997 27.3099C14.515 27.5083 14.451 27.7047 14.3215 27.8559C14.1921 28.0071 14.0079 28.1007 13.8095 28.116C13.6111 28.1314 13.4147 28.0673 13.2635 27.9379L9.76353 24.9379C9.6812 24.8675 9.6151 24.7801 9.56977 24.6817C9.52445 24.5833 9.50098 24.4763 9.50098 24.3679C9.50098 24.2596 9.52445 24.1525 9.56977 24.0541C9.6151 23.9557 9.6812 23.8683 9.76353 23.7979L13.2635 20.7979C13.3384 20.7338 13.4251 20.6851 13.5188 20.6546C13.6125 20.624 13.7113 20.6122 13.8095 20.6198C13.9078 20.6274 14.0035 20.6543 14.0914 20.6989C14.1792 20.7436 14.2574 20.8051 14.3215 20.8799C14.3856 20.9548 14.4343 21.0415 14.4649 21.1352C14.4955 21.2289 14.5073 21.3277 14.4997 21.4259C14.492 21.5241 14.4651 21.6199 14.4205 21.7078C14.3759 21.7956 14.3144 21.8738 14.2395 21.9379L12.2795 23.6179H23.2515Z" fill="#FF0000"/>
<path d="M30.695 13.6179C29.328 13.6179 28.225 13.6179 27.358 13.7349C26.458 13.8549 25.7 14.1149 25.098 14.7159C24.574 15.2409 24.308 15.8859 24.169 16.6439C24.034 17.3809 24.008 18.2819 24.002 19.3639C24.0009 19.5628 24.0789 19.754 24.2188 19.8954C24.3587 20.0368 24.5491 20.1169 24.748 20.1179C24.9469 20.119 25.1381 20.041 25.2795 19.9011C25.4209 19.7612 25.5009 19.5708 25.502 19.3719C25.508 18.2789 25.536 17.5039 25.644 16.9149C25.749 16.3489 25.916 16.0199 26.159 15.7769C26.436 15.4999 26.825 15.3199 27.559 15.2209C28.314 15.1199 29.315 15.1179 30.75 15.1179H31.75C33.186 15.1179 34.187 15.1199 34.942 15.2209C35.676 15.3199 36.064 15.5009 36.342 15.7769C36.618 16.0539 36.798 16.4419 36.897 17.1769C36.999 17.9309 37 18.9329 37 20.3679V28.3679C37 29.8029 36.999 30.8039 36.897 31.5599C36.798 32.2939 36.618 32.6819 36.341 32.9589C36.064 33.2359 35.676 33.4159 34.942 33.5149C34.187 33.6159 33.186 33.6179 31.75 33.6179H30.75C29.315 33.6179 28.314 33.6159 27.558 33.5149C26.825 33.4159 26.436 33.2349 26.159 32.9589C25.916 32.7149 25.749 32.3869 25.644 31.8209C25.536 31.2319 25.508 30.4569 25.502 29.3639C25.5014 29.2654 25.4815 29.168 25.4433 29.0772C25.4052 28.9864 25.3495 28.904 25.2795 28.8348C25.2095 28.7655 25.1265 28.7107 25.0353 28.6735C24.9441 28.6363 24.8465 28.6174 24.748 28.6179C24.6495 28.6184 24.552 28.6384 24.4613 28.6765C24.3705 28.7147 24.2881 28.7704 24.2188 28.8404C24.1495 28.9104 24.0947 28.9934 24.0575 29.0846C24.0203 29.1758 24.0014 29.2734 24.002 29.3719C24.008 30.4539 24.034 31.3549 24.169 32.0919C24.309 32.8499 24.574 33.4949 25.099 34.0199C25.7 34.6219 26.459 34.8799 27.359 35.0019C28.225 35.1179 29.328 35.1179 30.695 35.1179H31.805C33.173 35.1179 34.275 35.1179 35.142 35.0019C36.042 34.8799 36.8 34.6219 37.402 34.0199C38.004 33.4179 38.262 32.6599 38.384 31.7599C38.5 30.8929 38.5 29.7899 38.5 28.4229V20.3129C38.5 18.9459 38.5 17.8429 38.384 16.9759C38.263 16.0759 38.004 15.3179 37.402 14.7159C36.8 14.1139 36.042 13.8559 35.142 13.7349C34.275 13.6179 33.172 13.6179 31.805 13.6179H30.695Z" fill="#FF0000"/>
</svg>
