<svg width="17" height="17" viewBox="0 0 17 17" fill="none" xmlns="http://www.w3.org/2000/svg">
<path d="M1.90411 11.2069C2.09164 11.3944 2.34595 11.4997 2.61111 11.4997C2.87628 11.4997 3.13059 11.3944 3.31811 11.2069L8.26811 6.25693L13.2181 11.2069C13.4067 11.3891 13.6593 11.4899 13.9215 11.4876C14.1837 11.4853 14.4345 11.3802 14.6199 11.1947C14.8053 11.0093 14.9105 10.7585 14.9128 10.4963C14.9151 10.2341 14.8143 9.98153 14.6321 9.79293L8.97511 4.13593C8.78759 3.94845 8.53328 3.84314 8.26811 3.84314C8.00295 3.84314 7.74864 3.94845 7.56111 4.13593L1.90411 9.79293C1.71664 9.98045 1.61133 10.2348 1.61133 10.4999C1.61133 10.7651 1.71664 11.0194 1.90411 11.2069Z" fill="#178D25"/>
</svg>
