<svg width="15" height="16" viewBox="0 0 15 16" fill="none" xmlns="http://www.w3.org/2000/svg">
<rect x="0.692383" y="0.971985" width="14.0568" height="14.0568" rx="7.02838" fill="#FFD000"/>
<path d="M6.13528 4.27329C6.02548 4.38313 5.9638 4.53207 5.9638 4.68738C5.9638 4.84269 6.02548 4.99163 6.13528 5.10147L9.03449 8.00068L6.13528 10.8999C6.02859 11.0104 5.96956 11.1583 5.97089 11.3119C5.97223 11.4654 6.03382 11.6123 6.14242 11.7209C6.25101 11.8295 6.39791 11.8911 6.55148 11.8925C6.70505 11.8938 6.853 11.8348 6.96346 11.7281L10.2768 8.41477C10.3866 8.30493 10.4482 8.15598 10.4482 8.00068C10.4482 7.84537 10.3866 7.69642 10.2768 7.58659L6.96346 4.27329C6.85363 4.16349 6.70468 4.10181 6.54937 4.10181C6.39406 4.10181 6.24512 4.16349 6.13528 4.27329Z" fill="#998220"/>
</svg>
