<svg width="41" height="41" viewBox="0 0 41 41" fill="none" xmlns="http://www.w3.org/2000/svg">
<rect x="0.5" y="0.36792" width="40" height="40" rx="20" fill="#1E84F0"/>
<path fill-rule="evenodd" clip-rule="evenodd" d="M14.1175 10.6129C14.2668 10.4833 14.4511 10.4008 14.6473 10.3758C14.8434 10.3509 15.0426 10.3847 15.2195 10.4729L33.2195 19.4729C33.3859 19.5559 33.5259 19.6836 33.6238 19.8416C33.7216 19.9997 33.7734 20.182 33.7734 20.3679C33.7734 20.5539 33.7216 20.7361 33.6238 20.8942C33.5259 21.0523 33.3859 21.18 33.2195 21.2629L15.2195 30.2629C15.0426 30.3515 14.8434 30.3855 14.6471 30.3608C14.4508 30.3361 14.2662 30.2537 14.1168 30.124C13.9673 29.9944 13.8597 29.8233 13.8075 29.6325C13.7553 29.4416 13.7608 29.2396 13.8235 29.0519L16.3855 21.3679H21.7725C22.0377 21.3679 22.2921 21.2626 22.4796 21.075C22.6672 20.8875 22.7725 20.6331 22.7725 20.3679C22.7725 20.1027 22.6672 19.8484 22.4796 19.6608C22.2921 19.4733 22.0377 19.3679 21.7725 19.3679H16.3855L13.8225 11.6839C13.7602 11.4963 13.7548 11.2945 13.8072 11.1039C13.8595 10.9132 13.9681 10.7424 14.1175 10.6129Z" fill="white"/>
</svg>
