<svg width="48" height="49" viewBox="0 0 48 49" fill="none" xmlns="http://www.w3.org/2000/svg">
<rect y="0.36792" width="48" height="48" rx="24" fill="#161922"/>
<path fill-rule="evenodd" clip-rule="evenodd" d="M25.8745 18.951C25.8746 18.3182 26.0962 17.7055 26.5009 17.2191C26.9056 16.7326 27.4678 16.4033 28.09 16.2881C28.7122 16.173 29.3551 16.2794 29.9071 16.5887C30.459 16.8981 30.8853 17.391 31.1117 17.9818C31.3382 18.5727 31.3507 19.2242 31.147 19.8232C30.9433 20.4223 30.5362 20.9311 29.9965 21.2614C29.4568 21.5917 28.8184 21.7225 28.1923 21.6313C27.5661 21.54 26.9917 21.2324 26.5687 20.7618L24.3045 21.9968L21.7712 23.4443C22.1254 24.0677 22.2182 24.806 22.0295 25.4977L26.5687 27.9735C27.0128 27.4801 27.6226 27.167 28.2824 27.0936C28.9421 27.0202 29.6059 27.1917 30.1475 27.5755C30.6891 27.9593 31.071 28.5286 31.2205 29.1754C31.37 29.8222 31.2767 30.5013 30.9585 31.0839C30.6402 31.6664 30.119 32.1118 29.494 32.3354C28.869 32.559 28.1836 32.5453 27.568 32.2968C26.9524 32.0483 26.4496 31.5824 26.1549 30.9876C25.8602 30.3928 25.7942 29.7104 25.9695 29.0702L21.4304 26.5952C21.0844 26.9799 20.6355 27.2576 20.1367 27.3952C19.6379 27.5328 19.1102 27.5247 18.6159 27.3718C18.1216 27.2188 17.6814 26.9275 17.3475 26.5323C17.0136 26.137 16.7999 25.6544 16.7317 25.1415C16.6634 24.6286 16.7436 24.1069 16.9626 23.6381C17.1816 23.1693 17.5303 22.7731 17.9674 22.4963C18.4045 22.2194 18.9118 22.0736 19.4292 22.0761C19.9467 22.0786 20.4525 22.2292 20.887 22.5102L23.6954 20.9052L25.9695 19.6643C25.9063 19.4318 25.8744 19.1919 25.8745 18.951ZM28.5829 17.4927C28.1961 17.4927 27.8251 17.6463 27.5517 17.9198C27.2782 18.1933 27.1245 18.5642 27.1245 18.951C27.1245 19.3378 27.2782 19.7087 27.5517 19.9822C27.8251 20.2557 28.1961 20.4093 28.5829 20.4093C28.9696 20.4093 29.3406 20.2557 29.614 19.9822C29.8875 19.7087 30.0412 19.3378 30.0412 18.951C30.0412 18.5642 29.8875 18.1933 29.614 17.9198C29.3406 17.6463 28.9696 17.4927 28.5829 17.4927ZM19.4162 23.326C19.0294 23.326 18.6585 23.4797 18.385 23.7531C18.1115 24.0266 17.9579 24.3976 17.9579 24.7843C17.9579 25.1711 18.1115 25.542 18.385 25.8155C18.6585 26.089 19.0294 26.2427 19.4162 26.2427C19.803 26.2427 20.1739 26.089 20.4474 25.8155C20.7209 25.542 20.8745 25.1711 20.8745 24.7843C20.8745 24.3976 20.7209 24.0266 20.4474 23.7531C20.1739 23.4797 19.803 23.326 19.4162 23.326ZM27.1245 29.7843C27.1245 29.3976 27.2782 29.0266 27.5517 28.7531C27.8251 28.4797 28.1961 28.326 28.5829 28.326C28.9696 28.326 29.3406 28.4797 29.614 28.7531C29.8875 29.0266 30.0412 29.3976 30.0412 29.7843C30.0412 30.1711 29.8875 30.542 29.614 30.8155C29.3406 31.089 28.9696 31.2427 28.5829 31.2427C28.1961 31.2427 27.8251 31.089 27.5517 30.8155C27.2782 30.542 27.1245 30.1711 27.1245 29.7843Z" fill="white"/>
</svg>
