<svg width="1809" height="812" viewBox="0 0 1809 812" fill="none" xmlns="http://www.w3.org/2000/svg">
<path d="M1.33203 386.868C1.33203 181.823 167.555 15.6012 372.6 15.6031L881.486 15.6078L1404.22 15.603C1609.26 15.6011 1775.49 181.822 1775.49 386.868V425.531C1775.49 630.576 1609.26 796.798 1404.22 796.796L896.156 796.79L372.6 796.796C167.555 796.798 1.33203 630.576 1.33203 425.531V386.868Z" fill="#1C202B"/>
<g clip-path="url(#clip0_3320_22297)">
<path d="M903.467 409.219L968.651 780.332H838.49L903.467 409.219Z" fill="url(#paint0_linear_3320_22297)"/>
<path d="M904 408.98L1883.5 315.017V502.944L904 408.98Z" fill="url(#paint1_linear_3320_22297)"/>
<path d="M904.077 408.1L1392.66 -33.6856L1486.32 100.081L904.077 408.1Z" fill="url(#paint2_linear_3320_22297)"/>
<path d="M903.5 409.482L827 52.4824L980 52.4824L903.5 409.482Z" fill="url(#paint3_linear_3320_22297)"/>
<path d="M905.079 412.461L336.833 128.489L443.881 -24.3916L905.079 412.461Z" fill="url(#paint4_linear_3320_22297)"/>
<path d="M900.865 412.857L11.7655 503.21L-13.3429 411.983L13.1639 309.667L900.865 412.857Z" fill="url(#paint5_linear_3320_22297)"/>
<path d="M902.047 411.923L477.845 918.32L351.669 777.258L902.047 411.923Z" fill="url(#paint6_linear_3320_22297)"/>
<path d="M901.957 408.509L1441.46 811.024L1328.95 928.853L901.957 408.509Z" fill="url(#paint7_linear_3320_22297)"/>
</g>
<g filter="url(#filter0_d_3320_22297)">
<path d="M1789.24 371.266V432.734C1789.24 627.285 1631.52 785 1436.97 784.999L912.014 784.998L371.265 784.999C176.715 785 19 627.285 19 432.735V371.267C19 176.715 176.715 19.0009 371.266 19.002L887.696 19.0047L1436.97 19.0019C1631.52 19.0009 1789.24 176.715 1789.24 371.266Z" stroke="#2C3240" stroke-width="38" shape-rendering="crispEdges"/>
</g>
<defs>
<filter id="filter0_d_3320_22297" x="0" y="0.00195312" width="1808.23" height="811.423" filterUnits="userSpaceOnUse" color-interpolation-filters="sRGB">
<feFlood flood-opacity="0" result="BackgroundImageFix"/>
<feColorMatrix in="SourceAlpha" type="matrix" values="0 0 0 0 0 0 0 0 0 0 0 0 0 0 0 0 0 0 127 0" result="hardAlpha"/>
<feOffset dy="7.42529"/>
<feComposite in2="hardAlpha" operator="out"/>
<feColorMatrix type="matrix" values="0 0 0 0 0.131723 0 0 0 0 0.14826 0 0 0 0 0.186847 0 0 0 1 0"/>
<feBlend mode="normal" in2="BackgroundImageFix" result="effect1_dropShadow_3320_22297"/>
<feBlend mode="normal" in="SourceGraphic" in2="effect1_dropShadow_3320_22297" result="shape"/>
</filter>
<linearGradient id="paint0_linear_3320_22297" x1="913.931" y1="294.308" x2="947.553" y2="728.486" gradientUnits="userSpaceOnUse">
<stop stop-color="white" stop-opacity="0.05"/>
<stop offset="1" stop-color="white" stop-opacity="0"/>
</linearGradient>
<linearGradient id="paint1_linear_3320_22297" x1="572.914" y1="394.022" x2="1726.58" y2="227.168" gradientUnits="userSpaceOnUse">
<stop stop-color="white" stop-opacity="0.05"/>
<stop offset="1" stop-color="white" stop-opacity="0"/>
</linearGradient>
<linearGradient id="paint2_linear_3320_22297" x1="715.643" y1="524.175" x2="1302.15" y2="8.23249" gradientUnits="userSpaceOnUse">
<stop stop-color="white" stop-opacity="0.05"/>
<stop offset="1" stop-color="white" stop-opacity="0"/>
</linearGradient>
<linearGradient id="paint3_linear_3320_22297" x1="891.322" y1="503.936" x2="863.644" y2="76.4539" gradientUnits="userSpaceOnUse">
<stop stop-color="white" stop-opacity="0.05"/>
<stop offset="1" stop-color="white" stop-opacity="0"/>
</linearGradient>
<linearGradient id="paint4_linear_3320_22297" x1="1070.54" y1="546.455" x2="416.832" y2="174.15" gradientUnits="userSpaceOnUse">
<stop stop-color="white" stop-opacity="0.05"/>
<stop offset="1" stop-color="white" stop-opacity="0"/>
</linearGradient>
<linearGradient id="paint5_linear_3320_22297" x1="1201.05" y1="430.431" x2="148.879" y2="556.73" gradientUnits="userSpaceOnUse">
<stop stop-color="white" stop-opacity="0.05"/>
<stop offset="1" stop-color="white" stop-opacity="0"/>
</linearGradient>
<linearGradient id="paint6_linear_3320_22297" x1="1076.8" y1="275.822" x2="545.976" y2="850.812" gradientUnits="userSpaceOnUse">
<stop stop-color="white" stop-opacity="0.05"/>
<stop offset="1" stop-color="white" stop-opacity="0"/>
</linearGradient>
<linearGradient id="paint7_linear_3320_22297" x1="747.566" y1="243.16" x2="1383.56" y2="725.627" gradientUnits="userSpaceOnUse">
<stop stop-color="white" stop-opacity="0.05"/>
<stop offset="1" stop-color="white" stop-opacity="0"/>
</linearGradient>
<clipPath id="clip0_3320_22297">
<rect width="1808" height="781.949" fill="white" transform="translate(1)"/>
</clipPath>
</defs>
</svg>
