<svg width="15" height="15" viewBox="0 0 15 15" fill="none" xmlns="http://www.w3.org/2000/svg">
<rect x="0.248047" y="0.48291" width="14.0568" height="14.0568" rx="7.02838" fill="#37DD4A"/>
<path d="M3.54941 9.09677C3.65925 9.20657 3.8082 9.26826 3.9635 9.26826C4.11881 9.26826 4.26776 9.20657 4.37759 9.09677L7.2768 6.19756L10.176 9.09677C10.2865 9.20346 10.4344 9.2625 10.588 9.26116C10.7416 9.25983 10.8885 9.19823 10.9971 9.08964C11.1056 8.98105 11.1672 8.83414 11.1686 8.68058C11.1699 8.52701 11.1109 8.37906 11.0042 8.2686L7.69089 4.9553C7.58105 4.8455 7.43211 4.78381 7.2768 4.78381C7.12149 4.78381 6.97255 4.8455 6.86271 4.9553L3.54941 8.2686C3.43961 8.37843 3.37793 8.52738 3.37793 8.68268C3.37793 8.83799 3.43961 8.98694 3.54941 9.09677Z" fill="#178D25"/>
</svg>
